<svg width="121" height="112" viewBox="0 0 121 112" fill="none" xmlns="http://www.w3.org/2000/svg">
<path d="M0.598955 63.2776C4.44693 89.9649 29.7511 111.862 56.7654 111.876C83.867 111.893 108.539 91.2363 117.107 65.5723C121.985 50.9724 121.679 33.2724 111.182 21.9992C98.5085 8.39644 59.2784 -1.29614 40.6798 1.22933C14.2283 4.82159 -2.87382 39.1811 0.598955 63.2776Z" fill="#41B729" style="fill:#41B729;fill:color(display-p3 0.2549 0.7176 0.1608);fill-opacity:1;"/>
<g clip-path="url(#clip0_13581_893)">
<path d="M82.7653 61.8545C91.5448 61.6459 92.9151 49.4663 84.5246 47.2404V44.0777C84.5627 38.036 79.1686 33.2083 73.1706 33.8989C67.5884 23.8342 52.7136 23.8377 47.1342 33.8989C41.1361 33.2086 35.7422 38.036 35.7802 44.0779V47.2405C27.3839 49.47 28.7666 61.6486 37.5395 61.8547H45.2022V63.1354L41.8843 66.4535C38.3066 64.6037 33.8417 67.3559 33.8959 71.4019C33.8959 74.4501 36.3758 76.93 39.424 76.93C43.4697 76.9837 46.2225 72.5193 44.3723 68.9415L48.2056 65.1082C48.5355 64.7783 48.7209 64.3308 48.7209 63.8642V61.8545H54.6243V66.9041L51.3708 70.1576C51.0409 70.4875 50.8554 70.935 50.8554 71.4016V75.5842C45.0048 77.6489 46.3349 86.2285 52.6148 86.3517C58.8958 86.2279 60.2238 77.6479 54.374 75.5842V72.1304L57.6276 68.8768C57.9575 68.5469 58.1429 68.0995 58.1429 67.6329V61.8545H62.162V67.6329C62.162 68.0995 62.3473 68.5469 62.6773 68.8768L65.9308 72.1304V75.5844C60.0803 77.6491 61.4102 86.2286 67.6902 86.3519C73.9711 86.228 75.2991 77.648 69.4494 75.5844V71.4017C69.4494 70.9351 69.264 70.4877 68.934 70.1577L65.6806 66.9042V61.8545H71.584V63.864C71.584 64.3306 71.7693 64.778 72.0993 65.108L75.9325 68.9412C74.0828 72.5189 76.8349 76.9838 80.8809 76.9296C83.9291 76.9296 86.4089 74.4497 86.4089 71.4016C86.4626 67.3558 81.9982 64.603 78.4205 66.4532L75.1026 63.1352V61.8545H82.7653ZM39.424 73.4111C38.316 73.4111 37.4145 72.5097 37.4145 71.4017C37.5155 68.7395 41.3329 68.7402 41.4336 71.4017C41.4334 72.5097 40.532 73.4111 39.424 73.4111ZM54.6243 80.8238C54.6243 81.9318 53.7229 82.8333 52.6148 82.8333C49.9527 82.7323 49.9534 78.9148 52.6148 78.8142C53.7229 78.8142 54.6243 79.7157 54.6243 80.8238ZM67.6901 78.8142C68.7981 78.8142 69.6996 79.7157 69.6996 80.8237C69.5985 83.4858 65.7812 83.4853 65.6806 80.8237C65.6806 79.7157 66.5819 78.8142 67.6901 78.8142ZM80.8808 69.3922C81.9888 69.3922 82.8903 70.2937 82.8903 71.4017C82.7893 74.064 78.972 74.0631 78.8712 71.4017C78.8713 70.2937 79.7728 69.3922 80.8808 69.3922ZM37.5395 58.3359C35.3924 58.3359 33.6456 56.5891 33.6456 54.442C33.6456 52.295 35.3925 50.5481 37.5395 50.5481C38.5111 50.5481 39.2988 49.7604 39.2988 48.7888V44.0777C39.2394 39.7627 43.518 36.4512 47.6775 37.5636C48.5061 37.7748 49.3666 37.3596 49.7169 36.5795C53.6961 27.6238 66.611 27.6275 70.588 36.5795C70.9382 37.3595 71.798 37.7745 72.6275 37.5635C76.7873 36.4512 81.0653 39.7628 81.0061 44.0776V48.7888C81.0061 49.7604 81.7938 50.5481 82.7654 50.5481C84.9126 50.5481 86.6593 52.2949 86.6593 54.442C86.6593 56.5892 84.9124 58.3359 82.7654 58.3359H37.5395Z" fill="#FBF4EE" style="fill:#FBF4EE;fill:color(display-p3 0.9843 0.9569 0.9333);fill-opacity:1;"/>
<path d="M54.6243 39.4919C51.5979 39.4919 49.0962 41.9375 49.0962 45.02V52.5577C49.1827 54.8895 52.5291 54.8877 52.6148 52.5577V50.5482H56.6339V52.5577C56.7204 54.8895 60.0667 54.8877 60.1525 52.5577V45.02C60.1523 41.9994 57.7123 39.4919 54.6243 39.4919ZM56.6337 47.0296H52.6147V45.02C52.7118 42.3588 56.5355 42.3562 56.6337 45.02V47.0296Z" fill="#FBF4EE" style="fill:#FBF4EE;fill:color(display-p3 0.9843 0.9569 0.9333);fill-opacity:1;"/>
<path d="M69.5745 43.0105C71.9063 42.924 71.9045 39.5777 69.5745 39.4919H63.9213C61.5895 39.5785 61.5913 42.9248 63.9213 43.0105H64.9886V50.7984H63.9213C61.5895 50.8849 61.5913 54.2312 63.9213 54.317H69.5745C71.9063 54.2304 71.9045 50.8841 69.5745 50.7984H68.5072V43.0105H69.5745Z" fill="#FBF4EE" style="fill:#FBF4EE;fill:color(display-p3 0.9843 0.9569 0.9333);fill-opacity:1;"/>
</g>
<defs>
<clipPath id="clip0_13581_893">
<rect width="60" height="60" fill="white" style="fill:white;fill-opacity:1;" transform="translate(30.1523 26.3518)"/>
</clipPath>
</defs>
</svg>
