<svg width="121" height="112" viewBox="0 0 121 112" fill="none" xmlns="http://www.w3.org/2000/svg">
<path d="M0.598955 63.3723C4.44693 90.0596 29.7511 111.957 56.7654 111.97C83.867 111.988 108.539 91.331 117.107 65.667C121.985 51.0672 121.679 33.3671 111.182 22.0939C98.5085 8.49117 59.2784 -1.20142 40.6798 1.32405C14.2283 4.91632 -2.87382 39.2758 0.598955 63.3723Z" fill="#41B729" style="fill:#41B729;fill:color(display-p3 0.2549 0.7176 0.1608);fill-opacity:1;"/>
<g clip-path="url(#clip0_13581_911)">
<path d="M79.7472 40.1807C80.4734 42.2265 82.4289 43.6963 84.7222 43.6963C87.6325 43.6963 90 41.3306 90 38.4229C90 35.5151 87.6325 33.1494 84.7222 33.1494C82.4288 33.1494 80.4734 34.6192 79.7472 36.665H72.116C71.6502 36.665 71.2034 36.85 70.8738 37.1791L64.2397 43.8052L60.8094 41.827C60.2659 41.5136 59.5966 41.5136 59.0532 41.827L55.7099 43.7549L49.1262 37.1791C48.7965 36.85 48.3498 36.665 47.884 36.665H40.2529C39.5266 34.6192 37.5711 33.1494 35.2778 33.1494C32.3675 33.1494 30 35.5151 30 38.4229C30 41.3306 32.3675 43.6963 35.2778 43.6963C37.5712 43.6963 39.5266 42.2265 40.2529 40.1807H47.1565L52.556 45.5736C52.5554 45.574 48.1087 48.1382 48.1082 48.1384C47.5781 48.4446 47.2296 49.0223 47.2296 49.6604V54.2432H40.2529C39.5266 52.1973 37.5711 50.7275 35.2778 50.7275C32.3675 50.7275 30 53.0932 30 56.001C30 58.9088 32.3675 61.2744 35.2778 61.2744C37.5712 61.2744 39.5266 59.8046 40.2529 57.7588H47.2296V62.3018C47.2296 62.9302 47.565 63.5107 48.1093 63.8245L52.5811 66.4031L47.1565 71.8213H40.2529C39.5266 69.7753 37.5711 68.3057 35.2778 68.3057C32.3675 68.3057 30 70.6713 30 73.5791C30 76.4869 32.3675 78.8525 35.2778 78.8525C37.5712 78.8525 39.5266 77.3829 40.2529 75.3369H47.884C48.3498 75.3369 48.7966 75.152 49.1262 74.8228L55.7351 68.2219C55.7483 68.2295 59.1207 70.1742 59.1207 70.1742C59.6044 70.4673 60.2996 70.5087 60.8782 70.1748L64.2647 68.2216L70.8738 74.8228C71.2035 75.152 71.6502 75.3369 72.116 75.3369H79.7472C80.4734 77.3829 82.4289 78.8525 84.7222 78.8525C87.6325 78.8525 90 76.4869 90 73.5791C90 70.6713 87.6325 68.3057 84.7222 68.3057C82.4288 68.3057 80.4734 69.7753 79.7472 71.8213H72.8435L67.4183 66.4028L71.822 63.8629C72.3663 63.5489 72.7016 62.9685 72.7016 62.3401V57.7588H79.7472C80.4734 59.8046 82.4289 61.2744 84.7222 61.2744C87.6325 61.2744 90 58.9088 90 56.001C90 53.0932 87.6325 50.7275 84.7222 50.7275C82.4288 50.7275 80.4734 52.1973 79.7472 54.2432H72.7016V49.7002C72.7016 49.1126 72.443 48.5914 71.8219 48.1774L67.3937 45.6239L72.8435 40.1807H79.7472ZM84.7222 36.665C85.6938 36.665 86.4844 37.4536 86.4844 38.4229C86.4844 39.3921 85.6938 40.1807 84.7222 40.1807C83.7506 40.1807 82.9601 39.3921 82.9601 38.4229C82.9601 37.4536 83.7506 36.665 84.7222 36.665ZM35.2778 40.1807C34.3062 40.1807 33.5156 39.3921 33.5156 38.4229C33.5156 37.4536 34.3062 36.665 35.2778 36.665C36.2494 36.665 37.0399 37.4536 37.0399 38.4229C37.0399 39.3921 36.2494 40.1807 35.2778 40.1807ZM35.2778 57.7588C34.3062 57.7588 33.5156 56.9702 33.5156 56.001C33.5156 55.0317 34.3062 54.2432 35.2778 54.2432C36.2494 54.2432 37.0399 55.0317 37.0399 56.001C37.0399 56.9702 36.2494 57.7588 35.2778 57.7588ZM35.2778 75.3369C34.3062 75.3369 33.5156 74.5484 33.5156 73.5791C33.5156 72.6098 34.3062 71.8213 35.2778 71.8213C36.2494 71.8213 37.0399 72.6098 37.0399 73.5791C37.0399 74.5484 36.2494 75.3369 35.2778 75.3369ZM84.7222 71.8213C85.6938 71.8213 86.4844 72.6098 86.4844 73.5791C86.4844 74.5484 85.6938 75.3369 84.7222 75.3369C83.7506 75.3369 82.9601 74.5484 82.9601 73.5791C82.9601 72.6098 83.7506 71.8213 84.7222 71.8213ZM84.7222 54.2432C85.6938 54.2432 86.4844 55.0317 86.4844 56.001C86.4844 56.9702 85.6938 57.7588 84.7222 57.7588C83.7506 57.7588 82.9601 56.9702 82.9601 56.001C82.9601 55.0317 83.7506 54.2432 84.7222 54.2432ZM58.2422 65.6094L50.7452 61.2863V52.7032L58.2422 57.0264V65.6094ZM69.186 61.3248L61.7578 65.6091V57.0264L69.186 52.7429V61.3248ZM67.425 49.7002L60 53.9817L52.5063 49.6604L59.9313 45.3789L67.425 49.7002Z" fill="#FBF4EE" style="fill:#FBF4EE;fill:color(display-p3 0.9843 0.9569 0.9333);fill-opacity:1;"/>
</g>
<defs>
<clipPath id="clip0_13581_911">
<rect width="60" height="60" fill="white" style="fill:white;fill-opacity:1;" transform="translate(30 26.001)"/>
</clipPath>
</defs>
</svg>
