<svg width="121" height="113" viewBox="0 0 121 113" fill="none" xmlns="http://www.w3.org/2000/svg">
<path d="M0.598955 63.4198C4.44693 90.1071 29.7511 112.005 56.7654 112.018C83.867 112.035 108.539 91.3785 117.107 65.7145C121.985 51.1146 121.679 33.4146 111.182 22.1414C98.5085 8.53866 59.2784 -1.15393 40.6798 1.37154C14.2283 4.96381 -2.87382 39.3233 0.598955 63.4198Z" fill="#41B729" style="fill:#41B729;fill:color(display-p3 0.2549 0.7176 0.1608);fill-opacity:1;"/>
<g clip-path="url(#clip0_13581_919)">
<path d="M84.5614 73.0828C85.423 71.9158 85.9336 70.4746 85.9336 68.9159C85.9336 65.0389 82.7794 61.8846 78.9023 61.8846C75.0253 61.8846 71.8711 65.0389 71.8711 68.9159C71.8711 70.4746 72.3817 71.9158 73.2432 73.0828C71.7597 73.6895 70.4769 74.6889 69.5273 75.9532C68.5778 74.6889 67.295 73.6894 65.8114 73.0828C66.673 71.9158 67.1836 70.4746 67.1836 68.9159C67.1836 65.0389 64.0294 61.8846 60.1523 61.8846C56.2753 61.8846 53.1211 65.0389 53.1211 68.9159C53.1211 70.4746 53.6317 71.9158 54.4932 73.0828C53.0096 73.6895 51.7269 74.6889 50.7773 75.9532C49.8278 74.6889 48.545 73.6894 47.0614 73.0828C47.923 71.9158 48.4336 70.4746 48.4336 68.9159C48.4336 65.0389 45.2794 61.8846 41.4023 61.8846C37.5253 61.8846 34.3711 65.0389 34.3711 68.9159C34.3711 70.4746 34.8817 71.9158 35.7432 73.0828C32.5359 74.3943 30.2695 77.547 30.2695 81.2206V84.7362C30.2695 85.707 31.0566 86.494 32.0273 86.494H88.2773C89.2481 86.494 90.0352 85.707 90.0352 84.7362V81.2206C90.0352 77.547 87.7687 74.3943 84.5614 73.0828ZM78.9023 65.4003C80.8409 65.4003 82.418 66.9774 82.418 68.9159C82.418 70.8544 80.8409 72.4315 78.9023 72.4315C76.9638 72.4315 75.3867 70.8544 75.3867 68.9159C75.3867 66.9774 76.9638 65.4003 78.9023 65.4003ZM60.1523 65.4003C62.0909 65.4003 63.668 66.9774 63.668 68.9159C63.668 70.8544 62.0909 72.4315 60.1523 72.4315C58.2138 72.4315 56.6367 70.8544 56.6367 68.9159C56.6367 66.9774 58.2138 65.4003 60.1523 65.4003ZM41.4023 65.4003C43.3409 65.4003 44.918 66.9774 44.918 68.9159C44.918 70.8544 43.3409 72.4315 41.4023 72.4315C39.4638 72.4315 37.8867 70.8544 37.8867 68.9159C37.8867 66.9774 39.4638 65.4003 41.4023 65.4003ZM33.7852 81.2206C33.7852 78.3128 36.1508 75.9471 39.0586 75.9471H43.7461C46.6539 75.9471 49.0195 78.3128 49.0195 81.2206V82.9784H33.7852V81.2206ZM52.5352 81.2206C52.5352 78.3128 54.9008 75.9471 57.8086 75.9471H62.4961C65.4039 75.9471 67.7695 78.3128 67.7695 81.2206V82.9784H52.5352V81.2206ZM86.5195 82.9784H71.2852V81.2206C71.2852 78.3128 73.6508 75.9471 76.5586 75.9471H81.2461C84.1539 75.9471 86.5195 78.3128 86.5195 81.2206V82.9784Z" fill="#FBF4EE" style="fill:#FBF4EE;fill:color(display-p3 0.9843 0.9569 0.9333);fill-opacity:1;"/>
<path d="M56.6367 58.369H63.668C64.6388 58.369 65.4258 57.582 65.4258 56.6112V39.3846H67.1836C68.6322 39.3846 69.4589 37.731 68.5898 36.5721L61.5586 27.1971C60.8555 26.2596 59.4492 26.2596 58.7461 27.1971L51.7148 36.5721C50.8458 37.731 51.6725 39.3846 53.1211 39.3846H54.8789V56.6112C54.8789 57.582 55.6659 58.369 56.6367 58.369ZM60.1523 31.1815L63.668 35.869C62.6972 35.869 61.9102 36.656 61.9102 37.6268V54.8534H58.3945V37.6268C58.3945 36.656 57.6075 35.869 56.6367 35.869L60.1523 31.1815Z" fill="#FBF4EE" style="fill:#FBF4EE;fill:color(display-p3 0.9843 0.9569 0.9333);fill-opacity:1;"/>
<path d="M73.6289 45.244V56.6112C73.6289 57.582 74.4159 58.369 75.3867 58.369H82.418C83.3888 58.369 84.1758 57.582 84.1758 56.6112V45.244H85.9336C87.3822 45.244 88.2089 43.5904 87.3398 42.4315L80.3086 33.0565C79.6055 32.119 78.1992 32.119 77.4961 33.0565L70.4648 42.4315C69.5958 43.5904 70.4225 45.244 71.8711 45.244H73.6289ZM78.9023 37.0409L82.418 41.7284C81.4472 41.7284 80.6602 42.5154 80.6602 43.4862V54.8534H77.1445V43.4862C77.1445 42.5154 76.3575 41.7284 75.3867 41.7284L78.9023 37.0409Z" fill="#FBF4EE" style="fill:#FBF4EE;fill:color(display-p3 0.9843 0.9569 0.9333);fill-opacity:1;"/>
<path d="M37.8867 58.369H44.918C45.8888 58.369 46.6758 57.582 46.6758 56.6112V45.244H48.4336C49.8822 45.244 50.7089 43.5904 49.8398 42.4315L42.8086 33.0565C42.1055 32.119 40.6992 32.119 39.9961 33.0565L32.9648 42.4315C32.0958 43.5904 32.9225 45.244 34.3711 45.244H36.1289V56.6112C36.1289 57.582 36.9159 58.369 37.8867 58.369ZM41.4023 37.0409L44.918 41.7284C43.9472 41.7284 43.1602 42.5154 43.1602 43.4862V54.8534H39.6445V43.4862C39.6445 42.5154 38.8575 41.7284 37.8867 41.7284L41.4023 37.0409Z" fill="#FBF4EE" style="fill:#FBF4EE;fill:color(display-p3 0.9843 0.9569 0.9333);fill-opacity:1;"/>
</g>
<defs>
<clipPath id="clip0_13581_919">
<rect width="60" height="60" fill="white" style="fill:white;fill-opacity:1;" transform="translate(30.1523 26.494)"/>
</clipPath>
</defs>
</svg>
