<svg width="121" height="112" viewBox="0 0 121 112" fill="none" xmlns="http://www.w3.org/2000/svg">
<path d="M0.598955 63.3249C4.44693 90.0122 29.7511 111.91 56.7654 111.923C83.867 111.94 108.539 91.2837 117.107 65.6196C121.985 51.0198 121.679 33.3197 111.182 22.0465C98.5085 8.44381 59.2784 -1.24878 40.6798 1.27669C14.2283 4.86896 -2.87382 39.2284 0.598955 63.3249Z" fill="#41B729" style="fill:#41B729;fill:color(display-p3 0.2549 0.7176 0.1608);fill-opacity:1;"/>
<g clip-path="url(#clip0_13581_903)">
<path d="M81.4139 63.3013C80.108 63.3013 78.9125 63.7794 77.9905 64.5684L74.4936 62.5495C75.346 60.6079 75.8204 58.4642 75.8204 56.2114C75.8204 53.9586 75.346 51.8149 74.4937 49.8732L77.9906 47.8543C78.9126 48.6433 80.1082 49.1215 81.414 49.1215C84.3218 49.1215 86.6874 46.7558 86.6874 43.848C86.6874 40.9403 84.3218 38.5746 81.414 38.5746C78.5062 38.5746 76.1405 40.9403 76.1405 43.848C76.1405 44.1771 76.1723 44.4987 76.2303 44.8112L72.7314 46.8313C70.1763 43.3725 66.2477 40.9879 61.758 40.4893V36.456C63.804 35.7303 65.2736 33.7765 65.2736 31.4849C65.2736 28.5771 62.908 26.2114 60.0002 26.2114C57.0924 26.2114 54.7268 28.5771 54.7268 31.4849C54.7268 33.7765 56.1964 35.7303 58.2424 36.456V40.4893C53.7527 40.9879 49.8241 43.3725 47.269 46.8313L43.7701 44.8112C43.828 44.4987 43.8599 44.1771 43.8599 43.848C43.8599 40.9403 41.4942 38.5746 38.5864 38.5746C35.6786 38.5746 33.313 40.9403 33.313 43.848C33.313 46.7558 35.6786 49.1215 38.5864 49.1215C39.8922 49.1215 41.0878 48.6433 42.0098 47.8543L45.5067 49.8732C44.6541 51.8149 44.1798 53.9586 44.1798 56.2114C44.1798 58.4642 44.6541 60.6079 45.5065 62.5496L42.0096 64.5685C41.0875 63.7795 39.892 63.3014 38.5862 63.3014C35.6784 63.3014 33.3127 65.6671 33.3127 68.5748C33.3127 71.4826 35.6784 73.8483 38.5862 73.8483C41.494 73.8483 43.8596 71.4826 43.8596 68.5748C43.8596 68.2458 43.8279 67.9242 43.7699 67.6117L47.2687 65.5916C49.8239 69.0504 53.7525 71.4349 58.2422 71.9335V75.9669C56.1962 76.6925 54.7265 78.6464 54.7265 80.938C54.7265 83.8458 57.0922 86.2114 60 86.2114C62.9077 86.2114 65.2734 83.8458 65.2734 80.938C65.2734 78.6464 63.8038 76.6925 61.7578 75.9669V71.9335C66.2475 71.4349 70.1761 69.0504 72.7312 65.5916L76.2301 67.6117C76.1722 67.9242 76.1403 68.2458 76.1403 68.5748C76.1403 71.4826 78.506 73.8483 81.4137 73.8483C84.3215 73.8483 86.6872 71.4826 86.6872 68.5748C86.6872 65.6671 84.3218 63.3013 81.4139 63.3013ZM81.4139 42.0903C82.3831 42.0903 83.1717 42.8789 83.1717 43.8481C83.1717 44.8174 82.3831 45.606 81.4139 45.606C80.4446 45.606 79.6561 44.8174 79.6561 43.8481C79.6561 42.8789 80.4446 42.0903 81.4139 42.0903ZM38.5863 45.606C37.617 45.606 36.8285 44.8174 36.8285 43.8481C36.8285 42.8789 37.617 42.0903 38.5863 42.0903C39.5556 42.0903 40.3441 42.8789 40.3441 43.8481C40.3441 44.8174 39.5556 45.606 38.5863 45.606ZM38.5863 70.3325C37.617 70.3325 36.8285 69.544 36.8285 68.5747C36.8285 67.6054 37.617 66.8169 38.5863 66.8169C39.5556 66.8169 40.3441 67.6054 40.3441 68.5747C40.3441 69.544 39.5556 70.3325 38.5863 70.3325ZM60.0001 29.7271C60.9693 29.7271 61.7579 30.5156 61.7579 31.4849C61.7579 32.4541 60.9693 33.2427 60.0001 33.2427C59.0308 33.2427 58.2423 32.4541 58.2423 31.4849C58.2423 30.5156 59.0308 29.7271 60.0001 29.7271ZM60.0001 57.9692C58.0616 57.9692 56.4845 56.3921 56.4845 54.4536C56.4845 52.5151 58.0616 50.938 60.0001 50.938C61.9386 50.938 63.5157 52.5151 63.5157 54.4536C63.5157 56.3921 61.9386 57.9692 60.0001 57.9692ZM57.5701 61.4849H62.4302C65.0323 61.4849 67.1925 63.411 67.5611 65.9122C65.4734 67.543 62.8483 68.5161 60.0001 68.5161C57.1518 68.5161 54.5267 67.543 52.439 65.9122C52.8078 63.411 54.9679 61.4849 57.5701 61.4849ZM60.0001 82.6958C59.0308 82.6958 58.2423 81.9072 58.2423 80.938C58.2423 79.9687 59.0308 79.1802 60.0001 79.1802C60.9693 79.1802 61.7579 79.9687 61.7579 80.938C61.7579 81.9072 60.9693 82.6958 60.0001 82.6958ZM70.293 62.9457C69.357 60.9787 67.7042 59.4177 65.6745 58.599C66.5266 57.4357 67.0313 56.0028 67.0313 54.4536C67.0313 50.5766 63.8771 47.4224 60.0001 47.4224C56.1231 47.4224 52.9688 50.5766 52.9688 54.4536C52.9688 56.0028 53.4736 57.4357 54.3256 58.599C52.2959 59.4177 50.643 60.9787 49.7072 62.9457C48.436 61.0096 47.6954 58.6956 47.6954 56.2114C47.6954 49.4266 53.2153 43.9067 60.0001 43.9067C66.7849 43.9067 72.3048 49.4266 72.3048 56.2114C72.3048 58.6956 71.5641 61.0096 70.293 62.9457ZM81.4139 70.3325C80.4446 70.3325 79.6561 69.544 79.6561 68.5747C79.6561 67.6054 80.4446 66.8169 81.4139 66.8169C82.3831 66.8169 83.1717 67.6054 83.1717 68.5747C83.1717 69.544 82.3832 70.3325 81.4139 70.3325Z" fill="#FBF4EE" style="fill:#FBF4EE;fill:color(display-p3 0.9843 0.9569 0.9333);fill-opacity:1;"/>
</g>
<defs>
<clipPath id="clip0_13581_903">
<rect width="60" height="60" fill="white" style="fill:white;fill-opacity:1;" transform="translate(30 26.2114)"/>
</clipPath>
</defs>
</svg>
