<svg width="30" height="30" viewBox="0 0 30 30" fill="none" xmlns="http://www.w3.org/2000/svg">
<g clip-path="url(#clip0_13581_191)">
<path d="M29.8017 14.5213L22.9837 7.70318C22.7388 7.41719 22.3084 7.38385 22.0224 7.62882C21.7364 7.87374 21.703 8.30416 21.948 8.59015C21.9709 8.61681 21.9957 8.64172 22.0224 8.66451L27.6745 14.3235H0.681785C0.305268 14.3235 0 14.6288 0 15.0054C0 15.3819 0.305268 15.6871 0.681785 15.6871H27.6745L22.0224 21.3393C21.7364 21.5842 21.703 22.0146 21.948 22.3006C22.193 22.5866 22.6234 22.6199 22.9093 22.375C22.936 22.3521 22.9609 22.3273 22.9837 22.3006L29.8018 15.4825C30.0661 15.2167 30.0661 14.7872 29.8017 14.5213Z" fill="white" style="fill:white;fill-opacity:1;"/>
</g>
<defs>
<clipPath id="clip0_13581_191">
<rect width="30" height="30" fill="white" style="fill:white;fill-opacity:1;"/>
</clipPath>
</defs>
</svg>
