<svg width="376" height="541" viewBox="0 0 376 541" fill="none" xmlns="http://www.w3.org/2000/svg">
<path d="M0.231873 262.168C0.671631 256.319 3.70593 252.669 8.0155 251.768C10.1923 251.284 12.3251 251.438 14.282 251.921C16.2169 252.405 18.1078 253.175 19.8669 254.076C21.6699 254.978 23.319 256.033 25.078 257.154C26.771 258.298 28.53 259.529 30.333 260.848C33.917 263.487 37.9408 266.411 41.9425 269.05C43.8994 270.391 45.9003 271.578 47.6813 272.722C49.5723 273.777 51.1993 274.855 52.5846 275.646C53.9918 276.438 55.2011 277.141 56.2785 277.757C57.3779 278.307 58.3453 278.79 59.1589 279.208C60.786 280.066 61.9293 280.505 62.6769 280.857L64.1721 281.517C64.1721 281.517 64.1721 281.517 65.6892 282.177C66.4588 282.462 67.6241 282.902 69.3612 283.562C70.2187 283.914 71.2741 284.199 72.4834 284.617C73.6927 284.991 75.078 285.497 76.705 285.892C78.3102 286.31 80.289 286.926 82.5318 287.432C84.7745 288.047 87.3031 288.531 89.9856 289.125C92.6681 289.586 95.5485 290.18 98.4509 290.51C101.375 290.972 104.344 291.169 107.246 291.433C109.181 291.543 111.072 291.653 112.897 291.719C111.731 291.323 110.566 290.884 109.379 290.4C106.74 289.432 104.124 288.223 101.507 286.992C98.8466 285.804 96.362 284.375 93.9654 283.034C91.5247 281.715 89.348 280.286 87.3911 278.988C85.4122 277.691 83.6751 276.504 82.3339 275.404C79.6294 273.271 77.5186 271.71 76.0674 270.391C74.5942 269.116 73.6048 268.258 72.9451 267.687L71.6259 266.543C71.6259 266.543 71.6039 266.565 70.3286 265.356C69.691 264.74 68.7455 263.839 67.3163 262.475C66.6127 261.794 65.7772 260.98 64.7877 260.057C63.8643 259.067 62.8088 257.946 61.5775 256.649C60.3682 255.352 58.873 253.79 57.4218 251.811C55.9706 249.855 54.2556 247.744 52.7824 245.281C51.3312 242.797 49.6822 240.29 48.4729 237.476C47.2415 234.661 45.9663 231.891 45.2407 228.944C44.4491 226.042 43.8115 223.249 43.7455 220.479C43.6575 217.731 43.6575 215.312 44.3611 213.047C45.5925 208.606 48.165 205.681 52.1008 204.846C56.0366 204.01 59.7086 205.373 62.7429 207.726C64.1721 208.914 65.8651 210.321 67.2064 211.926C68.5036 213.553 70.0208 215.29 71.2961 217.181C72.5054 219.094 73.9786 221.007 75.1879 223.008C76.3532 225.03 77.7825 226.943 78.8818 228.9C80.0032 230.835 81.2565 232.616 82.2239 234.309C83.1694 236.024 84.1808 237.454 84.9064 238.707C85.654 239.96 86.3137 241.038 86.8853 242.005C87.523 242.928 88.0507 243.72 88.5124 244.402C89.4359 245.765 90.0516 246.688 90.4693 247.304C91.3049 248.535 91.3268 248.513 91.3268 248.513L92.2064 249.701C92.6461 250.294 93.3277 251.174 94.3172 252.515C95.2846 253.878 96.7798 255.549 98.6707 257.858C99.5942 259.023 100.804 260.409 102.167 261.948C103.508 263.509 104.959 265.312 106.63 267.093C108.257 268.896 109.928 270.875 111.753 272.7C113.534 274.591 115.315 276.526 117.14 278.285C118.855 280.022 120.505 281.715 122.088 283.188C122 282.264 121.912 281.341 121.824 280.439C121.45 277.625 121.164 274.855 120.658 272.26C120.263 269.643 119.713 267.203 119.295 265.004C118.811 262.827 118.372 260.87 118.02 259.287C117.184 256.121 116.613 253.768 116.019 252.053C115.469 250.316 115.139 249.151 114.832 248.403L114.282 246.886L113.732 245.369C113.49 244.6 113.007 243.478 112.303 241.829C111.643 240.136 110.61 237.959 109.225 235.079C108.477 233.672 107.62 231.913 106.652 229.956C105.619 228.043 104.585 225.866 103.354 223.645C102.167 221.403 100.913 219.05 99.6602 216.675C98.3189 214.344 97.1536 211.992 95.7464 209.287C93.1299 204.054 91.2169 198.865 90.7332 194.446C90.5353 192.731 90.5793 191.147 90.8651 189.718C89.6778 187.563 88.5124 185.431 87.4131 183.364C85.9839 180.703 84.7306 178.087 83.6092 175.756C82.4658 173.425 81.5204 171.293 80.7948 169.556C77.7605 162.563 76.4632 158.957 75.7156 157.176L75.012 155.395L74.3524 153.592C74.0225 152.691 73.5168 151.328 72.7693 149.305C71.9777 147.282 71.0982 144.534 69.8449 140.862C69.2072 139.037 68.5476 136.75 67.866 134.199C67.1624 131.649 66.4588 128.768 65.9091 125.712C65.2934 122.678 64.7657 119.446 64.4799 116.169C64.304 114.542 64.1721 112.893 64.0621 111.266C64.0182 109.617 63.9962 107.99 63.9962 106.385C63.9962 104.78 64.0621 103.219 64.1941 101.702C64.348 100.162 64.5458 98.6892 64.8097 97.282C65.3154 94.4456 65.9971 91.8951 67.0305 89.7403C69.0314 85.4087 71.9337 82.7922 75.6716 82.7262C79.4095 82.6602 82.5098 85.1228 84.8185 88.9047C85.9399 90.7957 87.0392 93.0164 87.9627 95.479C88.4245 96.7104 88.8423 97.9856 89.216 99.3049C89.6338 100.624 90.0516 101.987 90.4034 103.373C90.7772 104.758 91.107 106.187 91.4148 107.616C91.7666 109.045 92.0964 110.475 92.4043 111.926C92.9759 114.806 93.5256 117.687 94.0533 120.435C94.537 123.184 94.9988 125.822 95.4166 128.175C95.7903 130.571 96.1422 132.682 96.406 134.441C96.9777 137.937 97.3295 140.598 97.7253 142.555C98.0991 144.534 98.3409 145.853 98.4948 146.732L98.8246 148.491L99.1765 150.25C99.5942 152.009 100.188 155.527 101.903 162.563C102.694 166.125 103.86 171.227 105.113 176.899C105.773 179.912 106.454 183.078 107.158 186.244C107.532 186.486 107.906 186.75 108.257 187.014C108.565 185.101 108.829 183.166 109.159 181.363C109.533 178.856 109.906 176.482 110.236 174.327C110.566 172.172 110.874 170.259 111.116 168.676C112.193 162.41 112.479 159.177 112.743 157.616L112.941 156.033L113.117 154.428C113.293 152.823 113.71 149.657 114.304 143.214C114.942 136.794 116.393 124.745 119.163 114.279C121.648 104.868 125.54 96.8643 130.861 95.8089C130.047 95.2812 129.168 94.6875 128.156 93.9399C126.925 93.0604 125.518 92.0709 123.979 90.7957C120.834 88.377 116.547 84.4192 112.523 79.2301C108.499 74.085 104.893 67.6426 102.914 61.1782C100.891 54.7359 100.54 48.4254 101.661 43.808C102.76 39.1686 105.267 36.2002 108.719 35.6066C110.478 35.2987 112.193 35.6066 113.798 36.3102C115.425 37.0138 116.921 38.1571 118.438 39.5204C119.889 40.9056 121.384 42.5107 122.791 44.2697C123.539 45.1272 124.22 46.0507 124.924 46.9742C125.672 47.8757 126.353 48.8432 127.057 49.7886C128.442 51.6576 129.893 53.5925 131.344 55.5274C132.796 57.4184 134.225 59.3093 135.654 61.0903C137.061 62.8933 138.49 64.5424 139.744 66.1035C141.063 67.6426 142.25 69.0059 143.218 70.1272C144.163 71.2926 145.087 72.2381 145.9 73.0956C146.692 73.9531 147.395 74.6787 148.011 75.2943C149.242 76.5037 150.078 77.3612 150.65 77.8449L151.771 78.8783L152.892 79.9337C153.464 80.4615 154.278 81.0771 155.553 82.1105C156.169 82.6382 156.916 83.2319 157.906 83.8915C158.873 84.5512 159.928 85.3867 161.248 86.2002C162.611 86.9918 164.128 88.1571 166.041 89.2565C166.986 89.8502 167.976 90.4658 169.009 91.1035C170.087 91.7191 171.186 92.3568 172.329 93.0164C174.616 94.3357 177.079 95.6989 179.607 96.9962C182.136 98.3155 184.709 99.6127 187.237 100.844C187.501 100.976 187.743 101.086 187.985 101.196C186.687 99.7886 185.39 98.3594 184.137 96.8863C182.246 94.7315 180.465 92.5327 178.794 90.3999C177.079 88.2891 175.584 86.2002 174.22 84.3093C172.857 82.4184 171.692 80.7033 170.79 79.2741C167.096 73.5573 165.425 70.589 164.524 69.1378L163.644 67.6646L162.809 66.1914C161.995 64.6963 160.214 61.7719 157.026 55.7253C156.213 54.2301 155.289 52.3612 154.322 50.2064C153.354 48.0736 152.321 45.6989 151.375 43.1483C150.43 40.5978 149.484 37.8933 148.737 35.1228C147.945 32.3524 147.286 29.538 146.868 26.7675C146.406 23.9971 146.164 21.3146 146.186 18.764C146.186 16.2354 146.428 13.9047 147.022 11.8379C148.143 7.72619 150.408 4.82381 153.97 3.96629C157.532 3.10877 160.896 4.55996 163.82 7.39637C165.271 8.80358 166.701 10.5406 167.998 12.5195C169.273 14.4984 170.505 16.6972 171.67 19.0059C172.791 21.3146 173.891 23.7552 174.902 26.1739C175.87 28.6145 176.837 31.0331 177.694 33.3858C178.53 35.7385 179.322 37.9593 180.025 39.9821C180.685 42.027 181.278 43.83 181.784 45.3251C183.653 51.3278 184.775 54.2741 185.258 55.7913L185.764 57.2864L186.314 58.7596C186.885 60.2328 187.897 63.2231 190.315 69.0718C191.481 72.0402 193.174 76.3058 195.043 81.0331C196.912 85.7825 199.023 91.0375 201.023 95.9408C201.331 96.7323 201.639 97.5019 201.947 98.2715C202.497 96.4465 203.046 94.5336 203.574 92.5327C204.278 90.202 204.871 87.7394 205.443 85.3207C206.103 82.9461 206.498 80.5274 207.004 78.2847C207.554 76.0639 207.774 73.8871 208.147 72.0182C208.543 70.1272 208.697 68.4342 208.917 67.0709C209.401 64.3445 209.577 62.2996 209.687 60.7605C209.818 59.2213 209.928 58.2099 209.972 57.5503V56.187C209.972 56.187 209.994 56.187 210.038 54.8238C210.038 54.1422 210.082 53.1308 210.126 51.6356C210.06 50.1404 209.972 48.1176 209.84 45.4571C209.511 42.7965 209.379 39.0147 209.027 34.815C208.763 30.6154 208.433 25.998 208.477 21.4905C208.609 19.2257 208.565 17.027 208.917 14.8942C209.071 13.8388 209.291 12.7834 209.555 11.7719C209.775 10.7605 210.06 9.79303 210.412 8.86954C211.819 5.15363 214.392 2.05336 218.394 0.64615C222.395 -0.761062 226.265 0.184408 229.717 2.95486C230.575 3.63647 231.432 4.42803 232.246 5.32953C233.015 6.23102 233.741 7.24246 234.423 8.31985C235.786 10.4966 237.171 12.9373 238.073 15.6637C238.996 18.3682 239.986 21.2046 240.425 24.151C240.909 27.0753 241.437 29.9997 241.481 32.8581C241.569 35.6945 241.723 38.377 241.481 40.8176C241.305 43.2583 241.085 45.4131 240.865 47.1721C240.205 50.6681 239.7 53.2847 239.326 55.2416C238.82 57.1765 238.49 58.4518 238.271 59.3093L237.831 61.0243L237.369 62.7174C237.127 63.5529 236.687 64.8062 236.072 66.6752C235.456 68.5441 234.643 71.0287 233.279 74.217C232.62 75.8221 231.828 77.779 230.685 79.8458C229.563 81.9126 228.442 84.2653 226.903 86.5301C225.43 88.8168 223.935 91.2354 222.154 93.4782C220.439 95.7429 218.702 97.9856 216.855 99.9865C215.052 102.031 213.271 103.922 211.49 105.505C209.731 107.133 208.147 108.562 206.608 109.617C206.52 109.683 206.41 109.749 206.322 109.815C207.29 112.849 207.598 115.004 206.63 115.73C205.575 116.521 203.376 115.356 200.342 113.047C199.902 112.717 199.44 112.344 198.979 111.97C195.109 112.278 190.03 112.432 184.511 112.234C181.542 112.124 178.442 111.97 175.342 111.64C172.242 111.354 169.163 110.914 166.217 110.387C164.744 110.101 163.315 109.815 161.929 109.551C160.544 109.199 159.225 108.87 157.95 108.562C155.421 107.946 153.2 107.111 151.375 106.517C149.55 105.879 147.967 105.154 146.56 104.604C145.175 104.054 143.965 103.483 142.932 102.955C141.019 101.987 139.656 101.328 138.776 100.844C140.777 104.736 141.811 110.519 142.096 116.807C142.36 122.304 142.096 128.197 141.591 133.54C141.085 138.905 140.315 143.72 139.656 147.04C138.337 153.702 137.545 157.045 137.171 158.716L136.797 160.387L136.402 162.058C135.94 163.729 135.28 167.049 133.433 173.711C132.972 175.382 132.444 177.383 131.652 179.648C131.278 180.703 130.905 181.803 130.509 182.946C131.081 182.506 131.652 182.045 132.224 181.627C133.961 180.395 135.5 179.076 136.929 177.977C138.38 176.899 139.634 175.932 140.645 175.096C142.712 173.513 144.273 172.37 145.373 171.381C146.494 170.457 147.242 169.819 147.725 169.424L148.715 168.61L149.66 167.731C150.144 167.291 150.848 166.631 151.903 165.664C153.002 164.718 154.344 163.333 156.147 161.53C157.07 160.651 158.169 159.551 159.423 158.342C160.698 157.176 162.127 155.857 163.622 154.494C165.14 153.131 166.811 151.789 168.46 150.338C169.295 149.635 170.175 148.953 171.054 148.293C171.934 147.612 172.769 146.908 173.649 146.271C174.528 145.611 175.43 144.995 176.353 144.402C177.233 143.786 178.09 143.192 178.992 142.665C180.751 141.587 182.598 140.686 184.247 139.96C187.633 138.553 190.887 138.135 193.614 139.608C196.34 141.081 197.571 144.094 197.725 148.162C197.835 150.206 197.505 152.405 196.978 154.78C196.714 155.967 196.384 157.176 195.988 158.408C195.548 159.617 195.065 160.826 194.537 162.058C193.987 163.289 193.438 164.542 192.778 165.752C192.118 166.939 191.393 168.126 190.667 169.292C189.238 171.644 187.567 173.799 185.896 175.8C184.269 177.823 182.51 179.56 180.905 181.099C179.322 182.66 177.804 183.935 176.485 184.903C173.891 186.86 171.956 188.333 170.417 189.3C168.899 190.312 167.888 190.972 167.206 191.411L165.843 192.291L164.436 193.104C163.732 193.5 162.699 194.116 161.116 195.017C159.555 195.941 157.378 197.018 154.519 198.447C153.09 199.173 151.287 199.943 149.22 200.712C147.154 201.504 144.867 202.317 142.382 202.955C139.898 203.636 137.325 204.318 134.643 204.736C133.323 204.956 131.982 205.176 130.663 205.395C129.344 205.571 128.002 205.659 126.705 205.769C126.089 205.813 125.518 205.835 124.902 205.879C125.935 207.506 126.903 209.155 127.738 210.804C129.278 213.575 130.443 216.345 131.52 218.808C132.532 221.315 133.301 223.601 133.939 225.47C135.06 229.274 135.874 232.111 136.336 234.287C136.863 236.442 137.193 237.871 137.369 238.839L137.743 240.774L138.117 242.709C138.315 243.654 138.512 245.127 138.82 247.304C139.172 249.481 139.458 252.405 139.81 256.275C140.03 260.167 140.205 265.796 139.568 271.952C139.15 276.57 138.38 281.473 137.259 286.156C137.721 285.519 138.205 284.859 138.644 284.133C139.216 283.21 139.81 282.264 140.403 281.297C141.657 279.45 142.712 277.361 143.811 275.36C144.977 273.425 145.79 271.271 146.736 269.402C147.725 267.555 148.297 265.554 149.023 263.927C149.748 262.3 150.21 260.76 150.672 259.529C151.111 258.32 151.507 257.242 151.837 256.319C152.101 255.352 152.343 254.538 152.541 253.834C152.936 252.449 153.2 251.504 153.376 250.888C153.552 250.272 153.574 249.943 153.618 249.789V249.635C153.618 249.635 153.64 249.635 153.904 248.359C154.036 247.722 154.234 246.798 154.519 245.369C154.827 243.962 154.959 242.027 155.311 239.52C155.531 238.267 155.531 236.706 155.751 235.013C155.861 234.155 155.971 233.254 156.081 232.33C156.125 231.385 156.212 230.417 156.3 229.428C156.388 228.439 156.52 227.427 156.652 226.394C156.718 225.36 156.784 224.305 156.894 223.271C157.004 222.216 157.158 221.161 157.312 220.105C157.4 219.05 157.51 218.016 157.664 216.983C157.818 215.95 158.037 214.916 158.235 213.905C158.389 212.915 158.587 211.926 158.829 210.958C159.335 209.045 160.038 207.22 160.786 205.593C162.369 202.361 164.898 199.701 168.57 198.755C172.242 197.81 175.628 199.129 178.53 202.207C180.047 203.724 181.191 205.703 182.224 207.99C182.73 209.133 183.213 210.343 183.653 211.596C184.049 212.871 184.335 214.191 184.621 215.554C184.906 216.917 185.126 218.302 185.346 219.731C185.5 221.139 185.544 222.568 185.588 223.997C185.632 225.426 185.654 226.855 185.632 228.263C185.522 229.67 185.412 231.055 185.258 232.396C185.104 233.738 184.928 235.057 184.775 236.31C184.533 237.563 184.269 238.751 184.005 239.894C183.455 242.159 183.037 244.182 182.422 245.765C181.256 248.953 180.509 251.372 179.717 253.087C178.948 254.824 178.442 255.967 178.09 256.737L177.409 258.276L177.321 258.474C177.211 258.65 177.101 259.067 176.683 259.793C176.287 260.541 175.694 261.64 174.814 263.311C174.374 264.147 173.847 265.092 173.231 266.235C172.703 267.071 172.11 268.016 171.45 269.028C171.538 269.072 171.626 269.116 171.714 269.182C173.275 270.127 174.792 271.424 176.199 273.03C177.629 274.613 179.102 276.416 180.333 278.439C181.586 280.461 182.862 282.572 183.873 284.815C184.884 287.058 185.918 289.279 186.643 291.499C187.391 293.72 188.095 295.831 188.578 297.788C189.062 299.745 189.436 301.504 189.722 302.955C190.227 305.879 190.513 308.1 190.755 309.727C191.019 311.376 191.063 312.497 191.151 313.223L191.283 314.696L191.415 316.169C191.503 316.895 191.591 318.016 191.657 319.688C191.679 321.359 191.921 323.579 191.855 326.57C191.833 328.065 191.811 329.868 191.657 331.913C191.437 333.957 191.217 336.2 190.843 338.553C190.381 340.906 189.964 343.346 189.282 345.765C188.556 348.184 187.941 350.58 186.995 352.823C186.951 352.955 186.885 353.065 186.841 353.175C187.457 352.383 188.073 351.614 188.71 350.822C190.161 349.085 191.481 347.238 192.734 345.523C194.031 343.852 195.153 342.159 196.164 340.664C197.22 339.191 198.121 337.871 198.803 336.772C200.232 334.573 201.331 332.968 202.035 331.671C202.76 330.395 203.244 329.56 203.574 329.01L204.234 327.889L204.805 326.724C205.091 326.152 205.531 325.272 206.191 323.975C206.894 322.7 207.62 320.919 208.653 318.566C209.203 317.401 209.775 315.972 210.434 314.344C211.116 312.739 211.929 311.002 212.655 309.111C213.446 307.242 214.348 305.329 215.139 303.351C215.557 302.361 216.019 301.394 216.503 300.426C216.943 299.459 217.36 298.491 217.822 297.546C218.284 296.6 218.789 295.677 219.295 294.797C219.779 293.896 220.241 293.016 220.768 292.181C221.12 291.609 221.516 291.082 221.89 290.554C219.801 287.607 217.69 284.683 215.733 281.627L214.876 280.329C214.458 279.67 213.798 278.702 212.853 277.229C211.863 275.778 210.676 273.755 209.027 271.073C208.213 269.731 207.202 268.126 206.256 266.169C205.289 264.235 204.234 262.08 203.222 259.793C202.211 257.484 201.309 254.934 200.452 252.405C199.572 249.899 198.957 247.15 198.429 244.556C197.901 241.983 197.615 239.344 197.637 236.882C197.659 234.419 197.923 232.176 198.627 230.11C199.946 226.02 202.079 223.425 205.091 222.766C208.103 222.128 211.27 223.491 214.238 225.734C215.645 226.855 217.25 228.263 218.614 229.846C219.317 230.637 219.955 231.495 220.57 232.374C221.208 233.254 221.912 234.177 222.549 235.145C223.869 237.058 224.968 239.059 226.243 241.081C227.475 243.104 228.53 245.171 229.607 247.128C230.707 249.085 231.674 250.998 232.532 252.713C233.389 254.45 234.137 256.011 234.753 257.286C235.962 259.859 236.819 261.816 237.545 263.267C238.271 264.718 238.754 265.664 239.062 266.301L239.7 267.577C241.569 271.468 243.723 275.228 245.724 279.076C247.879 282.836 249.924 286.684 252.211 290.4L252.958 291.631C253.706 292.885 255.157 295.369 258.257 300.272C258.697 300.998 259.203 301.812 259.731 302.691C259.555 301.196 259.401 299.745 259.291 298.381C259.071 295.985 258.895 293.83 258.829 292.071C258.477 285.013 258.455 281.451 258.389 279.692L258.345 277.911V276.13C258.345 274.349 258.235 270.787 258.411 263.641C258.411 261.86 258.565 259.683 258.763 257.242C258.939 254.802 259.225 252.097 259.687 249.283C260.082 246.446 260.632 243.5 261.336 240.576C261.995 237.629 262.853 234.727 263.864 231.979C264.832 229.208 265.997 226.614 267.272 224.305C268.548 221.996 269.933 219.973 271.494 218.368C274.572 215.158 278.046 213.641 281.652 214.63C285.258 215.62 287.567 218.654 288.754 222.744C289.326 224.789 289.722 227.097 289.876 229.56C290.03 232.023 289.986 234.661 289.876 237.366C289.722 240.07 289.436 242.84 289.128 245.589C288.776 248.337 288.38 251.042 287.985 253.636C287.545 256.209 287.105 258.672 286.731 260.892C286.292 263.113 285.896 265.07 285.588 266.697C284.203 273.184 283.697 276.482 283.389 278.109L283.081 279.758L282.818 281.407C282.576 283.056 281.96 286.332 281.059 292.994C280.817 294.665 280.509 296.688 280.179 298.975C279.827 301.262 279.432 303.812 278.992 306.495C278.464 309.639 277.914 312.981 277.387 316.301C279.344 313.377 281.322 310.387 283.169 307.616C284.489 305.681 285.72 303.834 286.863 302.163C288.007 300.514 289.018 299.063 289.854 297.854C293.24 293.104 294.757 290.62 295.57 289.432L296.362 288.223L297.132 286.992C297.879 285.739 299.506 283.342 302.409 278.307C303.882 275.822 306.037 272.26 308.521 268.368C311.028 264.498 313.886 260.277 316.811 256.473C319.779 252.691 322.835 249.305 325.935 247.172C328.992 245.039 332.158 244.16 335.016 245.435C337.875 246.71 339.282 249.635 339.568 253.549C339.744 255.505 339.546 257.682 339.15 259.991C338.776 262.322 338.117 264.762 337.281 267.225C336.49 269.709 335.456 272.216 334.335 274.657C333.257 277.119 332.004 279.472 330.773 281.693C329.563 283.936 328.266 285.958 327.079 287.783C325.913 289.608 324.792 291.213 323.825 292.467C320.043 297.59 317.998 300.009 317.03 301.284L316.041 302.537L315.03 303.746C313.996 304.956 312.039 307.462 307.818 312.168C306.784 313.377 305.443 314.762 303.904 316.301C302.365 317.841 300.672 319.534 298.759 321.205C296.89 322.898 294.889 324.657 292.778 326.306C291.657 327.207 290.535 328.087 289.392 328.944C291.305 328.395 293.24 327.757 295.131 327.141C297.329 326.482 299.484 325.712 301.507 325.03C303.552 324.415 305.443 323.667 307.136 323.074C308.851 322.524 310.368 322.018 311.577 321.534C314.04 320.699 315.887 320.105 317.228 319.512C318.592 318.984 319.493 318.632 320.087 318.412L321.296 317.95L322.483 317.423C323.077 317.159 323.957 316.763 325.276 316.191C326.617 315.664 328.332 314.762 330.619 313.619C331.784 313.091 333.169 312.388 334.731 311.64C336.314 310.936 338.095 310.167 339.942 309.331C341.811 308.518 343.833 307.792 345.856 306.957C346.868 306.561 347.923 306.187 348.979 305.857C350.012 305.483 351.045 305.11 352.101 304.78C353.156 304.45 354.212 304.142 355.267 303.878C356.3 303.57 357.312 303.285 358.323 303.065C360.346 302.603 362.369 302.361 364.172 302.185C367.822 301.943 371.054 302.581 373.165 304.868C375.276 307.155 375.474 310.387 374.33 314.301C373.781 316.279 372.769 318.258 371.516 320.325C370.878 321.359 370.197 322.414 369.427 323.447C368.636 324.437 367.778 325.448 366.877 326.438C365.975 327.427 365.03 328.439 364.04 329.362C363.029 330.264 361.973 331.165 360.918 332.023C358.807 333.804 356.542 335.299 354.322 336.64C352.123 338.047 349.902 339.125 347.901 340.07C345.9 341.038 344.053 341.785 342.492 342.269C339.414 343.302 337.105 344.072 335.324 344.49C333.565 344.951 332.4 345.259 331.608 345.457L330.047 345.853L328.464 346.183C327.672 346.337 326.485 346.578 324.704 346.952C322.945 347.348 320.526 347.656 317.338 348.096C315.755 348.337 313.798 348.469 311.577 348.535C309.379 348.623 306.938 348.667 304.366 348.469C301.793 348.315 299.132 348.14 296.472 347.678C295.153 347.458 293.811 347.238 292.492 347.018C291.173 346.754 289.876 346.403 288.622 346.095C287.369 345.765 286.138 345.413 284.95 345.105C283.763 344.731 282.642 344.292 281.564 343.896C280.289 343.412 279.124 342.928 278.024 342.445C277.079 344.05 276.023 345.655 274.836 347.26C273.297 349.371 271.582 351.416 269.823 353.395C268.899 354.384 268.086 355.286 267.052 356.297C265.975 357.308 264.898 358.32 263.82 359.265C261.687 361.178 259.445 362.739 257.488 364.213C255.421 365.554 253.574 366.697 252.013 367.599C248.825 369.248 246.472 370.523 244.603 371.271C242.778 372.084 241.547 372.612 240.733 372.964L239.062 373.601L237.391 374.217C236.556 374.503 235.324 375.052 233.411 375.602C231.498 376.174 228.992 377.031 225.54 377.801C224.682 377.999 223.737 378.219 222.703 378.461C221.648 378.636 220.526 378.812 219.339 378.988C216.964 379.384 214.304 379.582 211.534 379.736C208.741 379.824 205.817 379.846 202.914 379.648C201.463 379.538 200.012 379.406 198.583 379.296C197.154 379.12 195.724 378.878 194.361 378.636C191.701 378.241 189.172 377.515 186.885 376.899C186.775 377.207 186.687 377.515 186.556 377.845C185.808 379.714 184.862 381.693 183.741 383.65C183.213 384.661 182.62 385.629 182.026 386.618C181.454 387.651 180.817 388.641 180.201 389.63C178.97 391.609 177.716 393.676 176.441 395.743C175.21 397.788 173.979 399.811 172.857 401.789C171.714 403.746 170.68 405.703 169.713 407.44C168.767 409.243 167.954 410.848 167.272 412.146C166.547 413.465 165.997 414.674 165.513 415.73C165.008 416.785 164.59 417.709 164.26 418.5C163.6 420.105 163.095 421.183 162.853 421.886L162.303 423.315L161.753 424.745C161.468 425.47 161.226 426.46 160.72 428.021C160.456 428.79 160.192 429.714 159.928 430.857C159.665 432.001 159.291 433.276 159.005 434.815C158.763 436.376 158.257 438.223 157.928 440.4C157.73 441.499 157.532 442.643 157.312 443.83C157.136 445.039 156.938 446.315 156.762 447.612C156.388 450.228 156.037 453.021 155.751 455.857C155.553 457.792 155.399 459.727 155.245 461.662C156.059 459.507 157.004 457.352 158.016 455.22C159.159 452.603 160.61 450.162 161.951 447.788C163.249 445.391 164.81 443.302 166.107 441.323C167.404 439.344 168.789 437.739 169.889 436.42C172.066 433.716 173.891 431.847 175.276 430.417C176.639 429.01 177.541 428.021 178.178 427.427L179.475 426.24L180.773 425.052C181.432 424.459 182.4 423.557 183.873 422.216C185.434 420.963 187.523 419.314 190.293 417.093C193.196 415.07 197.483 412.168 202.694 409.881C207.84 407.506 213.798 405.615 219.515 404.912C222.351 404.45 225.144 404.538 227.716 404.714C228.992 404.824 230.223 405 231.388 405.242C232.554 405.549 233.653 405.923 234.665 406.363C238.71 408.144 241.371 411.112 241.986 415.312C242.602 419.512 241.041 423.228 238.424 426.196C237.765 426.943 237.039 427.647 236.248 428.307C235.478 429.01 234.643 429.692 233.785 430.329C232.048 431.627 230.091 432.616 228.134 433.782C226.177 434.925 224.045 435.738 222.066 436.794C220.065 437.805 217.954 438.553 216.085 439.498C214.194 440.422 212.281 441.038 210.676 441.873C209.049 442.643 207.554 443.258 206.3 443.742C203.882 444.885 202.057 445.743 200.694 446.381C199.374 447.128 198.495 447.612 197.901 447.942L196.714 448.601L195.526 449.261C194.933 449.613 194.097 450.184 192.8 451.02C191.503 451.855 189.766 452.955 187.567 454.648C186.468 455.483 185.038 456.407 183.543 457.638C182.048 458.848 180.245 460.057 178.53 461.574C176.793 463.047 174.836 464.542 173.033 466.235C171.186 467.862 169.273 469.534 167.536 471.249C166.415 472.282 165.359 473.293 164.304 474.283C165.821 474.129 167.382 473.975 169.009 473.799C171.34 473.579 173.715 473.381 176.089 473.096C178.442 472.854 180.795 472.634 182.993 472.348C187.369 471.842 191.305 471.381 194.053 471.073C196.758 470.721 198.781 470.501 200.298 470.259C201.793 469.995 202.804 469.841 203.464 469.731L204.805 469.512L206.147 469.292C206.806 469.16 207.796 468.94 209.291 468.632C210.764 468.324 212.743 467.928 215.337 467.225C216.635 466.917 218.218 466.543 219.977 466.103C221.736 465.642 223.715 465.312 225.76 464.806C227.804 464.301 230.003 463.971 232.18 463.487C234.379 463.047 236.621 462.761 238.776 462.41C240.953 462.124 243.13 461.992 245.175 461.926C247.22 461.882 249.22 462.124 250.979 462.454C254.541 463.201 257.554 465.004 259.071 468.236C260.588 471.468 259.928 474.877 257.642 478.175C256.52 479.868 254.959 481.341 253.134 482.836C251.309 484.353 249.176 485.651 246.868 486.86C244.581 488.113 242.074 489.103 239.568 490.026C237.061 490.994 234.489 491.609 232.048 492.247C229.607 492.884 227.211 493.214 225.078 493.588C222.945 493.962 221.01 494.072 219.449 494.204C216.305 494.468 213.93 494.512 212.171 494.556C210.412 494.6 209.225 494.643 208.433 494.643H206.872C206.872 494.643 206.872 494.644 205.311 494.6C204.519 494.6 203.354 494.578 201.595 494.556C199.836 494.512 197.505 494.358 194.405 494.182C191.305 493.918 186.863 493.456 182.004 492.445C179.585 492.005 177.057 491.389 174.55 490.708C172.044 490.092 169.559 489.279 167.184 488.465C167.118 488.465 167.074 488.421 167.008 488.399C168.504 489.52 170.021 490.642 171.56 491.719C173.517 493.082 175.496 494.38 177.365 495.545C181.147 497.898 184.577 499.833 186.973 501.108C191.745 503.702 194.229 504.692 195.461 505.242L196.692 505.769L197.945 506.253C199.198 506.715 201.683 507.748 206.784 509.177C209.313 509.881 212.985 510.87 217.03 511.992C219.053 512.541 221.186 513.113 223.319 513.685C225.452 514.279 227.629 514.872 229.717 515.532C231.806 516.169 233.851 516.895 235.742 517.687C237.633 518.456 239.37 519.402 240.887 520.413C243.921 522.502 246.076 525.206 246.274 528.79C246.472 532.33 244.493 535.343 240.909 537.432C239.128 538.509 236.951 539.279 234.533 539.872C232.114 540.444 229.431 540.752 226.661 540.818C223.891 540.862 221.01 540.708 218.152 540.312C215.315 539.916 212.523 539.344 209.884 538.641C204.629 537.234 200.078 535.343 197.044 533.804C190.953 530.725 188.117 528.856 186.687 527.955L185.258 527.053L183.851 526.108C182.466 525.14 179.607 523.293 174.462 519.028C171.89 516.917 168.394 513.575 164.964 509.529C161.534 505.505 158.169 500.778 155.575 496.161C152.958 491.543 151.045 487.036 150.1 483.562C149.704 482.111 149.462 480.879 149.396 479.846C147.637 476.306 145.505 471.446 143.548 465.994C142.558 463.179 141.547 460.255 140.711 457.242C139.832 454.252 139.106 451.24 138.512 448.293C138.227 446.82 137.963 445.391 137.699 443.984C137.501 442.577 137.325 441.213 137.149 439.938C136.797 437.366 136.731 434.991 136.621 433.056C136.534 431.121 136.621 429.384 136.621 427.889C136.621 426.394 136.709 425.074 136.819 423.909C137.017 421.622 137.127 420.039 137.281 419.05L137.589 417.115L137.897 415.18C138.029 414.191 138.337 412.783 138.776 410.629C138.974 409.551 139.26 408.298 139.634 406.847C139.986 405.374 140.403 403.702 140.997 401.812C142.096 397.986 144.185 392.533 147.505 386.904C150.804 381.275 155.465 375.514 160.72 371.315C162.611 369.775 164.59 368.434 166.547 367.335C163.227 365.378 159.994 363.135 157.136 360.87C153.376 357.902 150.276 354.934 148.209 352.779C144.119 348.425 142.25 346.095 141.305 344.951L140.359 343.786L139.436 342.621C138.534 341.433 136.621 339.125 133.213 334.111C131.542 331.583 129.234 327.845 127.255 323.315C125.276 318.786 123.561 313.487 122.945 308.166C122.681 306.011 122.637 303.856 122.791 301.811C122.791 301.416 122.791 301.02 122.791 300.602C121.34 301.46 119.713 302.339 117.888 303.131C115.271 304.384 112.325 305.505 109.203 306.583C106.059 307.572 102.76 308.606 99.3743 309.309C96.0102 310.123 92.6022 310.607 89.326 311.068C86.0498 311.42 82.9056 311.706 80.0692 311.75C77.2108 311.882 74.6822 311.75 72.5934 311.662C70.5045 311.596 68.6795 311.376 67.0744 311.222C65.4693 311.046 64.0841 310.958 62.9188 310.738C60.5661 310.387 59.0049 310.145 57.9715 309.991C55.8827 309.617 55.9047 309.595 55.9047 309.595L53.8159 309.177C52.7824 308.957 51.1993 308.672 48.8906 308.034C47.7253 307.726 46.362 307.374 44.7789 306.957C43.2178 306.451 41.4148 305.901 39.37 305.242C37.3251 304.582 34.9065 303.549 32.158 302.405C29.4315 301.108 26.4192 299.613 23.3849 297.656C17.3383 293.852 11.0498 288.487 6.56433 282.001C2.01288 275.624 -0.405762 268.06 0.0559692 262.3L0.231873 262.168ZM201.309 361.794C203.64 361.09 205.927 360.299 208.059 359.529C210.192 358.694 212.193 358.012 213.952 357.22C214.832 356.869 215.667 356.517 216.459 356.209C217.228 355.857 217.932 355.549 218.57 355.264C221.142 354.208 222.945 353.219 224.352 352.537C225.76 351.877 226.617 351.284 227.211 350.976L228.398 350.294L229.585 349.613C230.157 349.239 231.015 348.689 232.312 347.854C233.631 347.084 235.236 345.787 237.435 344.248C238.49 343.39 239.788 342.379 241.261 341.301C242.668 340.092 244.339 338.949 245.966 337.563C246.802 336.882 247.659 336.2 248.539 335.519C249.55 334.727 250.562 333.914 251.595 333.122C253.2 331.913 254.849 330.791 256.498 329.714C255.795 329.142 255.069 328.57 254.41 327.955C252.453 326.218 250.474 324.481 248.693 322.766C246.934 321.029 245.285 319.336 243.811 317.797C242.316 316.279 241.107 314.828 240.118 313.663C239.744 313.223 239.414 312.827 239.062 312.432C238.402 314.762 237.523 317.005 236.621 319.138C235.698 321.49 234.555 323.623 233.499 325.514C232.488 327.427 231.498 329.076 230.575 330.374C228.794 332.99 227.475 334.947 226.353 336.332C225.276 337.739 224.55 338.663 224.066 339.301L223.099 340.532L222.066 341.719C221.56 342.313 220.79 343.192 219.625 344.534C218.504 345.897 216.855 347.568 214.678 349.789C213.622 350.932 212.215 352.207 210.588 353.592C208.983 354.978 207.202 356.517 205.157 357.946C203.156 359.419 201.067 360.914 198.803 362.234C198.495 362.432 198.165 362.607 197.857 362.805C198.979 362.476 200.122 362.146 201.243 361.794H201.309ZM158.829 332.814C159.467 333.936 160.676 336.2 163.49 340.532C164.92 342.687 166.921 345.809 169.295 349.217C170.197 350.514 171.164 351.833 172.154 353.153C172.088 352.141 172 351.086 171.956 350.052C171.912 347.986 171.626 345.831 171.516 343.742C171.384 341.653 171.076 339.564 170.922 337.607C170.68 335.651 170.439 333.804 170.241 332.133C169.999 330.483 169.779 328.988 169.603 327.779C169.361 325.36 168.877 323.557 168.68 322.216C168.46 320.875 168.24 319.973 168.108 319.38L167.822 318.192L167.536 317.005C167.382 316.411 167.228 315.51 166.833 314.191C166.437 312.871 165.975 311.09 165.227 308.76C164.832 307.594 164.37 306.165 163.908 304.56C163.446 302.955 162.831 301.174 162.325 299.261C161.226 295.479 160.06 291.257 159.225 287.146C159.049 286.134 158.873 285.145 158.697 284.177C158.059 284.771 157.378 285.365 156.674 285.914C154.519 287.673 152.409 289.432 150.1 290.84C148.979 291.543 147.879 292.247 146.824 292.928C145.768 293.588 144.625 294.072 143.592 294.6C142.734 294.995 141.921 295.391 141.129 295.743C141.547 296.403 141.964 297.106 142.36 297.854C143.174 299.327 143.965 300.932 144.757 302.647C145.57 304.362 146.362 306.165 147.176 308.012C147.989 309.859 148.803 311.706 149.594 313.465C151.221 317.093 152.673 320.347 153.684 322.612C155.729 327.229 157.004 329.494 157.576 330.637C158.169 331.781 158.191 331.759 158.191 331.759L158.807 332.88L158.829 332.814Z" fill="white" style="fill:white;fill-opacity:1;"/>
</svg>
