<svg width="25" height="25" viewBox="0 0 25 25" fill="none" xmlns="http://www.w3.org/2000/svg">
<g clip-path="url(#clip0_13581_240)">
<path d="M24.9905 9.80939C24.9414 9.15583 24.6023 8.74796 24.1208 8.64723C23.8775 8.59317 23.6392 8.61037 23.4205 8.66443C23.2068 8.71848 22.993 8.80448 22.7964 8.90521C22.595 9.00595 22.4107 9.12389 22.2141 9.24919C22.0249 9.37696 21.8284 9.51455 21.6269 9.66197C21.2264 9.95681 20.7768 10.2836 20.3296 10.5784C20.1109 10.7283 19.8873 10.861 19.6883 10.9888C19.477 11.1067 19.2952 11.2271 19.1404 11.3155C18.9832 11.404 18.848 11.4826 18.7276 11.5514C18.6048 11.6128 18.4967 11.6669 18.4058 11.7136C18.224 11.8094 18.0962 11.8585 18.0127 11.8978L17.8456 11.9716C17.8456 11.9716 17.8456 11.9716 17.676 12.0453C17.5901 12.0772 17.4598 12.1263 17.2657 12.2001C17.1699 12.2394 17.052 12.2713 16.9168 12.318C16.7817 12.3598 16.6269 12.4163 16.4451 12.4605C16.2657 12.5072 16.0446 12.576 15.794 12.6325C15.5434 12.7013 15.2608 12.7553 14.9611 12.8217C14.6613 12.8733 14.3394 12.9396 14.0151 12.9765C13.6883 13.0281 13.3566 13.0502 13.0323 13.0797C12.9193 13.087 12.8112 13.0919 12.7006 13.0993C12.7006 13.0649 12.6982 13.0354 12.6957 13.001C12.7276 12.9888 12.7596 12.9789 12.7915 12.9642C13.0864 12.8561 13.3787 12.7209 13.6711 12.5833C13.9684 12.4507 14.2461 12.291 14.5139 12.1411C14.7866 11.9937 15.0299 11.834 15.2485 11.689C15.4697 11.544 15.6638 11.4114 15.8136 11.2885C16.1159 11.0502 16.3517 10.8757 16.5139 10.7283C16.6785 10.5858 16.7891 10.49 16.8628 10.4261L17.0102 10.2983C17.0102 10.2983 17.0127 10.3008 17.1552 10.1657C17.2264 10.0969 17.3321 9.99612 17.4918 9.84379C17.5704 9.76762 17.6638 9.67671 17.7743 9.57352C17.8775 9.46295 17.9955 9.33764 18.133 9.19268C18.2682 9.04772 18.4353 8.87327 18.5974 8.65214C18.7596 8.43347 18.9512 8.1976 19.1158 7.92241C19.278 7.64477 19.4623 7.36467 19.5974 7.05018C19.735 6.73568 19.8775 6.4261 19.9586 6.09686C20.0471 5.77253 20.1183 5.4605 20.1257 5.15091C20.1355 4.84379 20.1355 4.57352 20.0569 4.32045C19.9193 3.82413 19.6318 3.49735 19.192 3.40398C18.7522 3.31062 18.3419 3.46295 18.0028 3.72585C17.8431 3.85853 17.6539 4.01578 17.5041 4.19514C17.3591 4.37696 17.1896 4.57106 17.0471 4.78236C16.9119 4.99612 16.7473 5.20988 16.6122 5.43347C16.4819 5.65951 16.3222 5.87327 16.1994 6.09195C16.0741 6.30816 15.934 6.50718 15.8259 6.69637C15.7203 6.88556 15.6073 7.04772 15.5262 7.18777C15.4426 7.32782 15.3689 7.44821 15.305 7.55632C15.2338 7.65951 15.1748 7.74796 15.1232 7.82413C15.02 7.97647 14.9512 8.07966 14.9045 8.14846C14.8112 8.28605 14.8087 8.28359 14.8087 8.28359L14.7104 8.41627C14.6613 8.48261 14.5851 8.58089 14.4746 8.73077C14.3665 8.8831 14.1994 9.06983 13.9881 9.32782C13.8824 9.45804 13.7498 9.61283 13.5974 9.78482C13.4475 9.95927 13.2854 10.1607 13.0986 10.3598C12.9168 10.5612 12.7301 10.7824 12.5262 10.9863C12.3272 11.1976 12.1281 11.4138 11.9242 11.6104C11.7326 11.8045 11.5483 11.9937 11.3714 12.1583C11.3812 12.0551 11.391 11.9519 11.4009 11.8512C11.4426 11.5367 11.4746 11.2271 11.5311 10.9372C11.5753 10.6448 11.6367 10.372 11.6834 10.1263C11.7375 9.8831 11.7866 9.66443 11.8259 9.48752C11.9193 9.13371 11.9832 8.87081 12.0495 8.67917C12.1109 8.48507 12.1478 8.35484 12.1822 8.27131L12.2436 8.10177L12.305 7.93224C12.3321 7.84624 12.3861 7.72094 12.4647 7.53666C12.5385 7.34747 12.6539 7.10423 12.8087 6.78236C12.8923 6.62511 12.9881 6.42855 13.0962 6.20988C13.2117 5.99612 13.3272 5.75288 13.4647 5.50472C13.5974 5.25411 13.7375 4.99121 13.8775 4.72585C14.0249 4.46541 14.1576 4.20251 14.3149 3.9003C14.6073 3.31553 14.821 2.73568 14.8751 2.24182C14.9291 1.75042 14.821 1.34256 14.4918 1.11652C14.1625 0.890471 13.7448 0.937154 13.305 1.16566C12.8652 1.39416 12.4009 1.80202 11.9586 2.28605C11.7424 2.51455 11.5114 2.81676 11.2928 3.11897C11.0864 3.42855 10.8873 3.74059 10.7276 4.05509C10.5557 4.36467 10.4254 4.67425 10.305 4.94944C10.192 5.22954 10.1036 5.48507 10.0348 5.69391C9.90946 6.11897 9.81855 6.43593 9.76696 6.67917C9.70799 6.91996 9.67113 7.07966 9.65148 7.18777L9.60971 7.40398L9.56794 7.6202C9.54583 7.72585 9.52371 7.89047 9.48931 8.13371C9.45 8.37696 9.41806 8.70374 9.37875 9.13617C9.35418 9.57106 9.33452 10.2001 9.40578 10.888C9.45246 11.404 9.53845 11.9519 9.66376 12.4752C9.61216 12.404 9.55811 12.3303 9.50897 12.2492C9.44509 12.146 9.37875 12.0403 9.31241 11.9322C9.17236 11.7259 9.05442 11.4924 8.93157 11.2688C8.80135 11.0526 8.71044 10.8118 8.60479 10.603C8.49423 10.3966 8.43035 10.173 8.34927 9.99121C8.26818 9.80939 8.21659 9.6374 8.16499 9.49981C8.11585 9.36467 8.07162 9.24428 8.03477 9.14108C8.00528 9.03298 7.97826 8.94207 7.95614 8.86344C7.91192 8.70865 7.88243 8.603 7.86278 8.53421C7.84312 8.46541 7.84067 8.42855 7.83575 8.41136V8.39416C7.83575 8.39416 7.83329 8.39416 7.80381 8.25165C7.78907 8.1804 7.76696 8.0772 7.73501 7.9175C7.70062 7.76025 7.68587 7.54403 7.64656 7.26394C7.62199 7.12389 7.62199 6.94944 7.59742 6.76025C7.58514 6.66443 7.57285 6.56369 7.56057 6.4605C7.55565 6.35484 7.54583 6.24674 7.536 6.13617C7.52617 6.02561 7.51143 5.91258 7.49669 5.7971C7.48931 5.68163 7.48194 5.56369 7.46966 5.44821C7.45737 5.33027 7.44017 5.21234 7.42298 5.0944C7.41315 4.97647 7.40086 4.86099 7.38366 4.74551C7.36646 4.63003 7.34189 4.51455 7.31978 4.40153C7.30258 4.29096 7.28047 4.1804 7.25344 4.07229C7.19693 3.85853 7.11585 3.6546 7.03477 3.47278C6.85786 3.10914 6.57531 2.8143 6.16499 2.70865C5.75467 2.603 5.37629 2.75042 5.05197 3.0944C4.88243 3.26394 4.75467 3.48507 4.63919 3.74059C4.58268 3.86836 4.52863 4.00349 4.47949 4.14354C4.43526 4.28605 4.40332 4.43347 4.37138 4.5858C4.33944 4.73814 4.31487 4.89293 4.2903 5.05263C4.2731 5.20988 4.26818 5.36959 4.26327 5.52929C4.25836 5.689 4.2559 5.8487 4.25836 6.00595C4.27064 6.1632 4.28293 6.31799 4.30013 6.46787C4.31732 6.61774 4.33698 6.76516 4.35418 6.90521C4.38121 7.04526 4.41069 7.17794 4.44017 7.3057C4.5016 7.55878 4.54828 7.78482 4.61708 7.96172C4.7473 8.31799 4.83084 8.58826 4.91929 8.77991C5.00528 8.97401 5.0618 9.10177 5.10111 9.19022L5.17728 9.36222L5.1871 9.38433C5.19939 9.40398 5.21167 9.45067 5.25836 9.53175C5.30258 9.61529 5.36892 9.73814 5.4672 9.92487C5.51634 10.0182 5.57531 10.1239 5.64411 10.2516C5.72027 10.372 5.80872 10.5096 5.907 10.6693C6.00774 10.8266 6.12813 11.0182 6.29275 11.2148C6.45737 11.4114 6.61954 11.6399 6.83575 11.8462C7.04705 12.0551 7.25344 12.2811 7.5016 12.4728C7.74239 12.6693 7.97826 12.8659 8.23624 13.0231C8.36155 13.1018 8.4844 13.1804 8.60234 13.2566C8.72027 13.3303 8.84804 13.3843 8.96352 13.4433C8.98317 13.4531 9.00037 13.4605 9.02003 13.4703C8.77187 13.576 8.52863 13.6816 8.29521 13.7873C7.98563 13.9249 7.69816 14.0674 7.43526 14.1951C7.17482 14.3229 6.94386 14.4433 6.75958 14.5465C6.01266 14.9544 5.64902 15.1829 5.46229 15.286L5.27801 15.3942L5.09619 15.5072C5.00528 15.5637 4.86769 15.6472 4.6613 15.775C4.45246 15.8978 4.18465 16.0797 3.82347 16.3155C3.64165 16.431 3.42789 16.5883 3.18956 16.7652C2.95123 16.9421 2.69325 17.146 2.4328 17.377C2.1699 17.603 1.90209 17.8512 1.64902 18.119C1.52126 18.2516 1.39595 18.3843 1.27556 18.5219C1.15762 18.662 1.0446 18.8045 0.934032 18.947C0.825924 19.0895 0.72273 19.232 0.626906 19.372C0.535997 19.517 0.452459 19.662 0.376292 19.8045C0.226415 20.087 0.108479 20.3598 0.0544249 20.6227C-0.0659682 21.1411 0.00774184 21.5735 0.332066 21.8364C0.658848 22.0993 1.09865 22.0944 1.56302 21.9224C1.79153 21.834 2.04214 21.7136 2.2903 21.5588C2.4156 21.4826 2.53845 21.3991 2.66376 21.3082C2.79153 21.2222 2.92175 21.1288 3.04951 21.033C3.17727 20.9347 3.30504 20.834 3.42789 20.7283C3.55811 20.6276 3.68587 20.5219 3.81118 20.4163C4.05934 20.2001 4.3075 19.9863 4.54091 19.7824C4.77433 19.5735 4.99546 19.3745 5.19447 19.1927C5.39349 19.0084 5.56794 18.8438 5.7129 18.7111C6.00283 18.4408 6.21904 18.2345 6.38858 18.087C6.55811 17.9372 6.66868 17.8389 6.74484 17.7725L6.89472 17.6399L7.04705 17.5096C7.2043 17.3843 7.5016 17.1141 8.13305 16.6128C8.44755 16.3548 8.89963 15.9838 9.40332 15.5711C9.75221 15.2811 10.1257 14.9716 10.4918 14.6693C10.4918 14.6718 10.4967 14.6743 10.4967 14.6792C10.4967 14.6816 10.4918 14.6865 10.4918 14.689C10.3542 14.9519 10.1969 15.2099 10.0667 15.458C9.92666 15.7037 9.79644 15.9396 9.67605 16.1509C9.55811 16.3622 9.45246 16.5514 9.36401 16.7087C9.0274 17.3327 8.83084 17.6374 8.7473 17.7946L8.65639 17.9494L8.56302 18.1018C8.46966 18.2541 8.28784 18.5637 7.89718 19.1706C7.51143 19.7799 6.80872 20.9421 6.33452 22.0526C5.85786 23.1607 5.64902 24.2418 6.24607 24.6153C6.84067 24.9888 7.72519 24.3499 8.52617 23.4187C8.92666 22.9544 9.30995 22.4187 9.63428 21.9101C9.9586 21.404 10.224 20.9273 10.3935 20.5883C10.735 19.9101 10.8947 19.5612 10.9783 19.3917L11.0593 19.2197L11.1404 19.0453C11.2141 18.8659 11.3861 18.5293 11.681 17.8143C11.7547 17.6349 11.8456 17.4212 11.9316 17.1706C11.9709 17.0526 12.0151 16.9298 12.0593 16.802C12.079 16.8806 12.0987 16.9593 12.1183 17.0354C12.1871 17.2639 12.2313 17.4851 12.2829 17.6816C12.3345 17.8757 12.3812 18.0477 12.4131 18.1902C12.4869 18.4728 12.5458 18.6816 12.5729 18.8413C12.6073 19.001 12.6294 19.1067 12.6441 19.1779L12.6736 19.318L12.6957 19.4605C12.708 19.5317 12.7252 19.6374 12.7522 19.7971C12.7842 19.9544 12.8063 20.1706 12.8407 20.4531C12.8628 20.5932 12.8824 20.7652 12.9095 20.9593C12.9414 21.1509 12.9783 21.3647 13.0151 21.5883C13.0544 21.8118 13.1085 22.0477 13.1552 22.286C13.1797 22.4064 13.2092 22.5244 13.2436 22.6448C13.2731 22.7652 13.3001 22.8831 13.3321 23.001C13.364 23.119 13.4009 23.2369 13.4426 23.3524C13.477 23.4679 13.5139 23.5784 13.5557 23.6865C13.6367 23.9028 13.7375 24.1091 13.8333 24.286C14.0348 24.6423 14.2928 24.9052 14.6343 24.9617C14.9758 25.0182 15.2928 24.8389 15.5851 24.4924C15.7375 24.3204 15.8579 24.1042 15.9758 23.8585C16.0323 23.7357 16.0888 23.6055 16.138 23.4703C16.1822 23.3352 16.224 23.1927 16.2608 23.0477C16.2977 22.9028 16.3345 22.7529 16.3591 22.603C16.3812 22.4531 16.4009 22.3008 16.4156 22.146C16.4525 21.8389 16.4525 21.5367 16.4426 21.2467C16.4402 20.9568 16.4033 20.6816 16.3665 20.4359C16.3321 20.1902 16.2903 19.9715 16.2387 19.7971C16.1453 19.4458 16.0765 19.1829 16.0077 18.9912C15.9439 18.7996 15.8996 18.6693 15.8701 18.5833L15.8112 18.4138L15.7448 18.2467C15.7104 18.1632 15.6613 18.0379 15.5851 17.8487C15.5139 17.6595 15.3935 17.4163 15.2387 17.0919C15.1625 16.9298 15.0569 16.7381 14.9267 16.5268C14.7989 16.3155 14.6539 16.087 14.4795 15.8585C14.3075 15.6276 14.1281 15.3917 13.9193 15.1706C13.8849 15.1337 13.8505 15.0969 13.8161 15.0575C13.8407 15.0625 13.8628 15.0698 13.8873 15.0747C14.2633 15.1657 14.6441 15.2197 15.0102 15.2713C15.3763 15.3106 15.7276 15.3426 16.0446 15.3475C16.364 15.3622 16.6466 15.3475 16.88 15.3376C17.1134 15.3303 17.3173 15.3057 17.4967 15.2885C17.676 15.2688 17.8308 15.259 17.9611 15.2345C18.224 15.1951 18.3984 15.1681 18.5139 15.1509C18.7473 15.1091 18.7448 15.1067 18.7448 15.1067L18.9783 15.06C19.0937 15.0354 19.2706 15.0035 19.5286 14.9322C19.6588 14.8978 19.8112 14.8585 19.9881 14.8118C20.1625 14.7553 20.364 14.6939 20.5925 14.6202C20.821 14.5465 21.0913 14.431 21.3984 14.3032C21.7031 14.1583 22.0397 13.9912 22.3787 13.7725C23.0544 13.3475 23.7571 12.748 24.2584 12.0231C24.767 11.3106 25.0372 10.4654 24.9856 9.82167L24.9905 9.80939Z" fill="#41B729" style="fill:#41B729;fill:color(display-p3 0.2549 0.7176 0.1608);fill-opacity:1;"/>
</g>
<defs>
<clipPath id="clip0_13581_240">
<rect width="24.9902" height="24" fill="white" style="fill:white;fill-opacity:1;" transform="translate(0.0078125 0.960938)"/>
</clipPath>
</defs>
</svg>
