<svg width="121" height="112" viewBox="0 0 121 112" fill="none" xmlns="http://www.w3.org/2000/svg">
<path d="M0.946612 62.5276C4.79459 89.2149 30.0987 111.112 57.1131 111.126C84.2147 111.143 108.886 90.4863 117.455 64.8223C122.332 50.2224 122.027 32.5224 111.53 21.2492C98.8562 7.64644 59.6261 -2.04614 41.0275 0.479328C14.5759 4.07159 -2.52616 38.4311 0.946612 62.5276Z" fill="#41B729" style="fill:#41B729;fill:color(display-p3 0.2549 0.7176 0.1608);fill-opacity:1;"/>
<g clip-path="url(#clip0_13649_84)">
<path d="M87.6758 33.0081C87.6758 28.9242 84.3533 25.6018 80.2695 25.6018C70.4577 25.9741 70.4602 40.0434 80.2697 40.4143C84.3533 40.4143 87.6758 37.0919 87.6758 33.0081ZM80.2694 36.8987C78.1241 36.8987 76.3788 35.1534 76.3788 33.0081C76.5744 27.8537 83.9653 27.8551 84.1601 33.0081C84.1602 35.1534 82.4148 36.8987 80.2694 36.8987Z" fill="#FBF4EE" style="fill:#FBF4EE;fill:color(display-p3 0.9843 0.9569 0.9333);fill-opacity:1;"/>
<path d="M80.2695 40.4143C74.6284 40.4143 70.0391 45.0037 70.0391 50.6448V59.3674C70.0391 61.7989 71.618 63.8683 73.8046 64.6042V83.844C73.8046 84.8148 74.5917 85.6018 75.5625 85.6018H84.9765C85.9473 85.6018 86.7343 84.8148 86.7343 83.844V64.6042C88.921 63.8683 90.5 61.7989 90.5 59.3674V50.6448C90.5 45.0037 85.9107 40.4143 80.2695 40.4143ZM86.9844 59.3674C86.9844 60.4745 86.0836 61.3752 84.9765 61.3752C84.0057 61.3752 83.2187 62.1622 83.2187 63.133V82.0862H77.3203V63.1331C77.3203 62.1623 76.5332 61.3753 75.5625 61.3753C74.4554 61.3753 73.5547 60.4746 73.5547 59.3675V50.6448C73.8902 41.7526 86.6471 41.7479 86.9844 50.6449C86.9844 50.6448 86.9844 59.3674 86.9844 59.3674Z" fill="#FBF4EE" style="fill:#FBF4EE;fill:color(display-p3 0.9843 0.9569 0.9333);fill-opacity:1;"/>
<path d="M48.1367 33.0081C48.1367 28.9243 44.8144 25.6018 40.7305 25.6018C30.9186 25.9741 30.9212 40.0434 40.7306 40.4143C44.8144 40.4143 48.1367 37.0919 48.1367 33.0081ZM40.7305 36.8987C38.5851 36.8987 36.8399 35.1534 36.8399 33.0081C37.0354 27.8537 44.4263 27.8551 44.6211 33.0081C44.6211 35.1534 42.8758 36.8987 40.7305 36.8987Z" fill="#FBF4EE" style="fill:#FBF4EE;fill:color(display-p3 0.9843 0.9569 0.9333);fill-opacity:1;"/>
<path d="M50.9609 50.6448C50.4457 37.0906 31.0126 37.0953 30.5 50.6449C30.5 50.6448 30.5 59.3674 30.5 59.3674C30.5 61.7989 32.079 63.8683 34.2656 64.6042V83.844C34.2656 84.8148 35.0526 85.6018 36.0234 85.6018H45.4374C46.4082 85.6018 47.1952 84.8148 47.1952 83.844V64.6042C49.3818 63.8683 50.9609 61.7989 50.9609 59.3674V50.6448ZM47.4453 59.3674C47.4453 60.4745 46.5445 61.3752 45.4374 61.3752C44.4666 61.3752 43.6796 62.1622 43.6796 63.133V82.0862H37.7812V63.1331C37.7812 62.1623 36.9942 61.3753 36.0234 61.3753C34.9163 61.3753 34.0156 60.4746 34.0156 59.3675V50.6448C34.3511 41.7526 47.108 41.7479 47.4453 50.6449C47.4453 50.6448 47.4453 59.3674 47.4453 59.3674Z" fill="#FBF4EE" style="fill:#FBF4EE;fill:color(display-p3 0.9843 0.9569 0.9333);fill-opacity:1;"/>
<path d="M68.3328 69.4214C67.1939 68.2689 65.2072 69.1968 65.3379 70.7893H55.662C55.7926 69.1972 53.8058 68.2686 52.6671 69.4214L50.7844 71.3042C50.0979 71.9907 50.0979 73.1036 50.7844 73.7901L52.6671 75.6729C53.8053 76.8247 55.7928 75.8981 55.662 74.3049H65.3379C65.2076 75.8977 67.1942 76.8252 68.3328 75.6729L70.2155 73.7901C70.902 73.1037 70.902 71.9907 70.2155 71.3042L68.3328 69.4214Z" fill="#FBF4EE" style="fill:#FBF4EE;fill:color(display-p3 0.9843 0.9569 0.9333);fill-opacity:1;"/>
</g>
<defs>
<clipPath id="clip0_13649_84">
<rect width="60" height="60" fill="white" style="fill:white;fill-opacity:1;" transform="translate(30.5 25.6018)"/>
</clipPath>
</defs>
</svg>
