<svg width="121" height="112" viewBox="0 0 121 112" fill="none" xmlns="http://www.w3.org/2000/svg">
<path d="M0.946612 62.7541C4.79459 89.4414 30.0987 111.339 57.1131 111.352C84.2147 111.369 108.886 90.7129 117.455 65.0488C122.332 50.449 122.027 32.7489 111.53 21.4757C98.8562 7.87301 59.6261 -1.81958 41.0275 0.70589C14.5759 4.29816 -2.52616 38.6576 0.946612 62.7541Z" fill="#41B729" style="fill:#41B729;fill:color(display-p3 0.2549 0.7176 0.1608);fill-opacity:1;"/>
<g clip-path="url(#clip0_13649_87)">
<path d="M53.3877 56.2208L56.6608 55.5662L58.845 61.6922C59.0946 62.3923 59.7575 62.8597 60.5007 62.8597C61.2439 62.8597 61.9069 62.3923 62.1565 61.6922L64.3406 55.5662L67.614 56.2208C68.1901 56.336 68.786 56.1557 69.2017 55.7401C69.6173 55.3246 69.7977 54.7288 69.6825 54.1525L68.9606 50.5434L72.0228 48.502C72.5119 48.176 72.8056 47.6271 72.8056 47.0394C72.8056 46.4517 72.5119 45.9028 72.0228 45.5768L68.9606 43.5354L69.6825 39.9264C69.7977 39.35 69.6173 38.7543 69.2017 38.3387C68.7861 37.9232 68.1906 37.7426 67.614 37.858L64.0049 38.5799L61.9631 35.5174C61.6372 35.0284 61.0884 34.7346 60.5006 34.7346C59.9128 34.7346 59.364 35.0284 59.0381 35.5174L56.9966 38.5797L53.3877 37.8578C52.8108 37.7424 52.2156 37.9228 51.7999 38.3385C51.3842 38.754 51.2039 39.3498 51.3191 39.9261L52.041 43.5352L48.9786 45.5766C48.4896 45.9026 48.1958 46.4515 48.1958 47.0392C48.1958 47.6269 48.4896 48.1758 48.9786 48.5018L52.041 50.5432L51.3191 54.1522C51.2039 54.7286 51.3842 55.3243 51.7999 55.7399C52.2156 56.1557 52.811 56.3361 53.3877 56.2208ZM54.9706 45.8074C55.5634 45.4123 55.8589 44.6986 55.7194 44L55.2838 41.8222L57.4616 42.2578C58.1594 42.3979 58.8738 42.1018 59.2688 41.5092L60.5006 39.6614L61.7325 41.5092C62.1275 42.102 62.8414 42.3979 63.5397 42.2578L65.7178 41.8222L65.2821 44C65.1425 44.6985 65.4381 45.4123 66.0308 45.8074L67.8785 47.0393L66.0307 48.2712C65.438 48.6663 65.1424 49.38 65.282 50.0786L65.7177 52.2564L63.5396 51.8208C62.6849 51.6495 61.8322 52.132 61.5392 52.9541L60.5006 55.8674L59.462 52.9541C59.1694 52.1332 58.3181 51.6492 57.4616 51.8208L55.2838 52.2564L55.7194 50.0786C55.8589 49.3801 55.5634 48.6663 54.9706 48.2712L53.1227 47.0393L54.9706 45.8074Z" fill="#FBF4EE" style="fill:#FBF4EE;fill:color(display-p3 0.9843 0.9569 0.9333);fill-opacity:1;"/>
<path d="M51.7114 74.3292C51.7114 79.9917 55.61 83.9534 60.5005 83.9534C65.3468 83.9534 69.2896 80.0106 69.2896 75.1643V68.5669C69.2896 66.0749 70.3261 63.8134 72.0621 62.5172C76.8084 58.9738 79.8364 53.3408 79.8364 47.0393C79.8364 36.3775 71.1623 27.7034 60.5005 27.7034C49.8387 27.7034 41.1646 36.3775 41.1646 47.0393C41.1646 53.2003 44.0888 58.939 49.0274 62.5827C50.7081 63.8229 51.7114 65.8759 51.7114 68.0745V74.3292ZM60.5005 80.4377C58.2595 80.4377 56.4706 79.055 55.6752 76.9221H56.9849C57.9556 76.9221 58.7427 76.1351 58.7427 75.1643C58.7427 74.1935 57.9556 73.4065 56.9849 73.4065H55.2271V69.8909H65.7739V73.4065H64.0161C63.0453 73.4065 62.2583 74.1935 62.2583 75.1643C62.2583 76.1351 63.0453 76.9209 64.0161 76.9209H65.4716C64.746 78.9668 62.7921 80.4377 60.5005 80.4377ZM51.1146 59.7538C47.0254 56.7368 44.6802 52.1025 44.6802 47.0393C44.6802 38.316 51.7772 31.219 60.5005 31.219C69.2238 31.219 76.3208 38.316 76.3208 47.0393C76.3208 52.0671 74.002 56.6817 69.9589 59.7001C67.8821 61.2508 66.4696 63.6547 65.9724 66.3752H55.0898C54.6614 63.7219 53.2429 61.3243 51.1146 59.7538Z" fill="#FBF4EE" style="fill:#FBF4EE;fill:color(display-p3 0.9843 0.9569 0.9333);fill-opacity:1;"/>
<path d="M37.4541 55.8465L34.2679 57.3323C33.3879 57.7425 33.0073 58.7884 33.4176 59.6683C33.8298 60.5524 34.8779 60.927 35.7536 60.5186L38.9398 59.0329C39.8197 58.6226 40.2004 57.5767 39.7901 56.6969C39.3798 55.817 38.3337 55.4363 37.4541 55.8465Z" fill="#FBF4EE" style="fill:#FBF4EE;fill:color(display-p3 0.9843 0.9569 0.9333);fill-opacity:1;"/>
<path d="M83.547 38.2321L86.7332 36.7464C87.6132 36.3361 87.9938 35.2902 87.5835 34.4104C87.1732 33.5305 86.1273 33.1497 85.2475 33.56L82.0613 35.0457C81.1814 35.456 80.8007 36.5019 81.211 37.3818C81.6233 38.2659 82.6714 38.6405 83.547 38.2321Z" fill="#FBF4EE" style="fill:#FBF4EE;fill:color(display-p3 0.9843 0.9569 0.9333);fill-opacity:1;"/>
<path d="M38.9397 35.0458L35.7533 33.5601C34.8735 33.1499 33.8276 33.5305 33.4173 34.4104C33.007 35.2902 33.3877 36.3361 34.2676 36.7464L37.4538 38.2321C38.3298 38.6405 39.3777 38.2656 39.7898 37.3818C40.2001 36.5019 39.8195 35.456 38.9397 35.0458Z" fill="#FBF4EE" style="fill:#FBF4EE;fill:color(display-p3 0.9843 0.9569 0.9333);fill-opacity:1;"/>
<path d="M82.0613 59.0328L85.2475 60.5186C86.1234 60.9269 87.1713 60.5521 87.5835 59.6682C87.9938 58.7884 87.6131 57.7425 86.7332 57.3322L83.547 55.8465C82.6671 55.4364 81.6212 55.8169 81.2109 56.6968C80.8008 57.5767 81.1814 58.6226 82.0613 59.0328Z" fill="#FBF4EE" style="fill:#FBF4EE;fill:color(display-p3 0.9843 0.9569 0.9333);fill-opacity:1;"/>
<path d="M30.5005 47.0393C30.5005 48.0101 31.2875 48.7971 32.2583 48.7971H35.8911C36.8619 48.7971 37.6489 48.0101 37.6489 47.0393C37.6489 46.0685 36.8619 45.2815 35.8911 45.2815H32.2583C31.2875 45.2815 30.5005 46.0685 30.5005 47.0393Z" fill="#FBF4EE" style="fill:#FBF4EE;fill:color(display-p3 0.9843 0.9569 0.9333);fill-opacity:1;"/>
<path d="M88.7427 45.2815H85.1099C84.1391 45.2815 83.3521 46.0685 83.3521 47.0393C83.3521 48.0101 84.1391 48.7971 85.1099 48.7971H88.7427C89.7135 48.7971 90.5005 48.0101 90.5005 47.0393C90.5005 46.0685 89.7135 45.2815 88.7427 45.2815Z" fill="#FBF4EE" style="fill:#FBF4EE;fill:color(display-p3 0.9843 0.9569 0.9333);fill-opacity:1;"/>
</g>
<defs>
<clipPath id="clip0_13649_87">
<rect width="60" height="60" fill="white" style="fill:white;fill-opacity:1;" transform="translate(30.5005 25.8284)"/>
</clipPath>
</defs>
</svg>
