<svg width="121" height="112" viewBox="0 0 121 112" fill="none" xmlns="http://www.w3.org/2000/svg">
<path d="M0.946612 62.633C4.79459 89.3203 30.0987 111.218 57.1131 111.231C84.2147 111.248 108.886 90.5918 117.455 64.9277C122.332 50.3279 122.027 32.6278 111.53 21.3546C98.8562 7.75191 59.6261 -1.94068 41.0275 0.584797C14.5759 4.17706 -2.52616 38.5366 0.946612 62.633Z" fill="#41B729" style="fill:#41B729;fill:color(display-p3 0.2549 0.7176 0.1608);fill-opacity:1;"/>
<g clip-path="url(#clip0_13649_85)">
<path d="M86.9844 25.707H34.0156C32.0771 25.707 30.5 27.2841 30.5 29.2227V70.1611C30.5 72.0996 32.0771 73.6767 34.0156 73.6767H41.0493V82.1914H39.2915C38.3207 82.1914 37.5337 82.9784 37.5337 83.9492C37.5337 84.92 38.3207 85.707 39.2915 85.707H81.7084C82.6791 85.707 83.4662 84.92 83.4662 83.9492C83.4662 82.9784 82.6791 82.1914 81.7084 82.1914H79.7429V73.6767H86.9844C88.9229 73.6767 90.5 72.0996 90.5 70.1611V29.2227C90.5 27.2841 88.9229 25.707 86.9844 25.707ZM86.9844 29.2227V32.7765H34.0156V29.2227H86.9844ZM44.565 82.1914V67.0183H48.0581V82.1914H44.565ZM51.5738 73.6767H55.134V82.1914H51.5738V73.6767ZM58.6495 82.1914V60.0896H62.1427V82.1914H58.6495ZM65.6584 73.6767H69.2185V82.1914H65.6584V73.6767ZM72.7341 82.1914V62.5155H76.2273V82.1914H72.7341ZM79.7429 70.1611V60.7577C79.7429 59.7869 78.9559 58.9999 77.9851 58.9999H70.9763C70.0055 58.9999 69.2185 59.7869 69.2185 60.7577V70.1611H65.6584V58.3318C65.6584 57.361 64.8713 56.574 63.9005 56.574H56.8917C55.9209 56.574 55.1339 57.361 55.1339 58.3318V70.1609H51.5737V65.2605C51.5737 64.2897 50.7867 63.5027 49.8159 63.5027H42.8071C41.8364 63.5027 41.0493 64.2897 41.0493 65.2605V70.1609H34.0156V36.2921H86.9844V70.1611H79.7429Z" fill="#FBF4EE" style="fill:#FBF4EE;fill:color(display-p3 0.9843 0.9569 0.9333);fill-opacity:1;"/>
<path d="M74.4806 42.2258C72.5045 42.2258 70.7796 43.319 69.8766 44.9319L65.2878 44.1502C64.8601 41.669 62.694 39.7749 60.0924 39.7749C57.1846 39.7749 54.819 42.1406 54.819 45.0483C54.819 45.277 54.8353 45.5019 54.8636 45.7229L49.9511 48.2074C49.0039 47.3022 47.722 46.7445 46.3115 46.7445C43.4037 46.7445 41.0381 49.1102 41.0381 52.018C41.0381 54.9257 43.4037 57.2914 46.3115 57.2914C49.2193 57.2914 51.585 54.9257 51.585 52.018C51.585 51.7893 51.5687 51.5644 51.5403 51.3434L56.4528 48.8589C57.4 49.7641 58.682 50.3218 60.0925 50.3218C62.0687 50.3218 63.7934 49.2285 64.6965 47.6157L69.2854 48.3973C69.7133 50.8785 71.8793 52.7725 74.4807 52.7725C77.3885 52.7725 79.7541 50.4069 79.7541 47.4991C79.7541 44.5913 77.3884 42.2258 74.4806 42.2258ZM46.3114 53.7759C45.3421 53.7759 44.5536 52.9873 44.5536 52.0181C44.5536 51.0488 45.3421 50.2603 46.3114 50.2603C47.2807 50.2603 48.0692 51.0488 48.0692 52.0181C48.0692 52.9873 47.2807 53.7759 46.3114 53.7759ZM60.0924 46.8063C59.1232 46.8063 58.3346 46.0177 58.3346 45.0485C58.3346 44.0792 59.1232 43.2906 60.0924 43.2906C61.0617 43.2906 61.8502 44.0792 61.8502 45.0485C61.8502 46.0177 61.0617 46.8063 60.0924 46.8063ZM74.4806 49.257C73.5113 49.257 72.7228 48.4685 72.7228 47.4992C72.7228 46.5299 73.5113 45.7414 74.4806 45.7414C75.4498 45.7414 76.2384 46.5299 76.2384 47.4992C76.2384 48.4685 75.4498 49.257 74.4806 49.257Z" fill="#FBF4EE" style="fill:#FBF4EE;fill:color(display-p3 0.9843 0.9569 0.9333);fill-opacity:1;"/>
</g>
<defs>
<clipPath id="clip0_13649_85">
<rect width="60" height="60" fill="white" style="fill:white;fill-opacity:1;" transform="translate(30.5 25.707)"/>
</clipPath>
</defs>
</svg>
