<svg width="121" height="112" viewBox="0 0 121 112" fill="none" xmlns="http://www.w3.org/2000/svg">
<path d="M0.946612 63.2307C4.79459 89.918 30.0987 111.816 57.1131 111.829C84.2147 111.846 108.886 91.1894 117.455 65.5254C122.332 50.9256 122.027 33.2255 111.53 21.9523C98.8562 8.34957 59.6261 -1.34302 41.0275 1.18245C14.5759 4.77472 -2.52616 39.1342 0.946612 63.2307Z" fill="#41B729" style="fill:#41B729;fill:color(display-p3 0.2549 0.7176 0.1608);fill-opacity:1;"/>
<g clip-path="url(#clip0_13649_86)">
<path d="M54.9766 45.0078V48.7733C55.281 56.1027 65.722 56.0971 66.0236 48.7733V45.0078C66.0236 43.8855 66.4618 42.8161 67.2285 41.9957C72.8373 36.1518 68.6039 26.2832 60.4999 26.3048C52.403 26.2751 48.1437 36.1798 53.7882 41.9902C54.5545 42.8118 54.9765 43.8835 54.9766 45.0078ZM62.5079 48.7735C62.3973 51.4377 58.6018 51.4357 58.4923 48.7735V46.7656H62.5079V48.7735ZM60.5 29.8203C65.5397 29.8073 68.169 35.9454 64.6788 39.5751C64.6753 39.5788 64.6717 39.5826 64.6682 39.5863C63.6942 40.6254 63.0286 41.888 62.72 43.25H58.2968C57.988 41.8834 57.3205 40.6171 56.3434 39.5754C56.3366 39.5682 56.3299 39.5611 56.323 39.554C52.817 35.9494 55.4795 29.7985 60.5 29.8203Z" fill="#FBF4EE" style="fill:#FBF4EE;fill:color(display-p3 0.9843 0.9569 0.9333);fill-opacity:1;"/>
<path d="M46.0772 31.1883C46.7634 31.8745 47.8763 31.875 48.5631 31.1883C49.2496 30.5018 49.2496 29.3888 48.5631 28.7024L46.6804 26.8195C45.9941 26.1331 44.881 26.133 44.1946 26.8195C43.5081 27.506 43.5081 28.6189 44.1946 29.3054L46.0772 31.1883Z" fill="#FBF4EE" style="fill:#FBF4EE;fill:color(display-p3 0.9843 0.9569 0.9333);fill-opacity:1;"/>
<path d="M74.9226 31.1884L76.8054 29.3055C77.4919 28.619 77.4919 27.5061 76.8054 26.8196C76.119 26.1333 75.006 26.1331 74.3195 26.8196L72.4367 28.7025C71.7503 29.389 71.7503 30.5019 72.4367 31.1884C73.1231 31.8747 74.2362 31.875 74.9226 31.1884Z" fill="#FBF4EE" style="fill:#FBF4EE;fill:color(display-p3 0.9843 0.9569 0.9333);fill-opacity:1;"/>
<path d="M46.0772 41.8821L44.1945 43.7649C43.5081 44.4514 43.5081 45.5644 44.1945 46.2508C44.8808 46.9371 45.9938 46.9374 46.6804 46.2508L48.5631 44.368C49.2495 43.6815 49.2495 42.5686 48.5631 41.8821C47.8766 41.1956 46.7638 41.1955 46.0772 41.8821Z" fill="#FBF4EE" style="fill:#FBF4EE;fill:color(display-p3 0.9843 0.9569 0.9333);fill-opacity:1;"/>
<path d="M74.3195 46.2509C75.0057 46.9372 76.1187 46.9375 76.8054 46.2509C77.4919 45.5644 77.4919 44.4515 76.8054 43.765L74.9226 41.8821C74.2364 41.1956 73.1233 41.1958 72.4367 41.8821C71.7503 42.5686 71.7503 43.6815 72.4367 44.368L74.3195 46.2509Z" fill="#FBF4EE" style="fill:#FBF4EE;fill:color(display-p3 0.9843 0.9569 0.9333);fill-opacity:1;"/>
<path d="M41.928 38.293H44.5907C46.923 38.2 46.9212 34.8693 44.5907 34.7773H41.928C39.5957 34.8703 39.5975 38.201 41.928 38.293Z" fill="#FBF4EE" style="fill:#FBF4EE;fill:color(display-p3 0.9843 0.9569 0.9333);fill-opacity:1;"/>
<path d="M74.6516 36.5352C74.6516 37.5059 75.4386 38.293 76.4094 38.293H79.072C81.4043 38.2 81.4025 34.8693 79.072 34.7773H76.4094C75.4386 34.7773 74.6516 35.5644 74.6516 36.5352Z" fill="#FBF4EE" style="fill:#FBF4EE;fill:color(display-p3 0.9843 0.9569 0.9333);fill-opacity:1;"/>
<path d="M84.5875 70.9273C89.1852 66.3479 85.8884 58.2971 79.328 58.3126C72.768 58.2971 69.4707 66.3492 74.0688 70.9273C72.3775 71.8337 70.9452 73.1621 69.914 74.7717C68.883 73.1622 67.4505 71.8337 65.7594 70.9275C70.3572 66.348 67.0603 58.2972 60.4999 58.3127C53.9397 58.2972 50.6425 66.3493 55.2406 70.9275C53.5495 71.8338 52.117 73.1622 51.086 74.7717C50.055 73.1622 48.6225 71.8337 46.9313 70.9275C51.5291 66.348 48.2322 58.2972 41.6718 58.3127C35.1117 58.2972 31.8145 66.3493 36.4126 70.9275C32.8968 72.8113 30.5 76.5214 30.5 80.7813V84.5469C30.5 85.5177 31.287 86.3047 32.2578 86.3047H88.7422C89.713 86.3047 90.5 85.5177 90.5 84.5469V80.7813C90.5 76.5214 88.1032 72.8113 84.5875 70.9273ZM41.672 61.8281C43.8172 61.8281 45.5626 63.5735 45.5626 65.7187C45.3488 70.8801 37.9943 70.8786 37.7813 65.7187C37.7812 63.5735 39.5266 61.8281 41.672 61.8281ZM49.3282 82.7891H34.0156V80.7813C34.4374 70.6217 48.9102 70.6296 49.3282 80.7813V82.7891ZM60.5 61.8281C62.6454 61.8281 64.3906 63.5735 64.3906 65.7187C64.1769 70.8801 56.8223 70.8786 56.6094 65.7187C56.6094 63.5735 58.3546 61.8281 60.5 61.8281ZM68.1562 82.7891H52.8438V80.7813C53.2655 70.6217 67.7383 70.6296 68.1563 80.7813V82.7891H68.1562ZM79.3282 61.8281C81.4734 61.8281 83.2187 63.5735 83.2187 65.7187C83.0049 70.8801 75.6505 70.8786 75.4375 65.7187C75.4375 63.5735 77.1828 61.8281 79.3282 61.8281ZM86.9844 82.7891H71.6718V80.7813C72.0936 70.6218 86.5664 70.6295 86.9844 80.7813V82.7891Z" fill="#FBF4EE" style="fill:#FBF4EE;fill:color(display-p3 0.9843 0.9569 0.9333);fill-opacity:1;"/>
</g>
<defs>
<clipPath id="clip0_13649_86">
<rect width="60" height="60" fill="white" style="fill:white;fill-opacity:1;" transform="translate(30.5 26.3047)"/>
</clipPath>
</defs>
</svg>
