<svg width="26" height="26" viewBox="0 0 26 26" fill="none" xmlns="http://www.w3.org/2000/svg">
<path fill-rule="evenodd" clip-rule="evenodd" d="M4.875 3.51294C3.97753 3.51294 3.25 4.24047 3.25 5.13794V21.3879C3.25 22.2854 3.97753 23.0129 4.875 23.0129H21.125C22.0224 23.0129 22.75 22.2854 22.75 21.3879V5.13794C22.75 4.24047 22.0224 3.51294 21.125 3.51294H4.875ZM9.23082 7.84922C9.23692 8.88516 8.46149 9.52348 7.54133 9.51891C6.67449 9.51434 5.91887 8.82422 5.92344 7.85075C5.92801 6.93516 6.65165 6.19934 7.59161 6.22067C8.54528 6.242 9.23692 6.94126 9.23082 7.84922ZM13.303 10.8382H10.573H10.5715V20.1113H13.4568V19.895C13.4568 19.4834 13.4565 19.0718 13.4562 18.66C13.4553 17.5617 13.4543 16.4622 13.46 15.3643C13.4615 15.0977 13.4736 14.8204 13.5422 14.566C13.7996 13.6153 14.6544 13.0014 15.608 13.1523C16.2204 13.2482 16.6256 13.6032 16.7962 14.1806C16.9014 14.5416 16.9486 14.9301 16.9532 15.3064C16.9655 16.4413 16.9638 17.5762 16.9621 18.7112C16.9614 19.1119 16.9608 19.5127 16.9608 19.9133V20.1098H19.8553V19.8874C19.8553 19.3977 19.8551 18.9082 19.8548 18.4186C19.8542 17.195 19.8536 15.9714 19.8568 14.7473C19.8584 14.1943 19.799 13.6489 19.6634 13.1142C19.4608 12.3189 19.0419 11.6608 18.3609 11.1855C17.8779 10.8473 17.3477 10.6295 16.7552 10.6051C16.6877 10.6023 16.6196 10.5986 16.5513 10.5949C16.2483 10.5785 15.9403 10.5619 15.6506 10.6203C14.8218 10.7864 14.0937 11.1657 13.5437 11.8345C13.4798 11.9112 13.4173 11.989 13.324 12.1053L13.303 12.1316V10.8382ZM6.15511 20.1144H9.02679V10.8442H6.15511V20.1144Z" fill="white" style="fill:white;fill-opacity:1;"/>
</svg>
