<?xml version="1.0" encoding="utf-8"?>
<!-- Generator: Adobe Illustrator 28.0.0, SVG Export Plug-In . SVG Version: 6.00 Build 0)  -->
<svg version="1.1" id="Layer_1" xmlns="http://www.w3.org/2000/svg" xmlns:xlink="http://www.w3.org/1999/xlink" x="0px" y="0px"
	 viewBox="0 0 2500 1250" style="enable-background:new 0 0 2500 1250;" xml:space="preserve">
<g>
	<path style="fill:#B3E2A9;" d="M381.7,874l0.6-1.7h0L683.4,0h-2.7L527.2,444.7c-10.9,31.5-43.5,49.4-75.9,41.5L0,376.2v2.6
		l451.7,110.1c14.2,3.5,26.4,12.8,33.4,25.7c7,12.8,8.3,28.1,3.5,42L382.9,862.7c-12.9,37.4-41.3,67.5-77.9,82.7l-1.8,0.7l0,0
		L0,1071.4v2.7l26-10.8l280-115.7l0.3-0.1l12.2-5.1c28.6-11.8,61.2-11.3,89.3,1.6l669.7,305h6L411.2,942.8
		C384.9,930.8,372.2,901.3,381.7,874z M487.3,513.3c-5.5-10-13.9-18-24-22.9c1.1,0.1,2.1,0.1,3.2,0.1c11.1,0,22.1-2.8,31.9-8.2
		c9.2-5,17-12.1,22.8-20.5l-27.4,79.3C494.2,531.5,492,521.9,487.3,513.3z M327.2,936.7c21-13.2,38.1-31.7,49.6-53.7
		c-3.4,20.7,4.7,41.3,20.8,54.3C374.9,929.8,350.1,929.5,327.2,936.7z"/>
	<path style="fill:#B3E2A9;" d="M2118.3,790.2c-30.1,11.1-63,10.7-92.8-1.1l-294.7-117c-33.7-13.4-51.5-50.8-40.7-85.4L1876.3,0
		h-2.6l-185.9,585.6c0,0.1-0.1,0.2-0.1,0.3l-3,9.5c-4.3,13.5-13.7,24.4-26.6,30.4c-12.8,6.1-27.2,6.5-40.4,1.3l-0.2-0.1h0
		l-493.8-196.1c0,0-0.1,0-0.1,0l-2.1-0.8c-26.9-10.7-45.8-35.2-49.2-63.9L1032,25.3L1029,0h-2.5l43.3,366.2c0,0,0,0.1,0,0.1
		l11.5,97.1c0,0,0,0,0,0l2.5,21.4l90.4,764.1h2.5L1110,684.6l-26.2-221.4c-1.2-10.1,2.9-19.9,11-26.1c8-6.2,18.5-7.7,27.9-3.9
		l494.1,196.3l0.1,0.1l397.3,157.8c14.6,5.8,25.8,17,31.6,31.7c5.8,14.6,5.3,30.5-1.3,44.7L1864.4,1249h2.8l66.9-143.2l120.4-257.4
		c11.7-24.9,32.3-43.9,58-53.4l6.6-2.4l0,0l0.2-0.1L2500,651.8v-2.7L2118.3,790.2z M1093.3,435.1c-5.4,4.1-9.1,9.7-10.9,15.9
		l-7.7-65.2c7,18.3,20.4,33.6,38,42.8C1105.8,428.6,1099,430.8,1093.3,435.1z M1632.8,633.1c1.2,0.1,2.5,0.1,3.7,0.1
		c7.7,0,15.5-1.7,22.7-5.2c11.4-5.4,20.2-14.4,25.4-25.6c-1.6,24.3,9.4,48.1,28.8,62.6L1632.8,633.1z M2052.2,847.3l-0.4,0.9
		c1.5-10.1,0.3-20.4-3.6-30.2c-3.9-9.9-10.3-18.4-18.5-24.7c14.1,4.9,28.8,7.4,43.6,7.4c8.7,0,17.3-0.9,25.9-2.6
		C2078.6,808.9,2062.2,826,2052.2,847.3z"/>
</g>
</svg>
