<svg width="121" height="112" viewBox="0 0 121 112" fill="none" xmlns="http://www.w3.org/2000/svg">
<path d="M0.598955 63.3879C4.44693 90.0752 29.7511 111.973 56.7654 111.986C83.867 112.003 108.539 91.3466 117.107 65.6826C121.985 51.0828 121.679 33.3827 111.182 22.1095C98.5085 8.5068 59.2784 -1.18579 40.6798 1.33968C14.2283 4.93195 -2.87382 39.2914 0.598955 63.3879Z" fill="#41B729" style="fill:#41B729;fill:color(display-p3 0.2549 0.7176 0.1608);fill-opacity:1;"/>
<g clip-path="url(#clip0_13649_140)">
<path d="M84.5614 73.051C85.423 71.8839 85.9336 70.4427 85.9336 68.884C85.9336 65.007 82.7794 61.8528 78.9023 61.8528C75.0253 61.8528 71.8711 65.007 71.8711 68.884C71.8711 70.4427 72.3817 71.8839 73.2432 73.051C71.7597 73.6577 70.4769 74.657 69.5273 75.9214C68.5778 74.657 67.295 73.6576 65.8114 73.051C66.673 71.8839 67.1836 70.4427 67.1836 68.884C67.1836 65.007 64.0294 61.8528 60.1523 61.8528C56.2753 61.8528 53.1211 65.007 53.1211 68.884C53.1211 70.4427 53.6317 71.8839 54.4932 73.051C53.0096 73.6577 51.7269 74.657 50.7773 75.9214C49.8278 74.657 48.545 73.6576 47.0614 73.051C47.923 71.8839 48.4336 70.4427 48.4336 68.884C48.4336 65.007 45.2794 61.8528 41.4023 61.8528C37.5253 61.8528 34.3711 65.007 34.3711 68.884C34.3711 70.4427 34.8817 71.8839 35.7432 73.051C32.5359 74.3624 30.2695 77.5151 30.2695 81.1887V84.7043C30.2695 85.6751 31.0566 86.4622 32.0273 86.4622H88.2773C89.2481 86.4622 90.0352 85.6751 90.0352 84.7043V81.1887C90.0352 77.5151 87.7687 74.3624 84.5614 73.051ZM78.9023 65.3684C80.8409 65.3684 82.418 66.9455 82.418 68.884C82.418 70.8225 80.8409 72.3997 78.9023 72.3997C76.9638 72.3997 75.3867 70.8225 75.3867 68.884C75.3867 66.9455 76.9638 65.3684 78.9023 65.3684ZM60.1523 65.3684C62.0909 65.3684 63.668 66.9455 63.668 68.884C63.668 70.8225 62.0909 72.3997 60.1523 72.3997C58.2138 72.3997 56.6367 70.8225 56.6367 68.884C56.6367 66.9455 58.2138 65.3684 60.1523 65.3684ZM41.4023 65.3684C43.3409 65.3684 44.918 66.9455 44.918 68.884C44.918 70.8225 43.3409 72.3997 41.4023 72.3997C39.4638 72.3997 37.8867 70.8225 37.8867 68.884C37.8867 66.9455 39.4638 65.3684 41.4023 65.3684ZM33.7852 81.1887C33.7852 78.2809 36.1508 75.9153 39.0586 75.9153H43.7461C46.6539 75.9153 49.0195 78.2809 49.0195 81.1887V82.9465H33.7852V81.1887ZM52.5352 81.1887C52.5352 78.2809 54.9008 75.9153 57.8086 75.9153H62.4961C65.4039 75.9153 67.7695 78.2809 67.7695 81.1887V82.9465H52.5352V81.1887ZM86.5195 82.9465H71.2852V81.1887C71.2852 78.2809 73.6508 75.9153 76.5586 75.9153H81.2461C84.1539 75.9153 86.5195 78.2809 86.5195 81.1887V82.9465Z" fill="#FBF4EE" style="fill:#FBF4EE;fill:color(display-p3 0.9843 0.9569 0.9333);fill-opacity:1;"/>
<path d="M56.6367 58.3372H63.668C64.6388 58.3372 65.4258 57.5501 65.4258 56.5793V39.3528H67.1836C68.6322 39.3528 69.4589 37.6992 68.5898 36.5403L61.5586 27.1653C60.8555 26.2278 59.4492 26.2278 58.7461 27.1653L51.7148 36.5403C50.8458 37.6992 51.6725 39.3528 53.1211 39.3528H54.8789V56.5793C54.8789 57.5501 55.6659 58.3372 56.6367 58.3372ZM60.1523 31.1497L63.668 35.8372C62.6972 35.8372 61.9102 36.6242 61.9102 37.595V54.8215H58.3945V37.595C58.3945 36.6242 57.6075 35.8372 56.6367 35.8372L60.1523 31.1497Z" fill="#FBF4EE" style="fill:#FBF4EE;fill:color(display-p3 0.9843 0.9569 0.9333);fill-opacity:1;"/>
<path d="M73.6289 45.2122V56.5793C73.6289 57.5501 74.4159 58.3372 75.3867 58.3372H82.418C83.3888 58.3372 84.1758 57.5501 84.1758 56.5793V45.2122H85.9336C87.3822 45.2122 88.2089 43.5585 87.3398 42.3997L80.3086 33.0247C79.6055 32.0872 78.1992 32.0872 77.4961 33.0247L70.4648 42.3997C69.5958 43.5585 70.4225 45.2122 71.8711 45.2122H73.6289ZM78.9023 37.009L82.418 41.6965C81.4472 41.6965 80.6602 42.4836 80.6602 43.4543V54.8215H77.1445V43.4543C77.1445 42.4836 76.3575 41.6965 75.3867 41.6965L78.9023 37.009Z" fill="#FBF4EE" style="fill:#FBF4EE;fill:color(display-p3 0.9843 0.9569 0.9333);fill-opacity:1;"/>
<path d="M37.8867 58.3372H44.918C45.8888 58.3372 46.6758 57.5501 46.6758 56.5793V45.2122H48.4336C49.8822 45.2122 50.7089 43.5585 49.8398 42.3997L42.8086 33.0247C42.1055 32.0872 40.6992 32.0872 39.9961 33.0247L32.9648 42.3997C32.0958 43.5585 32.9225 45.2122 34.3711 45.2122H36.1289V56.5793C36.1289 57.5501 36.9159 58.3372 37.8867 58.3372ZM41.4023 37.009L44.918 41.6965C43.9472 41.6965 43.1602 42.4836 43.1602 43.4543V54.8215H39.6445V43.4543C39.6445 42.4836 38.8575 41.6965 37.8867 41.6965L41.4023 37.009Z" fill="#FBF4EE" style="fill:#FBF4EE;fill:color(display-p3 0.9843 0.9569 0.9333);fill-opacity:1;"/>
</g>
<defs>
<clipPath id="clip0_13649_140">
<rect width="60" height="60" fill="white" style="fill:white;fill-opacity:1;" transform="translate(30.1523 26.4622)"/>
</clipPath>
</defs>
</svg>
