<svg width="121" height="113" viewBox="0 0 121 113" fill="none" xmlns="http://www.w3.org/2000/svg">
<path d="M0.598955 63.4354C4.44693 90.1227 29.7511 112.02 56.7654 112.033C83.867 112.051 108.539 91.3941 117.107 65.7301C121.985 51.1303 121.679 33.4302 111.182 22.157C98.5085 8.55428 59.2784 -1.13831 40.6798 1.38716C14.2283 4.97943 -2.87382 39.3389 0.598955 63.4354Z" fill="#41B729" style="fill:#41B729;fill:color(display-p3 0.2549 0.7176 0.1608);fill-opacity:1;"/>
<g clip-path="url(#clip0_13649_141)">
<path d="M87.2345 41.0641H78.1562C77.1854 41.0641 76.3984 41.8511 76.3984 42.8219V55.2438H69.078C68.1073 55.2438 67.3202 56.0308 67.3202 57.0016V65.09H61.7578V56.8844C61.7578 55.9136 60.9708 55.1266 60 55.1266H50.9218C49.951 55.1266 49.164 55.9136 49.164 56.8844V65.09H41.8437C40.8729 65.09 40.0859 65.877 40.0859 66.8478V74.0573H34.5233V37.5485C34.5233 36.5777 33.7363 35.7906 32.7655 35.7906C31.7947 35.7906 31.0077 36.5777 31.0077 37.5485V85.2438C31.0077 86.2146 31.7947 87.0016 32.7655 87.0016H87.2345C88.2053 87.0016 88.9923 86.2146 88.9923 85.2438V42.8219C88.9923 41.8511 88.2053 41.0641 87.2345 41.0641ZM34.5233 77.5729H40.0859V83.486H34.5233V77.5729ZM43.6015 68.6056H49.164V83.486H43.6015C43.6015 83.3253 43.6015 68.8741 43.6015 68.6056ZM52.6796 58.6422H58.2422V83.486H52.6796C52.6796 82.4077 52.6796 60.0292 52.6796 58.6422ZM61.7578 68.6056H67.3203V83.486H61.7578V68.6056ZM70.836 58.7594H76.3985V83.486H70.836C70.836 82.662 70.836 59.5803 70.836 58.7594ZM79.914 83.486C79.914 82.2087 79.914 45.0821 79.914 44.5797H85.4767V83.486H79.914Z" fill="#FBF4EE" style="fill:#FBF4EE;fill:color(display-p3 0.9843 0.9569 0.9333);fill-opacity:1;"/>
<path d="M40.9784 52.7623L51.6798 42.0609L61.9153 50.2037C62.6149 50.7603 63.6209 50.7031 64.2526 50.071L81.3205 33.0031V34.509C81.3205 35.4798 82.1075 36.2668 83.0783 36.2668C84.0491 36.2668 84.8361 35.4798 84.8361 34.509V28.7594C84.8361 27.7911 84.0527 27.0101 83.0936 27.0024C83.0884 27.0024 83.0835 27.0016 83.0783 27.0016H77.3288C76.358 27.0016 75.5709 27.7886 75.5709 28.7594C75.5709 29.7302 76.358 30.5172 77.3288 30.5172H78.8346L62.8763 46.4756L52.6407 38.3327C51.9411 37.7762 50.9354 37.8333 50.3034 38.4653L38.4925 50.2764C37.806 50.9629 37.806 52.0758 38.4925 52.7623C39.1788 53.4487 40.292 53.4488 40.9784 52.7623Z" fill="#FBF4EE" style="fill:#FBF4EE;fill:color(display-p3 0.9843 0.9569 0.9333);fill-opacity:1;"/>
</g>
<defs>
<clipPath id="clip0_13649_141">
<rect width="60" height="60" fill="white" style="fill:white;fill-opacity:1;" transform="translate(30 27.0016)"/>
</clipPath>
</defs>
</svg>
