<svg width="121" height="112" viewBox="0 0 121 112" fill="none" xmlns="http://www.w3.org/2000/svg">
<path d="M0.598955 63.2932C4.44693 89.9805 29.7511 111.878 56.7654 111.891C83.867 111.909 108.539 91.2519 117.107 65.5879C121.985 50.9881 121.679 33.288 111.182 22.0148C98.5085 8.41207 59.2784 -1.28052 40.6798 1.24495C14.2283 4.83722 -2.87382 39.1967 0.598955 63.2932Z" fill="#41B729" style="fill:#41B729;fill:color(display-p3 0.2549 0.7176 0.1608);fill-opacity:1;"/>
<path d="M77.5782 75.4531C76.6074 75.4531 75.8204 76.2402 75.8204 77.2109V84.2422C75.8204 85.213 76.6074 86 77.5782 86H84.6094C85.5802 86 86.3672 85.213 86.3672 84.2422V77.2109C86.3672 76.2402 85.5802 75.4531 84.6094 75.4531H82.8516V66.5469C82.8516 65.5761 82.0646 64.7891 81.0938 64.7891H65.2735V59.5132C65.2735 57.9724 66.1299 56.5538 67.5081 55.811C72.8186 52.9494 76.0006 47.44 75.8123 41.4327C75.5512 33.094 68.8666 26.3201 60.5942 26.0112C51.4731 25.6707 44.1798 33.1193 44.1798 41.9376C44.1798 47.8929 47.4949 53.277 52.8314 55.9888C54.0004 56.5828 54.7266 57.7781 54.7266 59.108V64.7891H38.9064C37.9356 64.7891 37.1486 65.5761 37.1486 66.5469V75.4531H35.3907C34.42 75.4531 33.6329 76.2402 33.6329 77.2109V84.2422C33.6329 85.213 34.42 86 35.3907 86H42.422C43.3928 86 44.1798 85.213 44.1798 84.2422V77.2109C44.1798 76.2402 43.3928 75.4531 42.422 75.4531H40.6642V68.3047H58.2423V75.4531H56.4845C55.5137 75.4531 54.7266 76.2402 54.7266 77.2109V84.2422C54.7266 85.213 55.5137 86 56.4845 86H63.5157C64.4865 86 65.2735 85.213 65.2735 84.2422V77.2109C65.2735 76.2402 64.4865 75.4531 63.5157 75.4531H61.7579V68.3047H79.336V75.4531H77.5782ZM40.6642 82.4844H37.1486V78.9688H40.6642V82.4844ZM61.7579 82.4844H58.2423V78.9688H61.7579V82.4844ZM61.7579 64.7891H58.2423V61.2735H61.7579V64.7891ZM61.9624 57.7579H61.7579V46.1813L64.7586 43.1806C65.4451 42.4941 65.4451 41.3812 64.7586 40.6947C64.0722 40.0082 62.9592 40.0082 62.2727 40.6947L60 42.9674L57.7272 40.6947C57.0409 40.0082 55.9278 40.0082 55.2413 40.6947C54.5548 41.3812 54.5548 42.4941 55.2413 43.1806L58.242 46.1813V57.7579H58.113C57.7089 55.6557 56.3722 53.8446 54.4238 52.8546C50.2734 50.7456 47.6952 46.5625 47.6952 41.9376C47.6952 35.1247 53.3247 29.2581 60.4628 29.5244C66.896 29.7646 72.0946 35.0438 72.2983 41.5429C72.4444 46.2096 69.9699 50.491 65.8402 52.7162C63.8542 53.7865 62.4623 55.633 61.9624 57.7579ZM82.8516 78.9688V82.4844H79.336V78.9688H82.8516Z" fill="#FBF4EE" style="fill:#FBF4EE;fill:color(display-p3 0.9843 0.9569 0.9333);fill-opacity:1;"/>
</svg>
