<svg width="121" height="112" viewBox="0 0 121 112" fill="none" xmlns="http://www.w3.org/2000/svg">
<path d="M0.598955 63.3406C4.44693 90.0278 29.7511 111.925 56.7654 111.938C83.867 111.956 108.539 91.2993 117.107 65.6353C121.985 51.0354 121.679 33.3353 111.182 22.0622C98.5085 8.45943 59.2784 -1.23316 40.6798 1.29232C14.2283 4.88458 -2.87382 39.2441 0.598955 63.3406Z" fill="#41B729" style="fill:#41B729;fill:color(display-p3 0.2549 0.7176 0.1608);fill-opacity:1;"/>
<g clip-path="url(#clip0_13649_139)">
<path d="M84.5614 74.1755C85.423 73.0084 85.9336 71.5673 85.9336 70.0085C85.9336 66.7383 83.6893 63.9823 80.6602 63.1998V43.407C80.6602 42.4362 79.8731 41.6492 78.9023 41.6492H73.5129C73.5888 41.0713 73.6289 40.4846 73.6289 39.8914C73.6289 32.4604 67.5833 26.4148 60.1523 26.4148C52.7214 26.4148 46.6758 32.4604 46.6758 39.8914C46.6758 40.4846 46.7159 41.0713 46.7918 41.6492H41.4023C40.4316 41.6492 39.6445 42.4362 39.6445 43.407V63.1998C36.6154 63.9823 34.3711 66.7383 34.3711 70.0085C34.3711 71.5673 34.8817 73.0084 35.7432 74.1755C32.5359 75.4869 30.2695 78.6396 30.2695 82.3132V84.657C30.2695 85.6278 31.0566 86.4148 32.0273 86.4148H88.2773C89.2481 86.4148 90.0352 85.6278 90.0352 84.657V82.3132C90.0352 78.6396 87.7687 75.4869 84.5614 74.1755ZM82.418 70.0085C82.418 71.9471 80.8409 73.5242 78.9023 73.5242C76.9638 73.5242 75.3867 71.9471 75.3867 70.0085C75.3867 68.07 76.9638 66.4929 78.9023 66.4929C80.8409 66.4929 82.418 68.07 82.418 70.0085ZM77.1445 45.1648V63.1998C74.1154 63.9823 71.8711 66.7383 71.8711 70.0085C71.8711 71.5673 72.3817 73.0084 73.2432 74.1755C71.7597 74.7822 70.4769 75.7816 69.5273 77.0459C68.5778 75.7816 67.295 74.7822 65.8114 74.1755C66.673 73.0084 67.1836 71.5673 67.1836 70.0085C67.1836 66.7383 64.9393 63.9823 61.9102 63.1998V59.2273H62.4961C64.7577 59.2273 66.5977 57.3873 66.5977 55.1257V51.723C69.2998 50.2511 71.3784 47.9213 72.5527 45.1648H77.1445ZM56.6367 70.0085C56.6367 68.07 58.2138 66.4929 60.1523 66.4929C62.0909 66.4929 63.668 68.07 63.668 70.0085C63.668 71.9471 62.0909 73.5242 60.1523 73.5242C58.2138 73.5242 56.6367 71.9471 56.6367 70.0085ZM57.8086 55.7117C57.4855 55.7117 57.2227 55.4488 57.2227 55.1257V52.3864H63.082V55.1257C63.082 55.4488 62.8192 55.7117 62.4961 55.7117H57.8086ZM60.1523 29.9304C65.6448 29.9304 70.1133 34.3989 70.1133 39.8914C70.1133 43.7301 67.9043 47.2164 64.4561 48.8707H61.9102V42.821H62.4961C63.4669 42.821 64.2539 42.034 64.2539 41.0632C64.2539 40.0925 63.4669 39.3054 62.4961 39.3054H57.8086C56.8378 39.3054 56.0508 40.0925 56.0508 41.0632C56.0508 42.034 56.8378 42.821 57.8086 42.821H58.3945V48.8707H55.8486C52.4004 47.2164 50.1914 43.7301 50.1914 39.8914C50.1914 34.3989 54.6599 29.9304 60.1523 29.9304ZM47.752 45.1648C48.9264 47.9214 51.0049 50.2511 53.707 51.723V55.1257C53.707 57.3873 55.547 59.2273 57.8086 59.2273H58.3945V63.1998C55.3654 63.9823 53.1211 66.7383 53.1211 70.0085C53.1211 71.5673 53.6317 73.0084 54.4932 74.1755C53.0096 74.7822 51.7269 75.7816 50.7773 77.0459C49.8278 75.7816 48.545 74.7822 47.0614 74.1755C47.923 73.0084 48.4336 71.5673 48.4336 70.0085C48.4336 66.7383 46.1893 63.9823 43.1602 63.1998V45.1648H47.752ZM41.4023 66.4929C43.3409 66.4929 44.918 68.07 44.918 70.0085C44.918 71.9471 43.3409 73.5242 41.4023 73.5242C39.4638 73.5242 37.8867 71.9471 37.8867 70.0085C37.8867 68.07 39.4638 66.4929 41.4023 66.4929ZM33.7852 82.3132C33.7852 79.4055 36.1508 77.0398 39.0586 77.0398H43.7461C46.6539 77.0398 49.0195 79.4055 49.0195 82.3132V82.8992H33.7852V82.3132ZM52.5352 82.3132C52.5352 79.4055 54.9008 77.0398 57.8086 77.0398H62.4961C65.4039 77.0398 67.7695 79.4055 67.7695 82.3132V82.8992H52.5352V82.3132ZM86.5195 82.8992H71.2852V82.3132C71.2852 79.4055 73.6508 77.0398 76.5586 77.0398H81.2461C84.1539 77.0398 86.5195 79.4055 86.5195 82.3132V82.8992Z" fill="#FBF4EE" style="fill:#FBF4EE;fill:color(display-p3 0.9843 0.9569 0.9333);fill-opacity:1;"/>
<path d="M78.9023 34.6179C77.9316 34.6179 77.1445 35.405 77.1445 36.3757C77.1445 37.3465 77.9316 38.1335 78.9023 38.1335H82.418C83.3888 38.1335 84.1758 37.3465 84.1758 36.3757C84.1758 35.405 83.3888 34.6179 82.418 34.6179H78.9023Z" fill="#FBF4EE" style="fill:#FBF4EE;fill:color(display-p3 0.9843 0.9569 0.9333);fill-opacity:1;"/>
<path d="M78.6094 31.4531L81.6539 29.6952C82.4946 29.2098 82.7827 28.1348 82.2973 27.2941C81.8119 26.4534 80.7368 26.1653 79.8961 26.6507L76.8516 28.4085C76.0109 28.8939 75.7228 29.969 76.2082 30.8097C76.6936 31.6504 77.7687 31.9384 78.6094 31.4531Z" fill="#FBF4EE" style="fill:#FBF4EE;fill:color(display-p3 0.9843 0.9569 0.9333);fill-opacity:1;"/>
<path d="M37.8867 38.1335H41.4023C42.3731 38.1335 43.1602 37.3465 43.1602 36.3757C43.1602 35.405 42.3731 34.6179 41.4023 34.6179H37.8867C36.9159 34.6179 36.1289 35.405 36.1289 36.3757C36.1289 37.3465 36.9159 38.1335 37.8867 38.1335Z" fill="#FBF4EE" style="fill:#FBF4EE;fill:color(display-p3 0.9843 0.9569 0.9333);fill-opacity:1;"/>
<path d="M38.6508 29.6952L41.6953 31.4531C42.536 31.9384 43.6111 31.6504 44.0965 30.8097C44.5819 29.969 44.2938 28.8939 43.4531 28.4085L40.4086 26.6507C39.5679 26.1653 38.4928 26.4534 38.0074 27.2941C37.522 28.1348 37.81 29.2097 38.6508 29.6952Z" fill="#FBF4EE" style="fill:#FBF4EE;fill:color(display-p3 0.9843 0.9569 0.9333);fill-opacity:1;"/>
</g>
<defs>
<clipPath id="clip0_13649_139">
<rect width="60" height="60" fill="white" style="fill:white;fill-opacity:1;" transform="translate(30.1523 26.4148)"/>
</clipPath>
</defs>
</svg>
