<svg width="121" height="112" viewBox="0 0 121 112" fill="none" xmlns="http://www.w3.org/2000/svg">
<path d="M0.641924 63.3713C4.4899 90.0586 29.794 111.956 56.8084 111.969C83.91 111.987 108.582 91.33 117.15 65.666C122.028 51.0662 121.722 33.3661 111.225 22.0929C98.5515 8.49019 59.3214 -1.20239 40.7228 1.32308C14.2713 4.91534 -2.83085 39.2748 0.641924 63.3713Z" fill="#41B729" style="fill:#41B729;fill:color(display-p3 0.2549 0.7176 0.1608);fill-opacity:1;"/>
<g clip-path="url(#clip0_13581_667)">
<path d="M83.4658 70.157C85.3528 68.5436 86.5523 66.1484 86.5523 63.477C86.5523 58.6306 82.6094 54.6877 77.763 54.6877C72.9173 54.6877 68.975 58.6295 68.9737 63.4748C68.9725 58.6295 65.0301 54.6877 60.1844 54.6877C55.338 54.6877 51.3951 58.6306 51.3951 63.477C51.3951 66.1523 52.5979 68.5504 54.4896 70.1639C53.3491 70.7676 52.3133 71.5465 51.4177 72.4653C50.5058 71.5289 49.4566 70.7511 48.3136 70.1526C50.1976 68.5394 51.3951 66.1461 51.3951 63.477C51.3951 58.6306 47.4522 54.6877 42.6058 54.6877C37.7594 54.6877 33.8165 58.6306 33.8165 63.477C33.8165 66.1484 35.0161 68.5435 36.903 70.157C33.0085 72.204 30.207 76.3257 30.207 81.1729V84.6887C30.2069 85.6595 30.9705 86.4465 31.9413 86.4465C32.6089 86.4465 87.2878 86.4465 88.4274 86.4465C89.3982 86.4465 90.1852 85.6595 90.1852 84.6887V81.1729C90.1852 76.3742 87.4034 72.2267 83.4658 70.157ZM77.7629 58.2035C80.6708 58.2035 83.0364 60.5693 83.0364 63.477C83.0364 66.3849 80.6707 68.7506 77.7629 68.7506C74.855 68.7506 72.4893 66.3848 72.4893 63.477C72.4893 60.5693 74.8551 58.2035 77.7629 58.2035ZM68.9737 63.4811C68.9749 66.1486 70.1721 68.5401 72.0552 70.1526C70.912 70.7511 69.8628 71.5288 68.951 72.4653C68.0554 71.5466 67.0197 70.7676 65.8793 70.1639C67.77 68.5514 68.9724 66.1548 68.9737 63.4811ZM60.1843 58.2035C63.0922 58.2035 65.4579 60.5693 65.4579 63.477C65.4579 66.3849 63.0921 68.7506 60.1843 68.7506C57.2764 68.7506 54.9107 66.3848 54.9107 63.477C54.9106 60.5693 57.2764 58.2035 60.1843 58.2035ZM42.6056 58.2035C45.5135 58.2035 47.8791 60.5693 47.8791 63.477C47.8791 66.3849 45.5134 68.7506 42.6056 68.7506C39.6978 68.7506 37.332 66.3848 37.332 63.477C37.332 60.5693 39.6977 58.2035 42.6056 58.2035ZM47.9027 81.1729V82.9308H33.6991V81.1729C33.6991 76.3452 37.7778 72.2665 42.6056 72.2665C45.2084 72.2665 47.6457 73.4103 49.3075 75.3693C48.3964 77.1026 47.9027 79.0777 47.9027 81.1729ZM68.997 82.9309H51.3949V81.1731C51.3949 76.262 55.3378 72.2666 60.1842 72.2666C65.0306 72.2666 68.9969 76.2621 68.9969 81.1731L68.997 82.9309ZM86.6929 82.9309H72.4893V81.1731C72.4893 79.0779 71.9721 77.1027 71.0611 75.3693C72.7228 73.4103 75.16 72.2665 77.763 72.2665C82.5908 72.2665 86.6929 76.3452 86.6929 81.1729V82.9309Z" fill="#FBF4EE" style="fill:#FBF4EE;fill:color(display-p3 0.9843 0.9569 0.9333);fill-opacity:1;"/>
<path d="M71.3473 34.6366L64.6062 33.657L61.586 27.434C60.9459 26.1153 59.0623 26.1169 58.4231 27.434L55.4028 33.657L48.6618 34.6366C47.2232 34.8456 46.6457 36.6194 47.6876 37.6349L52.5706 42.3948L51.418 49.116C51.1722 50.5486 52.6808 51.6462 53.9685 50.9691L60.0045 47.7958L66.0405 50.9691C67.3258 51.6449 68.8375 50.5528 68.5911 49.116L67.4384 42.3948L72.3216 37.6349C73.3624 36.6201 72.787 34.8457 71.3473 34.6366ZM64.3224 40.5222C63.9081 40.926 63.7191 41.5078 63.8169 42.0781L64.5237 46.1996L60.8225 44.2538C60.3105 43.9846 59.6985 43.9846 59.1865 44.2538L55.4853 46.1996L56.1922 42.0781C56.2899 41.5078 56.1009 40.926 55.6866 40.5222L52.6922 37.6033L56.8303 37.0021C57.4068 36.9183 57.9045 36.5542 58.1589 36.03L60.0044 32.2274L61.85 36.03C62.1044 36.5542 62.602 36.9183 63.1785 37.0021L67.3168 37.6034L64.3224 40.5222Z" fill="#FBF4EE" style="fill:#FBF4EE;fill:color(display-p3 0.9843 0.9569 0.9333);fill-opacity:1;"/>
</g>
<defs>
<clipPath id="clip0_13581_667">
<rect width="60" height="60" fill="white" style="fill:white;fill-opacity:1;" transform="translate(30.1953 26.4456)"/>
</clipPath>
</defs>
</svg>
