<svg width="121" height="113" viewBox="0 0 121 113" fill="none" xmlns="http://www.w3.org/2000/svg">
<path d="M0.641924 63.4182C4.4899 90.1055 29.794 112.003 56.8084 112.016C83.91 112.034 108.582 91.3769 117.15 65.7129C122.028 51.1131 121.722 33.413 111.225 22.1398C98.5515 8.53707 59.3214 -1.15552 40.7228 1.36995C14.2713 4.96222 -2.83085 39.3217 0.641924 63.4182Z" fill="#41B729" style="fill:#41B729;fill:color(display-p3 0.2549 0.7176 0.1608);fill-opacity:1;"/>
<g clip-path="url(#clip0_13581_679)">
<path d="M89.0231 33.2144L74.8434 26.1831C74.8311 26.1772 74.8187 26.1726 74.8068 26.1671C74.7734 26.1515 74.7395 26.1364 74.7052 26.1231C74.6832 26.1144 74.6613 26.1062 74.6393 26.0989C74.6077 26.0879 74.5766 26.0778 74.5445 26.0687C74.5175 26.0609 74.4905 26.054 74.4635 26.0476C74.436 26.0412 74.4086 26.0352 74.3811 26.0302C74.3486 26.0243 74.3161 26.0192 74.2836 26.0156C74.2598 26.0124 74.2365 26.0096 74.2126 26.0078C74.176 26.0046 74.1394 26.0027 74.1028 26.0023C74.0891 26.0018 74.0758 26 74.0625 26C74.0538 26 74.0456 26.0014 74.0373 26.0014C74.0016 26.0018 73.9659 26.0041 73.9302 26.0069C73.9059 26.0087 73.8817 26.0101 73.8579 26.0128C73.8281 26.0165 73.7984 26.0215 73.7691 26.0266C73.7398 26.0316 73.7109 26.0362 73.6826 26.0421C73.6588 26.0476 73.6354 26.054 73.6121 26.0604C73.5796 26.0691 73.5471 26.0774 73.515 26.0879C73.4949 26.0948 73.4752 26.1025 73.455 26.1099C73.4221 26.1222 73.3891 26.1341 73.3571 26.1483C73.336 26.1575 73.3154 26.1685 73.2948 26.1785C73.2655 26.1927 73.2362 26.2065 73.2083 26.2225C73.1831 26.2362 73.1593 26.2513 73.1355 26.2664C73.1126 26.2806 73.0893 26.2943 73.0673 26.3094C73.0394 26.3287 73.0128 26.3497 72.9863 26.3703C72.9689 26.3836 72.9515 26.3964 72.9346 26.4106C72.9071 26.4335 72.8806 26.4582 72.8545 26.4834C72.8398 26.4971 72.8247 26.5109 72.8105 26.5251C72.7863 26.5498 72.7634 26.5754 72.7409 26.6015C72.7254 26.6194 72.7098 26.6367 72.6947 26.6551C72.6764 26.6779 72.659 26.7022 72.6416 26.7265C72.6242 26.7503 72.6068 26.7741 72.5903 26.7988C72.5771 26.8194 72.5652 26.8405 72.5523 26.8615C72.5345 26.8922 72.5166 26.9229 72.5002 26.9549C72.4965 26.9622 72.4915 26.9691 72.4878 26.9769C72.4818 26.9888 72.4777 27.0011 72.4718 27.0135C72.4562 27.0469 72.4416 27.0803 72.4278 27.1147C72.4191 27.1371 72.4113 27.1591 72.4036 27.1815C72.3926 27.2126 72.3825 27.2437 72.3734 27.2758C72.3656 27.3028 72.3587 27.3298 72.3523 27.3573C72.3463 27.3843 72.3404 27.4113 72.3354 27.4388C72.3294 27.4717 72.3244 27.5047 72.3203 27.5376C72.317 27.5605 72.3148 27.5839 72.3125 27.6072C72.3093 27.6443 72.3079 27.6814 72.307 27.718C72.3065 27.7317 72.3047 27.7445 72.3047 27.7578V50.8438H51.0938C47.2165 50.8438 44.0625 53.9977 44.0625 57.875C44.0625 59.1554 44.4081 60.3556 45.0082 61.3906H44.0625C40.1852 61.3906 37.0312 64.5446 37.0312 68.4219C37.0312 69.7022 37.3769 70.9025 37.977 71.9375H37.0312C33.154 71.9375 30 75.0915 30 78.9688C30 82.846 33.154 86 37.0312 86H70.8211C71.7915 86 72.5789 85.2131 72.5789 84.2422C72.5789 83.2713 71.7915 82.4844 70.8211 82.4844H70.5469C68.6082 82.4844 67.0312 80.9074 67.0312 78.9688C67.0312 77.0301 68.6082 75.4531 70.5469 75.4531H77.8523C78.8228 75.4531 79.6101 74.6662 79.6101 73.6953C79.6101 72.7244 78.8228 71.9375 77.8523 71.9375H77.5781C75.6395 71.9375 74.0625 70.3605 74.0625 68.4219C74.0625 66.4832 75.6395 64.9062 77.5781 64.9062H84.8836C85.854 64.9062 86.6414 64.1194 86.6414 63.1484C86.6414 62.1775 85.854 61.3906 84.8836 61.3906H84.6094C82.6707 61.3906 81.0938 59.8136 81.0938 57.875C81.0938 55.9364 82.6707 54.3594 84.6094 54.3594H84.8836C85.854 54.3594 86.6414 53.5725 86.6414 52.6016C86.6414 51.6306 85.854 50.8438 84.8836 50.8438H75.8203V42.9107L89.0231 36.3638C89.6214 36.0671 90 35.4569 90 34.7891C90 34.1212 89.6214 33.511 89.0231 33.2144ZM64.4591 82.4844H37.0312C35.0926 82.4844 33.5156 80.9074 33.5156 78.9688C33.5156 77.0301 35.0926 75.4298 37.0312 75.4298H64.4591C63.8594 76.4643 63.5156 77.6888 63.5156 78.9688C63.5156 80.2487 63.8594 81.4498 64.4591 82.4844ZM71.4903 71.9375C70.2173 71.9375 45.3845 71.9375 44.0625 71.9375C42.1239 71.9375 40.5469 70.3605 40.5469 68.4219C40.5469 66.4832 42.1239 64.8829 44.0625 64.8829H71.4903C70.8907 65.9174 70.5469 67.142 70.5469 68.4219C70.5469 69.7018 70.8907 70.903 71.4903 71.9375ZM78.5216 61.3906C77.2485 61.3906 52.4158 61.3906 51.0938 61.3906C49.1551 61.3906 47.5781 59.8136 47.5781 57.875C47.5781 55.9364 49.1551 54.336 51.0938 54.336H78.5216C77.9219 55.3706 77.5781 56.5951 77.5781 57.875C77.5781 59.1549 77.9219 60.3561 78.5216 61.3906ZM75.8203 38.9868V30.5914L84.2853 34.7891L75.8203 38.9868Z" fill="#FBF4EE" style="fill:#FBF4EE;fill:color(display-p3 0.9843 0.9569 0.9333);fill-opacity:1;"/>
</g>
<defs>
<clipPath id="clip0_13581_679">
<rect width="60" height="60" fill="white" style="fill:white;fill-opacity:1;" transform="translate(30 26)"/>
</clipPath>
</defs>
</svg>
