<svg width="121" height="112" viewBox="0 0 121 112" fill="none" xmlns="http://www.w3.org/2000/svg">
<path d="M0.641924 63.2776C4.4899 89.9649 29.794 111.862 56.8084 111.876C83.91 111.893 108.582 91.2363 117.15 65.5723C122.028 50.9724 121.722 33.2724 111.225 21.9992C98.5515 8.39644 59.3214 -1.29614 40.7228 1.22933C14.2713 4.82159 -2.83085 39.1811 0.641924 63.2776Z" fill="#41B729" style="fill:#41B729;fill:color(display-p3 0.2549 0.7176 0.1608);fill-opacity:1;"/>
<g clip-path="url(#clip0_13581_642)">
<path d="M87.0189 85.6286C88.0227 87.0004 90.1953 86.2904 90.1953 84.5906V53.8909C90.1953 50.3312 87.3097 47.4456 83.75 47.4456H77.0703V32.7971C77.0703 29.2374 74.1847 26.3518 70.625 26.3518H36.6406C33.0809 26.3518 30.1953 29.2374 30.1953 32.7971V74.0471C30.1953 75.6729 32.2128 76.4274 33.2796 75.2006L42.129 65.0237H56.2109V70.2971C56.2109 73.8568 59.0966 76.7424 62.6562 76.7424H80.5143L87.0189 85.6286ZM41.3281 61.5081C40.8193 61.5081 40.3355 61.7285 40.0017 62.1124L33.7109 69.3468V32.7971C33.7109 31.1791 35.0226 29.8674 36.6406 29.8674H70.625C72.243 29.8674 73.5547 31.1791 73.5547 32.7971V47.4456H38.9844C38.0136 47.4456 37.2266 48.2326 37.2266 49.2034C37.2266 50.1742 38.0136 50.9612 38.9844 50.9612H56.9158C56.4662 51.8404 56.2109 52.8355 56.2109 53.8909V54.4768H38.9844C38.0136 54.4768 37.2266 55.2638 37.2266 56.2346C37.2266 57.2054 38.0136 57.9924 38.9844 57.9924H56.2109V61.5081H41.3281ZM86.6797 79.215L82.8249 73.9467C82.4939 73.4942 81.9669 73.2268 81.4062 73.2268H62.6562C61.0382 73.2268 59.7266 71.9151 59.7266 70.2971V53.8909C59.7266 52.2729 61.0382 50.9612 62.6562 50.9612H83.75C85.368 50.9612 86.6797 52.2729 86.6797 53.8909V79.215Z" fill="#FBF4EE" style="fill:#FBF4EE;fill:color(display-p3 0.9843 0.9569 0.9333);fill-opacity:1;"/>
<path d="M38.9844 36.8987H68.2812C69.252 36.8987 70.0391 36.1117 70.0391 35.1409C70.0391 34.1701 69.252 33.3831 68.2812 33.3831H38.9844C38.0136 33.3831 37.2266 34.1701 37.2266 35.1409C37.2266 36.1117 38.0136 36.8987 38.9844 36.8987Z" fill="#FBF4EE" style="fill:#FBF4EE;fill:color(display-p3 0.9843 0.9569 0.9333);fill-opacity:1;"/>
<path d="M38.9844 43.9299H68.2812C69.252 43.9299 70.0391 43.1429 70.0391 42.1721C70.0391 41.2013 69.252 40.4143 68.2812 40.4143H38.9844C38.0136 40.4143 37.2266 41.2013 37.2266 42.1721C37.2266 43.1429 38.0136 43.9299 38.9844 43.9299Z" fill="#FBF4EE" style="fill:#FBF4EE;fill:color(display-p3 0.9843 0.9569 0.9333);fill-opacity:1;"/>
<path d="M79.3826 55.9145L70.7172 64.58L67.0235 60.8863C66.3542 60.217 65.2639 60.1554 64.5638 60.7924C63.8164 61.4726 63.7959 62.6306 64.5023 63.337L69.4742 68.3089C70.1607 68.9954 71.2736 68.9954 71.9601 68.3089L81.9037 58.3652C82.6101 57.6589 82.5897 56.5008 81.8422 55.8206C81.1422 55.1835 80.052 55.2451 79.3826 55.9145Z" fill="#FBF4EE" style="fill:#FBF4EE;fill:color(display-p3 0.9843 0.9569 0.9333);fill-opacity:1;"/>
</g>
<defs>
<clipPath id="clip0_13581_642">
<rect width="60" height="60" fill="white" style="fill:white;fill-opacity:1;" transform="translate(30.1953 26.3518)"/>
</clipPath>
</defs>
</svg>
