<svg width="121" height="112" viewBox="0 0 121 112" fill="none" xmlns="http://www.w3.org/2000/svg">
<path d="M0.641924 63.3245C4.4899 90.0117 29.794 111.909 56.8084 111.922C83.91 111.94 108.582 91.2832 117.15 65.6191C122.028 51.0193 121.722 33.3192 111.225 22.046C98.5515 8.44332 59.3214 -1.24927 40.7228 1.2762C14.2713 4.86847 -2.83085 39.228 0.641924 63.3245Z" fill="#41B729" style="fill:#41B729;fill:color(display-p3 0.2549 0.7176 0.1608);fill-opacity:1;"/>
<g clip-path="url(#clip0_13581_654)">
<path d="M48.082 49.8089C48.082 52.3355 50.1374 54.3909 52.664 54.3909H67.7265C70.253 54.3909 72.3085 52.3355 72.3085 49.8089C72.3085 45.0266 69.5469 40.9016 65.5335 38.9309C70.0254 34.3218 66.6986 26.381 60.1952 26.3987C53.6922 26.3809 50.3649 34.3227 54.8568 38.9306C50.8404 40.903 48.082 45.0325 48.082 49.8089ZM60.1953 29.9143C62.3406 29.9143 64.0859 31.6597 64.0859 33.805C63.8903 38.9592 56.4994 38.9578 56.3047 33.805C56.3047 31.6597 58.0499 29.9143 60.1953 29.9143ZM60.1953 41.2112C64.9518 41.2112 68.7929 45.0596 68.7929 49.8089C68.7929 50.397 68.3145 50.8753 67.7265 50.8753H52.664C52.076 50.8753 51.5976 50.3968 51.5976 49.8089C51.5976 45.0523 55.4466 41.2112 60.1953 41.2112Z" fill="#FBF4EE" style="fill:#FBF4EE;fill:color(display-p3 0.9843 0.9569 0.9333);fill-opacity:1;"/>
<path d="M47.6468 70.9387C52.1387 66.3296 48.812 58.3888 42.3084 58.4065C35.8054 58.3887 32.4781 66.3305 36.97 70.9384C32.9538 72.9108 30.1953 77.0404 30.1953 81.8167C30.1953 84.3433 32.2508 86.3988 34.7773 86.3988H49.8398C52.3664 86.3988 54.4218 84.3433 54.4218 81.8167C54.4218 77.0344 51.6602 72.9094 47.6468 70.9387ZM42.3086 61.9221C44.454 61.9221 46.1993 63.6675 46.1993 65.8128C46.0037 70.967 38.6128 70.9656 38.418 65.8128C38.418 63.6675 40.1633 61.9221 42.3086 61.9221ZM49.8398 82.8831H34.7773C34.1893 82.8831 33.7109 82.4046 33.7109 81.8167C34.1287 70.4182 50.495 70.4311 50.9062 81.8168C50.9062 82.4046 50.4279 82.8831 49.8398 82.8831Z" fill="#FBF4EE" style="fill:#FBF4EE;fill:color(display-p3 0.9843 0.9569 0.9333);fill-opacity:1;"/>
<path d="M83.4204 70.9387C87.9123 66.3296 84.5856 58.3888 78.082 58.4065C71.579 58.3887 68.2517 66.3305 72.7437 70.9384C68.7273 72.9108 65.9688 77.0404 65.9688 81.8167C65.9688 84.3433 68.0243 86.3988 70.5508 86.3988H85.6133C88.1399 86.3988 90.1953 84.3433 90.1953 81.8167C90.1953 77.0344 87.4337 72.9094 83.4204 70.9387ZM78.0821 61.9221C80.2275 61.9221 81.9728 63.6675 81.9728 65.8128C81.7772 70.967 74.3863 70.9656 74.1915 65.8128C74.1915 63.6675 75.9368 61.9221 78.0821 61.9221ZM85.6133 82.8831H70.5508C69.9628 82.8831 69.4844 82.4046 69.4844 81.8167C69.9022 70.4182 86.2685 70.4311 86.6797 81.8168C86.6797 82.4046 86.2013 82.8831 85.6133 82.8831Z" fill="#FBF4EE" style="fill:#FBF4EE;fill:color(display-p3 0.9843 0.9569 0.9333);fill-opacity:1;"/>
<path d="M67.3063 64.8377L65.4236 62.0135C64.0077 60.0746 61.1948 62.0772 62.5594 64.0549H57.8315C59.1959 62.0783 56.3834 60.0739 54.9671 62.0133L53.0843 64.8376C52.6907 65.4281 52.6907 66.1973 53.0843 66.7878L54.9672 69.612C55.2936 70.1015 56.3288 70.8169 57.4048 70.0995C58.2501 69.5401 58.4365 68.3781 57.8314 67.5706H62.5593C61.9543 68.3781 62.1405 69.5402 62.986 70.0996C64.0279 70.7941 65.0607 70.1565 65.4236 69.612L67.3063 66.7878C67.7 66.1974 67.7 65.4282 67.3063 64.8377Z" fill="#FBF4EE" style="fill:#FBF4EE;fill:color(display-p3 0.9843 0.9569 0.9333);fill-opacity:1;"/>
<path d="M71.8209 39.1091C76.7836 42.4549 80.0753 47.7572 80.8524 53.6563C80.9534 54.4235 81.6764 55.3206 82.8247 55.1696C83.7871 55.0428 84.4646 54.1597 84.3378 53.1972C83.4294 46.3001 79.5835 40.1028 73.7863 36.1941C72.9812 35.6515 71.8889 35.8641 71.3461 36.6689C70.8034 37.4739 71.0161 38.5664 71.8209 39.1091Z" fill="#FBF4EE" style="fill:#FBF4EE;fill:color(display-p3 0.9843 0.9569 0.9333);fill-opacity:1;"/>
<path d="M37.5659 55.1694C38.7144 55.3205 39.4381 54.4159 39.5382 53.6562C40.3151 47.7571 43.6069 42.4549 48.5696 39.1091C49.3746 38.5664 49.5871 37.4739 49.0444 36.6689C48.5017 35.8639 47.4091 35.6514 46.6042 36.194C40.8069 40.1026 36.9609 46.2999 36.0526 53.1971C35.926 54.1597 36.6035 55.0427 37.5659 55.1694Z" fill="#FBF4EE" style="fill:#FBF4EE;fill:color(display-p3 0.9843 0.9569 0.9333);fill-opacity:1;"/>
</g>
<defs>
<clipPath id="clip0_13581_654">
<rect width="60" height="60" fill="white" style="fill:white;fill-opacity:1;" transform="translate(30.1953 26.3987)"/>
</clipPath>
</defs>
</svg>
