<svg width="30" height="16" viewBox="0 0 30 16" fill="none" xmlns="http://www.w3.org/2000/svg">
<path d="M29.8017 7.52126L22.9837 0.703178C22.7388 0.417187 22.3084 0.383848 22.0224 0.628824C21.7364 0.873741 21.703 1.30416 21.948 1.59015C21.9709 1.61681 21.9957 1.64172 22.0224 1.66451L27.6745 7.32351H0.681785C0.305268 7.32351 0 7.62878 0 8.00535C0 8.38193 0.305268 8.68714 0.681785 8.68714H27.6745L22.0224 14.3393C21.7364 14.5842 21.703 15.0146 21.948 15.3006C22.193 15.5866 22.6234 15.6199 22.9093 15.375C22.936 15.3521 22.9609 15.3273 22.9837 15.3006L29.8018 8.48253C30.0661 8.2167 30.0661 7.78721 29.8017 7.52126Z" fill="white" style="fill:white;fill-opacity:1;"/>
</svg>
