<svg width="162" height="51" viewBox="0 0 162 51" fill="none" xmlns="http://www.w3.org/2000/svg">
<path d="M24.3557 2.66406C11.8947 2.66406 1.76489 12.7958 1.76489 25.2574C1.76489 33.1513 5.80616 40.0915 11.9435 44.137V30.9141H9.66064V39.9501C8.56973 38.6175 7.42588 36.9558 6.47494 35.3378C4.76198 32.3413 3.85927 29.0593 3.85927 25.2571C3.85927 13.8408 13.0361 4.56683 24.3568 4.56683C35.6766 4.56683 44.8554 13.8408 44.8554 25.2571C44.8554 29.0593 43.9038 32.3399 42.1883 35.3869C41.2849 36.9559 40.096 38.6175 39.0051 39.9501V30.9141H36.7686V44.1397C42.9045 40.0943 46.9472 33.1516 46.9472 25.2577C46.9472 12.7941 36.8166 2.66434 24.3564 2.66434L24.3557 2.66406ZM93.6469 3.85578L90.652 4.47229V5.27968L91.983 5.566V20.0701L90.603 20.3539V21.3083H95.4061V20.31L94.2659 20.0701V12.4116C94.9303 11.8411 95.5991 11.3669 96.5024 11.3669C97.8337 11.3669 97.8334 12.7465 97.8334 13.6988V20.1193L96.6933 20.3566V21.311H101.45V20.3127L100.212 20.0729V12.6052C100.212 10.8922 99.2609 9.65685 97.3565 9.65685C96.0754 9.65685 95.1208 10.3687 94.2662 11.0344V3.85564H93.6471L93.6469 3.85578ZM114.146 3.85578C113.337 3.85578 112.624 4.52054 112.624 5.37764C112.622 6.23082 113.337 6.89699 114.195 6.89699C115.003 6.89699 115.714 6.23084 115.714 5.37764C115.714 4.52049 115.001 3.85578 114.146 3.85578ZM61.4526 4.80248C60.4053 4.80248 59.4058 4.94435 58.3598 4.94435H55.4606V5.94521L57.0779 6.22895V20.07L55.4606 20.3537V21.3055H58.2155C58.7873 21.3055 61.354 21.352 61.8785 21.352C63.2124 21.3533 65.448 21.4019 66.7304 19.2161C67.0645 18.5967 67.3042 17.8353 67.254 16.9333C67.254 15.7908 66.8718 14.7454 66.0648 13.8868C65.3041 13.0798 64.4478 12.7937 63.4982 12.6022C64.6855 12.0792 66.3511 10.9855 66.3511 8.70207C66.3511 7.7987 65.9722 6.80092 65.3528 6.08906C64.1642 4.80136 62.3546 4.80189 61.4527 4.80189L61.4526 4.80248ZM61.0244 5.84976C61.8789 5.84976 63.5911 6.2327 63.5911 8.98915C63.5911 12.0822 61.7376 12.1773 60.6428 12.1773H59.4562V6.13625C60.0267 5.94738 60.3588 5.84976 61.0244 5.84976ZM24.3557 7.56259L17.4579 12.9359L18.6961 14.5559L24.3556 10.1785L30.0176 14.5559L31.2506 12.9359L24.3557 7.56259ZM74.0562 9.41727C70.7266 9.41727 69.3485 12.8415 69.3485 15.6519C69.3485 19.3593 71.3454 21.5461 73.9142 21.5461C76.4354 21.5461 78.7173 19.4057 78.7173 15.363C78.7173 10.178 75.4348 9.41727 74.0562 9.41727ZM85.0424 9.4637C81.6165 9.4637 80.7141 13.1275 80.7141 15.7888C80.7141 19.2147 82.1883 21.5462 84.9936 21.5462C87.1807 21.5488 88.1338 20.6416 89.0848 18.7887L88.0401 18.3579C87.5646 19.1186 86.8976 19.8773 85.8965 19.8773C83.5668 19.8773 83.1864 17.216 83.0927 15.3116H89.1313C89.0851 12.5077 88.5599 9.46376 85.0429 9.46376L85.0424 9.4637ZM135.686 9.46628C133.402 9.46628 131.597 11.0369 131.597 13.4155C131.597 15.4124 132.782 16.2212 133.545 16.6966C132.306 17.4573 131.36 18.2644 131.36 19.1678C131.36 19.9773 131.932 20.4519 132.691 20.6896C131.883 21.2615 130.885 21.9721 130.885 23.1633C130.885 24.9225 133.071 25.588 135.069 25.588C138.729 25.588 140.778 23.7807 140.778 21.595C140.778 19.5017 139.537 18.7895 137.494 18.7421L134.451 18.6441C134.261 18.6441 133.641 18.5034 133.641 18.1204C133.641 17.8352 134.069 17.4563 134.5 17.1222C134.928 17.2173 135.449 17.313 135.877 17.313C137.541 17.313 139.824 16.1244 139.824 13.4592C139.824 12.511 139.492 11.8908 138.97 11.1274L140.871 11.179V9.75247L138.16 9.84534C137.353 9.84534 136.542 9.46614 135.686 9.46614L135.686 9.46628ZM146.767 9.46628C143.343 9.46628 142.442 13.1287 142.442 15.7914C142.442 19.2172 143.914 21.5463 146.721 21.5463C148.907 21.5463 149.859 20.6404 150.809 18.7888L149.765 18.358C149.291 19.12 148.624 19.8798 147.624 19.8798C145.291 19.8798 144.914 17.2158 144.817 15.3166H150.858C150.811 12.5128 150.287 9.46628 146.767 9.46628ZM121.655 9.55914L118.707 10.3227V11.2745L120.087 11.4164V20.0732L118.707 20.357V21.3088H123.606V20.3105L122.416 20.0732V12.3193C123.036 11.7488 123.748 11.2282 124.604 11.2282C125.936 11.2282 125.937 12.6065 125.937 13.1757V20.1198L124.699 20.3571V21.309H129.502V20.3107L128.264 20.0734V12.6057C128.264 10.7501 127.315 9.60826 125.367 9.60826C124.13 9.60826 123.178 10.2777 122.321 10.9909V9.55929L121.655 9.55914ZM155.945 9.56172L153.045 10.3201V11.0836L154.425 11.3235V20.0733L153.045 20.3571V21.3089H158.323V20.308L156.659 20.0707V13.8413C156.659 13.4583 157.181 12.2714 158.132 11.8421L159.367 12.5102C159.748 12.1761 160.275 11.7943 160.275 11.0812C160.275 10.1329 159.656 9.70371 158.893 9.70371C157.895 9.70371 157.373 10.4668 156.61 11.7519V9.56186H155.944L155.945 9.56172ZM106.155 9.5643L103.256 10.3227V11.0836L104.634 11.3235V20.0733L103.256 20.3571V21.3115H108.534V20.3106L106.87 20.0707V13.8438C106.87 13.4595 107.441 12.2714 108.392 11.8422L109.63 12.5077C109.963 12.1735 110.531 11.7957 110.484 11.0812C110.484 10.1316 109.866 9.70366 109.153 9.70366C108.156 9.70366 107.584 10.4681 106.823 11.7518V9.56444L106.155 9.5643ZM114.954 9.65716L111.959 10.4155V11.2229L113.195 11.5118V20.0733L111.959 20.3571V21.3089H116.86V20.3106L115.526 20.0733V9.65729L114.954 9.65716ZM135.639 10.5136C137.16 10.5136 137.305 12.2246 137.305 13.511C137.305 14.6996 137.112 16.173 135.732 16.173C134.259 16.173 134.068 14.605 134.068 13.3201C134.068 12.1301 134.164 10.5136 135.639 10.5136ZM74.102 10.56C75.8123 10.56 76.1475 13.3646 76.1475 15.314C76.1475 16.8368 75.9594 20.357 73.9136 20.357C72.5824 20.357 71.8681 18.5011 71.8681 15.6934C71.8681 14.3647 71.9611 10.56 74.102 10.56ZM85.0882 10.6064C86.5158 10.6064 86.6619 12.7449 86.7081 14.174H83.0917C83.2344 12.745 83.5667 10.6064 85.0882 10.6064ZM146.814 10.6064C148.241 10.6064 148.384 12.7502 148.431 14.174H144.815C144.96 12.7503 145.29 10.6064 146.814 10.6064ZM59.4544 13.3174H60.4992C62.117 13.3174 64.5438 13.559 64.5438 16.7893C64.5424 18.0269 64.1143 19.2162 63.0682 19.7867C62.4501 20.1658 61.642 20.3568 60.9737 20.3568C60.3556 20.3568 59.8823 20.2642 59.4544 19.9802L59.4544 13.3174ZM23.2128 16.2167V47.7991C23.5945 47.7991 23.9726 47.8481 24.3556 47.8481C24.7346 47.8481 25.1178 47.7991 25.4493 47.7991V16.2167H23.2128ZM18.6962 16.2192V47.1306C19.5032 47.3696 20.172 47.5114 20.9327 47.6052V16.2169H18.6962V16.2192ZM27.7297 16.2192V47.6575C28.4904 47.5148 29.3006 47.3253 29.9662 47.1339V16.2225H27.7297V16.2192ZM134.02 20.8828C136.446 21.0255 137.443 21.1658 138.25 21.3085C138.725 21.4022 139.06 21.639 139.06 22.4486C139.06 23.4946 137.537 24.3033 135.588 24.3033C134.162 24.3033 133.114 23.7319 133.114 22.6859C133.114 21.7852 133.59 21.3108 134.02 20.8828ZM99.5917 28.1106L96.5968 28.7761V29.5835L97.9278 29.728V44.3747L96.5479 44.661V45.6128H101.449V44.612L100.211 44.3283V28.1114H99.5916L99.5917 28.1106ZM106.298 28.1106L103.301 28.7761V29.5835L104.632 29.8234V44.3778L103.255 44.6615V45.6133H108.104V44.6176L106.915 44.3313V36.7191C107.582 36.1486 108.249 35.6254 109.151 35.6254C110.53 35.6254 110.482 37.005 110.482 37.9573V44.4241L109.342 44.6614V45.6132H114.099V44.6175L112.861 44.3312V36.8635C112.861 35.1492 111.911 33.9615 110.054 33.9615C108.77 33.9615 107.769 34.6258 106.915 35.339V28.1112H106.298L106.298 28.1106ZM128.694 28.1106C127.887 28.1106 127.125 28.8232 127.125 29.679C127.125 30.4872 127.838 31.2008 128.694 31.2008C129.501 31.2008 130.169 30.4871 130.169 29.6298C130.169 28.8229 129.55 28.1106 128.694 28.1106ZM55.5505 29.2043V30.249L57.075 30.4864V44.3745L55.5531 44.6609V45.6127H60.9727V44.6118L59.5952 44.3281V30.4865L61.0217 30.2002V29.2045L55.5505 29.2043ZM14.1755 30.9145V45.4187C14.8873 45.8017 15.6512 46.1356 16.4093 46.4195V30.9145L14.1755 30.9145ZM32.248 30.9145V46.4686C33.0074 46.1358 33.7728 45.8018 34.5335 45.4188V30.9149H32.248V30.9145ZM79.7132 33.7674C77.9302 33.7674 76.4387 34.7255 75.8724 36.2747H75.8696C75.7098 36.7105 75.6219 37.1949 75.6219 37.7193C75.6219 39.7162 76.8101 40.4734 77.5695 40.9488C76.3359 41.7108 75.4311 42.5656 75.4311 43.469C75.4311 44.231 75.9539 44.7096 76.7621 44.9908C75.9063 45.5152 74.9101 46.2746 74.9101 47.4645C74.9101 49.2263 77.0972 49.8892 79.0942 49.8892C82.7577 49.8892 84.8028 48.0832 84.8028 45.8471C84.8028 43.804 83.5661 43.1344 81.5217 43.0405L78.4752 42.8987C78.2837 42.8987 77.6678 42.8058 77.6678 42.4215C77.6678 42.09 78.0964 41.711 78.5732 41.3742C79.0011 41.5181 79.479 41.5676 79.9042 41.5676C81.5696 41.5676 83.8509 40.4265 83.8509 37.7163C83.8509 37.1603 83.7258 36.7129 83.5078 36.2744C83.3705 35.9957 83.1992 35.7267 82.9945 35.4309L84.9447 35.4799V34.0509L82.1872 34.1463C81.3763 34.1488 80.5693 33.7671 79.7135 33.7671L79.7132 33.7674ZM90.7923 33.7674C87.3678 33.7674 86.4665 37.4324 86.4665 40.095C86.4665 43.5209 87.9382 45.8474 90.7435 45.8474C92.9319 45.8474 93.8848 44.9455 94.8372 43.0926L93.7899 42.6618C93.3144 43.4212 92.6474 44.1836 91.6489 44.1836C89.3178 44.1836 88.9361 41.5198 88.8423 39.6179H94.8809C94.836 36.8127 94.3092 33.7674 90.7923 33.7674ZM120.231 33.7674C116.808 33.7674 115.903 37.4324 115.903 40.095C115.903 43.5209 117.378 45.8474 120.185 45.8474C122.37 45.8474 123.323 44.9455 124.276 43.0926L123.229 42.6618C122.753 43.4212 122.085 44.1836 121.088 44.1836C118.758 44.1836 118.375 41.5198 118.281 39.6179H124.32C124.275 36.8127 123.749 33.7674 120.231 33.7674ZM136.206 33.8165L133.209 34.5748V35.3822L134.586 35.6221V44.3719L133.209 44.6582V45.6101H138.01V44.6118L136.921 44.3281V36.6668C137.492 36.1438 138.106 35.5757 139.152 35.5757C140.341 35.5757 140.628 36.6688 140.628 37.5722V44.3718L139.297 44.6581V45.6099H144.051V44.6116L142.908 44.3279V36.7157C143.575 36.0963 144.196 35.5756 145.147 35.5756C146.431 35.5756 146.525 36.9063 146.525 37.5257V44.3717L145.289 44.6605V45.6124H150.234V44.6115L148.9 44.3278V36.811H148.902C148.902 34.9105 147.714 33.9581 145.905 33.9581C144.574 33.9581 143.576 34.6257 142.673 35.5291C142.2 34.5293 141.152 34.0046 140.011 34.0046C138.87 34.0046 137.774 34.5276 136.822 35.3821V33.8164H136.206L136.206 33.8165ZM65.7282 33.819L62.7799 34.5773V35.5318L64.1599 35.7201V44.3795L62.7799 44.6632V45.615H67.6784V44.6142L66.4402 44.3305V36.5791C66.5631 36.4734 66.6837 36.3724 66.8091 36.2773C67.3731 35.848 67.9754 35.5318 68.6767 35.5318C69.345 35.5318 69.6776 35.8665 69.8427 36.2799C70.0091 36.6919 70.0103 37.1716 70.0103 37.4793V44.4234L68.7696 44.6633V45.6151H73.5777V44.6143L72.3395 44.3305V36.8604C72.3395 36.6583 72.3272 36.4623 72.3034 36.2774C72.1158 34.8021 71.1729 33.8655 69.4374 33.8655C68.2039 33.8655 67.2494 34.5799 66.3937 35.2455V33.819L65.7282 33.819ZM129.456 33.9582L126.456 34.7192V35.4827L127.694 35.7639V44.3717L126.456 44.6606V45.6124H131.308V44.6115L130.024 44.3278V33.9581L129.456 33.9582ZM79.6641 34.7683C80.6137 34.7683 81.0436 35.4492 81.2324 36.2773H81.2353C81.3515 36.7792 81.3772 37.3288 81.3772 37.8121C81.3772 38.9519 81.1862 40.4742 79.7572 40.4742C78.2833 40.4742 78.1424 38.8574 78.1424 37.6213C78.1424 37.1999 78.1535 36.7172 78.2301 36.2748H78.2329C78.3742 35.4625 78.7427 34.7684 79.6646 34.7684L79.6641 34.7683ZM90.8411 34.9102C92.2675 34.9102 92.4122 37.05 92.4584 38.4778H88.842C88.9847 37.0501 89.3169 34.9102 90.8411 34.9102ZM120.28 34.9102C121.709 34.9102 121.85 37.05 121.9 38.4778H118.283C118.426 37.0501 118.76 34.9102 120.28 34.9102ZM78.0478 45.1845C80.474 45.3271 81.4751 45.4212 82.2832 45.6101C82.7587 45.7038 83.137 45.9419 83.137 46.7502C83.137 47.7975 81.6157 48.6049 79.6651 48.6049C78.2401 48.6049 77.1915 47.9886 77.1915 46.9876C77.1915 46.0881 77.6226 45.5622 78.0478 45.1845Z" fill="#D9F1D4" style="fill:#D9F1D4;fill:color(display-p3 0.8510 0.9451 0.8314);fill-opacity:1;"/>
</svg>
