<svg width="208" height="37" viewBox="0 0 208 37" fill="none" xmlns="http://www.w3.org/2000/svg">
<path d="M64.6579 31.3101C60.1865 32.4514 56.8564 32.5262 54.4243 32.5262C47.3711 32.5262 39.2141 28.9528 39.2141 18.9437C39.2141 8.972 46.2299 5.13672 55.9397 5.13672C57.6795 5.13672 61.3652 5.32381 63.9469 6.31537V12.1712C61.7393 10.8803 58.5963 10.3752 56.9125 10.3752C51.1876 10.3752 46.4918 12.7699 46.4918 18.9437C46.4918 24.1447 50.1774 27.2878 55.3223 27.2878C56.2764 27.2878 57.1931 27.1381 57.8292 26.8388V21.6003H53.6946V16.5864H64.6579V31.3101Z" fill="#D9F1D4" style="fill:#D9F1D4;fill:color(display-p3 0.8510 0.9451 0.8314);fill-opacity:1;"/>
<path d="M70.6438 5.58594H89.315V10.5999H77.7157V16.0628H88.679V21.0767H77.7157V27.0635H89.7266V32.0774H70.6438V5.58594Z" fill="#D9F1D4" style="fill:#D9F1D4;fill:color(display-p3 0.8510 0.9451 0.8314);fill-opacity:1;"/>
<path d="M102.094 20.852H104.264C106.696 20.852 109.465 21.1139 109.465 23.995C109.465 26.6891 106.771 27.0632 104.189 27.0632H102.094V20.852ZM95.0405 32.0772H106.191C110.943 32.0772 116.518 30.7488 116.518 24.4066C116.518 21.1887 114.685 19.2804 111.167 18.5695V18.4947C114.123 17.5031 115.826 15.6509 115.826 12.3021C115.826 7.75589 112.159 5.58569 107.22 5.58569H95.0405V32.0772ZM102.094 10.5996H104.152C106.509 10.5996 108.773 10.8241 108.773 13.2562C108.773 15.5013 106.378 16.0625 104.077 16.0625H102.094V10.5996Z" fill="#D9F1D4" style="fill:#D9F1D4;fill:color(display-p3 0.8510 0.9451 0.8314);fill-opacity:1;"/>
<path d="M121.626 5.58594H140.297V10.5999H128.679V16.0628H139.643V21.0767H128.679V27.0635H140.709V32.0774H121.626V5.58594Z" fill="#D9F1D4" style="fill:#D9F1D4;fill:color(display-p3 0.8510 0.9451 0.8314);fill-opacity:1;"/>
<path d="M153.074 10.5999H154.945C157.62 10.5999 160.09 11.0489 160.09 13.5184C160.09 16.5118 157.209 16.5866 154.945 16.5866H153.074V10.5999ZM146.021 32.0774H153.074V21.6005H154.552C157.171 21.6005 158.088 22.7418 159.528 27.288L161.044 32.0774H168.396L165.815 24.8559C164.505 21.638 164.337 19.6362 162.073 19.0188V18.9439C165.478 18.1395 167.143 15.8009 167.143 12.2649C167.143 7.71873 163.326 5.58594 158.612 5.58594H146.021V32.0774Z" fill="#D9F1D4" style="fill:#D9F1D4;fill:color(display-p3 0.8510 0.9451 0.8314);fill-opacity:1;"/>
<path d="M172.831 5.58594H179.903V32.0774H172.831V5.58594Z" fill="#D9F1D4" style="fill:#D9F1D4;fill:color(display-p3 0.8510 0.9451 0.8314);fill-opacity:1;"/>
<path d="M190.249 10.8244H183.72V5.58594H203.832V10.8244H197.302V32.0774H190.249V10.8244Z" fill="#D9F1D4" style="fill:#D9F1D4;fill:color(display-p3 0.8510 0.9451 0.8314);fill-opacity:1;"/>
<path d="M4.95825 5.58569H31.4684V32.0959H4.95825V5.58569Z" fill="#D9F1D4" style="fill:#D9F1D4;fill:color(display-p3 0.8510 0.9451 0.8314);fill-opacity:1;"/>
</svg>
