<svg width="170" height="30" viewBox="0 0 170 30" fill="none" xmlns="http://www.w3.org/2000/svg">
<g clip-path="url(#clip0_13581_88)">
<path d="M8.80346 28.7031H0.678955V1.07308H14.7302L30.8506 21.7007V1.07308H38.9751V28.7031H25.2085L8.80346 7.72327V28.7031ZM77.847 20.1589C77.847 23.9997 77.1678 25.3243 76.0436 26.594C74.3204 28.4838 71.8126 29.0533 66.9805 29.0533H53.1086C48.2765 29.0533 45.7645 28.4838 44.0434 26.594C42.9192 25.3243 42.24 23.9997 42.24 20.1589V9.50763C42.24 5.66895 42.9192 4.3465 44.0434 3.07468C45.7666 1.18276 48.2765 0.613281 53.1086 0.613281H66.9805C71.8126 0.613281 74.3204 1.18276 76.0436 3.07468C77.1678 4.3465 77.847 5.66895 77.847 9.50763V20.1589ZM66.6389 22.0529C68.4949 22.0529 69.1488 21.9433 69.5938 21.5383C70.0093 21.1608 70.1928 20.6735 70.1928 19.0495V10.617C70.1928 8.99299 70.0093 8.50999 69.5938 8.13034C69.1488 7.72327 68.4949 7.61571 66.6389 7.61571H53.4481C51.5921 7.61571 50.9382 7.72327 50.4953 8.13034C50.0777 8.50999 49.8942 8.99299 49.8942 10.617V19.0495C49.8942 20.6735 50.0777 21.1608 50.4953 21.5383C50.9382 21.9433 51.5921 22.0529 53.4481 22.0529H66.6389ZM89.6541 1.07308V28.7031H81.1647V1.07308H89.6541ZM103.996 1.07308H115.204L100.078 13.9959L117.139 28.7031H105.146L89.6541 14.2933L103.996 1.07308ZM118.704 1.07308H127.195V28.7031H118.704M159.564 28.7031L157.052 23.89H140.624L138.142 28.701H128.762L143.811 1.07308H154.365L169.412 28.7031H159.564ZM143.575 17.8894H154.131L148.852 7.88568L143.575 17.8894Z" fill="#D9F1D4" style="fill:#D9F1D4;fill:color(display-p3 0.8510 0.9451 0.8314);fill-opacity:1;"/>
</g>
<defs>
<clipPath id="clip0_13581_88">
<rect width="168.733" height="28.5714" fill="white" style="fill:white;fill-opacity:1;" transform="translate(0.678955 0.546875)"/>
</clipPath>
</defs>
</svg>
