<svg width="120" height="120" viewBox="0 0 120 120" fill="none" xmlns="http://www.w3.org/2000/svg">
<path d="M0.446612 66.4494C4.29459 93.1367 29.5987 115.034 56.6131 115.047C83.7147 115.065 108.386 94.4082 116.955 68.7441C121.832 54.1443 121.527 36.4442 111.03 25.171C98.3562 11.5683 59.1261 1.87573 40.5275 4.4012C14.0759 7.99347 -3.02616 42.353 0.446612 66.4494Z" fill="#41B729" style="fill:#41B729;fill:color(display-p3 0.2549 0.7176 0.1608);fill-opacity:1;"/>
<g clip-path="url(#clip0_13649_102)">
<path d="M87.1758 36.9299C87.1758 32.8461 83.8533 29.5237 79.7695 29.5237C69.9577 29.896 69.9602 43.9653 79.7697 44.3362C83.8533 44.3362 87.1758 41.0138 87.1758 36.9299ZM79.7694 40.8206C77.6241 40.8206 75.8788 39.0753 75.8788 36.9299C76.0744 31.7756 83.4653 31.777 83.6601 36.9299C83.6602 39.0753 81.9148 40.8206 79.7694 40.8206Z" fill="#FBF4EE" style="fill:#FBF4EE;fill:color(display-p3 0.9843 0.9569 0.9333);fill-opacity:1;"/>
<path d="M79.7695 44.3362C74.1284 44.3362 69.5391 48.9256 69.5391 54.5666V63.2893C69.5391 65.7208 71.118 67.7902 73.3046 68.526V87.7659C73.3046 88.7367 74.0917 89.5237 75.0625 89.5237H84.4765C85.4473 89.5237 86.2343 88.7367 86.2343 87.7659V68.526C88.421 67.7902 90 65.7208 90 63.2893V54.5666C90 48.9256 85.4107 44.3362 79.7695 44.3362ZM86.4844 63.2893C86.4844 64.3963 85.5836 65.297 84.4765 65.297C83.5057 65.297 82.7187 66.0841 82.7187 67.0549V86.0081H76.8203V67.055C76.8203 66.0842 76.0332 65.2972 75.0625 65.2972C73.9554 65.2972 73.0547 64.3965 73.0547 63.2894V54.5666C73.3902 45.6745 86.1471 45.6698 86.4844 54.5668C86.4844 54.5667 86.4844 63.2893 86.4844 63.2893Z" fill="#FBF4EE" style="fill:#FBF4EE;fill:color(display-p3 0.9843 0.9569 0.9333);fill-opacity:1;"/>
<path d="M47.6367 36.9299C47.6367 32.8462 44.3144 29.5237 40.2305 29.5237C30.4186 29.896 30.4212 43.9653 40.2306 44.3362C44.3144 44.3362 47.6367 41.0138 47.6367 36.9299ZM40.2305 40.8206C38.0851 40.8206 36.3399 39.0753 36.3399 36.9299C36.5354 31.7756 43.9263 31.777 44.1211 36.9299C44.1211 39.0753 42.3758 40.8206 40.2305 40.8206Z" fill="#FBF4EE" style="fill:#FBF4EE;fill:color(display-p3 0.9843 0.9569 0.9333);fill-opacity:1;"/>
<path d="M50.4609 54.5667C49.9457 41.0125 30.5126 41.0172 30 54.5668C30 54.5667 30 63.2893 30 63.2893C30 65.7208 31.579 67.7902 33.7656 68.526V87.7659C33.7656 88.7367 34.5526 89.5237 35.5234 89.5237H44.9374C45.9082 89.5237 46.6952 88.7367 46.6952 87.7659V68.526C48.8818 67.7902 50.4609 65.7208 50.4609 63.2893V54.5667ZM46.9453 63.2893C46.9453 64.3964 46.0445 65.2971 44.9374 65.2971C43.9666 65.2971 43.1796 66.0841 43.1796 67.0549V86.0081H37.2812V67.055C37.2812 66.0842 36.4942 65.2972 35.5234 65.2972C34.4163 65.2972 33.5156 64.3965 33.5156 63.2894V54.5667C33.8511 45.6745 46.608 45.6698 46.9453 54.5668C46.9453 54.5667 46.9453 63.2893 46.9453 63.2893Z" fill="#FBF4EE" style="fill:#FBF4EE;fill:color(display-p3 0.9843 0.9569 0.9333);fill-opacity:1;"/>
<path d="M67.8328 73.3434C66.6939 72.1909 64.7072 73.1188 64.8379 74.7113H55.162C55.2926 73.1192 53.3058 72.1906 52.1671 73.3434L50.2844 75.2262C49.5979 75.9127 49.5979 77.0256 50.2844 77.7121L52.1671 79.5948C53.3053 80.7467 55.2928 79.8201 55.162 78.2269H64.8379C64.7076 79.8197 66.6942 80.7472 67.8328 79.5948L69.7155 77.7121C70.402 77.0257 70.402 75.9127 69.7155 75.2262L67.8328 73.3434Z" fill="#FBF4EE" style="fill:#FBF4EE;fill:color(display-p3 0.9843 0.9569 0.9333);fill-opacity:1;"/>
</g>
<defs>
<clipPath id="clip0_13649_102">
<rect width="60" height="60" fill="white" style="fill:white;fill-opacity:1;" transform="translate(30 29.5237)"/>
</clipPath>
</defs>
</svg>
