 <svg width="120" height="120" viewBox="0 0 120 120" fill="none" xmlns="http://www.w3.org/2000/svg">
<path d="M0.446612 66.4494C4.29459 93.1367 29.5987 115.034 56.6131 115.047C83.7147 115.065 108.386 94.4082 116.955 68.7441C121.832 54.1443 121.527 36.4442 111.03 25.171C98.3562 11.5683 59.1261 1.87573 40.5275 4.4012C14.0759 7.99347 -3.02616 42.353 0.446612 66.4494Z" fill="#41B729" style="fill:#41B729;fill:color(display-p3 0.2549 0.7176 0.1608);fill-opacity:1;"/>
<g clip-path="url(#clip0_13649_113)">
<path d="M86.4844 29.5234H33.5156C31.5771 29.5234 30 31.1005 30 33.0391V73.9775C30 75.916 31.5771 77.4931 33.5156 77.4931H40.5493V86.0078H38.7915C37.8207 86.0078 37.0337 86.7948 37.0337 87.7656C37.0337 88.7364 37.8207 89.5234 38.7915 89.5234H81.2084C82.1791 89.5234 82.9662 88.7364 82.9662 87.7656C82.9662 86.7948 82.1791 86.0078 81.2084 86.0078H79.2429V77.4931H86.4844C88.4229 77.4931 90 75.916 90 73.9775V33.0391C90 31.1005 88.4229 29.5234 86.4844 29.5234ZM86.4844 33.0391V36.5929H33.5156V33.0391H86.4844ZM44.065 86.0078V70.8347H47.5581V86.0078H44.065ZM51.0738 77.4931H54.634V86.0078H51.0738V77.4931ZM58.1495 86.0078V63.906H61.6427V86.0078H58.1495ZM65.1584 77.4931H68.7185V86.0078H65.1584V77.4931ZM72.2341 86.0078V66.3319H75.7273V86.0078H72.2341ZM79.2429 73.9775V64.5741C79.2429 63.6033 78.4559 62.8163 77.4851 62.8163H70.4763C69.5055 62.8163 68.7185 63.6033 68.7185 64.5741V73.9775H65.1584V62.1482C65.1584 61.1774 64.3713 60.3904 63.4005 60.3904H56.3917C55.4209 60.3904 54.6339 61.1774 54.6339 62.1482V73.9773H51.0737V69.0769C51.0737 68.1061 50.2867 67.3191 49.3159 67.3191H42.3071C41.3364 67.3191 40.5493 68.1061 40.5493 69.0769V73.9773H33.5156V40.1085H86.4844V73.9775H79.2429Z" fill="#FBF4EE" style="fill:#FBF4EE;fill:color(display-p3 0.9843 0.9569 0.9333);fill-opacity:1;"/>
<path d="M73.9806 46.0422C72.0045 46.0422 70.2796 47.1354 69.3766 48.7483L64.7878 47.9666C64.3601 45.4854 62.194 43.5913 59.5924 43.5913C56.6846 43.5913 54.319 45.957 54.319 48.8647C54.319 49.0934 54.3353 49.3183 54.3636 49.5393L49.4511 52.0238C48.5039 51.1186 47.222 50.5609 45.8115 50.5609C42.9037 50.5609 40.5381 52.9266 40.5381 55.8344C40.5381 58.7421 42.9037 61.1078 45.8115 61.1078C48.7193 61.1078 51.085 58.7421 51.085 55.8344C51.085 55.6057 51.0687 55.3808 51.0403 55.1598L55.9528 52.6753C56.9 53.5805 58.182 54.1382 59.5925 54.1382C61.5687 54.1382 63.2934 53.0449 64.1965 51.4321L68.7854 52.2137C69.2133 54.6949 71.3793 56.5889 73.9807 56.5889C76.8885 56.5889 79.2541 54.2233 79.2541 51.3155C79.2541 48.4077 76.8884 46.0422 73.9806 46.0422ZM45.8114 57.5923C44.8421 57.5923 44.0536 56.8037 44.0536 55.8345C44.0536 54.8652 44.8421 54.0767 45.8114 54.0767C46.7807 54.0767 47.5692 54.8652 47.5692 55.8345C47.5692 56.8037 46.7807 57.5923 45.8114 57.5923ZM59.5924 50.6227C58.6232 50.6227 57.8346 49.8341 57.8346 48.8649C57.8346 47.8956 58.6232 47.1071 59.5924 47.1071C60.5617 47.1071 61.3502 47.8956 61.3502 48.8649C61.3502 49.8341 60.5617 50.6227 59.5924 50.6227ZM73.9806 53.0734C73.0113 53.0734 72.2228 52.2849 72.2228 51.3156C72.2228 50.3463 73.0113 49.5578 73.9806 49.5578C74.9498 49.5578 75.7384 50.3463 75.7384 51.3156C75.7384 52.2849 74.9498 53.0734 73.9806 53.0734Z" fill="#FBF4EE" style="fill:#FBF4EE;fill:color(display-p3 0.9843 0.9569 0.9333);fill-opacity:1;"/>
</g>
<defs>
<clipPath id="clip0_13649_113">
<rect width="60" height="60" fill="white" style="fill:white;fill-opacity:1;" transform="translate(30 29.5234)"/>
</clipPath>
</defs>
</svg>
