<svg width="30" height="31" viewBox="0 0 30 31" fill="none" xmlns="http://www.w3.org/2000/svg">
<path d="M15 0.328125C6.71572 0.328125 0 7.04384 0 15.3281C0 23.6123 6.71572 30.3281 15 30.3281C23.2842 30.3281 29.9999 23.6123 29.9999 15.3281C29.9911 7.04755 23.2806 0.336977 15 0.328125ZM21.317 15.806C21.2132 16.0143 21.0444 16.1832 20.836 16.287V16.2924L12.2646 20.5781C11.7353 20.8426 11.0918 20.628 10.8272 20.0986C10.752 19.9481 10.7133 19.782 10.7142 19.6138V11.0424C10.714 10.4507 11.1934 9.97079 11.7852 9.97047C11.9516 9.97041 12.1158 10.0091 12.2646 10.0835L20.836 14.3692C21.3656 14.6331 21.581 15.2764 21.317 15.806Z" fill="white" style="fill:white;fill-opacity:1;"/>
</svg>
