<?xml version="1.0" encoding="UTF-8"?><svg id="Layer_1" xmlns="http://www.w3.org/2000/svg" viewBox="0 0 2500 1250"><path d="m380.47,873.6L683.5-4h343.75l148.41,1254.24h-92.28l-672.72-306.33c-26.68-12.15-39.75-42.6-30.18-70.31Z" fill="none" stroke="#b3e2a9" stroke-miterlimit="10" stroke-width="2.78"/><path d="m1095.41,1255.72l-1099.65-1.72v-179.46l322.31-133.24c29.03-12,61.75-11.43,90.34,1.59l687,312.83Z" fill="none" stroke="#b3e2a9" stroke-miterlimit="10" stroke-width="2.78"/><path d="m451,487.37L-4.24,376.41V-4h687.73l-155.07,449.11c-11.03,31.96-44.58,50.26-77.42,42.26Z" fill="none" stroke="#b3e2a9" stroke-miterlimit="10" stroke-width="2.78"/><path d="m305.52,946.49L-4.24,1074.54V376.41l456.25,111.21c30.55,7.45,48.07,39.55,37.81,69.27l-105.73,306.19c-13.04,37.77-41.65,68.14-78.58,83.4Z" fill="none" stroke="#b3e2a9" stroke-miterlimit="10" stroke-width="2.78"/><path d="m1617.27,628.29l-496.21-197.1c-27.36-10.87-46.56-35.86-50.02-65.09L1027.25-4h849.05l-190.4,599.76c-9.11,28.69-40.64,43.64-68.62,32.53Z" fill="none" stroke="#b3e2a9" stroke-miterlimit="10" stroke-width="2.78"/><path d="m1861.82,1257.5h-685.3l-93.97-794.15c-2.66-22.48,19.67-39.65,40.71-31.29l891.46,354.1c30.87,12.26,45.04,47.99,30.97,78.07l-183.87,393.27Z" fill="none" stroke="#b3e2a9" stroke-miterlimit="10" stroke-width="2.78"/><path d="m2504.24,1257.5h-642.42l191.53-409.65c11.71-25.04,32.81-44.46,58.74-54.04l392.14-144.95v608.65Z" fill="none" stroke="#b3e2a9" stroke-miterlimit="10" stroke-width="2.78"/><path d="m2504.24,648.85l-385.55,142.52c-30.29,11.2-63.66,10.8-93.68-1.13l-294.66-117.04c-34.54-13.72-52.6-51.81-41.35-87.23L1876.29-4h627.94v652.85Z" fill="none" stroke="#b3e2a9" stroke-miterlimit="10" stroke-width="2.78"/></svg>