<svg width="25" height="25" viewBox="0 0 25 25" fill="none" xmlns="http://www.w3.org/2000/svg">
<g clip-path="url(#clip0_13649_135)">
<path d="M24.9905 8.84064C24.9414 8.18708 24.6023 7.77921 24.1208 7.67848C23.8775 7.62442 23.6392 7.64162 23.4205 7.69568C23.2068 7.74973 22.993 7.83573 22.7964 7.93646C22.595 8.0372 22.4107 8.15514 22.2141 8.28044C22.0249 8.40821 21.8284 8.5458 21.6269 8.69322C21.2264 8.98806 20.7768 9.31484 20.3296 9.60968C20.1109 9.75956 19.8873 9.89224 19.6883 10.02C19.477 10.1379 19.2952 10.2583 19.1404 10.3468C18.9832 10.4352 18.848 10.5139 18.7276 10.5827C18.6048 10.6441 18.4967 10.6981 18.4058 10.7448C18.224 10.8406 18.0962 10.8898 18.0127 10.9291L17.8456 11.0028C17.8456 11.0028 17.8456 11.0028 17.676 11.0765C17.5901 11.1085 17.4598 11.1576 17.2657 11.2313C17.1699 11.2706 17.052 11.3026 16.9168 11.3492C16.7817 11.391 16.6269 11.4475 16.4451 11.4917C16.2657 11.5384 16.0446 11.6072 15.794 11.6637C15.5434 11.7325 15.2608 11.7866 14.9611 11.8529C14.6613 11.9045 14.3394 11.9709 14.0151 12.0077C13.6883 12.0593 13.3566 12.0814 13.0323 12.1109C12.9193 12.1183 12.8112 12.1232 12.7006 12.1306C12.7006 12.0962 12.6982 12.0667 12.6957 12.0323C12.7276 12.02 12.7596 12.0102 12.7915 11.9954C13.0864 11.8873 13.3787 11.7522 13.6711 11.6146C13.9684 11.4819 14.2461 11.3222 14.5139 11.1723C14.7866 11.0249 15.0299 10.8652 15.2485 10.7202C15.4697 10.5753 15.6638 10.4426 15.8136 10.3198C16.1159 10.0814 16.3517 9.90698 16.5139 9.75956C16.6785 9.61705 16.7891 9.52123 16.8628 9.45735L17.0102 9.32958C17.0102 9.32958 17.0127 9.33204 17.1552 9.19691C17.2264 9.12811 17.3321 9.02737 17.4918 8.87504C17.5704 8.79887 17.6638 8.70796 17.7743 8.60477C17.8775 8.4942 17.9955 8.36889 18.133 8.22393C18.2682 8.07897 18.4353 7.90452 18.5974 7.68339C18.7596 7.46472 18.9512 7.22885 19.1158 6.95366C19.278 6.67602 19.4623 6.39592 19.5974 6.08143C19.735 5.76693 19.8775 5.45735 19.9586 5.12811C20.0471 4.80378 20.1183 4.49175 20.1257 4.18216C20.1355 3.87504 20.1355 3.60477 20.0569 3.3517C19.9193 2.85538 19.6318 2.5286 19.192 2.43523C18.7522 2.34187 18.3419 2.4942 18.0028 2.7571C17.8431 2.88978 17.6539 3.04703 17.5041 3.22639C17.3591 3.40821 17.1896 3.60231 17.0471 3.81361C16.9119 4.02737 16.7473 4.24113 16.6122 4.46472C16.4819 4.69076 16.3222 4.90452 16.1994 5.1232C16.0741 5.33941 15.934 5.53843 15.8259 5.72762C15.7203 5.91681 15.6073 6.07897 15.5262 6.21902C15.4426 6.35907 15.3689 6.47946 15.305 6.58757C15.2338 6.69076 15.1748 6.77921 15.1232 6.85538C15.02 7.00772 14.9512 7.11091 14.9045 7.17971C14.8112 7.3173 14.8087 7.31484 14.8087 7.31484L14.7104 7.44752C14.6613 7.51386 14.5851 7.61214 14.4746 7.76202C14.3665 7.91435 14.1994 8.10108 13.9881 8.35907C13.8824 8.48929 13.7498 8.64408 13.5974 8.81607C13.4475 8.99052 13.2854 9.19199 13.0986 9.39101C12.9168 9.59248 12.7301 9.81361 12.5262 10.0175C12.3272 10.2288 12.1281 10.4451 11.9242 10.6416C11.7326 10.8357 11.5483 11.0249 11.3714 11.1895C11.3812 11.0863 11.391 10.9831 11.4009 10.8824C11.4426 10.5679 11.4746 10.2583 11.5311 9.9684C11.5753 9.67602 11.6367 9.40329 11.6834 9.15759C11.7375 8.91435 11.7866 8.69568 11.8259 8.51877C11.9193 8.16496 11.9832 7.90206 12.0495 7.71042C12.1109 7.51632 12.1478 7.38609 12.1822 7.30256L12.2436 7.13302L12.305 6.96349C12.3321 6.87749 12.3861 6.75219 12.4647 6.56791C12.5385 6.37872 12.6539 6.13548 12.8087 5.81361C12.8923 5.65636 12.9881 5.4598 13.0962 5.24113C13.2117 5.02737 13.3272 4.78413 13.4647 4.53597C13.5974 4.28536 13.7375 4.02246 13.8775 3.7571C14.0249 3.49666 14.1576 3.23376 14.3149 2.93155C14.6073 2.34678 14.821 1.76693 14.8751 1.27307C14.9291 0.781672 14.821 0.373809 14.4918 0.147765C14.1625 -0.078279 13.7448 -0.031596 13.305 0.196905C12.8652 0.425407 12.4009 0.833269 11.9586 1.3173C11.7424 1.5458 11.5114 1.84801 11.2928 2.15022C11.0864 2.4598 10.8873 2.77184 10.7276 3.08634C10.5557 3.39592 10.4254 3.7055 10.305 3.98069C10.192 4.26079 10.1036 4.51632 10.0348 4.72516C9.90946 5.15022 9.81855 5.46718 9.76696 5.71042C9.70799 5.9512 9.67113 6.11091 9.65148 6.21902L9.60971 6.43523L9.56794 6.65145C9.54583 6.7571 9.52371 6.92172 9.48931 7.16496C9.45 7.40821 9.41806 7.73499 9.37875 8.16742C9.35418 8.60231 9.33452 9.2313 9.40578 9.91926C9.45246 10.4352 9.53845 10.9831 9.66376 11.5065C9.61216 11.4352 9.55811 11.3615 9.50897 11.2804C9.44509 11.1772 9.37875 11.0716 9.31241 10.9635C9.17236 10.7571 9.05443 10.5237 8.93157 10.3001C8.80135 10.0839 8.71044 9.8431 8.60479 9.63425C8.49423 9.42786 8.43035 9.20428 8.34927 9.02246C8.26818 8.84064 8.21659 8.66865 8.16499 8.53106C8.11585 8.39592 8.07162 8.27553 8.03477 8.17233C8.00528 8.06423 7.97826 7.97332 7.95614 7.89469C7.91192 7.7399 7.88243 7.63425 7.86278 7.56546C7.84312 7.49666 7.84067 7.4598 7.83575 7.44261V7.42541C7.83575 7.42541 7.83329 7.42541 7.80381 7.2829C7.78907 7.21165 7.76696 7.10845 7.73501 6.94875C7.70062 6.7915 7.68587 6.57528 7.64656 6.29519C7.62199 6.15514 7.62199 5.98069 7.59742 5.7915C7.58514 5.69568 7.57285 5.59494 7.56057 5.49175C7.55565 5.38609 7.54583 5.27799 7.536 5.16742C7.52617 5.05686 7.51143 4.94383 7.49669 4.82835C7.48931 4.71288 7.48194 4.59494 7.46966 4.47946C7.45737 4.36152 7.44017 4.24359 7.42298 4.12565C7.41315 4.00772 7.40086 3.89224 7.38366 3.77676C7.36646 3.66128 7.34189 3.5458 7.31978 3.43278C7.30258 3.32221 7.28047 3.21165 7.25344 3.10354C7.19693 2.88978 7.11585 2.68585 7.03477 2.50403C6.85786 2.14039 6.57531 1.84555 6.16499 1.7399C5.75467 1.63425 5.37629 1.78167 5.05197 2.12565C4.88243 2.29519 4.75467 2.51632 4.63919 2.77184C4.58268 2.89961 4.52863 3.03474 4.47949 3.17479C4.43526 3.3173 4.40332 3.46472 4.37138 3.61705C4.33944 3.76939 4.31487 3.92418 4.2903 4.08388C4.2731 4.24113 4.26818 4.40084 4.26327 4.56054C4.25836 4.72025 4.2559 4.87995 4.25836 5.0372C4.27064 5.19445 4.28293 5.34924 4.30013 5.49912C4.31732 5.64899 4.33698 5.79641 4.35418 5.93646C4.38121 6.07651 4.41069 6.20919 4.44017 6.33695C4.5016 6.59003 4.54828 6.81607 4.61708 6.99297C4.7473 7.34924 4.83084 7.61951 4.91929 7.81116C5.00528 8.00526 5.0618 8.13302 5.10111 8.22147L5.17728 8.39347L5.1871 8.41558C5.19939 8.43523 5.21167 8.48192 5.25836 8.563C5.30258 8.64654 5.36892 8.76939 5.4672 8.95612C5.51634 9.04948 5.57531 9.15514 5.64411 9.2829C5.72027 9.40329 5.80872 9.54088 5.907 9.70059C6.00774 9.85784 6.12814 10.0495 6.29275 10.246C6.45737 10.4426 6.61954 10.6711 6.83575 10.8775C7.04705 11.0863 7.25344 11.3124 7.5016 11.504C7.74239 11.7006 7.97826 11.8972 8.23624 12.0544C8.36155 12.133 8.4844 12.2116 8.60234 12.2878C8.72027 12.3615 8.84804 12.4156 8.96352 12.4745C8.98317 12.4844 9.00037 12.4917 9.02003 12.5016C8.77187 12.6072 8.52863 12.7129 8.29521 12.8185C7.98563 12.9561 7.69816 13.0986 7.43526 13.2264C7.17482 13.3542 6.94386 13.4745 6.75958 13.5777C6.01266 13.9856 5.64902 14.2141 5.46229 14.3173L5.27801 14.4254L5.09619 14.5384C5.00528 14.5949 4.86769 14.6785 4.6613 14.8062C4.45246 14.9291 4.18465 15.1109 3.82347 15.3468C3.64165 15.4623 3.42789 15.6195 3.18956 15.7964C2.95123 15.9733 2.69325 16.1772 2.4328 16.4082C2.1699 16.6343 1.90209 16.8824 1.64902 17.1502C1.52126 17.2829 1.39595 17.4156 1.27556 17.5532C1.15762 17.6932 1.0446 17.8357 0.934032 17.9782C0.825924 18.1207 0.72273 18.2632 0.626906 18.4033C0.535997 18.5483 0.452459 18.6932 0.376292 18.8357C0.226415 19.1183 0.108479 19.391 0.0544249 19.6539C-0.0659682 20.1723 0.00774184 20.6048 0.332066 20.8677C0.658848 21.1306 1.09865 21.1257 1.56302 20.9537C1.79153 20.8652 2.04214 20.7448 2.2903 20.59C2.4156 20.5139 2.53845 20.4303 2.66376 20.3394C2.79153 20.2534 2.92175 20.16 3.04951 20.0642C3.17728 19.9659 3.30504 19.8652 3.42789 19.7596C3.55811 19.6588 3.68587 19.5532 3.81118 19.4475C4.05934 19.2313 4.3075 19.0175 4.54091 18.8136C4.77433 18.6048 4.99546 18.4057 5.19447 18.2239C5.39349 18.0397 5.56794 17.875 5.7129 17.7424C6.00283 17.4721 6.21904 17.2657 6.38858 17.1183C6.55811 16.9684 6.66868 16.8701 6.74484 16.8038L6.89472 16.6711L7.04705 16.5409C7.2043 16.4156 7.5016 16.1453 8.13305 15.6441C8.44755 15.3861 8.89963 15.0151 9.40332 14.6023C9.75221 14.3124 10.1257 14.0028 10.4918 13.7006C10.4918 13.703 10.4967 13.7055 10.4967 13.7104C10.4967 13.7129 10.4918 13.7178 10.4918 13.7202C10.3542 13.9831 10.1969 14.2411 10.0667 14.4893C9.92666 14.735 9.79644 14.9709 9.67605 15.1822C9.55811 15.3935 9.45246 15.5827 9.36401 15.7399C9.0274 16.364 8.83084 16.6686 8.7473 16.8259L8.65639 16.9807L8.56302 17.133C8.46966 17.2854 8.28784 17.5949 7.89718 18.2018C7.51143 18.8112 6.80872 19.9733 6.33452 21.0839C5.85786 22.192 5.64902 23.2731 6.24607 23.6465C6.84067 24.02 7.72519 23.3812 8.52617 22.45C8.92666 21.9856 9.30995 21.45 9.63428 20.9414C9.9586 20.4352 10.224 19.9586 10.3935 19.6195C10.735 18.9414 10.8947 18.5925 10.9783 18.4229L11.0593 18.251L11.1404 18.0765C11.2141 17.8972 11.3861 17.5605 11.681 16.8456C11.7547 16.6662 11.8456 16.4524 11.9316 16.2018C11.9709 16.0839 12.0151 15.961 12.0593 15.8333C12.079 15.9119 12.0987 15.9905 12.1183 16.0667C12.1871 16.2952 12.2313 16.5163 12.2829 16.7129C12.3345 16.907 12.3812 17.079 12.4131 17.2215C12.4869 17.504 12.5458 17.7129 12.5729 17.8726C12.6073 18.0323 12.6294 18.1379 12.6441 18.2092L12.6736 18.3492L12.6957 18.4917C12.708 18.563 12.7252 18.6686 12.7522 18.8284C12.7842 18.9856 12.8063 19.2018 12.8407 19.4844C12.8628 19.6244 12.8824 19.7964 12.9095 19.9905C12.9414 20.1822 12.9783 20.3959 13.0151 20.6195C13.0544 20.8431 13.1085 21.079 13.1552 21.3173C13.1797 21.4377 13.2092 21.5556 13.2436 21.676C13.2731 21.7964 13.3001 21.9144 13.3321 22.0323C13.364 22.1502 13.4009 22.2682 13.4426 22.3836C13.477 22.4991 13.5139 22.6097 13.5557 22.7178C13.6367 22.934 13.7375 23.1404 13.8333 23.3173C14.0348 23.6736 14.2928 23.9365 14.6343 23.993C14.9758 24.0495 15.2928 23.8701 15.5851 23.5237C15.7375 23.3517 15.8579 23.1355 15.9758 22.8898C16.0323 22.7669 16.0888 22.6367 16.138 22.5016C16.1822 22.3664 16.224 22.2239 16.2608 22.079C16.2977 21.934 16.3345 21.7841 16.3591 21.6343C16.3812 21.4844 16.4009 21.332 16.4156 21.1772C16.4525 20.8701 16.4525 20.5679 16.4426 20.278C16.4402 19.9881 16.4033 19.7129 16.3665 19.4672C16.3321 19.2215 16.2903 19.0028 16.2387 18.8284C16.1453 18.477 16.0765 18.2141 16.0077 18.0225C15.9439 17.8308 15.8996 17.7006 15.8701 17.6146L15.8112 17.4451L15.7448 17.278C15.7104 17.1944 15.6613 17.0691 15.5851 16.88C15.5139 16.6908 15.3935 16.4475 15.2387 16.1232C15.1625 15.961 15.0569 15.7694 14.9267 15.5581C14.7989 15.3468 14.6539 15.1183 14.4795 14.8898C14.3075 14.6588 14.1281 14.4229 13.9193 14.2018C13.8849 14.165 13.8505 14.1281 13.8161 14.0888C13.8407 14.0937 13.8628 14.1011 13.8873 14.106C14.2633 14.1969 14.6441 14.251 15.0102 14.3026C15.3763 14.3419 15.7276 14.3738 16.0446 14.3787C16.364 14.3935 16.6466 14.3787 16.88 14.3689C17.1134 14.3615 17.3173 14.337 17.4967 14.3198C17.676 14.3001 17.8308 14.2903 17.9611 14.2657C18.224 14.2264 18.3984 14.1994 18.5139 14.1822C18.7473 14.1404 18.7448 14.1379 18.7448 14.1379L18.9783 14.0913C19.0937 14.0667 19.2706 14.0347 19.5286 13.9635C19.6588 13.9291 19.8112 13.8898 19.9881 13.8431C20.1625 13.7866 20.364 13.7252 20.5925 13.6514C20.821 13.5777 21.0913 13.4623 21.3984 13.3345C21.7031 13.1895 22.0397 13.0225 22.3787 12.8038C23.0544 12.3787 23.7571 11.7792 24.2584 11.0544C24.767 10.3419 25.0372 9.49666 24.9856 8.85292L24.9905 8.84064Z" fill="#41B729" style="fill:#41B729;fill:color(display-p3 0.2549 0.7176 0.1608);fill-opacity:1;"/>
</g>
<defs>
<clipPath id="clip0_13649_135">
<rect width="25" height="25" fill="white" style="fill:white;fill-opacity:1;"/>
</clipPath>
</defs>
</svg>
