<svg width="350" height="133" viewBox="0 0 350 133" fill="none" xmlns="http://www.w3.org/2000/svg">
<g clip-path="url(#clip0_13581_122)">
<path d="M170.468 71.5927V70.4781L172.069 69.8181C173.382 69.2402 173.711 68.7034 173.711 67.5888V47.3693C173.711 46.1725 173.425 45.6768 172.069 45.0989L170.468 44.4389V43.3242H192.048L192.541 49.7629H191.392L190.12 47.7008C188.93 45.844 188.315 45.4303 186.387 45.4303H178.016V56.2837H184.5C185.772 56.2837 186.224 55.9522 186.798 54.6322L187.414 53.0218H188.522V62.0594H187.414L186.798 60.2437C186.264 58.7594 185.731 58.3869 184.5 58.3869H178.016V67.2162C178.016 68.9909 178.427 69.4866 180.067 69.4866H186.632C188.808 69.4866 189.505 69.0319 190.777 67.093L192.13 64.8637H193.238L192.334 71.5898H170.465L170.468 71.5927Z" fill="#FBF4EE" style="fill:#FBF4EE;fill:color(display-p3 0.9843 0.9569 0.9333);fill-opacity:1;"/>
<path d="M195.037 71.5936V70.52L196.679 69.9011C197.91 69.4054 198.24 68.9096 198.24 67.5896V56.9856C198.24 55.2931 197.828 54.592 196.638 54.3456L195.122 54.0142V53.0227L200.949 50.4648L201.894 51.0427V55.0878C203.904 52.1984 206.695 50.4678 209.527 50.4678C213.794 50.4678 216.46 53.4803 216.46 58.4318V67.5926C216.46 68.9126 216.79 69.4083 217.977 69.904L219.619 70.523V71.5966H209.361V70.523L211.003 69.904C212.111 69.4494 212.438 68.9976 212.438 67.5926V59.3C212.438 55.7096 210.796 53.8118 207.8 53.8118C205.75 53.8118 203.656 55.0086 202.262 56.8654V67.5926C202.262 68.9947 202.548 69.4494 203.697 69.904L205.339 70.523V71.5966H195.04L195.037 71.5936Z" fill="#FBF4EE" style="fill:#FBF4EE;fill:color(display-p3 0.9843 0.9569 0.9333);fill-opacity:1;"/>
<path d="M221.504 69.82L221.997 65.0328H223.105L224.05 66.9717C225.118 68.9517 226.841 70.0663 229.096 70.0663C231.517 70.0663 233.159 68.8285 233.159 66.8074C233.159 65.1149 232.091 63.9181 227.906 62.2696C223.721 60.6181 221.915 58.6381 221.915 56.0392C221.915 52.6981 224.829 50.4688 229.218 50.4688C231.517 50.4688 234.101 51.0466 235.988 51.9119L235.536 56.3677H234.428C233.853 55.2941 233.401 54.6341 232.826 53.9741C231.966 52.9826 230.651 52.4077 229.256 52.4077C226.999 52.4077 225.564 53.4813 225.564 55.0066C225.564 56.5319 226.754 57.5234 230.817 59.2981C235.247 61.196 236.889 63.176 236.889 65.7368C236.889 69.4914 233.649 72.0082 228.889 72.0082C226.264 72.0082 223.432 71.225 221.504 69.82Z" fill="#FBF4EE" style="fill:#FBF4EE;fill:color(display-p3 0.9843 0.9569 0.9333);fill-opacity:1;"/>
<path d="M239.258 61.3182C239.258 55.252 243.28 50.4648 248.859 50.4648C253.987 50.4648 257.557 53.7648 257.723 59.7488V60.6552H243.609V61.192C243.609 66.475 246.316 69.3203 250.668 69.3203C252.925 69.3203 254.605 68.6192 256.247 67.4635L257.233 68.7424C255.098 70.8046 252.351 72.0014 249.069 72.0014C243.079 72.0014 239.264 68.2467 239.264 61.3152L239.258 61.3182ZM253.619 58.6371C253.497 54.8824 251.732 52.4067 248.941 52.4067C246.15 52.4067 244.263 54.7592 243.729 58.7603L253.617 58.6371H253.619Z" fill="#FBF4EE" style="fill:#FBF4EE;fill:color(display-p3 0.9843 0.9569 0.9333);fill-opacity:1;"/>
<path d="M259.152 71.5936V70.52L260.794 69.9011C261.984 69.4054 262.355 68.9096 262.355 67.5896V56.9856C262.355 55.252 261.903 54.592 260.754 54.3456L259.237 54.0142V53.0227L265.064 50.4648L266.009 51.0427V55.0878C267.692 52.571 270.113 50.4678 273.231 50.4678C276.349 50.4678 278.566 52.1192 279.508 54.8414C281.024 52.571 283.571 50.4678 286.648 50.4678C290.915 50.4678 293.458 53.4392 293.458 58.4318V67.5926C293.458 68.9536 293.744 69.4083 294.975 69.904L296.617 70.523V71.5966H286.4V70.523L288.001 69.9451C289.109 69.4904 289.436 69.0387 289.436 67.5926V59.3C289.436 55.6275 288.001 53.8118 285.087 53.8118C283.282 53.8118 281.476 55.0086 279.96 57.0707C280.001 57.4843 280.042 57.936 280.042 58.4318V67.5926C280.042 69.0768 280.287 69.5315 281.313 69.9451L282.914 70.523V71.5966H273.027V70.523L274.628 69.9451C275.696 69.4904 276.022 69.0387 276.022 67.5926V59.3C276.022 55.7096 274.587 53.8118 271.714 53.8118C269.705 53.8118 267.818 54.9264 266.38 56.8654V67.5926C266.38 69.0358 266.666 69.4904 267.774 69.9451L269.334 70.523V71.5966H259.158L259.152 71.5936Z" fill="#FBF4EE" style="fill:#FBF4EE;fill:color(display-p3 0.9843 0.9569 0.9333);fill-opacity:1;"/>
<path d="M302.787 70.6476L300.489 71.6391L299.544 71.0202V46.9639C299.544 45.2714 299.133 44.6935 297.983 44.406L296.467 44.0746V43.042L302.621 40.6484L303.566 41.2263V53.7722C305.453 51.625 307.751 50.4722 310.172 50.4722C315.177 50.4722 318.747 54.5994 318.747 60.4162C318.747 67.597 314.603 72.0116 307.996 72.0116C306.191 72.0116 304.304 71.5159 302.784 70.6506L302.787 70.6476ZM314.398 61.6511C314.398 56.5764 312.141 53.5228 308.489 53.5228C306.684 53.5228 304.838 54.4732 303.566 56.0807V65.9836C303.729 68.5415 305.535 70.1108 308.203 70.1108C311.855 70.1108 314.398 66.6436 314.398 61.6511Z" fill="#FBF4EE" style="fill:#FBF4EE;fill:color(display-p3 0.9843 0.9569 0.9333);fill-opacity:1;"/>
<path d="M319.809 71.5941V70.5205L321.451 69.9016C322.641 69.4059 323.011 68.9512 323.011 67.5901V46.9571C323.011 45.2645 322.559 44.6867 321.41 44.4403L319.893 44.1117V43.0381L326.047 40.6445L327.033 41.2224V67.5901C327.033 68.9512 327.363 69.4059 328.55 69.9016L330.192 70.5205V71.5941H319.812H319.809Z" fill="#FBF4EE" style="fill:#FBF4EE;fill:color(display-p3 0.9843 0.9569 0.9333);fill-opacity:1;"/>
<path d="M331.211 61.3184C331.211 55.2523 335.233 50.4651 340.813 50.4651C345.94 50.4651 349.51 53.7651 349.676 59.7491V60.6555H335.563V61.1923C335.563 66.4752 338.269 69.3206 342.621 69.3206C344.878 69.3206 346.558 68.6195 348.201 67.4638L349.186 68.7427C347.051 70.8048 344.304 72.0016 341.023 72.0016C335.032 72.0016 331.217 68.247 331.217 61.3155L331.211 61.3184ZM345.573 58.6374C345.45 54.8827 343.686 52.407 340.894 52.407C338.103 52.407 336.216 54.7595 335.682 58.7606L345.57 58.6374H345.573Z" fill="#FBF4EE" style="fill:#FBF4EE;fill:color(display-p3 0.9843 0.9569 0.9333);fill-opacity:1;"/>
<path d="M170.468 105.933V104.818L172.069 104.158C173.382 103.58 173.711 103.043 173.711 101.929V81.7091C173.711 80.5123 173.425 80.0166 172.069 79.4387L170.468 78.7787V77.6641H192.048L192.541 84.1027H191.392L190.12 82.0406C188.93 80.1838 188.315 79.7702 186.387 79.7702H178.016V90.6235H184.5C185.772 90.6235 186.224 90.2921 186.798 88.9721L187.414 87.3617H188.522V96.3993H187.414L186.798 94.5835C186.264 93.0993 185.731 92.7267 184.5 92.7267H178.016V101.556C178.016 103.331 178.427 103.826 180.067 103.826H186.632C188.808 103.826 189.505 103.372 190.777 101.433L192.13 99.2035H193.238L192.334 105.93H170.465L170.468 105.933Z" fill="#FBF4EE" style="fill:#FBF4EE;fill:color(display-p3 0.9843 0.9569 0.9333);fill-opacity:1;"/>
<path d="M195.037 105.933V104.86L196.679 104.241C197.91 103.745 198.24 103.249 198.24 101.929V91.3255C198.24 89.633 197.828 88.9319 196.638 88.6855L195.122 88.354V87.3626L200.949 84.8047L201.894 85.3826V89.4276C203.904 86.5383 206.695 84.8076 209.527 84.8076C213.794 84.8076 216.46 87.8202 216.46 92.7716V101.932C216.46 103.252 216.79 103.748 217.977 104.244L219.619 104.863V105.936H209.361V104.863L211.003 104.244C212.111 103.789 212.438 103.337 212.438 101.932V93.6399C212.438 90.0495 210.796 88.1516 207.8 88.1516C205.75 88.1516 203.656 89.3484 202.262 91.2052V101.932C202.262 103.335 202.548 103.789 203.697 104.244L205.339 104.863V105.936H195.04L195.037 105.933Z" fill="#FBF4EE" style="fill:#FBF4EE;fill:color(display-p3 0.9843 0.9569 0.9333);fill-opacity:1;"/>
<path d="M220.865 100.609C220.865 97.8463 222.711 95.7812 225.952 94.6666C227.88 94.0066 230.382 93.634 233.01 93.5108V92.314C233.01 88.5183 231.698 86.8258 229.154 86.8258C228.087 86.8258 227.063 87.0311 226.241 87.5679C225.544 88.0226 225.051 88.8058 224.231 91.1994H222.755L221.524 87.5268C224.316 85.629 226.859 84.8047 229.647 84.8047C234.734 84.8047 237.032 86.9519 237.032 92.3962V100.897C237.032 102.34 237.403 102.836 238.756 103L240.232 103.164L240.436 104.238L235.101 106.341H234.2L233.174 103.288C231.739 105.144 229.44 106.341 227.224 106.341C223.368 106.341 220.865 104.071 220.865 100.607V100.609ZM233.01 101.393V95.2034C231.286 95.2855 229.77 95.4908 228.621 95.8223C226.281 96.4823 225.051 97.8844 225.051 99.9495C225.051 102.015 226.526 103.458 228.784 103.458C230.178 103.458 231.779 102.757 233.01 101.396V101.393Z" fill="#FBF4EE" style="fill:#FBF4EE;fill:color(display-p3 0.9843 0.9569 0.9333);fill-opacity:1;"/>
<path d="M246.471 104.984L244.172 105.975L243.227 105.356V81.2998C243.227 79.6073 242.816 79.0294 241.667 78.742L240.15 78.4105V77.378L246.305 74.9844L247.25 75.5622V88.1081C249.137 85.9609 251.435 84.8081 253.856 84.8081C258.861 84.8081 262.431 88.9353 262.431 94.7521C262.431 101.933 258.286 106.348 251.68 106.348C249.875 106.348 247.987 105.852 246.468 104.987L246.471 104.984ZM258.082 95.987C258.082 90.9124 255.825 87.8588 252.173 87.8588C250.367 87.8588 248.521 88.8092 247.25 90.4166V100.32C247.413 102.877 249.218 104.447 251.887 104.447C255.539 104.447 258.082 100.98 258.082 95.987Z" fill="#FBF4EE" style="fill:#FBF4EE;fill:color(display-p3 0.9843 0.9569 0.9333);fill-opacity:1;"/>
<path d="M263.492 105.934V104.86L265.134 104.241C266.324 103.746 266.695 103.291 266.695 101.93V81.2969C266.695 79.6044 266.243 79.0265 265.093 78.7801L263.577 78.4516V77.378L269.731 74.9844L270.717 75.5622V101.93C270.717 103.291 271.046 103.746 272.233 104.241L273.876 104.86V105.934H263.495H263.492Z" fill="#FBF4EE" style="fill:#FBF4EE;fill:color(display-p3 0.9843 0.9569 0.9333);fill-opacity:1;"/>
<path d="M274.893 95.658C274.893 89.5919 278.915 84.8047 284.494 84.8047C289.622 84.8047 293.192 88.1047 293.358 94.0887V94.9951H279.244V95.5319C279.244 100.815 281.951 103.66 286.303 103.66C288.56 103.66 290.24 102.959 291.882 101.803L292.868 103.082C290.733 105.144 287.985 106.341 284.704 106.341C278.713 106.341 274.898 102.587 274.898 95.6551L274.893 95.658ZM289.254 92.977C289.132 89.2223 287.367 86.7466 284.576 86.7466C281.785 86.7466 279.898 89.0991 279.364 93.1002L289.251 92.977H289.254Z" fill="#FBF4EE" style="fill:#FBF4EE;fill:color(display-p3 0.9843 0.9569 0.9333);fill-opacity:1;"/>
<path d="M294.787 105.933V104.86L296.429 104.241C297.619 103.745 297.99 103.249 297.99 101.929V91.3255C297.99 89.633 297.538 88.9319 296.388 88.6855L294.872 88.354V87.3626L300.699 84.8047L301.644 85.3826V89.3015C302.957 86.5794 305.092 84.8047 307.265 84.8047C308.495 84.8047 309.808 85.3004 310.875 86.1658L310.423 90.6215H309.315C308.207 88.7236 307.428 88.1047 306.075 88.1047C304.721 88.1047 303.202 89.2604 302.012 91.1994V101.927C302.012 103.164 302.382 103.578 304.228 104.238L305.952 104.857V105.931H294.793L294.787 105.933Z" fill="#FBF4EE" style="fill:#FBF4EE;fill:color(display-p3 0.9843 0.9569 0.9333);fill-opacity:1;"/>
<path d="M88.5912 14.551C88.7953 15.0409 89.0228 15.475 89.2445 15.8534C89.4632 16.2289 89.6732 16.5516 89.8512 16.8009C90.2128 17.3084 90.4753 17.6457 90.7203 17.9508C90.9507 18.2441 91.1141 18.4084 91.2162 18.5316L91.4262 18.7662L91.642 18.9892C91.8578 19.2121 92.2866 19.6638 93.2053 20.4588C93.4445 20.6494 93.7245 20.89 94.0657 21.1276C94.3982 21.374 94.7862 21.6292 95.2003 21.8814C95.6232 22.1278 96.0666 22.3772 96.5391 22.5942C96.7695 22.7086 97.0057 22.8172 97.2478 22.911C97.487 23.0078 97.7203 23.1105 97.9682 23.1838C98.4437 23.354 98.9337 23.4625 99.377 23.5417C99.8378 23.5916 100.249 23.6238 100.614 23.5622C100.967 23.53 101.255 23.4097 101.442 23.2748C101.629 23.1428 101.716 22.9844 101.702 22.8084C101.69 22.6324 101.585 22.474 101.43 22.339C101.273 22.2041 101.069 22.1044 100.821 21.9636C100.582 21.8433 100.299 21.6996 99.9866 21.5412C99.6803 21.3622 99.3507 21.1833 99.0153 20.9516C98.8462 20.8489 98.6799 20.7169 98.5137 20.5937C98.3445 20.4734 98.1812 20.3414 98.0207 20.2006C97.6941 19.9366 97.3878 19.6316 97.0991 19.3529C96.8132 19.0654 96.5449 18.7897 96.3087 18.5316C96.0695 18.2793 95.8741 18.0358 95.702 17.854C95.037 17.0884 94.7657 16.6718 94.6199 16.4724L94.4799 16.27C94.4799 16.27 94.477 16.27 94.3516 16.0646C94.2903 15.962 94.1824 15.8094 94.0628 15.5836C93.9462 15.3753 93.7507 15.0174 93.5437 14.5686C93.3307 14.1169 93.0332 13.4833 92.7737 12.8145C92.5053 12.1428 92.2866 11.4446 92.1057 10.7846C91.9162 10.1246 91.7616 9.48224 91.5078 8.91904C91.2512 8.36171 90.8924 7.87477 90.2857 7.69584C89.9853 7.60784 89.6937 7.62544 89.4107 7.74571C89.1278 7.86597 88.8507 8.08891 88.6262 8.41157C88.387 8.72837 88.2003 9.14784 88.0632 9.63184C87.932 10.1158 87.8532 10.6673 87.862 11.2364C87.8562 11.8113 87.9437 12.395 88.0632 12.9641C88.2003 13.5244 88.3753 14.07 88.5853 14.551H88.5912Z" fill="#41B729" style="fill:#41B729;fill:color(display-p3 0.2549 0.7176 0.1608);fill-opacity:1;"/>
<path d="M135.966 77.224C135.272 77.0656 134.636 77.2798 134.108 77.708C133.848 77.9251 133.598 78.1891 133.376 78.4942C133.157 78.7992 132.953 79.1395 132.766 79.4974C132.402 80.216 132.095 81.011 131.845 81.7472C131.725 82.1168 131.608 82.4659 131.515 82.7856C131.425 83.1083 131.343 83.3958 131.279 83.6304C131.034 84.5838 130.879 85.0531 130.815 85.2936L130.745 85.5312L130.669 85.7659C130.59 86.0006 130.453 86.4758 130.121 87.4115C129.96 87.8867 129.733 88.5702 129.476 89.3299C129.223 90.0955 128.94 90.9432 128.665 91.7382C128.4 92.536 128.14 93.2752 127.986 93.8472C127.831 94.4163 127.785 94.8211 127.971 94.956C128.158 95.091 128.517 94.915 129.01 94.563C129.258 94.3899 129.526 94.1611 129.818 93.903C130.112 93.6478 130.415 93.3574 130.725 93.0435C131.349 92.4246 131.979 91.7147 132.524 91.0459C132.801 90.7144 133.046 90.3859 133.268 90.0867C133.49 89.7904 133.679 89.5206 133.825 89.2918C134.42 88.3883 134.691 87.919 134.837 87.6902L134.98 87.4584L135.117 87.2238C135.251 86.9862 135.537 86.5256 136.053 85.5635C136.188 85.3259 136.333 85.0267 136.488 84.6894C136.643 84.3491 136.806 83.9707 136.949 83.563C137.246 82.7475 137.503 81.8264 137.602 80.9347C137.658 80.4918 137.672 80.0547 137.637 79.647C137.605 79.2392 137.532 78.8608 137.398 78.5235C137.133 77.8547 136.663 77.3795 135.969 77.2211L135.966 77.224Z" fill="#41B729" style="fill:#41B729;fill:color(display-p3 0.2549 0.7176 0.1608);fill-opacity:1;"/>
<path d="M152.89 103.639C152.423 103.222 151.787 103.169 151.125 103.337C150.798 103.428 150.437 103.548 150.081 103.715C149.9 103.797 149.725 103.894 149.544 103.991C149.358 104.085 149.171 104.184 148.987 104.293C148.628 104.513 148.252 104.742 147.882 104.97C147.52 105.205 147.158 105.437 146.814 105.66C146.479 105.894 146.146 106.094 145.852 106.288C145.56 106.484 145.301 106.66 145.079 106.795C144.644 107.077 144.321 107.294 144.064 107.432C143.81 107.578 143.641 107.675 143.53 107.74L143.306 107.872L143.072 107.989C142.956 108.048 142.781 108.136 142.518 108.27C142.258 108.411 141.9 108.567 141.418 108.778C141.179 108.889 140.885 109.016 140.552 109.15C140.316 109.25 140.056 109.362 139.788 109.47C140.083 109.212 140.377 108.954 140.643 108.696C141.001 108.344 141.346 108.006 141.643 107.696C141.935 107.379 142.191 107.091 142.396 106.854C142.813 106.378 143.096 106.003 143.323 105.73C143.545 105.454 143.699 105.273 143.793 105.146L143.985 104.894L144.175 104.642C144.367 104.39 144.755 103.894 145.484 102.853C145.671 102.597 145.881 102.269 146.106 101.893C146.33 101.518 146.578 101.107 146.8 100.644C147.263 99.7345 147.692 98.6814 147.943 97.6342C148.2 96.5958 148.261 95.5516 148.063 94.7478C147.85 93.9265 147.401 93.3867 146.703 93.2342C146.006 93.0817 145.35 93.3427 144.802 93.7974C144.531 94.0262 144.233 94.3137 143.985 94.6363C143.743 94.959 143.466 95.3227 143.233 95.707C143.008 96.0942 142.746 96.499 142.533 96.9126C142.323 97.3262 142.083 97.7398 141.891 98.1417C141.693 98.5465 141.506 98.9307 141.334 99.2769C141.171 99.6318 141.028 99.9457 140.908 100.204C140.441 101.251 140.179 101.767 140.053 102.022L139.925 102.281L139.797 102.539C139.736 102.671 139.631 102.858 139.479 103.146C139.321 103.43 139.132 103.824 138.84 104.322C138.697 104.572 138.528 104.882 138.341 105.234C138.149 105.584 137.939 105.971 137.714 106.378C137.487 106.786 137.251 107.212 137.008 107.643C137.003 107.654 136.994 107.666 136.988 107.681C137.038 106.722 137.105 106.211 137.131 105.941L137.163 105.636L137.204 105.328C137.245 105.02 137.321 104.404 137.554 103.172C137.665 102.556 137.828 101.668 137.965 100.656C138.102 99.6465 138.196 98.5083 138.187 97.4054C138.181 96.3025 138.07 95.2377 137.837 94.4105C137.601 93.5862 137.265 93.0083 136.731 92.8646C136.201 92.7209 135.62 93.0494 135.008 93.6625C134.401 94.2755 133.78 95.1849 133.266 96.235C132.75 97.2822 132.351 98.4731 132.108 99.5995C131.866 100.723 131.758 101.77 131.723 102.504C131.659 103.973 131.691 104.718 131.7 105.088L131.712 105.457L131.732 105.83C131.756 106.202 131.788 106.95 132.009 108.432C132.012 108.458 132.018 108.488 132.024 108.514C131.75 108.224 131.487 107.948 131.251 107.698C131.018 107.426 130.811 107.191 130.633 107.006C130.288 106.628 130.067 106.314 129.883 106.1C129.696 105.886 129.609 105.716 129.533 105.616L129.39 105.41L129.247 105.205C129.171 105.105 129.069 104.95 128.932 104.704C128.798 104.454 128.579 104.155 128.372 103.7C128.267 103.474 128.107 103.222 127.961 102.914C127.824 102.603 127.628 102.284 127.456 101.926C127.106 101.21 126.701 100.421 126.301 99.6524C126.097 99.2681 125.87 98.8985 125.666 98.5465C125.453 98.1974 125.199 97.8806 124.974 97.6019C124.834 97.4377 124.686 97.2969 124.534 97.1707C124.688 96.7249 124.837 96.2673 124.968 95.7979C125.143 95.1995 125.286 94.5923 125.409 94.0057C125.464 93.7094 125.517 93.422 125.569 93.1433C125.607 92.8617 125.642 92.5889 125.677 92.3307C125.75 91.8145 125.759 91.3363 125.782 90.9521C125.8 90.5649 125.782 90.2158 125.782 89.9137C125.782 89.6145 125.768 89.3475 125.744 89.1129C125.703 88.6553 125.68 88.3355 125.654 88.139L125.596 87.7489L125.534 87.3587C125.508 87.1622 125.447 86.8777 125.359 86.4465C125.318 86.2294 125.263 85.9801 125.187 85.6867C125.114 85.3934 125.033 85.0561 124.913 84.6748C124.694 83.9091 124.277 82.815 123.615 81.6827C122.956 80.5505 122.028 79.4006 120.978 78.5558C120.599 78.2449 120.206 77.9809 119.815 77.7579C120.477 77.3678 121.121 76.9161 121.69 76.4614C122.44 75.866 123.061 75.2675 123.472 74.8363C124.286 73.9651 124.659 73.4958 124.852 73.2641L125.041 73.0323L125.228 72.7977C125.409 72.5572 125.791 72.0966 126.471 71.0905C126.806 70.583 127.264 69.835 127.658 68.9227C128.054 68.0163 128.396 66.9515 128.515 65.8838C128.626 64.9539 128.55 64.0153 128.276 63.2966C128.728 63.3406 129.168 63.3758 129.574 63.3787C130.143 63.4051 130.65 63.3787 131.064 63.3611C131.481 63.3465 131.843 63.3025 132.164 63.2702C132.482 63.235 132.759 63.2145 132.989 63.1763C133.456 63.1059 133.771 63.0561 133.978 63.0238C134.392 62.9475 134.392 62.9446 134.392 62.9446L134.806 62.8595C135.013 62.8155 135.328 62.7598 135.789 62.6337C136.023 62.5721 136.291 62.5017 136.609 62.4195C136.921 62.3198 137.28 62.2054 137.688 62.0763C138.096 61.9443 138.581 61.7361 139.126 61.5073C139.671 61.2491 140.272 60.947 140.873 60.5569C142.081 59.7942 143.332 58.7177 144.227 57.4153C145.134 56.1334 145.618 54.6169 145.525 53.4612C145.438 52.2878 144.831 51.5545 143.973 51.3755C143.539 51.2788 143.116 51.311 142.725 51.4049C142.34 51.5017 141.961 51.6542 141.614 51.8361C141.255 52.015 140.926 52.2262 140.576 52.4521C140.24 52.6809 139.887 52.9302 139.528 53.1942C138.814 53.7222 138.009 54.3118 137.213 54.8369C136.822 55.1038 136.425 55.3443 136.069 55.5702C135.69 55.7814 135.366 55.9985 135.089 56.1569C134.809 56.3182 134.564 56.459 134.351 56.5822C134.13 56.6937 133.94 56.7905 133.777 56.8726C133.453 57.0457 133.226 57.1337 133.077 57.2011L132.776 57.3331C132.776 57.3331 132.776 57.3361 132.476 57.4622C132.321 57.5209 132.091 57.6089 131.744 57.7409C131.572 57.8142 131.362 57.8699 131.123 57.9521C130.881 58.0284 130.606 58.1281 130.283 58.2073C129.962 58.2923 129.568 58.4156 129.119 58.5153C128.67 58.6385 128.168 58.7382 127.631 58.8555C127.095 58.9494 126.523 59.0667 125.943 59.1313C125.359 59.2222 124.77 59.2633 124.19 59.3161C123.802 59.3395 123.428 59.3601 123.061 59.3718C123.291 59.2897 123.525 59.2017 123.764 59.1078C124.289 58.9171 124.814 58.6737 125.333 58.4244C125.861 58.1838 126.36 57.9022 126.838 57.6323C127.322 57.3683 127.757 57.0809 128.151 56.8198C128.544 56.5617 128.894 56.3212 129.16 56.1012C129.699 55.6699 130.119 55.359 130.408 55.095C130.703 54.8369 130.901 54.6667 131.032 54.5523L131.295 54.3235C131.295 54.3235 131.301 54.3294 131.551 54.0889C131.677 53.9686 131.866 53.7838 132.152 53.511C132.295 53.3731 132.461 53.2118 132.654 53.0241C132.841 52.8275 133.051 52.6017 133.293 52.3406C133.532 52.0795 133.832 51.7657 134.121 51.3697C134.413 50.9766 134.751 50.5571 135.046 50.0614C135.337 49.5627 135.664 49.0611 135.906 48.4921C136.151 47.9289 136.405 47.3745 136.548 46.7819C136.702 46.1982 136.833 45.6409 136.848 45.0865C136.866 44.535 136.866 44.0481 136.726 43.5963C136.478 42.7046 135.967 42.1209 135.183 41.9537C134.398 41.7865 133.663 42.0593 133.062 42.5315C132.776 42.7691 132.438 43.0508 132.173 43.3764C131.913 43.702 131.613 44.0539 131.356 44.4323C131.114 44.8137 130.819 45.1979 130.58 45.5998C130.347 46.0046 130.061 46.3889 129.845 46.7819C129.623 47.1721 129.37 47.527 129.177 47.8673C128.988 48.2105 128.786 48.5009 128.641 48.7502C128.492 48.9995 128.361 49.2195 128.247 49.4102C128.121 49.595 128.013 49.7563 127.923 49.8913C127.739 50.167 127.617 50.3489 127.532 50.4721C127.369 50.7185 127.36 50.7126 127.36 50.7126L127.182 50.9502C127.095 51.0705 126.961 51.2465 126.759 51.5134C126.567 51.7891 126.269 52.1206 125.89 52.5841C125.703 52.8187 125.464 53.0945 125.193 53.4054C124.925 53.7193 124.636 54.0801 124.303 54.435C123.98 54.7958 123.644 55.1918 123.283 55.5614C122.927 55.9398 122.571 56.3299 122.206 56.6819C121.865 57.0281 121.536 57.3683 121.218 57.6675C121.235 57.4827 121.253 57.2979 121.27 57.1161C121.346 56.5529 121.404 55.9985 121.503 55.4734C121.579 54.9483 121.69 54.4585 121.775 54.0155C121.871 53.5785 121.958 53.1884 122.031 52.8686C122.195 52.235 122.311 51.7627 122.431 51.4166C122.542 51.0676 122.606 50.8358 122.667 50.6833L122.778 50.3782L122.889 50.0732C122.938 49.9206 123.035 49.6947 123.175 49.3603C123.306 49.023 123.513 48.5859 123.787 48.0051C123.939 47.7206 124.108 47.3715 124.301 46.9785C124.508 46.5942 124.712 46.1571 124.96 45.7113C125.196 45.2625 125.447 44.7902 125.698 44.315C125.963 43.8486 126.196 43.3764 126.479 42.8307C127.001 41.7777 127.383 40.7393 127.48 39.8534C127.518 39.5102 127.512 39.1934 127.456 38.9059C127.693 38.4747 127.926 38.0465 128.142 37.63C128.428 37.0961 128.676 36.574 128.9 36.1046C129.128 35.6353 129.317 35.21 129.463 34.858C130.067 33.4558 130.326 32.7313 130.475 32.3764L130.615 32.0185L130.749 31.6577C130.816 31.4758 130.916 31.2059 131.067 30.7982C131.225 30.3934 131.4 29.839 131.651 29.1057C131.779 28.739 131.907 28.2844 132.044 27.7681C132.184 27.2548 132.324 26.6798 132.435 26.0668C132.558 25.4566 132.663 24.8113 132.721 24.1542C132.756 23.8257 132.785 23.4972 132.806 23.1716C132.817 22.843 132.82 22.5145 132.817 22.1948C132.814 21.875 132.803 21.5582 132.779 21.2532C132.747 20.9452 132.706 20.6489 132.657 20.3644C132.558 19.7982 132.421 19.2849 132.213 18.8508C131.811 17.9854 131.236 17.4545 130.49 17.4457C129.743 17.434 129.128 17.9268 128.664 18.6835C128.439 19.062 128.221 19.5108 128.04 20.0006C127.949 20.247 127.865 20.5022 127.789 20.7692C127.704 21.0332 127.623 21.306 127.55 21.5846C127.477 21.8633 127.41 22.1478 127.351 22.4324C127.281 22.7198 127.214 23.0073 127.156 23.2948C127.045 23.8726 126.931 24.4505 126.826 24.999C126.73 25.5534 126.637 26.0785 126.555 26.5537C126.479 27.0318 126.412 27.4601 126.357 27.8092C126.243 28.5132 126.17 29.0441 126.091 29.4372C126.018 29.8332 125.969 30.0972 125.937 30.2731L125.873 30.6252L125.803 30.9771C125.721 31.3292 125.598 32.0361 125.26 33.447C125.1 34.1598 124.872 35.1865 124.618 36.3217C124.487 36.9259 124.35 37.5596 124.21 38.1961C124.137 38.2459 124.061 38.2958 123.988 38.3486C123.927 37.9644 123.875 37.5801 123.808 37.2164C123.732 36.7148 123.659 36.2366 123.595 35.8054C123.528 35.3742 123.469 34.9899 123.42 34.6731C123.207 33.4177 123.146 32.7694 123.093 32.4556L123.052 32.1358L123.014 31.8161C122.979 31.4964 122.895 30.8598 122.775 29.5692C122.65 28.2814 122.358 25.8614 121.807 23.767C121.311 21.8809 120.538 20.2734 119.476 20.0652C119.637 19.9596 119.815 19.8393 120.016 19.6897C120.261 19.5137 120.541 19.3142 120.85 19.059C121.477 18.5721 122.335 17.7772 123.134 16.7388C123.936 15.7062 124.656 14.4126 125.05 13.119C125.453 11.8254 125.523 10.5612 125.298 9.63422C125.079 8.70142 124.581 8.10888 123.889 7.98862C123.539 7.92702 123.198 7.98862 122.877 8.12942C122.553 8.27315 122.256 8.50195 121.95 8.77475C121.658 9.05342 121.361 9.37608 121.083 9.72808C120.935 9.90115 120.798 10.083 120.658 10.2708C120.509 10.4526 120.372 10.6433 120.235 10.8369C119.958 11.2124 119.666 11.5996 119.38 11.9897C119.091 12.371 118.808 12.7494 118.523 13.1044C118.243 13.4652 117.96 13.7966 117.706 14.1076C117.441 14.4156 117.207 14.6884 117.015 14.9142C116.825 15.146 116.641 15.3396 116.481 15.5097C116.323 15.6828 116.183 15.8294 116.058 15.9497C115.81 16.1932 115.647 16.3633 115.533 16.463L115.308 16.6713L115.084 16.8825C114.97 16.9881 114.807 17.1084 114.553 17.3196C114.431 17.4251 114.279 17.5454 114.083 17.6774C113.891 17.8094 113.681 17.9766 113.416 18.1438C113.147 18.3022 112.841 18.5369 112.459 18.7569C112.272 18.8742 112.074 18.9974 111.867 19.1265C111.654 19.2497 111.432 19.3788 111.205 19.5108C110.75 19.7748 110.257 20.0476 109.752 20.3116C109.251 20.5785 108.731 20.8366 108.23 21.083C108.18 21.1065 108.131 21.13 108.081 21.1534C108.341 20.8718 108.597 20.5844 108.848 20.2881C109.227 19.8569 109.58 19.4139 109.916 18.9857C110.257 18.5604 110.557 18.1438 110.828 17.7625C111.1 17.3841 111.336 17.0409 111.514 16.7505C112.252 15.6065 112.584 15.0081 112.762 14.7177L112.937 14.4244L113.106 14.1281C113.27 13.8289 113.626 13.2422 114.261 12.0278C114.425 11.7257 114.608 11.3502 114.798 10.922C114.991 10.4937 115.198 10.0185 115.384 9.50515C115.574 8.99182 115.763 8.45208 115.912 7.89475C116.07 7.34035 116.201 6.77422 116.286 6.21689C116.376 5.66249 116.428 5.11982 116.42 4.61235C116.417 4.10489 116.373 3.63555 116.253 3.22195C116.029 2.39769 115.577 1.81689 114.868 1.64382C114.159 1.47075 113.486 1.76409 112.902 2.33022C112.613 2.61475 112.328 2.96382 112.071 3.35689C111.817 3.75289 111.569 4.19288 111.339 4.65635C111.114 5.12275 110.898 5.60675 110.694 6.09369C110.499 6.58355 110.306 7.07049 110.134 7.53982C109.968 8.01208 109.811 8.45795 109.668 8.86275C109.533 9.27048 109.417 9.63422 109.318 9.93342C108.947 11.139 108.723 11.7286 108.623 12.0308L108.521 12.33L108.411 12.6262C108.297 12.9196 108.093 13.5209 107.614 14.6972C107.381 15.2926 107.043 16.1462 106.669 17.0937C106.296 18.047 105.876 19.103 105.473 20.0857C105.409 20.2441 105.348 20.3966 105.287 20.5521C105.176 20.1854 105.071 19.8012 104.963 19.3993C104.82 18.93 104.706 18.4372 104.59 17.9532C104.458 17.475 104.377 16.991 104.278 16.5422C104.17 16.0964 104.126 15.6622 104.05 15.2838C103.971 14.9054 103.939 14.5652 103.896 14.2924C103.796 13.7468 103.764 13.3332 103.741 13.0252C103.715 12.7172 103.691 12.5148 103.686 12.3798L103.68 12.107L103.674 11.8342C103.671 11.6993 103.665 11.4969 103.656 11.1918C103.671 10.8897 103.688 10.4878 103.712 9.95102C103.776 9.41422 103.802 8.65742 103.872 7.81555C103.925 6.97368 103.989 6.04382 103.98 5.14035C103.954 4.68569 103.963 4.24275 103.893 3.81449C103.861 3.60035 103.82 3.39208 103.764 3.18675C103.721 2.98435 103.665 2.79075 103.595 2.60302C103.315 1.86089 102.802 1.23902 102.003 0.954485C101.203 0.669952 100.433 0.863552 99.7422 1.41795C99.5701 1.55582 99.4009 1.71422 99.2376 1.89315C99.0859 2.07502 98.9401 2.27742 98.803 2.49449C98.5318 2.93155 98.2576 3.42142 98.0768 3.96702C97.893 4.51262 97.6947 5.07875 97.6072 5.67128C97.508 6.26088 97.403 6.84462 97.3943 7.41662C97.3768 7.98568 97.3447 8.52542 97.3943 9.01528C97.4293 9.50515 97.473 9.93635 97.5197 10.2913C97.6539 10.9924 97.753 11.5174 97.8289 11.9105C97.928 12.2977 97.9951 12.5558 98.0389 12.726L98.1293 13.0692L98.2197 13.4094C98.2693 13.5796 98.3568 13.8289 98.4793 14.2044C98.6018 14.5798 98.7651 15.0785 99.0363 15.718C99.1705 16.0377 99.3251 16.4337 99.5526 16.8473C99.7772 17.2638 100.002 17.7332 100.305 18.1908C100.6 18.6513 100.897 19.1353 101.25 19.5812C101.591 20.0358 101.938 20.4846 102.309 20.8865C102.668 21.2972 103.023 21.6726 103.379 21.9953C103.729 22.3209 104.044 22.6084 104.353 22.8196C104.374 22.8342 104.391 22.846 104.409 22.8577C104.216 23.4678 104.155 23.899 104.348 24.0428C104.558 24.2012 104.998 23.9665 105.599 23.506C105.686 23.4385 105.78 23.3652 105.873 23.2889C106.646 23.3505 107.658 23.3798 108.761 23.3417C109.353 23.3182 109.974 23.286 110.589 23.2214C111.208 23.1628 111.82 23.0748 112.409 22.9692C112.704 22.9105 112.99 22.8548 113.267 22.802C113.541 22.7316 113.806 22.667 114.057 22.6025C114.562 22.4793 115.005 22.3121 115.37 22.1918C115.734 22.0657 116.049 21.919 116.329 21.8076C116.606 21.699 116.848 21.5846 117.053 21.4761C117.435 21.2825 117.709 21.1476 117.881 21.0508C117.481 21.834 117.277 22.9897 117.219 24.254C117.163 25.354 117.219 26.5361 117.321 27.6097C117.423 28.6833 117.575 29.6513 117.709 30.3172C117.971 31.6548 118.132 32.3236 118.202 32.658L118.275 32.9924L118.351 33.3268C118.441 33.6612 118.572 34.33 118.943 35.6617C119.036 35.9961 119.141 36.4009 119.298 36.8497C119.371 37.0609 119.447 37.2838 119.526 37.5126C119.412 37.4246 119.296 37.3337 119.185 37.2486C118.841 37.0022 118.531 36.7353 118.246 36.5153C117.957 36.2982 117.706 36.1046 117.502 35.9403C117.088 35.6236 116.778 35.3918 116.56 35.1953C116.338 35.0076 116.189 34.8843 116.09 34.7993L115.892 34.635L115.702 34.459C115.609 34.371 115.466 34.239 115.253 34.0425C115.034 33.8548 114.769 33.5732 114.407 33.2124C114.223 33.0364 114.005 32.8164 113.754 32.5729C113.497 32.3382 113.214 32.0742 112.914 31.8014C112.611 31.5286 112.275 31.2558 111.951 30.9684C111.785 30.8276 111.61 30.6897 111.432 30.5577C111.26 30.4198 111.091 30.2819 110.913 30.15C110.738 30.018 110.557 29.8948 110.373 29.7745C110.198 29.6513 110.026 29.531 109.848 29.4254C109.496 29.2084 109.128 29.0294 108.801 28.8828C108.128 28.6012 107.474 28.5132 106.932 28.8153C106.389 29.1145 106.141 29.7158 106.109 30.5313C106.086 30.942 106.153 31.382 106.258 31.8572C106.313 32.0948 106.375 32.3382 106.456 32.5846C106.544 32.8252 106.64 33.0716 106.748 33.318C106.856 33.5644 106.967 33.8137 107.098 34.0572C107.232 34.2948 107.372 34.5324 107.518 34.7641C107.804 35.2364 108.136 35.6675 108.469 36.0665C108.793 36.4742 109.143 36.8233 109.463 37.1283C109.781 37.4393 110.082 37.7004 110.344 37.891C110.861 38.2841 111.248 38.5774 111.558 38.7739C111.861 38.9734 112.062 39.1083 112.196 39.1993L112.468 39.3753L112.748 39.5395C112.888 39.6217 113.095 39.7419 113.41 39.9238C113.719 40.1115 114.153 40.3257 114.728 40.6132C115.011 40.7598 115.373 40.9123 115.787 41.0649C116.198 41.2233 116.653 41.3876 117.152 41.5166C117.645 41.6516 118.161 41.7894 118.698 41.8715C118.963 41.9155 119.228 41.9595 119.491 42.0006C119.756 42.0329 120.022 42.0534 120.281 42.0739C120.404 42.0827 120.521 42.0886 120.64 42.0974C120.436 42.423 120.243 42.7545 120.074 43.083C119.768 43.6374 119.535 44.1918 119.319 44.6905C119.118 45.195 118.96 45.6526 118.835 46.0281C118.613 46.7907 118.45 47.3598 118.353 47.7939C118.251 48.2251 118.181 48.5126 118.149 48.7091L118.076 49.0963L118.003 49.4835C117.963 49.6742 117.925 49.9705 117.861 50.4076C117.788 50.8417 117.735 51.4313 117.665 52.2086C117.621 52.9889 117.586 54.1182 117.715 55.3531C117.796 56.2801 117.954 57.2627 118.176 58.2014C118.082 58.0723 117.986 57.9433 117.898 57.7966C117.785 57.6118 117.668 57.4212 117.548 57.2276C117.298 56.8579 117.088 56.4356 116.869 56.0366C116.636 55.6494 116.472 55.2182 116.286 54.8398C116.09 54.4673 115.973 54.0683 115.828 53.7427C115.682 53.4171 115.588 53.1062 115.498 52.8627C115.411 52.6193 115.332 52.4051 115.265 52.2174C115.212 52.0238 115.166 51.8596 115.128 51.7188C115.049 51.4401 114.996 51.2523 114.961 51.1291C114.923 51.0059 114.921 50.9385 114.912 50.9091L114.906 50.8769L114.856 50.6217C114.83 50.4955 114.792 50.3078 114.737 50.0233C114.673 49.7417 114.649 49.3516 114.576 48.8499C114.533 48.6006 114.53 48.2867 114.489 47.9435C114.468 47.7734 114.445 47.5915 114.422 47.4067C114.41 47.219 114.396 47.0225 114.378 46.823C114.358 46.6236 114.334 46.4212 114.305 46.2129C114.293 46.0046 114.279 45.7963 114.256 45.5851C114.235 45.3739 114.2 45.1627 114.174 44.9515C114.156 44.7403 114.133 44.5321 114.101 44.3238C114.072 44.1155 114.025 43.9102 113.987 43.7078C113.958 43.5084 113.917 43.3089 113.868 43.1182C113.768 42.7339 113.626 42.3673 113.48 42.0417C113.165 41.3905 112.657 40.8596 111.925 40.6689C111.193 40.4782 110.519 40.7451 109.939 41.3641C109.638 41.6691 109.408 42.0681 109.204 42.5227C109.102 42.7515 109.006 42.9921 108.918 43.2473C108.839 43.5025 108.784 43.7665 108.726 44.0393C108.67 44.3121 108.623 44.5937 108.583 44.8753C108.553 45.1598 108.545 45.4443 108.533 45.7318C108.524 46.0193 108.521 46.3067 108.524 46.5883C108.545 46.8699 108.571 47.1457 108.597 47.4185C108.629 47.6883 108.661 47.9523 108.693 48.2046C108.74 48.4569 108.796 48.6945 108.845 48.9233C108.956 49.375 109.038 49.7827 109.163 50.0995C109.198 50.1934 109.227 50.2755 109.256 50.3606C109.181 50.4574 109.105 50.5484 109.035 50.651C108.906 50.8299 108.766 51.0148 108.641 51.2054C108.378 51.5868 108.16 51.9916 107.906 52.3963C107.658 52.8011 107.448 53.2147 107.235 53.6107C107.016 54.0038 106.821 54.3851 106.652 54.7313C106.483 55.0803 106.331 55.3913 106.208 55.6465C105.966 56.1628 105.797 56.5558 105.651 56.8433C105.508 57.1337 105.412 57.3243 105.348 57.4534L105.22 57.7115C104.849 58.4918 104.418 59.2457 104.021 60.0201C103.592 60.7739 103.184 61.5483 102.729 62.2905L102.58 62.5398C102.431 62.7892 102.14 63.2907 101.521 64.2705C101.434 64.4142 101.335 64.5814 101.227 64.7574C101.262 64.4553 101.291 64.1649 101.314 63.8921C101.358 63.411 101.393 62.9798 101.405 62.6249C101.475 61.211 101.481 60.4953 101.492 60.1403L101.501 59.7854V59.4275C101.501 59.0697 101.521 58.3569 101.486 56.9225C101.486 56.5646 101.457 56.1275 101.416 55.6377C101.381 55.1478 101.323 54.6051 101.233 54.042C101.154 53.4758 101.043 52.8833 100.903 52.2966C100.772 51.707 100.6 51.1233 100.401 50.5718C100.209 50.0174 99.9784 49.4953 99.7218 49.0347C99.468 48.5713 99.1909 48.1665 98.8789 47.8467C98.2664 47.2043 97.5722 46.8993 96.8518 47.0958C96.1314 47.2923 95.6734 47.9054 95.4343 48.7209C95.3176 49.1286 95.2418 49.595 95.2097 50.0907C95.1776 50.5865 95.1893 51.1145 95.2097 51.6571C95.2418 52.1998 95.3001 52.7542 95.3614 53.3057C95.4314 53.8542 95.513 54.3998 95.5918 54.919C95.6822 55.4353 95.7668 55.9281 95.8426 56.3739C95.9301 56.8169 96.0089 57.2129 96.0701 57.5385C96.3443 58.8379 96.4464 59.4979 96.5105 59.8265L96.5689 60.155L96.6214 60.4865C96.6709 60.8179 96.7905 61.475 96.9714 62.8097C97.0209 63.1441 97.0793 63.5518 97.1464 64.0094C97.2193 64.4699 97.298 64.9803 97.3797 65.5172C97.4818 66.1478 97.5926 66.8166 97.7005 67.4825C97.3126 66.8958 96.9159 66.2974 96.5455 65.7371C96.283 65.347 96.0351 64.9774 95.8105 64.6459C95.583 64.3174 95.3818 64.0241 95.2155 63.7806C94.5418 62.8273 94.2384 62.3286 94.0751 62.091L93.9147 61.8475L93.763 61.6012C93.6143 61.3518 93.2905 60.8678 92.713 59.8587C92.4184 59.3572 91.9897 58.6443 91.4909 57.867C90.9922 57.0897 90.4234 56.2449 89.8401 55.4822C89.2451 54.7254 88.6384 54.0449 88.023 53.6195C87.4134 53.1913 86.7834 53.0182 86.2147 53.2705C85.643 53.5227 85.363 54.1124 85.3047 54.8955C85.2726 55.2886 85.3105 55.7227 85.3893 56.1891C85.4651 56.6555 85.5934 57.1454 85.7626 57.6412C85.923 58.1398 86.1272 58.6414 86.3488 59.1283C86.5647 59.6211 86.8155 60.0934 87.0605 60.5364C87.3026 60.9851 87.5593 61.3929 87.7955 61.7595C88.0289 62.1262 88.2505 62.4459 88.443 62.7011C89.1955 63.7278 89.6068 64.2147 89.7993 64.4699L89.9947 64.7193L90.1989 64.9627C90.4059 65.2033 90.7968 65.7049 91.6397 66.6553C91.8468 66.8958 92.1122 67.1774 92.4184 67.4854C92.7247 67.7934 93.063 68.1337 93.4422 68.471C93.8155 68.8113 94.2151 69.1633 94.6322 69.4947C94.8539 69.6766 95.0784 69.8526 95.3059 70.0228C94.9239 69.9113 94.5388 69.7851 94.1597 69.659C93.7222 69.5299 93.2934 69.3715 92.888 69.2337C92.4826 69.1105 92.1034 68.9579 91.7651 68.8435C91.4239 68.7321 91.1234 68.6294 90.8784 68.5385C90.3855 68.3713 90.018 68.2539 89.7497 68.1337C89.4784 68.0281 89.2976 67.9577 89.178 67.9108L88.9389 67.8169L88.7026 67.7113C88.5859 67.6585 88.408 67.5793 88.1455 67.462C87.8772 67.3534 87.5359 67.1745 87.0809 66.9486C86.8505 66.8401 86.5734 66.7022 86.2584 66.5526C85.9405 66.4118 85.5876 66.2563 85.2172 66.0921C84.8439 65.9307 84.4414 65.7812 84.0389 65.6139C83.8347 65.5347 83.6276 65.4614 83.4176 65.391C83.2105 65.3177 83.0064 65.2385 82.7963 65.174C82.5863 65.1065 82.3764 65.0449 82.1664 64.9921C81.9622 64.9334 81.758 64.8747 81.5568 64.8307C81.1543 64.7369 80.7489 64.687 80.3901 64.6547C80.2501 64.6459 80.1159 64.646 79.9847 64.6489C80.0168 64.599 80.0547 64.5462 80.0868 64.4963C80.2093 64.2851 80.3172 64.0681 80.4134 63.8598C80.6059 63.4403 80.7518 63.0473 80.8014 62.663C80.918 61.9033 80.7576 61.2902 80.253 60.9235C79.7484 60.5569 79.1097 60.5657 78.468 60.7974C78.153 60.9206 77.803 61.0761 77.4647 61.2756C77.2955 61.3753 77.1264 61.4867 76.9572 61.6041C76.7822 61.7155 76.6043 61.8329 76.4322 61.959C76.0968 62.2142 75.7468 62.4782 75.3997 62.7422C75.0614 63.0121 74.7259 63.279 74.4051 63.5342C74.093 63.8011 73.7809 64.0329 73.5068 64.2558C73.2355 64.4817 72.9934 64.6811 72.7893 64.8366C72.3868 65.1593 72.0834 65.4086 71.8413 65.5729C71.6022 65.743 71.4447 65.8574 71.3397 65.9337L71.1268 66.0862L70.908 66.227C70.7972 66.2974 70.6339 66.403 70.3859 66.5614C70.1409 66.7286 69.7997 66.9164 69.3418 67.1774C69.1172 67.3123 68.8343 67.4649 68.5163 67.635C68.1984 67.8081 67.8484 68.0134 67.4663 68.1953C67.0872 68.3889 66.6905 68.603 66.2764 68.7878C66.0693 68.8876 65.8651 68.9873 65.6609 69.087C65.4509 69.1779 65.2468 69.2718 65.0426 69.3598C64.9551 69.4009 64.8705 69.439 64.7859 69.4771C65.1739 69.1955 65.5822 68.9052 65.9643 68.5942C66.3726 68.2569 66.7897 67.9195 67.1601 67.5793C67.5305 67.239 67.8834 66.9134 68.1897 66.6083C68.4901 66.3003 68.7555 66.0217 68.9684 65.7899C69.4001 65.3294 69.6918 64.9627 69.928 64.6958C70.1584 64.4259 70.3159 64.2499 70.4151 64.1267L70.6134 63.8833L70.8118 63.6369C71.0101 63.3905 71.4155 62.9065 72.1739 61.8886C72.3693 61.6393 72.588 61.3166 72.8214 60.95C73.0547 60.5833 73.3172 60.1785 73.5534 59.7209C74.0434 58.8262 74.5043 57.7878 74.7843 56.7494C75.073 55.7169 75.1634 54.6755 74.9913 53.8689C74.8018 53.0417 74.3701 52.4873 73.6788 52.3142C72.9876 52.1411 72.3226 52.3817 71.7597 52.8217C71.4797 53.0417 71.1763 53.3204 70.9197 53.6342C70.6688 53.9481 70.3801 54.303 70.138 54.6814C69.9018 55.0598 69.6276 55.4587 69.403 55.8635C69.1814 56.2713 68.9276 56.6761 68.7234 57.0721C68.5134 57.471 68.3122 57.8494 68.1343 58.1926C67.9622 58.5417 67.8076 58.8526 67.6793 59.1078C67.1834 60.1404 66.9063 60.6478 66.7693 60.9001L66.6351 61.1553L66.5009 61.4105C66.4339 61.5395 66.323 61.7243 66.1655 62.0059C65.9993 62.2846 65.798 62.6718 65.4918 63.1617C65.3401 63.4081 65.1622 63.7131 64.9668 64.0593C64.7655 64.4025 64.5409 64.7838 64.3047 65.1827C64.0743 65.5699 63.8293 65.9747 63.5872 66.3825C63.5959 66.2534 63.5959 66.2476 63.5959 66.2476C63.6397 65.4673 63.7038 64.6899 63.7768 63.9185L63.9022 62.7627L64.0538 61.6129L64.0918 61.3577C64.1384 61.1054 64.1909 60.595 64.3864 59.5889C64.5672 58.5798 64.8122 56.7025 64.7422 54.9953C64.7072 54.1534 64.5934 53.2939 64.3484 52.6398C64.1005 51.9857 63.7301 51.5281 63.1905 51.4107C62.648 51.2934 62.1259 51.5603 61.633 52.0561C61.388 52.3054 61.1518 52.6105 60.933 52.9566C60.7113 53.2998 60.5101 53.7163 60.3264 54.1446C60.1368 54.5729 59.9968 55.0334 59.8597 55.491C59.7226 55.9486 59.6351 56.415 59.5505 56.8579C59.4659 57.3009 59.428 57.7291 59.3872 58.1134C59.3493 58.4977 59.3405 58.8438 59.3376 59.1283C59.3201 60.2606 59.358 60.8267 59.358 61.1083C59.3638 61.3899 59.3668 61.3899 59.3668 61.3899L59.4338 62.6601L59.5359 63.9273C59.6205 64.7691 59.7197 65.6081 59.848 66.4411L59.8889 66.7169C59.9326 66.9457 59.9939 67.3739 60.1426 68.1425C59.8976 67.9254 59.6526 67.7142 59.4222 67.4825C59.0984 67.1451 58.7543 66.8489 58.4655 66.5262C58.1797 66.2006 57.8938 65.9161 57.6576 65.6433C57.4301 65.3617 57.223 65.1182 57.0509 64.9217C56.7155 64.5227 56.4997 64.2001 56.3188 63.9742C56.138 63.7483 56.0563 63.5694 55.9805 63.4667L55.8434 63.2497L55.7064 63.0326C55.6334 62.927 55.5372 62.7627 55.4089 62.5046C55.2834 62.2465 55.0734 61.9297 54.8897 61.4545C54.7964 61.2169 54.6476 60.9499 54.5193 60.6302C54.3968 60.3075 54.2247 59.9673 54.0788 59.5889C53.7726 58.8233 53.4343 57.9843 53.1193 57.2041C52.953 56.8051 52.7634 56.4179 52.5943 56.0513C52.5476 55.9545 52.4893 55.8635 52.4368 55.7726C52.9413 55.623 53.4547 55.4617 53.9651 55.2739C54.5513 55.0686 55.1259 54.831 55.6684 54.5875C55.9397 54.4614 56.2051 54.3353 56.4589 54.215C56.7097 54.0801 56.9518 53.951 57.1793 53.8278C57.6372 53.5844 58.028 53.3145 58.3547 53.1091C58.6784 52.8979 58.9468 52.6779 59.1918 52.5019C59.4368 52.3289 59.6409 52.1587 59.813 52.0033C60.1601 51.7011 60.4051 51.4987 60.5451 51.3609L60.8251 51.0851L61.1022 50.8065C61.2451 50.6686 61.4376 50.4545 61.738 50.1318C61.8897 49.9734 62.0588 49.7798 62.2513 49.5481C62.4468 49.3193 62.6684 49.0553 62.9076 48.7326C63.3976 48.1078 64.0393 47.1281 64.5643 45.9254C65.0922 44.7286 65.4801 43.2971 65.5501 41.9478C65.6289 40.5956 65.3926 39.3518 64.9493 38.507C64.5147 37.6563 63.8847 37.2017 63.1847 37.2545C62.8288 37.2809 62.5139 37.4217 62.2368 37.6388C61.9568 37.8558 61.7234 38.1521 61.493 38.4894C61.2772 38.8297 61.0643 39.2139 60.8834 39.6246C60.7814 39.827 60.6909 40.0382 60.6034 40.2553C60.5043 40.4694 60.4168 40.6865 60.3293 40.9065C60.1484 41.3377 59.9618 41.7865 59.778 42.2323C59.5884 42.6723 59.4047 43.1094 59.2151 43.523C59.0314 43.9395 58.8359 44.3326 58.6668 44.6964C58.4859 45.0601 58.3226 45.3827 58.1884 45.6467C58.0601 45.9166 57.9289 46.1513 57.8122 46.3537C57.7014 46.559 57.6022 46.735 57.5089 46.8817C57.328 47.1779 57.2084 47.3833 57.1239 47.5065L56.9547 47.7617L56.7884 48.0198C56.7038 48.1489 56.5726 48.3073 56.3801 48.5713C56.2868 48.7033 56.1701 48.8558 56.0126 49.0318C55.858 49.2078 55.6947 49.419 55.4789 49.6449C55.2572 49.8649 55.0151 50.167 54.7001 50.475C54.5455 50.6334 54.3822 50.8036 54.213 50.9766C54.0351 51.1497 53.8543 51.3257 53.6647 51.5105C53.3759 51.7891 53.0668 52.0795 52.7489 52.367C52.9443 51.9769 53.128 51.5809 53.2884 51.1995C53.6093 50.4574 53.8513 49.7681 53.9943 49.2782C54.1343 48.7883 54.2451 48.4217 54.3093 48.1401C54.3793 47.8585 54.4259 47.6737 54.4551 47.5476L54.5163 47.2982C54.5163 47.2982 54.5193 47.2982 54.5718 47.0459C54.6155 46.7907 54.7526 46.2921 54.9072 45.2566C54.9509 44.9985 54.9918 44.6817 55.0122 44.3209C55.0355 43.9601 55.0647 43.5641 55.0443 43.1387C55.0326 42.7164 55.0151 42.2734 54.9422 41.8275C54.8809 41.3846 54.7993 40.9387 54.6622 40.5193C54.5397 40.0998 54.388 39.7038 54.1897 39.3547C53.9972 39.0057 53.7959 38.7035 53.5393 38.4718C53.0463 38.0025 52.4864 37.8089 51.8855 37.982C51.2847 38.155 50.8822 38.6009 50.6401 39.1494C50.5263 39.4222 50.4213 39.7332 50.3572 40.0588C50.2988 40.3814 50.2522 40.7276 50.2172 41.0795C50.1968 41.4315 50.1734 41.7924 50.1676 42.1531C50.1705 42.511 50.1559 42.8689 50.1618 43.2091C50.1676 43.5523 50.1734 43.8779 50.1763 44.1713C50.1909 44.4675 50.1968 44.7315 50.2026 44.9515C50.2493 45.8257 50.2172 46.2745 50.2259 46.4945C50.2259 46.7174 50.2259 46.7174 50.2259 46.7174L50.2172 46.9403C50.2113 47.0518 50.2055 47.219 50.1938 47.4713C50.188 47.7235 50.153 48.0609 50.1209 48.5126C50.0538 49.3838 49.9314 50.9707 49.8205 52.4139C49.7709 52.3113 49.7213 52.2086 49.6747 52.1089C49.4647 51.707 49.2897 51.2934 49.1176 50.9062C48.9338 50.5249 48.7909 50.1465 48.6539 49.8121C48.5109 49.4806 48.3884 49.1873 48.3009 48.9379C48.1114 48.4481 47.9626 48.0902 47.8809 47.8057C47.7905 47.527 47.7293 47.3422 47.6913 47.2161L47.6097 46.9697L47.5455 46.7174C47.5134 46.5913 47.4639 46.4035 47.388 46.1219C47.3034 45.8433 47.2334 45.459 47.1313 44.9545C47.073 44.7022 47.0176 44.3942 46.9564 44.051C46.8893 43.7078 46.8018 43.3294 46.7376 42.9246C46.6618 42.5227 46.5684 42.1062 46.4984 41.6779C46.408 41.2526 46.3176 40.8243 46.233 40.4107C46.1863 40.2025 46.1309 39.9972 46.0726 39.7977C46.023 39.5982 45.9705 39.4046 45.9093 39.2169C45.7897 38.8414 45.6293 38.4924 45.4776 38.1902C45.1539 37.586 44.6901 37.146 44.0688 37.0726C43.4505 36.9993 42.9197 37.3484 42.4968 37.9966C42.2751 38.3193 42.1205 38.7153 41.9864 39.1612C41.9193 39.3841 41.8551 39.6188 41.8055 39.8622C41.7647 40.1057 41.7326 40.3579 41.7034 40.619C41.6772 40.8771 41.6509 41.1441 41.6451 41.4081C41.6451 41.675 41.648 41.942 41.6597 42.2089C41.6684 42.7457 41.7384 43.2737 41.8143 43.7753C41.8784 44.2798 41.9951 44.7491 42.103 45.1686C42.2051 45.591 42.3159 45.9636 42.4297 46.2598C42.6455 46.8582 42.8001 47.3041 42.9488 47.6297C43.0889 47.9553 43.1822 48.1753 43.2434 48.319L43.3689 48.6094L43.5089 48.891C43.5788 49.0318 43.6838 49.243 43.8414 49.5598C43.9901 49.8796 44.2293 50.2873 44.5384 50.8299C44.6872 51.1057 44.8943 51.4254 45.1451 51.7745C45.3901 52.1265 45.6584 52.5137 45.988 52.8921C46.1659 53.1091 46.3526 53.3291 46.548 53.5462C46.1047 53.3174 45.7051 53.1121 45.4164 52.9654C44.7514 52.6339 44.4334 52.4403 44.273 52.3523L44.1126 52.2614L43.9522 52.1646C43.8734 52.1177 43.7538 52.0443 43.5759 51.9358C43.398 51.8331 43.1647 51.6718 42.8526 51.4723C42.5434 51.2641 42.0884 50.9913 41.5634 50.7097C41.0355 50.4369 40.4347 50.1611 39.8163 49.9881C39.198 49.815 38.5622 49.7534 37.9818 49.8942C37.7776 49.9441 37.5851 50.0291 37.3984 50.1347C37.3984 50.1289 37.3984 50.1259 37.3984 50.1201C37.3634 49.8209 37.3197 49.2225 37.1184 48.0227C37.0105 47.4243 36.8238 46.5649 36.4797 45.6321C36.1413 44.7022 35.6543 43.6961 35.0039 42.8425C34.3622 41.9889 33.5368 41.2966 32.7551 41.0238C32.3555 40.8889 31.9997 40.8478 31.6818 40.9241C31.3726 40.9945 31.1305 41.1646 30.9497 41.4169C30.7689 41.6691 30.6755 41.9595 30.6318 42.2441C30.5909 42.5198 30.5909 42.8249 30.6259 43.1123C30.658 43.4145 30.7222 43.7195 30.8097 44.0452C30.8972 44.3708 31.0051 44.7169 31.1305 45.0718C31.2501 45.4326 31.3872 45.8051 31.5243 46.1835C31.6614 46.5649 31.8014 46.9462 31.9326 47.31C32.2009 48.0579 32.443 48.7326 32.6093 49.202C32.9534 50.1553 33.0818 50.6569 33.1576 50.9033C33.2305 51.1497 33.2276 51.1497 33.2276 51.1497L33.2918 51.399C33.3559 51.6483 33.493 52.147 33.6884 53.1619C33.7818 53.6694 33.9247 54.4027 34.053 55.2241C34.1814 56.0454 34.2893 56.9547 34.3389 57.8025C34.3563 58.0841 34.3651 58.3569 34.3709 58.6209C34.1843 58.3862 33.9772 58.0987 33.7351 57.8201C33.4813 57.5414 33.2276 57.2158 32.9534 56.9019C32.6734 56.5969 32.4168 56.2449 32.1426 55.9281C31.8713 55.6054 31.6293 55.2622 31.3784 54.9601C31.1451 54.6433 30.9205 54.3441 30.7193 54.0713C30.5239 53.7985 30.3518 53.555 30.2089 53.3555C29.9114 52.9713 29.7276 52.6457 29.5701 52.4227C29.4155 52.1969 29.3222 52.0385 29.2609 51.93L29.1355 51.7188L29.0101 51.5075C28.9518 51.399 28.8468 51.2494 28.7214 51.0001C28.5959 50.7537 28.4151 50.431 28.2022 49.9881C28.1001 49.7651 27.9659 49.4953 27.8084 49.199C27.6509 48.9027 27.4934 48.5595 27.3039 48.2134C26.9393 47.5123 26.5222 46.7409 26.0759 46.031C25.8397 45.6819 25.6268 45.3358 25.3759 45.0337C25.128 44.7315 24.8743 44.4617 24.6147 44.2446C24.0897 43.8134 23.5005 43.6022 22.9026 43.7753C22.3047 43.9483 21.9343 44.4499 21.7593 45.1539C21.6659 45.5059 21.6309 45.9078 21.6455 46.3331C21.6601 46.7614 21.6951 47.2249 21.8001 47.6913C21.9022 48.1577 22.0072 48.6417 22.1764 49.1051C22.3426 49.5686 22.5001 50.0321 22.7043 50.4574C22.9055 50.8827 23.0922 51.2876 23.2934 51.6366C23.4976 51.9886 23.6843 52.2937 23.8447 52.543C24.1743 53.0358 24.4426 53.3937 24.6322 53.6665C24.8218 53.9393 24.9734 54.1094 25.0609 54.2267L25.2447 54.4614L25.4284 54.6931C25.5189 54.8105 25.6589 54.9835 25.8805 55.2358C26.108 55.4822 26.3793 55.8342 26.8051 56.2566C27.0151 56.4678 27.2689 56.7289 27.5722 57.0017C27.8843 57.2657 28.2284 57.562 28.6047 57.8465C28.9955 58.1193 29.3951 58.4185 29.8268 58.6707C30.2643 58.9201 30.6843 59.1811 31.1305 59.3718C31.5622 59.5683 31.9734 59.7502 32.3759 59.8705C32.2418 59.8675 32.1105 59.8617 31.9676 59.8587C31.7547 59.847 31.5389 59.8353 31.3143 59.8206C31.0955 59.8118 30.8739 59.803 30.6493 59.7942C30.4247 59.7766 30.2001 59.7619 29.9755 59.7444C29.5322 59.7267 29.0889 59.6769 28.6747 59.6358C28.2605 59.6094 27.8668 59.5507 27.5139 59.5097C27.1609 59.4745 26.8518 59.4393 26.5951 59.3982C26.0847 59.3307 25.7055 59.2868 25.4226 59.2222C25.1397 59.1665 24.953 59.1313 24.8276 59.1078L24.5768 59.0609L24.3289 58.9963C24.2064 58.9641 24.0197 58.9171 23.7426 58.8467C23.4626 58.7881 23.1009 58.6649 22.6197 58.5123C22.3776 58.4419 22.0859 58.3451 21.7593 58.2366C21.4326 58.131 21.0651 58.0313 20.6859 57.8963C20.3039 57.7731 19.8984 57.6617 19.4959 57.5267C19.0847 57.4094 18.6676 57.2921 18.268 57.1777C18.0639 57.1249 17.8597 57.0779 17.6555 57.0398C17.4572 56.9929 17.2618 56.9489 17.0693 56.9195C16.6814 56.855 16.2964 56.8404 15.9551 56.8433C15.2609 56.8638 14.6339 57.0926 14.2459 57.6412C13.858 58.1897 13.8872 58.8526 14.2314 59.5625C14.3976 59.9262 14.663 60.2635 14.9809 60.6097C15.1414 60.7827 15.3134 60.9558 15.5001 61.123C15.6926 61.2814 15.8939 61.4369 16.1068 61.5894C16.3197 61.7419 16.5355 61.8974 16.7659 62.0353C16.9964 62.1673 17.2326 62.2963 17.4689 62.4225C17.9414 62.6806 18.4343 62.8801 18.9097 63.059C18.9914 63.0913 19.0701 63.1147 19.1518 63.1441C19.1576 63.3025 19.1722 63.4638 19.1897 63.631C19.2247 63.9654 19.2801 64.3233 19.3501 64.6929C19.4143 65.0683 19.4901 65.4585 19.5688 65.8515C19.6476 66.2505 19.7264 66.6465 19.7993 67.0249C19.9509 67.8051 20.0851 68.5091 20.1784 68.999C20.3739 69.9963 20.4234 70.5097 20.4614 70.7649C20.4964 71.0201 20.4905 71.0201 20.4905 71.0201L20.5168 71.2753C20.543 71.5305 20.6014 72.0438 20.6393 73.0793C20.6539 73.5955 20.683 74.3435 20.6859 75.1737C20.6859 76.0038 20.6568 76.919 20.5751 77.7638C20.5489 78.0249 20.5197 78.2772 20.4876 78.5236C20.4789 78.5294 20.4701 78.5353 20.4614 78.5412C20.3184 78.2859 20.1639 77.9867 19.9743 77.6875C19.7672 77.3737 19.5659 77.0129 19.3414 76.6609C19.1109 76.3177 18.9126 75.9275 18.688 75.5726C18.4693 75.2118 18.2826 74.8334 18.0814 74.4961C17.8976 74.147 17.7226 73.8156 17.5651 73.5163C17.4134 73.2171 17.2793 72.9502 17.1684 72.7302C16.9322 72.3049 16.8039 71.9529 16.6814 71.7094C16.5618 71.463 16.4947 71.2899 16.4509 71.1756L16.3605 70.9467L16.2701 70.7179C16.2293 70.6006 16.1476 70.4393 16.063 70.1723C15.9784 69.9083 15.8472 69.5651 15.7043 69.0929C15.6372 68.8553 15.5468 68.5678 15.4359 68.251C15.3251 67.9342 15.223 67.5705 15.0889 67.2009C14.8351 66.4529 14.5434 65.6257 14.208 64.8542C14.0301 64.4729 13.8697 64.0974 13.6684 63.7601C13.4672 63.4227 13.2601 63.1177 13.0355 62.8625C12.5834 62.355 12.0322 62.0558 11.4139 62.135C10.7955 62.2142 10.3551 62.6513 10.0722 63.3201C9.92635 63.6545 9.8301 64.0446 9.78052 64.4699C9.73094 64.8953 9.69302 65.3587 9.7251 65.8339C9.75427 66.3092 9.78635 66.8049 9.87969 67.2889C9.97302 67.7729 10.0576 68.2569 10.1947 68.7057C10.3289 69.1574 10.4514 69.5857 10.5972 69.9641C10.743 70.3425 10.883 70.6739 11.0026 70.9467C11.2534 71.4865 11.4634 71.8795 11.6093 72.1787C11.7551 72.478 11.8776 72.6686 11.9476 72.8006L12.0934 73.0587L12.2393 73.3169C12.3093 73.4459 12.4201 73.6395 12.6039 73.9212C12.7905 74.1998 13.0064 74.59 13.3622 75.071C13.5372 75.3115 13.7472 75.6078 14.0068 75.9246C14.2751 76.2355 14.5697 76.5788 14.8993 76.919C15.2434 77.2505 15.5905 77.6054 15.9814 77.9222C16.3751 78.2361 16.7514 78.5587 17.1626 78.8169C17.5593 79.0779 17.9355 79.3214 18.3176 79.5033C18.1864 79.4798 18.0551 79.4534 17.918 79.4299C17.7109 79.3859 17.498 79.339 17.2793 79.2921C17.0634 79.251 16.8447 79.207 16.6259 79.163C16.4072 79.1132 16.1884 79.0603 15.9697 79.0105C15.5322 78.9254 15.1064 78.8051 14.7009 78.7025C14.2955 78.6115 13.9164 78.4942 13.5751 78.3974C13.2339 78.3065 12.9305 78.2243 12.6855 78.1451C12.1926 77.9985 11.8222 77.8988 11.5539 77.7902C11.2826 77.6934 11.1018 77.6289 10.9822 77.5849L10.743 77.4998L10.5068 77.4001C10.3901 77.3502 10.2151 77.2739 9.94969 77.1625C9.68427 77.0598 9.34302 76.8838 8.89093 76.6579C8.66052 76.5523 8.38927 76.4116 8.08302 76.2502C7.77385 76.0947 7.42677 75.9393 7.07385 75.7486C6.7151 75.5697 6.3301 75.3966 5.95385 75.2001C5.56302 75.0211 5.17219 74.8393 4.79594 74.6662C4.60344 74.5811 4.40802 74.5049 4.2126 74.4374C4.02302 74.3611 3.83927 74.2878 3.64969 74.2262C3.27635 74.103 2.89719 74.0297 2.55885 73.9769C1.87052 73.8918 1.21427 74.0209 0.747603 74.5019C0.280936 74.983 0.208019 75.643 0.441353 76.3998C0.552186 76.7841 0.762186 77.1595 1.02469 77.5497C1.15594 77.7433 1.29885 77.9427 1.45927 78.1363C1.62552 78.3211 1.80052 78.5089 1.98719 78.6907C2.17385 78.8726 2.36635 79.0603 2.57052 79.2334C2.7776 79.4006 2.99052 79.5649 3.20635 79.7233C3.63219 80.0518 4.0901 80.3246 4.53344 80.5739C4.97094 80.835 5.41135 81.0345 5.81094 81.2076C6.2076 81.3865 6.56927 81.5273 6.8726 81.6211C7.47635 81.8177 7.92552 81.9673 8.27552 82.0494C8.61969 82.1404 8.8501 82.199 9.00177 82.2401L9.30802 82.3193L9.61719 82.3809C9.77177 82.4131 10.0022 82.4571 10.3493 82.5275C10.6934 82.6068 11.163 82.6683 11.7843 82.7534C12.0934 82.8033 12.4755 82.8355 12.9043 82.8502C13.333 82.8708 13.8055 82.8913 14.3072 82.859C14.8059 82.8414 15.3251 82.815 15.8472 82.7329C16.1068 82.6947 16.3664 82.6596 16.623 82.6214C16.8797 82.5745 17.1305 82.5129 17.3784 82.4572C17.6234 82.3956 17.8626 82.3369 18.0959 82.2782C18.3264 82.2078 18.548 82.1286 18.758 82.0524C19.178 81.8969 19.5484 81.7473 19.8518 81.5595C20.0909 81.4187 20.2864 81.2779 20.4351 81.1401C20.6393 81.1459 20.9543 80.9758 21.313 80.6443C21.3772 80.6443 21.4443 80.6443 21.5114 80.6443C21.9401 80.6473 22.3951 80.5886 22.8734 80.5241C23.3547 80.4683 23.8359 80.3393 24.323 80.2249C24.8101 80.1046 25.2739 79.9345 25.7289 79.7849C26.1722 79.6177 26.5834 79.4358 26.9597 79.2715C27.3272 79.0985 27.6451 78.9225 27.9047 78.7787C28.4326 78.4971 28.7913 78.239 29.0801 78.0659C29.3659 77.89 29.5497 77.7638 29.6693 77.6758L29.9114 77.5057L30.1534 77.3355C30.273 77.2475 30.4655 77.1273 30.7222 76.9219C30.9818 76.7137 31.3405 76.4497 31.7955 76.0713C32.0201 75.8777 32.2884 75.6371 32.5801 75.3614C32.8718 75.0827 33.1693 74.7513 33.4813 74.3993C34.0938 73.6894 34.6918 72.8534 35.1322 72.0086C35.3655 71.5921 35.5289 71.158 35.6659 70.7532C35.803 70.3484 35.8818 69.9523 35.8934 69.5886C35.9255 68.8641 35.7126 68.2774 35.1876 67.9401C34.6626 67.6027 34.0384 67.635 33.4143 67.899C33.1051 68.0339 32.7843 68.2187 32.4605 68.4358C32.1368 68.6529 31.8305 68.9227 31.5068 69.1897C31.183 69.4566 30.8884 69.7675 30.5793 70.055C30.2701 70.3425 29.993 70.6563 29.7101 70.9291C29.4301 71.2049 29.1822 71.4894 28.9459 71.727C28.7097 71.9675 28.5084 72.1875 28.3451 72.3723C28.0126 72.7331 27.7501 72.9883 27.5605 73.1908C27.3709 73.3932 27.228 73.5046 27.1405 73.5926L26.9626 73.7598L26.7847 73.927C26.6972 74.0121 26.5601 74.1382 26.3472 74.3083C26.1314 74.4755 25.8659 74.7366 25.4693 75.0182C25.2768 75.1678 25.0405 75.3526 24.7751 75.5579C24.5068 75.7603 24.2064 75.9833 23.8914 76.2209C23.8534 76.2473 23.8155 76.2766 23.7776 76.303C23.8476 76.0918 23.9176 75.8806 23.9759 75.6753C24.2472 74.7542 24.4163 73.9065 24.5068 73.3169C24.6759 72.1318 24.7139 71.5334 24.7372 71.2342L24.7605 70.935L24.778 70.6358C24.7897 70.3337 24.8393 69.7353 24.8188 68.5209C24.8043 67.9108 24.7489 67.0337 24.5534 66.0598C24.4222 65.4057 24.2239 64.7075 23.9584 64.0329C24.0022 64.0329 24.078 64.0387 24.2122 64.0446C24.3697 64.0505 24.6059 64.0622 24.9589 64.0769C25.3118 64.1003 25.7843 64.0915 26.4114 64.0769C26.7234 64.0769 27.1055 64.0505 27.5343 64.0006C27.9601 63.9537 28.4326 63.9009 28.9226 63.7953C29.4126 63.6985 29.923 63.5929 30.4247 63.4345C30.6755 63.3582 30.9263 63.2819 31.1743 63.2057C31.4193 63.1206 31.6614 63.0209 31.8947 62.927C32.128 62.8273 32.3555 62.7334 32.5772 62.6395C32.793 62.5339 33.0001 62.4225 33.1955 62.3139C33.5863 62.0939 33.9305 61.8915 34.1989 61.6569C34.4147 61.4809 34.5868 61.3107 34.7122 61.1523C34.928 61.123 35.2343 60.8854 35.5609 60.4542C35.7651 60.1814 35.978 59.8382 36.1734 59.4422C36.3718 59.0462 36.5497 58.6033 36.7101 58.1339C37.028 57.1923 37.2526 56.1539 37.378 55.2006C37.413 54.9395 37.4393 54.6843 37.4626 54.4409C37.9759 54.8779 38.5855 55.2475 39.1834 55.5291C39.7989 55.8254 40.3968 56.0249 40.8197 56.1422C41.2484 56.2537 41.5605 56.3417 41.8055 56.3945C42.0476 56.4502 42.208 56.4854 42.3159 56.5118L42.5289 56.5617L42.7447 56.6057C42.9634 56.6438 43.3922 56.7435 44.2643 56.8667C44.4801 56.9049 44.7484 56.9225 45.0489 56.9459C45.3493 56.9723 45.6818 56.9811 46.0318 56.9782C46.3818 56.9841 46.7463 56.9665 47.1138 56.943C47.4784 56.9254 47.843 56.8814 48.193 56.8374C48.3388 56.8198 48.4789 56.7993 48.6189 56.7758C48.5634 57.1982 48.5605 57.647 48.5839 58.1134C48.5897 58.6649 48.6947 59.2281 48.8026 59.7883C48.8522 60.0699 48.9222 60.3457 49.0068 60.6156C49.0884 60.8854 49.173 61.1523 49.2576 61.4105C49.4326 61.9267 49.6659 62.3931 49.8584 62.8185C50.0568 63.2438 50.293 63.5929 50.4651 63.8862C50.8122 64.4758 51.1505 64.8689 51.3693 65.1827C51.5938 65.4937 51.7543 65.6931 51.8709 65.8163L52.0955 66.0715L52.3201 66.3267C52.4368 66.4499 52.5884 66.6553 52.8655 66.9164C53.1426 67.1745 53.4897 67.547 53.9972 67.9811C54.2568 68.1924 54.5776 68.4475 54.9393 68.7203C55.3097 68.9843 55.7443 69.2425 56.1905 69.5153C56.6397 69.7851 57.1472 70.0051 57.6372 70.2427C58.1272 70.4745 58.6522 70.6358 59.1363 70.8118C58.9234 70.8118 58.7076 70.803 58.4976 70.8118C58.0805 70.803 57.6605 70.7619 57.2697 70.7443C56.8759 70.7033 56.4997 70.6651 56.1614 70.6329C55.8259 70.6094 55.5226 70.5419 55.2805 70.5185C54.7905 70.4627 54.4259 70.3982 54.1488 70.3454C53.8747 70.2955 53.6938 70.2633 53.5714 70.2398C53.3293 70.1958 53.3293 70.1899 53.3293 70.1899L53.0872 70.1313C52.9676 70.1019 52.7868 70.0579 52.5155 69.9934C52.2443 69.9347 51.8884 69.8262 51.4159 69.6883C51.1797 69.6209 50.8909 69.5446 50.573 69.4419C50.2551 69.3422 49.8934 69.2601 49.5289 69.1427C49.1643 69.0254 48.7676 68.9374 48.3826 68.823C48.0005 68.7086 47.5951 68.6323 47.2218 68.5414C46.8484 68.4534 46.4576 68.4153 46.1164 68.3771C45.7693 68.3419 45.4134 68.3683 45.1043 68.4182C44.4859 68.5209 43.8968 68.8465 43.5351 69.4654C43.1734 70.0844 43.2289 70.7532 43.6343 71.3985C43.8355 71.7241 44.1213 71.9998 44.4655 72.2814C44.8068 72.5747 45.2093 72.783 45.638 73.0089C46.0668 73.2406 46.5305 73.3843 46.9943 73.5515C47.458 73.7129 47.9305 73.8097 48.3797 73.9153C48.8288 74.0209 49.2634 74.0649 49.6513 74.1235C50.0393 74.1793 50.3893 74.2057 50.678 74.2174C51.2526 74.2467 51.6784 74.2702 52.0022 74.2644C52.323 74.2644 52.5388 74.2644 52.6818 74.2644H52.9676C52.9676 74.2644 52.9676 74.2702 53.2534 74.2555C53.3964 74.2497 53.6093 74.2409 53.9301 74.2291C54.2509 74.2203 54.6768 74.1998 55.2455 74.1382C55.8114 74.0971 56.6309 73.9651 57.5234 73.7745C57.9697 73.6542 58.4334 73.5457 58.8972 73.399C59.358 73.2318 59.8159 73.091 60.2476 72.8915C60.3234 72.8593 60.3964 72.8211 60.4693 72.7859C60.4693 72.959 60.4751 73.1379 60.4897 73.3257C60.5101 73.5603 60.5364 73.8067 60.5772 74.0561C60.6268 74.3025 60.688 74.5547 60.7551 74.807C60.8251 75.0622 60.8951 75.3204 60.9855 75.5755C61.0788 75.8278 61.1809 76.0801 61.283 76.3324C61.4813 76.8398 61.7351 77.315 61.983 77.7667C62.1347 78.0601 62.3009 78.3241 62.4672 78.5793C62.4584 78.6292 62.4497 78.6761 62.4409 78.726C62.403 79.0692 62.3768 79.4563 62.4001 79.8494C62.4089 80.0459 62.4322 80.2454 62.4584 80.4507C62.4759 80.659 62.4993 80.8673 62.5313 81.0755C62.6013 81.4862 62.6743 81.9145 62.7472 82.3398C62.8376 82.7563 62.9076 83.1729 62.9893 83.5689C63.0826 83.959 63.1409 84.3374 63.2109 84.6777C63.2868 85.015 63.3509 85.3171 63.3947 85.5665C63.4939 86.0651 63.5784 86.4406 63.6076 86.7251C63.6484 87.0097 63.6747 87.2003 63.6922 87.3265L63.7301 87.5817L63.7505 87.8369C63.7622 87.966 63.7768 88.1566 63.8001 88.4441C63.8351 88.7345 63.838 89.1188 63.8497 89.635C63.8643 89.8932 63.8643 90.2099 63.8643 90.5649C63.8672 90.9198 63.8847 91.3187 63.8672 91.7382C63.8614 92.1577 63.8672 92.6035 63.8351 93.0494C63.8264 93.2753 63.8205 93.5041 63.8118 93.727C63.7972 93.9529 63.7826 94.1758 63.7651 94.3958C63.7534 94.6187 63.7447 94.8387 63.733 95.0529C63.7213 95.1937 63.7126 95.3286 63.7009 95.4606C63.6251 95.0441 63.488 94.6158 63.3393 94.1641C63.1964 93.6977 62.9834 93.2489 62.7822 92.7854C62.578 92.3278 62.3243 91.8996 62.0938 91.4771C61.8489 91.0694 61.5951 90.6939 61.3676 90.3537C61.1313 90.0222 60.9009 89.7406 60.7113 89.5089C60.3409 89.0395 60.0201 88.7315 59.7984 88.4763C59.5739 88.227 59.4164 88.0686 59.3114 87.966L59.1014 87.7577L58.8884 87.5494C58.7805 87.4497 58.6288 87.2795 58.378 87.0625C58.1272 86.8425 57.8034 86.5374 57.3484 86.1561C57.118 85.9713 56.8351 85.7483 56.5084 85.5107C56.1818 85.2731 55.8026 85.0414 55.403 84.795C54.598 84.3198 53.6705 83.8798 52.7634 83.6012C52.3143 83.4486 51.8593 83.3635 51.4364 83.3049C51.0134 83.2433 50.6168 83.2403 50.258 83.2931C49.5434 83.3958 49.0097 83.7097 48.7734 84.2934C48.5401 84.8742 48.6859 85.4843 49.0593 86.0564C49.2459 86.3379 49.488 86.6196 49.7593 86.9011C50.0305 87.1827 50.3513 87.435 50.6722 87.7049C50.993 87.9747 51.3518 88.2094 51.6872 88.4646C52.0226 88.7169 52.3814 88.9339 52.7022 89.1627C53.023 89.3886 53.3468 89.5822 53.6239 89.77C53.9009 89.9577 54.1518 90.119 54.3647 90.2481C54.7789 90.5091 55.0764 90.7233 55.3097 90.8758C55.543 91.0254 55.6801 91.1457 55.7793 91.2161L55.9747 91.3627L56.1701 91.5094C56.2693 91.5798 56.4151 91.6913 56.6251 91.8702C56.8293 92.0521 57.1326 92.2691 57.4797 92.6065C57.6605 92.7707 57.8851 92.9702 58.133 93.1931C58.3809 93.4219 58.6522 93.6771 58.9409 93.9441C59.2122 94.2257 59.5301 94.5043 59.8188 94.8094C60.1018 95.1174 60.4255 95.4108 60.6968 95.7217C60.9768 96.0297 61.2713 96.3171 61.5222 96.5987C61.7701 96.8716 62.0326 97.1091 62.2455 97.3203C61.9859 97.2851 61.7176 97.2499 61.4405 97.203C60.6063 97.0651 59.7197 96.8627 58.9234 96.6457C58.1243 96.4315 57.4155 96.2086 56.9226 96.0649C55.9368 95.7627 55.4614 95.575 55.2193 95.4841L54.9801 95.3931C54.9801 95.3931 54.9801 95.3961 54.7439 95.2993C54.5105 95.1995 54.0263 95.0177 53.1193 94.5718C52.673 94.3547 52.0313 94.0409 51.3197 93.6947C50.6226 93.3515 49.8759 92.979 49.1934 92.6593C48.508 92.3366 47.8926 92.0785 47.3122 91.9494C46.7405 91.8291 46.1601 91.791 45.603 92.0931C45.3318 92.2486 45.1393 92.4715 45.0372 92.7737C44.9293 93.0817 44.9322 93.4454 45.0226 93.859C45.1189 94.2579 45.3114 94.6921 45.5826 95.1086C45.8539 95.5251 46.198 95.9241 46.5859 96.2995C46.9739 96.6633 47.4026 97.0006 47.8459 97.2969C48.2893 97.5902 48.7443 97.8484 49.1876 98.0684C49.6309 98.2854 50.0597 98.4673 50.4476 98.6139C50.8384 98.7606 51.1913 98.875 51.483 98.9572C51.8651 99.0657 52.1801 99.1478 52.4484 99.2153C52.4689 99.3414 52.4864 99.4646 52.5184 99.5937C52.5622 99.7873 52.6205 99.978 52.6818 100.174C52.7343 100.377 52.7955 100.576 52.8626 100.776C53.0055 101.169 53.1543 101.577 53.3001 101.981C53.4634 102.374 53.6063 102.773 53.7551 103.146C53.9155 103.516 54.0438 103.876 54.1722 104.196C54.3064 104.516 54.423 104.8 54.5105 105.038C54.6972 105.51 54.8459 105.865 54.9247 106.141C55.0151 106.414 55.0764 106.596 55.1172 106.719L55.1988 106.962L55.2659 107.209C55.298 107.332 55.3476 107.52 55.4234 107.798C55.508 108.077 55.5809 108.455 55.6859 108.96C55.7443 109.212 55.8026 109.523 55.8668 109.872C55.9338 110.221 56.0214 110.611 56.0797 111.025C56.1497 111.438 56.2343 111.878 56.2839 112.321C56.3159 112.544 56.3509 112.77 56.383 112.993C56.4093 113.219 56.4326 113.442 56.4589 113.659C56.488 113.882 56.5172 114.099 56.5434 114.31C56.558 114.451 56.5726 114.583 56.5843 114.718C56.4355 114.322 56.2226 113.923 55.998 113.506C55.7764 113.072 55.4847 112.668 55.2047 112.251C54.9218 111.837 54.5951 111.459 54.2947 111.086C53.9826 110.729 53.6647 110.406 53.3788 110.113C53.0872 109.828 52.8101 109.593 52.5826 109.4C52.1334 109.004 51.763 108.76 51.5005 108.549C51.2351 108.344 51.0543 108.218 50.9289 108.136L50.6839 107.968L50.4388 107.801C50.3134 107.722 50.1355 107.584 49.8497 107.414C49.5639 107.244 49.1905 107 48.6772 106.707C48.4176 106.566 48.0997 106.399 47.738 106.223C47.3764 106.047 46.9593 105.889 46.5247 105.718C45.6468 105.396 44.658 105.132 43.7159 105.017C43.2464 104.947 42.7855 104.947 42.3597 104.965C41.9338 104.982 41.5401 105.047 41.1988 105.167C40.5134 105.396 40.0438 105.804 39.9184 106.417C39.7901 107.03 40.0468 107.605 40.5134 108.1C40.7497 108.344 41.0355 108.578 41.3505 108.807C41.6684 109.036 42.0272 109.224 42.3918 109.435C42.7563 109.643 43.1501 109.808 43.5234 109.998C43.8997 110.186 44.2905 110.333 44.6464 110.503C45.0022 110.667 45.3551 110.799 45.6614 110.937C45.9676 111.072 46.2447 111.186 46.4751 111.271C46.9301 111.453 47.2597 111.612 47.5163 111.717C47.773 111.823 47.9276 111.917 48.0384 111.966L48.2572 112.075L48.4759 112.184C48.5868 112.236 48.7501 112.318 48.9864 112.456C49.2197 112.597 49.5551 112.756 49.9605 113.025C50.1705 113.154 50.4243 113.31 50.7072 113.483C50.9901 113.665 51.3051 113.864 51.6347 114.078C51.9526 114.307 52.3143 114.524 52.6526 114.771C52.988 115.023 53.3555 115.252 53.6793 115.513C54.0088 115.765 54.3501 115.994 54.6476 116.229C54.9393 116.452 55.2397 116.639 55.4876 116.809C55.2251 116.824 54.9568 116.833 54.6739 116.839C53.8309 116.853 52.9209 116.812 52.0984 116.745C51.273 116.677 50.538 116.586 50.0247 116.534C49.0009 116.413 48.4993 116.314 48.2455 116.267L47.9947 116.22C47.9947 116.22 47.9947 116.223 47.7439 116.17C47.4959 116.114 46.9884 116.023 46.0172 115.748C45.5389 115.613 44.8534 115.422 44.0922 115.208C43.3426 114.997 42.5434 114.765 41.8172 114.571C41.0851 114.378 40.4347 114.234 39.8397 114.213C39.2563 114.199 38.6759 114.263 38.183 114.662C37.9439 114.862 37.7951 115.117 37.7484 115.434C37.6988 115.756 37.7659 116.114 37.9293 116.504C38.0955 116.88 38.3638 117.273 38.7022 117.634C39.0434 117.994 39.4518 118.326 39.9009 118.625C40.3472 118.916 40.8314 119.168 41.3184 119.382C41.8055 119.59 42.3013 119.763 42.7768 119.898C43.2493 120.033 43.7043 120.136 44.1155 120.209C44.5268 120.282 44.8913 120.332 45.1947 120.362C46.3993 120.476 46.9943 120.476 47.2947 120.488L47.5922 120.494H47.8897C48.1872 120.494 48.7851 120.505 49.9722 120.429C50.5672 120.385 51.4188 120.285 52.3522 120.086C53.2855 119.886 54.3005 119.587 55.2105 119.197C55.6655 119.001 56.0914 118.789 56.4676 118.561C56.8293 118.346 57.1413 118.115 57.3922 117.901C57.4534 117.895 57.5147 117.889 57.5788 117.88C57.9318 117.842 58.3168 117.73 58.7426 117.593C58.9555 117.522 59.1772 117.449 59.4018 117.364C59.6205 117.267 59.848 117.164 60.0784 117.062C60.3059 116.953 60.5451 116.848 60.7755 116.724C61.0001 116.595 61.2276 116.463 61.4551 116.331C61.6388 116.229 61.8168 116.114 61.9888 116C61.983 116.035 61.9772 116.07 61.9743 116.102C61.9509 116.369 61.9334 116.639 61.9218 116.906C61.8868 117.446 61.9159 117.98 61.9538 118.49C61.9801 119.001 62.0618 119.479 62.1376 119.91C62.2076 120.341 62.2922 120.722 62.3855 121.028C62.5576 121.644 62.683 122.101 62.8084 122.438C62.9251 122.776 63.0038 123.002 63.0534 123.151L63.1584 123.45L63.278 123.744C63.3393 123.89 63.4268 124.11 63.5638 124.439C63.6893 124.77 63.8993 125.199 64.1734 125.765C64.3047 126.052 64.4884 126.387 64.7159 126.756C64.9376 127.126 65.1826 127.534 65.4859 127.936C65.6784 128.202 65.8826 128.472 66.0984 128.739C65.5122 128.39 64.9872 128.076 64.608 127.85C63.7476 127.361 63.3363 127.088 63.1263 126.962L62.9164 126.833L62.7093 126.698C62.5051 126.56 62.0851 126.305 61.2801 125.741C61.0759 125.606 60.8309 125.442 60.5509 125.254C60.2709 125.076 59.9559 124.885 59.6263 124.682C58.9613 124.289 58.2147 123.888 57.4709 123.58C57.0976 123.43 56.7213 123.307 56.3597 123.219C55.9951 123.134 55.6305 123.096 55.2951 123.101C54.6184 123.122 53.9972 123.377 53.5714 123.952C53.1455 124.527 53.0989 125.199 53.3322 125.876C53.4459 126.22 53.6384 126.554 53.8776 126.885C54.1168 127.22 54.4113 127.54 54.7409 127.839C55.3943 128.449 56.1876 128.98 56.9401 129.402C57.3134 129.619 57.6838 129.798 58.0222 129.954C58.3576 130.112 58.6638 130.241 58.9176 130.335C59.9326 130.725 60.4488 130.886 60.7026 130.98L60.9593 131.068L61.2159 131.15C61.4755 131.23 61.9859 131.409 63.0214 131.702C63.5376 131.854 64.2959 132.03 65.1418 132.18C65.9876 132.333 66.9268 132.456 67.8018 132.517C68.6739 132.588 69.4876 132.594 70.0855 132.547C70.3684 132.52 70.6018 132.482 70.7768 132.429C71.1472 132.429 71.538 132.412 71.9405 132.371C72.9234 132.265 73.9559 132.03 74.8659 131.746C75.7788 131.461 76.5722 131.133 77.1118 130.881C78.1851 130.364 78.7014 130.062 78.9639 129.918L79.2234 129.772L79.4801 129.619C79.7368 129.461 80.2559 129.17 81.2534 128.481C81.7493 128.129 82.4464 127.598 83.1405 126.894C83.8376 126.193 84.5376 125.325 85.0334 124.374C85.5322 123.43 85.8093 122.386 85.7276 121.558C85.6809 121.136 85.5672 120.796 85.3659 120.538C85.1705 120.285 84.9168 120.136 84.6134 120.077C84.3072 120.018 84.0097 120.057 83.7355 120.136C83.4701 120.215 83.1959 120.341 82.9509 120.497C82.6914 120.652 82.4434 120.84 82.1868 121.057C81.9301 121.274 81.6647 121.517 81.3964 121.781C81.1193 122.042 80.8422 122.324 80.5593 122.606C80.2734 122.893 79.9876 123.178 79.7164 123.45C79.1534 124.011 78.6489 124.512 78.2959 124.864C77.5814 125.58 77.1818 125.909 76.9922 126.079C76.7997 126.249 76.7968 126.246 76.7968 126.246L76.5984 126.41C76.4001 126.574 76.0093 126.909 75.1751 127.513C74.7551 127.812 74.1543 128.252 73.4688 128.713C73.0401 129.003 72.5763 129.297 72.1097 129.575C72.1622 129.446 72.2176 129.317 72.2672 129.182C72.3868 128.824 72.5472 128.443 72.6872 128.053C72.8155 127.66 72.9993 127.264 73.1451 126.868C73.2938 126.475 73.4776 126.093 73.6205 125.727C73.7839 125.369 73.9355 125.026 74.0755 124.718C74.2184 124.416 74.3468 124.143 74.4518 123.923C74.6413 123.474 74.8397 123.157 74.9563 122.911C75.0788 122.664 75.1722 122.506 75.2364 122.4L75.3618 122.189L75.4872 121.978C75.5543 121.875 75.633 121.711 75.7876 121.479C75.9422 121.25 76.1347 120.937 76.4176 120.535C76.5634 120.335 76.7326 120.089 76.9164 119.807C77.1001 119.526 77.3218 119.221 77.5318 118.886C77.9664 118.226 78.4359 117.487 78.8384 116.751C79.028 116.375 79.2263 116.017 79.3693 115.654C79.5122 115.29 79.623 114.935 79.6872 114.601C79.8097 113.929 79.7105 113.31 79.2701 112.867C78.8297 112.424 78.2143 112.342 77.5172 112.524C77.1672 112.612 76.7997 112.773 76.4351 112.993C76.0705 113.213 75.6826 113.468 75.3268 113.785C74.9709 114.099 74.6005 114.428 74.2768 114.797C73.953 115.167 73.6234 115.53 73.3551 115.915C73.0809 116.296 72.8214 116.657 72.6114 117.003C72.4043 117.352 72.2263 117.666 72.0863 117.927C71.8151 118.455 71.6343 118.863 71.4884 119.162C71.3426 119.461 71.2668 119.675 71.2055 119.81L71.0918 120.086L70.978 120.362C70.9197 120.497 70.8351 120.705 70.7243 121.022C70.6193 121.341 70.4443 121.752 70.2809 122.327C70.1993 122.614 70.0943 122.964 70.0038 123.362C69.9251 123.764 69.8347 124.21 69.7676 124.682C69.718 125.161 69.6509 125.653 69.6393 126.155C69.6334 126.53 69.6189 126.903 69.6334 127.27C69.6247 127.243 69.613 127.217 69.6043 127.188C69.4322 126.774 69.2922 126.352 69.1522 125.956C69.0005 125.565 68.8897 125.181 68.7788 124.844C68.6622 124.506 68.563 124.21 68.493 123.958C68.3384 123.465 68.2188 123.098 68.1576 122.814C68.0876 122.532 68.0409 122.348 68.0089 122.221L67.9476 121.972L67.9009 121.72C67.8776 121.594 67.8426 121.406 67.7872 121.121C67.723 120.843 67.6822 120.458 67.6151 119.954C67.5743 119.702 67.5393 119.397 67.5014 119.053C67.4576 118.71 67.3934 118.332 67.3555 117.933C67.3059 117.534 67.2359 117.114 67.1893 116.692C67.1222 116.267 67.0522 115.838 66.988 115.425C66.9501 115.217 66.9063 115.011 66.8539 114.809C66.813 114.609 66.7693 114.413 66.7139 114.222C66.6088 113.841 66.4601 113.483 66.3143 113.172C66.1918 112.926 66.043 112.706 65.8709 112.518C65.9905 112.38 66.0809 112.272 66.1509 112.192L66.358 111.952L66.5505 111.7C66.6468 111.573 66.7926 111.386 67.0084 111.101C67.233 110.822 67.4955 110.426 67.8543 109.896C68.038 109.634 68.2364 109.3 68.4405 108.913C68.6476 108.529 68.8751 108.1 69.0589 107.625C69.2543 107.156 69.4497 106.657 69.5868 106.132C69.6597 105.874 69.7268 105.613 69.7909 105.352C69.8464 105.091 69.8843 104.824 69.9193 104.566C69.9543 104.305 69.9805 104.049 69.9951 103.803C70.0038 103.551 69.9951 103.304 69.9805 103.07C69.9484 102.6 69.8843 102.172 69.7355 101.802C69.4584 101.06 68.9976 100.588 68.3355 100.494C67.6734 100.403 67.0784 100.705 66.5884 101.198C66.3522 101.448 66.0984 101.741 65.8797 102.066C65.7688 102.231 65.6668 102.401 65.5647 102.58C65.4538 102.756 65.3459 102.935 65.2439 103.122C65.0514 103.492 64.853 103.876 64.6547 104.261C64.4768 104.648 64.2813 105.023 64.1063 105.387C63.943 105.754 63.7651 106.094 63.6163 106.405C63.4734 106.719 63.3422 107 63.2255 107.226C63.0068 107.684 62.8464 108.033 62.6976 108.279C62.5576 108.532 62.4643 108.699 62.403 108.81L62.2805 109.036L62.1434 109.253C62.0763 109.362 61.9714 109.523 61.8168 109.769C61.6709 110.022 61.4405 110.33 61.1401 110.749C60.9943 110.963 60.8076 111.216 60.5918 111.497C60.4255 111.723 60.2447 111.972 60.0493 112.228C60.1368 111.799 60.198 111.371 60.2447 110.957C60.3147 110.459 60.3322 109.984 60.3468 109.549C60.3672 109.118 60.3643 108.731 60.3409 108.42C60.3059 107.789 60.2797 107.314 60.2301 106.965C60.1893 106.61 60.1601 106.376 60.1426 106.217L60.1047 105.903L60.0493 105.592C60.023 105.437 59.9822 105.202 59.918 104.85C59.8655 104.495 59.7518 104.032 59.6059 103.41C59.5388 103.096 59.428 102.724 59.2822 102.313C59.1393 101.899 58.9789 101.442 58.7543 100.984C58.6026 100.653 58.4305 100.315 58.2439 99.9809C58.3576 99.9809 58.4713 99.978 58.588 99.975C59.5418 99.9486 60.5947 99.8342 61.5572 99.6142C62.0384 99.5027 62.4963 99.3707 62.9076 99.2153C63.3188 99.0627 63.6805 98.8838 63.9722 98.7107C64.4301 98.4291 64.7013 98.1475 64.7509 97.9334C64.923 97.8249 65.1068 97.6723 65.3051 97.4758C65.5647 97.2323 65.8009 96.9067 66.0605 96.5401C66.1889 96.3553 66.3201 96.1617 66.4484 95.9563C66.5651 95.7451 66.6847 95.5281 66.8043 95.3051C66.9209 95.0793 67.0463 94.8505 67.1543 94.6129C67.2563 94.3723 67.3584 94.1289 67.4605 93.8884C67.6705 93.4014 67.828 92.9027 67.9768 92.4246C68.1343 91.9465 68.2364 91.4801 68.3268 91.0577C68.423 90.6353 68.4901 90.2569 68.5222 89.943C68.598 89.3182 68.6593 88.8459 68.6709 88.491C68.6943 88.1361 68.7089 87.8985 68.7176 87.7401L68.738 87.4233V87.1065C68.7409 86.9481 68.7439 86.7105 68.7439 86.3526C68.7555 86.0182 68.7293 85.5782 68.7001 85.0033C68.7847 85.062 68.8634 85.1206 68.9509 85.1763C69.368 85.455 69.8055 85.7454 70.2693 85.9977C70.4968 86.1267 70.7272 86.2558 70.9547 86.3849C71.1851 86.5081 71.4213 86.6166 71.6488 86.7281C71.8764 86.8366 72.1009 86.9422 72.3168 87.0449C72.5384 87.1387 72.7543 87.2238 72.9613 87.303C73.3755 87.4614 73.7459 87.6081 74.0814 87.6873C74.5364 87.8075 74.8776 87.8721 75.073 87.8486C75.3559 87.9454 75.6359 88.0393 75.9101 88.1243C76.3884 88.2827 76.8522 88.3942 77.2693 88.4939C77.6893 88.5995 78.0655 88.6758 78.3776 88.7198C79.0018 88.8195 79.4714 88.8958 79.8243 88.9251C80.1801 88.9633 80.4164 88.9867 80.5739 89.0043L80.8918 89.0366L81.2097 89.0542C81.3672 89.063 81.6064 89.0747 81.9651 89.0953C82.3239 89.1217 82.8022 89.1188 83.4439 89.1188C83.7647 89.1246 84.1555 89.1041 84.5901 89.063C85.0276 89.0249 85.5118 88.9779 86.0134 88.8782C86.518 88.7873 87.0459 88.6817 87.5622 88.5174C87.8218 88.4411 88.0784 88.359 88.3351 88.2739C88.5889 88.183 88.8339 88.0745 89.073 87.9689C89.3122 87.8603 89.5455 87.7489 89.7643 87.6345C89.983 87.5113 90.1901 87.3763 90.3826 87.2443C90.7676 86.9745 91.103 86.7017 91.3451 86.3907C91.838 85.7835 92.0101 85.1646 91.7447 84.5955C91.4793 84.0265 90.9047 83.7331 90.2105 83.6422C89.8664 83.6041 89.4726 83.5835 89.0672 83.6099C88.863 83.6217 88.6559 83.6451 88.443 83.6745C88.2272 83.695 88.0084 83.7214 87.7897 83.7566C87.5709 83.7889 87.3493 83.8358 87.1276 83.8769C86.903 83.9121 86.6784 83.9502 86.4568 83.9972C86.0134 84.0881 85.5701 84.1761 85.1501 84.2611C84.7301 84.3609 84.3276 84.4283 83.9659 84.5046C83.6043 84.5838 83.2805 84.6542 83.0122 84.7011C82.4784 84.8067 82.073 84.8918 81.7668 84.927C81.4605 84.971 81.2564 85.0004 81.1222 85.0209L80.848 85.059L80.5739 85.0825C80.4368 85.0942 80.2297 85.1147 79.9205 85.1412C79.6114 85.1793 79.1972 85.1881 78.643 85.2086C78.3659 85.2262 78.0247 85.2321 77.6455 85.2321C77.2634 85.2379 76.8347 85.2526 76.3884 85.235C76.0209 85.2291 75.6359 85.2203 75.248 85.1998C75.4055 85.1382 75.5689 85.0795 75.7234 85.0091C76.2689 84.7686 76.7997 84.4987 77.278 84.2171C78.2464 83.6569 79.0514 83.0673 79.5822 82.6331C80.6409 81.7619 81.1251 81.2868 81.3759 81.0609L81.6239 80.8291L81.8659 80.5945C82.108 80.3598 82.598 79.8905 83.5168 78.9137C84.4384 77.9369 85.9901 75.9598 86.8651 73.9798C86.9584 73.7745 87.043 73.5691 87.1189 73.3667C87.2239 73.3931 87.2268 73.3932 87.2268 73.3932L87.5418 73.4577C87.6993 73.49 87.9355 73.5369 88.2914 73.6102C88.6443 73.6894 89.1226 73.751 89.7584 73.839C90.0734 73.8859 90.4672 73.9153 90.9047 73.927C91.3422 73.9446 91.8293 73.9534 92.3397 73.9153C92.8501 73.8859 93.3839 73.8478 93.9147 73.7539C94.1801 73.7099 94.4455 73.6659 94.708 73.6219C94.9705 73.5691 95.2272 73.4987 95.4809 73.4371C95.7318 73.3697 95.9739 73.3022 96.213 73.2377C96.4493 73.1614 96.6739 73.0763 96.8897 72.9971C97.1434 72.9003 97.3768 72.8065 97.5955 72.7067C97.7822 73.0294 97.998 73.3521 98.2314 73.6718C98.5376 74.0942 98.8789 74.5049 99.2318 74.9009C99.4155 75.1003 99.5788 75.2822 99.783 75.4817C99.9988 75.687 100.212 75.8865 100.425 76.0771C100.848 76.4614 101.294 76.7753 101.688 77.0686C102.099 77.3355 102.469 77.5673 102.778 77.7462C103.414 78.0747 103.884 78.3299 104.257 78.4825C104.622 78.6438 104.867 78.7523 105.03 78.8227L105.363 78.9489L105.695 79.0721C105.864 79.1278 106.106 79.2393 106.488 79.3507C106.871 79.4651 107.369 79.6382 108.058 79.7937C108.23 79.8318 108.419 79.8758 108.623 79.9227C108.833 79.955 109.055 79.9902 109.294 80.0284C109.767 80.1105 110.298 80.1457 110.852 80.1809C111.409 80.2014 111.989 80.2014 112.57 80.1633C112.858 80.1398 113.147 80.1163 113.436 80.09C113.722 80.0547 114.005 80.0049 114.279 79.9579C114.813 79.8817 115.314 79.7321 115.772 79.6118C115.793 79.6734 115.813 79.7379 115.836 79.7995C115.985 80.175 116.172 80.571 116.396 80.9612C116.501 81.1636 116.618 81.3601 116.741 81.5595C116.854 81.7649 116.98 81.9643 117.105 82.1638C117.347 82.5628 117.601 82.9763 117.852 83.387C118.097 83.7977 118.342 84.2025 118.563 84.6014C118.794 84.9945 118.995 85.3846 119.191 85.7337C119.377 86.0945 119.543 86.4142 119.681 86.6782C119.823 86.9422 119.934 87.1857 120.033 87.3969C120.133 87.6081 120.217 87.7929 120.284 87.9542C120.418 88.2769 120.515 88.491 120.564 88.6348L120.672 88.9222L120.783 89.2097C120.838 89.3534 120.891 89.5529 120.99 89.8667C121.043 90.0193 121.098 90.2041 121.148 90.4358C121.197 90.6646 121.276 90.9198 121.331 91.2307C121.378 91.5417 121.48 91.9142 121.544 92.3513C121.582 92.5713 121.623 92.8001 121.667 93.0406C121.702 93.2841 121.74 93.5393 121.778 93.8003C121.853 94.3254 121.923 94.8827 121.979 95.4518C122.02 95.8449 122.055 96.2379 122.087 96.631C121.921 96.1939 121.731 95.7598 121.527 95.3227C121.296 94.8006 121.008 94.3108 120.742 93.8326C120.483 93.3486 120.173 92.9321 119.911 92.5361C119.651 92.1401 119.377 91.8204 119.156 91.5505C118.721 91.0107 118.356 90.6323 118.082 90.3478C117.811 90.0633 117.63 89.8697 117.505 89.7465L117.248 89.5089L116.988 89.2713C116.857 89.151 116.662 88.9721 116.367 88.7022C116.055 88.4529 115.638 88.1185 115.084 87.6726C114.503 87.2649 113.649 86.687 112.613 86.2235C111.587 85.7454 110.397 85.367 109.259 85.2262C108.693 85.1323 108.136 85.1499 107.626 85.1852C107.369 85.2086 107.124 85.2409 106.894 85.2937C106.661 85.3553 106.442 85.4315 106.241 85.5195C105.433 85.8774 104.902 86.4729 104.782 87.3148C104.66 88.1566 104.969 88.9017 105.494 89.5001C105.625 89.6497 105.771 89.7905 105.928 89.9225C106.083 90.0662 106.246 90.2011 106.421 90.3273C106.766 90.5883 107.159 90.7878 107.547 91.0225C107.935 91.2513 108.361 91.4156 108.758 91.6297C109.157 91.8321 109.577 91.9817 109.951 92.1723C110.327 92.3571 110.712 92.4833 111.03 92.6475C111.356 92.8001 111.654 92.9233 111.905 93.023C112.389 93.2518 112.751 93.4219 113.022 93.551C113.284 93.7006 113.462 93.7974 113.579 93.8649L113.815 93.9969L114.051 94.1289C114.168 94.1963 114.334 94.3137 114.594 94.4809C114.853 94.6451 115.201 94.8681 115.635 95.2084C115.854 95.3755 116.14 95.5633 116.437 95.8097C116.735 96.0531 117.096 96.2937 117.438 96.5987C117.785 96.895 118.176 97.1942 118.534 97.5315C118.905 97.8601 119.284 98.1915 119.631 98.5377C119.853 98.743 120.066 98.9483 120.273 99.1478C119.972 99.1155 119.66 99.0833 119.333 99.051C118.87 99.0041 118.394 98.9689 117.922 98.9102C117.449 98.8633 116.986 98.8193 116.545 98.7606C115.673 98.6579 114.886 98.567 114.34 98.5025C113.801 98.4321 113.395 98.3851 113.095 98.3382C112.794 98.2883 112.596 98.2531 112.462 98.2297L112.196 98.1857L111.931 98.1417C111.8 98.1124 111.601 98.0713 111.307 98.0097C111.012 97.9481 110.618 97.866 110.102 97.7281C109.843 97.6665 109.531 97.5902 109.175 97.5051C108.825 97.4142 108.428 97.3467 108.02 97.2441C107.611 97.1443 107.174 97.0769 106.739 96.9801C106.302 96.8921 105.856 96.8334 105.421 96.766C104.983 96.7102 104.552 96.6838 104.146 96.6721C103.738 96.6633 103.341 96.7102 102.988 96.7777C102.277 96.9243 101.679 97.2881 101.376 97.9363C101.072 98.5846 101.206 99.271 101.658 99.931C101.88 100.268 102.195 100.568 102.56 100.867C102.921 101.169 103.35 101.433 103.811 101.673C104.266 101.926 104.765 102.125 105.266 102.31C105.765 102.504 106.278 102.63 106.768 102.756C107.256 102.885 107.731 102.952 108.157 103.023C108.583 103.096 108.968 103.12 109.283 103.146C109.913 103.196 110.382 103.208 110.735 103.216C111.088 103.225 111.321 103.231 111.479 103.237H111.791C111.791 103.237 111.791 103.234 112.103 103.228C112.258 103.228 112.494 103.222 112.844 103.216C113.194 103.208 113.661 103.175 114.279 103.143C114.897 103.09 115.784 102.996 116.749 102.794C117.233 102.706 117.735 102.583 118.237 102.448C118.738 102.322 119.234 102.16 119.707 101.999C119.718 101.996 119.73 101.99 119.742 101.987C119.444 102.21 119.144 102.436 118.835 102.653C118.444 102.926 118.053 103.184 117.674 103.422C116.921 103.894 116.236 104.281 115.758 104.539C114.807 105.061 114.308 105.261 114.063 105.366L113.818 105.472L113.57 105.569C113.322 105.663 112.826 105.868 111.806 106.156C111.298 106.296 110.572 106.496 109.764 106.719C109.358 106.827 108.936 106.942 108.51 107.056C108.084 107.173 107.652 107.294 107.235 107.429C106.818 107.558 106.413 107.701 106.036 107.863C105.66 108.018 105.31 108.206 105.007 108.411C104.403 108.831 103.971 109.37 103.931 110.092C103.89 110.802 104.286 111.409 105.001 111.826C105.357 112.04 105.791 112.198 106.273 112.316C106.757 112.43 107.291 112.492 107.845 112.506C108.399 112.518 108.973 112.483 109.539 112.406C110.105 112.327 110.665 112.213 111.187 112.069C112.234 111.785 113.144 111.409 113.751 111.098C114.964 110.482 115.53 110.107 115.816 109.928L116.102 109.746L116.382 109.555C116.659 109.365 117.228 108.992 118.254 108.136C118.771 107.71 119.465 107.038 120.147 106.232C120.833 105.425 121.501 104.478 122.02 103.548C122.031 103.524 122.043 103.504 122.055 103.48C122.128 103.706 122.203 103.932 122.282 104.149C122.472 104.668 122.72 105.135 122.93 105.56C123.143 105.985 123.393 106.332 123.583 106.622C123.956 107.209 124.318 107.593 124.554 107.901C124.796 108.206 124.966 108.4 125.091 108.523L125.33 108.772L125.569 109.021C125.695 109.139 125.855 109.344 126.153 109.593C126.447 109.843 126.818 110.201 127.357 110.611C127.631 110.811 127.97 111.048 128.355 111.306C128.748 111.55 129.203 111.782 129.673 112.028C129.833 112.11 130.006 112.181 130.178 112.251C129.854 112.269 129.545 112.289 129.265 112.304C128.938 112.333 128.635 112.324 128.396 112.345C127.914 112.38 127.55 112.383 127.276 112.38C127.001 112.38 126.821 112.38 126.701 112.38C126.459 112.383 126.459 112.377 126.459 112.377L126.217 112.365C126.094 112.36 125.913 112.351 125.642 112.339C125.371 112.333 125.006 112.295 124.525 112.251C124.283 112.23 123.991 112.213 123.665 112.181C123.338 112.148 122.973 112.148 122.597 112.113C122.221 112.081 121.818 112.087 121.422 112.069C121.028 112.049 120.617 112.078 120.232 112.081C119.85 112.087 119.453 112.154 119.106 112.201C118.756 112.257 118.406 112.365 118.103 112.489C117.502 112.735 116.974 113.169 116.729 113.841C116.481 114.513 116.65 115.17 117.152 115.771C117.403 116.073 117.729 116.32 118.111 116.563C118.496 116.815 118.925 116.982 119.386 117.156C119.847 117.334 120.331 117.428 120.818 117.534C121.305 117.637 121.789 117.669 122.253 117.713C122.717 117.757 123.157 117.739 123.557 117.736C123.764 117.736 123.959 117.725 124.14 117.713C124.155 117.804 124.163 117.892 124.181 117.983C124.283 118.467 124.376 118.948 124.519 119.397C124.659 119.845 124.791 120.271 124.942 120.646C125.094 121.022 125.24 121.353 125.365 121.62C125.625 122.154 125.841 122.547 125.992 122.843C126.141 123.14 126.269 123.327 126.339 123.459L126.491 123.717L126.643 123.973C126.716 124.102 126.829 124.292 127.019 124.571C127.211 124.847 127.43 125.234 127.795 125.709C127.973 125.947 128.188 126.24 128.451 126.551C128.725 126.856 129.023 127.196 129.358 127.531C129.708 127.856 130.061 128.205 130.455 128.516C130.58 128.613 130.706 128.713 130.831 128.81C130.647 128.754 130.466 128.698 130.291 128.642C129.889 128.534 129.516 128.396 129.18 128.285C128.842 128.179 128.544 128.082 128.302 127.991C127.815 127.821 127.453 127.704 127.188 127.584C126.923 127.475 126.745 127.402 126.628 127.352L126.392 127.255L126.161 127.144C126.048 127.088 125.876 127.006 125.616 126.88C125.353 126.765 125.024 126.572 124.581 126.325C124.356 126.208 124.091 126.055 123.793 125.882C123.493 125.715 123.151 125.542 122.81 125.334C122.46 125.137 122.084 124.946 121.719 124.732C121.337 124.536 120.955 124.336 120.588 124.143C120.398 124.049 120.208 123.964 120.016 123.885C119.829 123.8 119.648 123.717 119.465 123.65C119.097 123.509 118.724 123.418 118.388 123.351C117.703 123.23 117.044 123.33 116.557 123.788C116.07 124.245 115.965 124.902 116.163 125.668C116.253 126.058 116.449 126.442 116.691 126.844C116.813 127.044 116.948 127.249 117.099 127.452C117.254 127.645 117.423 127.839 117.598 128.032C117.776 128.223 117.957 128.42 118.155 128.601C118.353 128.777 118.561 128.95 118.768 129.121C119.179 129.47 119.625 129.763 120.054 130.033C120.48 130.314 120.908 130.534 121.299 130.728C121.687 130.928 122.04 131.083 122.341 131.192C122.936 131.417 123.376 131.588 123.72 131.684C124.058 131.79 124.286 131.86 124.438 131.907L124.738 132.001L125.044 132.077C125.196 132.116 125.426 132.174 125.771 132.259C126.112 132.353 126.576 132.438 127.194 132.553C127.5 132.617 127.879 132.667 128.308 132.702C128.734 132.743 129.206 132.787 129.708 132.778C130.207 132.784 130.729 132.781 131.251 132.726C131.511 132.702 131.773 132.676 132.03 132.652C132.286 132.62 132.543 132.57 132.791 132.523C133.039 132.473 133.281 132.424 133.514 132.377C133.748 132.318 133.972 132.248 134.185 132.18C134.459 132.092 134.713 132.004 134.943 131.91C135.037 131.89 135.133 131.866 135.238 131.84C135.533 131.764 135.862 131.643 136.224 131.505C136.588 131.37 136.976 131.203 137.373 131.018C138.172 130.658 139.009 130.215 139.753 129.778C140.129 129.564 140.473 129.344 140.783 129.141C141.095 128.942 141.366 128.754 141.579 128.593C142.451 127.956 142.868 127.61 143.084 127.446L143.297 127.278L143.507 127.105C143.714 126.929 144.143 126.598 144.959 125.879C145.166 125.703 145.408 125.474 145.668 125.21C145.931 124.946 146.216 124.65 146.493 124.316C147.056 123.659 147.616 122.884 148.019 122.084C148.223 121.688 148.389 121.283 148.5 120.887C148.611 120.494 148.675 120.112 148.663 119.752C148.649 119.033 148.372 118.42 147.777 118.03C147.179 117.637 146.511 117.616 145.866 117.833C145.548 117.945 145.222 118.106 144.907 118.314C144.595 118.522 144.288 118.772 143.988 119.042C143.396 119.587 142.833 120.224 142.346 120.825C142.107 121.13 141.876 121.418 141.675 121.682C141.48 121.952 141.302 122.192 141.159 122.392C140.599 123.198 140.29 123.585 140.147 123.785L139.998 123.984L139.846 124.178C139.692 124.369 139.397 124.768 138.761 125.527C138.446 125.917 137.994 126.478 137.493 127.1C137.058 127.642 136.583 128.235 136.119 128.801C136.192 128.42 136.262 128 136.335 127.557C136.451 126.783 136.577 125.947 136.688 125.184C136.796 124.427 136.886 123.75 136.941 123.28C137.046 122.339 137.122 121.872 137.151 121.638L137.183 121.403L137.218 121.168C137.256 120.934 137.318 120.467 137.481 119.537C137.638 118.608 137.892 116.871 137.886 115.319C137.878 114.542 137.802 113.812 137.586 113.24C137.568 113.193 137.548 113.149 137.531 113.105C137.688 113.113 137.843 113.125 138 113.131C138.254 113.131 138.511 113.125 138.767 113.122C139.283 113.122 139.791 113.075 140.278 113.028C140.768 112.99 141.226 112.908 141.64 112.835C142.057 112.764 142.425 112.688 142.719 112.603C143.314 112.445 143.763 112.33 144.09 112.216C144.42 112.11 144.641 112.037 144.787 111.99L145.082 111.893L145.371 111.782C145.516 111.726 145.732 111.644 146.059 111.518C146.388 111.4 146.811 111.207 147.383 110.954C147.672 110.834 148.01 110.661 148.381 110.447C148.754 110.239 149.165 110.004 149.571 109.711C149.982 109.426 150.405 109.121 150.796 108.766C150.994 108.593 151.189 108.417 151.379 108.238C151.566 108.053 151.738 107.857 151.907 107.666C152.076 107.473 152.233 107.279 152.382 107.088C152.525 106.889 152.653 106.686 152.77 106.49C153.003 106.094 153.187 105.716 153.275 105.337C153.464 104.595 153.365 103.967 152.898 103.551L152.89 103.639ZM68.7205 80.2366C68.5455 79.9785 68.4318 79.8054 68.353 79.691L68.1984 79.4622L68.0555 79.2246C67.9855 79.1073 67.8776 78.9284 67.7201 78.6614C67.5538 78.4004 67.3643 78.0337 67.1076 77.5497C66.9734 77.3121 66.8218 77.0158 66.6555 76.6814C66.4834 76.35 66.2822 75.9921 66.0955 75.6049C65.8943 75.2235 65.6843 74.8217 65.4743 74.4169C65.3693 74.2145 65.2584 74.015 65.1418 73.8185C65.0309 73.619 64.9288 73.4195 64.8151 73.2259C64.7043 73.0323 64.5876 72.8446 64.4651 72.6657C64.3513 72.4838 64.2405 72.3049 64.1209 72.1406C64.0772 72.079 64.0305 72.0262 63.9838 71.9676C64.0597 71.9734 64.1268 71.9822 64.2055 71.9881C64.4213 72.0027 64.6518 72.0174 64.888 72.0262C65.1214 72.0203 65.3634 72.0174 65.6114 72.0115C65.8593 72.0027 66.113 71.9969 66.3668 71.9763C66.6205 71.95 66.8743 71.9206 67.1309 71.8913C67.6443 71.8414 68.1459 71.7446 68.6272 71.6478C69.1114 71.5598 69.5576 71.4366 69.963 71.3222C70.0564 71.2958 70.1497 71.2694 70.2372 71.2459C70.1147 71.5921 70.0155 71.9323 69.9309 72.2403C69.8172 72.6363 69.7501 73.0001 69.7034 73.2993C69.5926 73.8947 69.5459 74.3435 69.5138 74.6838C69.4789 75.0211 69.4497 75.2441 69.4438 75.3966L69.4293 75.6987L69.4147 76.0009C69.4118 76.1505 69.3913 76.3763 69.3884 76.7137C69.3972 77.0539 69.3884 77.5057 69.4234 78.1041C69.4468 78.4033 69.4818 78.77 69.5313 79.1748C69.5984 79.5796 69.6859 80.0284 69.7822 80.4918C69.9134 80.9523 70.033 81.4363 70.2022 81.9057C70.2839 82.114 70.3597 82.3222 70.4384 82.5246C70.3159 82.3691 70.1964 82.2137 70.0855 82.0729C69.8434 81.7737 69.6364 81.5067 69.473 81.2779C69.1376 80.8321 68.8868 80.5035 68.7176 80.2366H68.7205ZM80.638 73.5574C80.0664 74.3289 79.5734 75.0387 79.2409 75.5374C78.573 76.5318 78.2172 77.007 78.0393 77.2476L77.8614 77.4851L77.6805 77.7198C77.4968 77.9515 77.1468 78.4326 76.3768 79.3126C75.9918 79.7497 75.4434 80.3833 74.8105 81.0491C74.4955 81.3865 74.1543 81.7209 73.8043 82.0494C73.5622 82.2811 73.3113 82.4982 73.0605 82.7094C73.0605 82.6918 73.0605 82.6742 73.0576 82.6537C73.0168 82.243 73.0459 81.8059 73.0284 81.3894C73.0284 80.967 73.0634 80.5475 73.0693 80.1574C73.1043 79.7673 73.1364 79.3947 73.1655 79.0603C73.2122 78.7289 73.2501 78.4326 73.2734 78.195C73.3347 77.714 73.4105 77.359 73.4513 77.0921C73.5039 76.8251 73.5534 76.6491 73.5797 76.5318L73.6351 76.2971L73.6905 76.0625C73.7168 75.9451 73.7751 75.7721 73.8509 75.5139C73.9268 75.2558 74.0288 74.9097 74.2038 74.4609C74.2855 74.235 74.3759 73.9593 74.4984 73.6572C74.6151 73.3521 74.723 73.0089 74.8689 72.6569C75.0001 72.299 75.1314 71.9235 75.2801 71.5481C75.4084 71.1638 75.5514 70.7825 75.6709 70.4011C75.8751 69.747 76.0297 69.1075 76.0793 68.5267C76.1959 68.4475 76.3126 68.3713 76.4409 68.2803C76.7909 68.0369 77.1789 67.7611 77.5522 67.4297C77.8001 67.2214 78.048 66.9955 78.293 66.7579C78.3164 66.8782 78.3426 66.9985 78.3805 67.1246C78.4884 67.5206 78.6926 67.9166 78.9434 68.3331C79.0689 68.5385 79.2089 68.7526 79.3634 68.9609C79.5209 69.1603 79.693 69.3627 79.8709 69.5622C80.0518 69.7588 80.2384 69.9612 80.4368 70.1489C80.638 70.3307 80.848 70.5097 81.0609 70.6827C81.4459 71.0083 81.8572 71.2841 82.2626 71.5363C81.6851 72.1905 81.1368 72.8945 80.6468 73.5574H80.638ZM125.365 62.8214C125.301 62.8947 125.234 62.9651 125.176 63.0443C124.989 63.2849 124.826 63.5489 124.665 63.8451C124.505 64.1414 124.344 64.4641 124.19 64.8073C124.026 65.1505 123.869 65.5142 123.708 65.8809C123.545 66.2534 123.382 66.623 123.227 66.975C122.903 67.6995 122.615 68.3566 122.411 68.8113C122.002 69.7382 121.748 70.1899 121.632 70.4187C121.515 70.6476 121.512 70.6446 121.512 70.6446L121.387 70.8705C121.261 71.0934 121.016 71.5481 120.456 72.4164C120.173 72.8475 119.771 73.4753 119.298 74.1588C119.118 74.4169 118.925 74.6838 118.727 74.9507C118.741 74.7483 118.756 74.5371 118.765 74.3289C118.773 73.9153 118.832 73.4811 118.852 73.0617C118.878 72.6393 118.943 72.2227 118.969 71.8297C119.018 71.4395 119.065 71.067 119.106 70.7326C119.153 70.4011 119.196 70.1049 119.231 69.8614C119.281 69.3774 119.374 69.0137 119.415 68.7438C119.459 68.4739 119.5 68.2921 119.532 68.1747L119.587 67.9342L119.643 67.6966C119.675 67.5763 119.701 67.3974 119.786 67.1305C119.867 66.8635 119.958 66.5086 120.106 66.0393C120.185 65.8046 120.276 65.5201 120.369 65.1945C120.459 64.8718 120.585 64.5139 120.684 64.1326C120.903 63.3729 121.136 62.5281 121.305 61.7038C121.326 61.5806 121.346 61.4633 121.369 61.343C121.576 61.4574 121.798 61.5718 122.037 61.6745C122.559 61.9268 123.146 62.1497 123.77 62.3667C124.283 62.531 124.823 62.6894 125.371 62.8214H125.365ZM110.178 60.3134C110.263 60.1814 110.391 59.9878 110.583 59.6915C110.779 59.4011 111.015 58.9934 111.348 58.4595C111.508 58.1897 111.709 57.867 111.899 57.4769C112.074 57.1278 112.261 56.7406 112.444 56.3299C112.648 56.5881 112.864 56.8579 113.13 57.1102C113.509 57.4857 113.873 57.8934 114.32 58.2366C114.748 58.5915 115.171 58.9436 115.629 59.2222C115.851 59.363 116.07 59.5038 116.283 59.6387C116.496 59.7707 116.723 59.8705 116.93 59.9731C116.959 59.9878 116.988 59.9995 117.018 60.0142C116.787 60.3926 116.554 60.7798 116.373 61.1964C116.172 61.6451 115.968 62.091 115.822 62.5398C115.673 62.9857 115.53 63.4081 115.434 63.8012C115.338 64.1942 115.262 64.5491 115.206 64.8395C115.104 65.4233 115.049 65.8691 114.999 66.1977C114.947 66.5262 114.941 66.755 114.921 66.9017L114.891 67.1979L114.862 67.4942C114.845 67.6409 114.827 67.8638 114.816 68.2011C114.81 68.5385 114.763 68.9814 114.778 69.5798C114.783 69.879 114.786 70.2427 114.818 70.6505C114.862 71.0582 114.906 71.5099 114.982 71.9822C115.075 72.4515 115.157 72.9443 115.294 73.4283C115.437 73.9123 115.559 74.3963 115.752 74.8451C115.761 74.8715 115.772 74.8921 115.781 74.9185C115.658 74.763 115.533 74.6046 115.408 74.4462C115.116 74.1001 114.856 73.7305 114.603 73.3843C114.343 73.0499 114.121 72.7097 113.917 72.4105C113.707 72.1171 113.526 71.8531 113.389 71.6273C113.103 71.1873 112.885 70.8675 112.745 70.6065C112.599 70.3542 112.503 70.1841 112.436 70.0697L112.307 69.8467L112.191 69.615C112.132 69.5006 112.045 69.3246 111.916 69.0635C111.776 68.8083 111.631 68.4475 111.426 67.9782C111.318 67.7465 111.202 67.4561 111.071 67.1334C110.936 66.8107 110.77 66.4646 110.624 66.0862C110.467 65.7137 110.289 65.3294 110.128 64.9305C110.044 64.7339 109.953 64.5374 109.857 64.3467C109.767 64.1531 109.685 63.9566 109.592 63.7689C109.498 63.5782 109.402 63.3934 109.297 63.2145C109.201 63.0326 109.108 62.8595 109.006 62.6923C108.936 62.5779 108.857 62.4723 108.781 62.3667C109.198 61.7771 109.615 61.1875 110.009 60.5745L110.181 60.3134H110.178ZM112.914 76.6814C112.447 76.5406 111.992 76.3822 111.566 76.2297C111.143 76.0625 110.741 75.9275 110.391 75.7662C110.216 75.6958 110.047 75.6283 109.892 75.5638C109.741 75.4963 109.601 75.4318 109.472 75.3761C108.962 75.1649 108.597 74.9654 108.32 74.8305C108.04 74.6985 107.871 74.5782 107.748 74.5166L107.512 74.3817L107.276 74.2467C107.162 74.1734 106.99 74.0619 106.733 73.8947C106.471 73.7393 106.15 73.4811 105.71 73.1702C105.5 73.0001 105.243 72.7947 104.946 72.5806C104.666 72.3401 104.333 72.1083 104.006 71.8326C103.843 71.6947 103.671 71.5569 103.493 71.422C103.292 71.2635 103.088 71.1022 102.886 70.9409C102.568 70.7003 102.239 70.4715 101.906 70.2545C102.049 70.1371 102.189 70.0227 102.323 69.9025C102.714 69.5563 103.108 69.2073 103.464 68.8612C103.814 68.5121 104.143 68.1747 104.435 67.8667C104.733 67.5617 104.972 67.2713 105.173 67.0366C105.246 66.9486 105.313 66.8694 105.383 66.7902C105.517 67.2595 105.689 67.7083 105.867 68.1337C106.054 68.6059 106.281 69.0313 106.488 69.4126C106.693 69.7969 106.891 70.1283 107.072 70.3865C107.428 70.9116 107.69 71.3046 107.912 71.5833C108.128 71.8649 108.271 72.0526 108.367 72.1758L108.559 72.4251L108.763 72.6628C108.866 72.7801 109.02 72.959 109.251 73.2259C109.472 73.4987 109.802 73.8331 110.236 74.279C110.449 74.5078 110.726 74.7659 111.053 75.0417C111.374 75.3204 111.73 75.6283 112.135 75.9129C112.535 76.2062 112.952 76.5083 113.401 76.7723C113.465 76.8105 113.526 76.8486 113.588 76.8867C113.363 76.8193 113.138 76.7518 112.911 76.6873L112.914 76.6814ZM133.433 121.512C133.441 121.761 133.447 122.262 133.497 123.26C133.52 123.758 133.584 124.477 133.692 125.266C133.8 126.058 133.949 126.924 134.136 127.718C134.147 127.774 134.162 127.827 134.176 127.883C134.048 127.68 133.92 127.472 133.783 127.264C133.546 126.924 133.342 126.539 133.112 126.187C132.887 125.832 132.695 125.454 132.488 125.122C132.298 124.776 132.12 124.448 131.957 124.152C131.802 123.855 131.662 123.588 131.548 123.371C131.306 122.949 131.169 122.603 131.044 122.359C130.921 122.113 130.848 121.946 130.805 121.828L130.711 121.602L130.618 121.377C130.574 121.262 130.493 121.101 130.402 120.837C130.312 120.573 130.178 120.233 130.026 119.763C129.953 119.526 129.86 119.241 129.743 118.927C129.629 118.61 129.518 118.25 129.378 117.883C129.268 117.575 129.151 117.255 129.028 116.933C129.066 116.921 129.101 116.912 129.142 116.9C129.702 116.762 130.501 116.481 131.359 116.114C131.788 115.909 132.231 115.704 132.663 115.46C133.094 115.193 133.523 114.958 133.914 114.659C134.01 114.589 134.098 114.516 134.188 114.445C134.188 114.451 134.194 114.454 134.197 114.457C134.156 114.571 134.112 114.686 134.074 114.803C133.821 115.586 133.66 116.449 133.561 117.244C133.462 118.036 133.424 118.757 133.421 119.259C133.409 120.262 133.427 120.764 133.427 121.013V121.262C133.427 121.262 133.43 121.262 133.438 121.512H133.433Z" fill="#41B729" style="fill:#41B729;fill:color(display-p3 0.2549 0.7176 0.1608);fill-opacity:1;"/>
</g>
<defs>
<clipPath id="clip0_13581_122">
<rect width="350" height="132" fill="white" style="fill:white;fill-opacity:1;" transform="translate(0 0.859375)"/>
</clipPath>
</defs>
</svg>
