<svg width="24" height="25" viewBox="0 0 24 25" fill="none" xmlns="http://www.w3.org/2000/svg">
<path fill-rule="evenodd" clip-rule="evenodd" d="M4.5 3.60205C3.67157 3.60205 3 4.27362 3 5.10205V20.1021C3 20.9305 3.67157 21.6021 4.5 21.6021H19.5C20.3284 21.6021 21 20.9305 21 20.1021V5.10205C21 4.27362 20.3284 3.60205 19.5 3.60205H4.5ZM8.52076 7.60477C8.52639 8.56102 7.81061 9.15024 6.96123 9.14602C6.16107 9.1418 5.46357 8.50477 5.46779 7.60618C5.47201 6.76102 6.13998 6.0818 7.00764 6.10149C7.88795 6.12118 8.52639 6.76665 8.52076 7.60477ZM12.2797 10.3638H9.75971H9.7583V18.9237H12.4217V18.724C12.4217 18.3441 12.4214 17.9641 12.4211 17.584C12.4203 16.5702 12.4194 15.5553 12.4246 14.5418C12.426 14.2957 12.4372 14.0398 12.5005 13.8049C12.7381 12.9274 13.5271 12.3607 14.4074 12.5C14.9727 12.5885 15.3467 12.9162 15.5042 13.4492C15.6013 13.7824 15.6449 14.141 15.6491 14.4884C15.6605 15.536 15.6589 16.5836 15.6573 17.6313C15.6567 18.001 15.6561 18.3711 15.6561 18.7409V18.9223H18.328V18.717C18.328 18.265 18.3278 17.8131 18.3275 17.3612C18.327 16.2317 18.3264 15.1022 18.3294 13.9723C18.3308 13.4618 18.276 12.9584 18.1508 12.4648C17.9638 11.7307 17.5771 11.1232 16.9485 10.6845C16.5027 10.3722 16.0133 10.1712 15.4663 10.1487C15.404 10.1461 15.3412 10.1427 15.2781 10.1393C14.9984 10.1241 14.7141 10.1088 14.4467 10.1627C13.6817 10.316 13.0096 10.6662 12.5019 11.2835C12.4429 11.3543 12.3852 11.4262 12.2991 11.5335L12.2797 11.5578V10.3638ZM5.68164 18.9265H8.33242V10.3694H5.68164V18.9265Z" fill="#E6E5D5" style="fill:#E6E5D5;fill:color(display-p3 0.9020 0.8980 0.8353);fill-opacity:1;"/>
</svg>
