<svg width="120" height="120" viewBox="0 0 120 120" fill="none" xmlns="http://www.w3.org/2000/svg">
<path d="M0.446612 66.4494C4.29459 93.1367 29.5987 115.034 56.6131 115.047C83.7147 115.065 108.386 94.4082 116.955 68.7441C121.832 54.1443 121.527 36.4442 111.03 25.171C98.3562 11.5683 59.1261 1.87573 40.5275 4.4012C14.0759 7.99347 -3.02616 42.353 0.446612 66.4494Z" fill="#41B729" style="fill:#41B729;fill:color(display-p3 0.2549 0.7176 0.1608);fill-opacity:1;"/>
<g clip-path="url(#clip0_13649_121)">
<path d="M54.4764 48.2265V51.9921C54.7807 59.3215 65.2218 59.3158 65.5233 51.9921V48.2265C65.5233 47.1042 65.9616 46.0349 66.7282 45.2144C72.3371 39.3705 68.1037 29.5019 59.9997 29.5235C51.9027 29.4939 47.6434 39.3985 53.288 45.2089C54.0543 46.0305 54.4763 47.1022 54.4764 48.2265ZM62.0077 51.9922C61.8971 54.6565 58.1016 54.6545 57.992 51.9922V49.9843H62.0077V51.9922ZM59.9998 33.039C65.0394 33.026 67.6688 39.1642 64.1786 42.7938C64.1751 42.7976 64.1714 42.8013 64.1679 42.8051C63.194 43.8442 62.5283 45.1067 62.2198 46.4687H57.7966C57.4878 45.1022 56.8203 43.8358 55.8432 42.7942C55.8364 42.7869 55.8297 42.7799 55.8228 42.7727C52.3167 39.1682 54.9792 33.0172 59.9998 33.039Z" fill="#FBF4EE" style="fill:#FBF4EE;fill:color(display-p3 0.9843 0.9569 0.9333);fill-opacity:1;"/>
<path d="M45.5772 34.407C46.2634 35.0933 47.3763 35.0937 48.0631 34.407C48.7496 33.7205 48.7496 32.6076 48.0631 31.9211L46.1804 30.0383C45.4941 29.3519 44.381 29.3518 43.6946 30.0383C43.0081 30.7247 43.0081 31.8377 43.6946 32.5242L45.5772 34.407Z" fill="#FBF4EE" style="fill:#FBF4EE;fill:color(display-p3 0.9843 0.9569 0.9333);fill-opacity:1;"/>
<path d="M74.4226 34.4071L76.3054 32.5243C76.9919 31.8378 76.9919 30.7249 76.3054 30.0384C75.619 29.352 74.506 29.3519 73.8195 30.0384L71.9367 31.9212C71.2503 32.6077 71.2503 33.7206 71.9367 34.4071C72.6231 35.0935 73.7362 35.0937 74.4226 34.4071Z" fill="#FBF4EE" style="fill:#FBF4EE;fill:color(display-p3 0.9843 0.9569 0.9333);fill-opacity:1;"/>
<path d="M45.5772 45.1008L43.6945 46.9837C43.0081 47.6702 43.0081 48.7831 43.6945 49.4696C44.3808 50.1558 45.4938 50.1562 46.1804 49.4696L48.0631 47.5867C48.7495 46.9003 48.7495 45.7873 48.0631 45.1008C47.3766 44.4144 46.2638 44.4142 45.5772 45.1008Z" fill="#FBF4EE" style="fill:#FBF4EE;fill:color(display-p3 0.9843 0.9569 0.9333);fill-opacity:1;"/>
<path d="M73.8195 49.4696C74.5057 50.156 75.6187 50.1562 76.3054 49.4696C76.9919 48.7831 76.9919 47.6702 76.3054 46.9837L74.4226 45.1009C73.7364 44.4144 72.6233 44.4145 71.9367 45.1009C71.2503 45.7874 71.2503 46.9003 71.9367 47.5868L73.8195 49.4696Z" fill="#FBF4EE" style="fill:#FBF4EE;fill:color(display-p3 0.9843 0.9569 0.9333);fill-opacity:1;"/>
<path d="M41.4282 41.5117H44.091C46.4232 41.4188 46.4215 38.0881 44.091 37.9961H41.4282C39.096 38.089 39.0977 41.4197 41.4282 41.5117Z" fill="#FBF4EE" style="fill:#FBF4EE;fill:color(display-p3 0.9843 0.9569 0.9333);fill-opacity:1;"/>
<path d="M74.1514 39.7539C74.1514 40.7247 74.9384 41.5117 75.9092 41.5117H78.5718C80.9041 41.4188 80.9023 38.0881 78.5718 37.9961H75.9092C74.9384 37.9961 74.1514 38.7831 74.1514 39.7539Z" fill="#FBF4EE" style="fill:#FBF4EE;fill:color(display-p3 0.9843 0.9569 0.9333);fill-opacity:1;"/>
<path d="M84.0875 74.146C88.6852 69.5666 85.3884 61.5158 78.828 61.5313C72.268 61.5158 68.9707 69.5679 73.5688 74.146C71.8775 75.0524 70.4452 76.3808 69.414 77.9904C68.383 76.3809 66.9505 75.0524 65.2594 74.1462C69.8572 69.5667 66.5603 61.5159 59.9999 61.5314C53.4397 61.5159 50.1425 69.568 54.7406 74.1462C53.0495 75.0525 51.617 76.3809 50.586 77.9904C49.555 76.3809 48.1225 75.0524 46.4313 74.1462C51.0291 69.5667 47.7322 61.5159 41.1718 61.5314C34.6117 61.5159 31.3145 69.568 35.9126 74.1462C32.3968 76.0299 30 79.7401 30 84V87.7656C30 88.7363 30.787 89.5234 31.7578 89.5234H88.2422C89.213 89.5234 90 88.7363 90 87.7656V84C90 79.7401 87.6032 76.0299 84.0875 74.146ZM41.172 65.0468C43.3172 65.0468 45.0626 66.7922 45.0626 68.9374C44.8488 74.0988 37.4943 74.0973 37.2813 68.9374C37.2812 66.7922 39.0266 65.0468 41.172 65.0468ZM48.8282 86.0078H33.5156V84C33.9374 73.8404 48.4102 73.8483 48.8282 84V86.0078ZM60 65.0468C62.1454 65.0468 63.8906 66.7922 63.8906 68.9374C63.6769 74.0988 56.3223 74.0973 56.1094 68.9374C56.1094 66.7922 57.8546 65.0468 60 65.0468ZM67.6562 86.0078H52.3438V84C52.7655 73.8404 67.2383 73.8483 67.6563 84V86.0078H67.6562ZM78.8282 65.0468C80.9734 65.0468 82.7187 66.7922 82.7187 68.9374C82.5049 74.0988 75.1505 74.0973 74.9375 68.9374C74.9375 66.7922 76.6828 65.0468 78.8282 65.0468ZM86.4844 86.0078H71.1718V84C71.5936 73.8405 86.0664 73.8481 86.4844 84V86.0078Z" fill="#FBF4EE" style="fill:#FBF4EE;fill:color(display-p3 0.9843 0.9569 0.9333);fill-opacity:1;"/>
</g>
<defs>
<clipPath id="clip0_13649_121">
<rect width="60" height="60" fill="white" style="fill:white;fill-opacity:1;" transform="translate(30 29.5234)"/>
</clipPath>
</defs>
</svg>
