<svg width="120" height="120" viewBox="0 0 120 120" fill="none" xmlns="http://www.w3.org/2000/svg">
<path d="M0.446612 67.4841C4.29459 96.3229 29.5987 119.986 56.6131 120C83.7147 120.019 108.386 97.6969 116.955 69.9638C121.832 54.1869 121.527 35.0599 111.03 22.8778C98.3562 8.17848 59.1261 -2.29553 40.5275 0.433548C14.0759 4.31542 -3.02616 41.445 0.446612 67.4841Z" fill="#41B729" style="fill:#41B729;fill:color(display-p3 0.2549 0.7176 0.1608);fill-opacity:1;"/>
<g clip-path="url(#clip0_13649_88)">
<path d="M52.8877 59.9161L56.1608 59.2615L58.345 65.3875C58.5946 66.0876 59.2575 66.555 60.0007 66.555C60.7439 66.555 61.4069 66.0876 61.6565 65.3875L63.8406 59.2615L67.114 59.9161C67.6901 60.0313 68.286 59.851 68.7017 59.4354C69.1173 59.0199 69.2977 58.4241 69.1825 57.8478L68.4606 54.2388L71.5228 52.1974C72.0119 51.8713 72.3056 51.3224 72.3056 50.7347C72.3056 50.147 72.0119 49.5981 71.5228 49.2721L68.4606 47.2307L69.1825 43.6217C69.2977 43.0454 69.1173 42.4496 68.7017 42.034C68.2861 41.6185 67.6906 41.4379 67.114 41.5533L63.5049 42.2752L61.4631 39.2127C61.1372 38.7237 60.5884 38.4299 60.0006 38.4299C59.4128 38.4299 58.864 38.7237 58.5381 39.2127L56.4966 42.275L52.8877 41.5531C52.3108 41.4377 51.7156 41.6181 51.2999 42.0338C50.8842 42.4493 50.7039 43.0451 50.8191 43.6215L51.541 47.2305L48.4786 49.2719C47.9896 49.5979 47.6958 50.1468 47.6958 50.7345C47.6958 51.3222 47.9896 51.8711 48.4786 52.1971L51.541 54.2385L50.8191 57.8475C50.7039 58.4239 50.8842 59.0197 51.2999 59.4352C51.7156 59.851 52.311 60.0315 52.8877 59.9161ZM54.4706 49.5027C55.0634 49.1076 55.3589 48.3939 55.2194 47.6954L54.7838 45.5175L56.9616 45.9531C57.6594 46.0932 58.3738 45.7972 58.7688 45.2045L60.0006 43.3567L61.2325 45.2045C61.6275 45.7973 62.3414 46.0932 63.0397 45.9531L65.2178 45.5175L64.7821 47.6954C64.6425 48.3938 64.9381 49.1076 65.5308 49.5027L67.3785 50.7346L65.5307 51.9665C64.9379 52.3616 64.6424 53.0753 64.782 53.7739L65.2177 55.9517L63.0396 55.5161C62.1849 55.3448 61.3322 55.8274 61.0392 56.6494L60.0006 59.5627L58.962 56.6494C58.6694 55.8285 57.8181 55.3445 56.9616 55.5161L54.7838 55.9517L55.2194 53.7739C55.3589 53.0754 55.0634 52.3616 54.4706 51.9665L52.6227 50.7346L54.4706 49.5027Z" fill="#FBF4EE" style="fill:#FBF4EE;fill:color(display-p3 0.9843 0.9569 0.9333);fill-opacity:1;"/>
<path d="M51.2114 78.0245C51.2114 83.687 55.11 87.6487 60.0005 87.6487C64.8468 87.6487 68.7896 83.7059 68.7896 78.8596V72.2622C68.7896 69.7702 69.8261 67.5087 71.5621 66.2125C76.3084 62.6691 79.3364 57.0361 79.3364 50.7346C79.3364 40.0728 70.6623 31.3987 60.0005 31.3987C49.3387 31.3987 40.6646 40.0728 40.6646 50.7346C40.6646 56.8956 43.5888 62.6343 48.5274 66.278C50.2081 67.5182 51.2114 69.5712 51.2114 71.7698V78.0245ZM60.0005 84.1331C57.7595 84.1331 55.9706 82.7504 55.1752 80.6174H56.4849C57.4556 80.6174 58.2427 79.8304 58.2427 78.8596C58.2427 77.8888 57.4556 77.1018 56.4849 77.1018H54.7271V73.5862H65.2739V77.1018H63.5161C62.5453 77.1018 61.7583 77.8888 61.7583 78.8596C61.7583 79.8304 62.5453 80.6163 63.5161 80.6163H64.9716C64.246 82.6621 62.2921 84.1331 60.0005 84.1331ZM50.6146 63.4491C46.5254 60.4321 44.1802 55.7978 44.1802 50.7346C44.1802 42.0113 51.2772 34.9143 60.0005 34.9143C68.7238 34.9143 75.8208 42.0113 75.8208 50.7346C75.8208 55.7624 73.502 60.377 69.4589 63.3954C67.3821 64.9461 65.9696 67.35 65.4724 70.0706H54.5898C54.1614 67.4172 52.7429 65.0197 50.6146 63.4491Z" fill="#FBF4EE" style="fill:#FBF4EE;fill:color(display-p3 0.9843 0.9569 0.9333);fill-opacity:1;"/>
<path d="M36.9541 59.5418L33.7679 61.0275C32.8879 61.4378 32.5073 62.4837 32.9176 63.3635C33.3298 64.2477 34.3779 64.6222 35.2536 64.2138L38.4398 62.7281C39.3197 62.3179 39.7004 61.272 39.2901 60.3921C38.8798 59.5123 37.8337 59.1315 36.9541 59.5418Z" fill="#FBF4EE" style="fill:#FBF4EE;fill:color(display-p3 0.9843 0.9569 0.9333);fill-opacity:1;"/>
<path d="M83.047 41.9274L86.2332 40.4417C87.1132 40.0314 87.4938 38.9855 87.0835 38.1057C86.6732 37.2258 85.6273 36.845 84.7475 37.2554L81.5613 38.7411C80.6814 39.1513 80.3007 40.1972 80.711 41.0771C81.1233 41.9613 82.1714 42.3358 83.047 41.9274Z" fill="#FBF4EE" style="fill:#FBF4EE;fill:color(display-p3 0.9843 0.9569 0.9333);fill-opacity:1;"/>
<path d="M38.4399 38.7411L35.2536 37.2554C34.3737 36.8452 33.3278 37.2258 32.9176 38.1057C32.5073 38.9855 32.8879 40.0314 33.7679 40.4417L36.9541 41.9274C37.8301 42.3358 38.8779 41.9609 39.2901 41.0771C39.7004 40.1972 39.3197 39.1514 38.4399 38.7411Z" fill="#FBF4EE" style="fill:#FBF4EE;fill:color(display-p3 0.9843 0.9569 0.9333);fill-opacity:1;"/>
<path d="M81.5613 62.7282L84.7475 64.2139C85.6234 64.6223 86.6713 64.2474 87.0835 63.3636C87.4938 62.4838 87.1131 61.4379 86.2332 61.0276L83.047 59.5419C82.1671 59.1317 81.1212 59.5122 80.7109 60.3922C80.3008 61.272 80.6814 62.3179 81.5613 62.7282Z" fill="#FBF4EE" style="fill:#FBF4EE;fill:color(display-p3 0.9843 0.9569 0.9333);fill-opacity:1;"/>
<path d="M30.0005 50.7346C30.0005 51.7054 30.7875 52.4924 31.7583 52.4924H35.3911C36.3619 52.4924 37.1489 51.7054 37.1489 50.7346C37.1489 49.7638 36.3619 48.9768 35.3911 48.9768H31.7583C30.7875 48.9768 30.0005 49.7638 30.0005 50.7346Z" fill="#FBF4EE" style="fill:#FBF4EE;fill:color(display-p3 0.9843 0.9569 0.9333);fill-opacity:1;"/>
<path d="M88.2427 48.9768H84.6099C83.6391 48.9768 82.8521 49.7638 82.8521 50.7346C82.8521 51.7054 83.6391 52.4924 84.6099 52.4924H88.2427C89.2135 52.4924 90.0005 51.7054 90.0005 50.7346C90.0005 49.7638 89.2135 48.9768 88.2427 48.9768Z" fill="#FBF4EE" style="fill:#FBF4EE;fill:color(display-p3 0.9843 0.9569 0.9333);fill-opacity:1;"/>
</g>
<defs>
<clipPath id="clip0_13649_88">
<rect width="60" height="60" fill="white" style="fill:white;fill-opacity:1;" transform="translate(30.0005 29.5237)"/>
</clipPath>
</defs>
</svg>
