<svg width="375" height="540" viewBox="0 0 375 540" fill="none" xmlns="http://www.w3.org/2000/svg">
<g clip-path="url(#clip0_13649_266)">
<path d="M285.512 68.1317C284.501 70.5682 283.335 72.7413 282.236 74.607C281.137 76.4728 280.081 78.0752 279.18 79.3264C277.377 81.8506 276.058 83.5408 274.826 85.0334C273.683 86.5041 272.847 87.3163 272.342 87.9309L271.286 89.0943L270.209 90.2137C269.131 91.3332 266.977 93.5721 262.359 97.5232C261.172 98.467 259.765 99.6743 258.05 100.86C256.379 102.089 254.444 103.362 252.355 104.613C250.244 105.842 248.001 107.072 245.649 108.169C244.505 108.74 243.318 109.267 242.087 109.75C240.877 110.232 239.712 110.737 238.481 111.11C236.084 111.966 233.643 112.493 231.423 112.888C229.114 113.152 227.047 113.305 225.222 112.998C223.463 112.845 221.99 112.23 221.066 111.571C220.121 110.913 219.703 110.123 219.769 109.245C219.835 108.367 220.363 107.576 221.132 106.918C221.924 106.237 222.957 105.755 224.189 105.052C225.398 104.459 226.805 103.735 228.388 102.945C229.927 102.045 231.576 101.167 233.247 100.004C234.105 99.4987 234.919 98.8402 235.754 98.2256C236.59 97.6329 237.425 96.9744 238.239 96.272C239.888 94.955 241.405 93.4404 242.856 92.0575C244.285 90.6308 245.649 89.2479 246.814 87.9748C248.001 86.7236 248.991 85.5164 249.87 84.5944C253.212 80.7751 254.576 78.7118 255.279 77.702L255.983 76.6923C255.983 76.6923 255.983 76.6923 256.62 75.6826C256.928 75.1777 257.478 74.4095 258.072 73.29C258.643 72.2584 259.633 70.4804 260.688 68.2414C261.766 66.0025 263.239 62.8417 264.558 59.5052C265.899 56.1688 266.999 52.6787 267.9 49.4081C268.846 46.1155 269.637 42.9327 270.89 40.1231C272.188 37.3573 273.969 34.9428 277.025 34.0428C278.52 33.6038 279.993 33.6916 281.423 34.2843C282.852 34.8769 284.215 35.9964 285.358 37.5988C286.568 39.1792 287.491 41.2645 288.173 43.6571C288.832 46.0497 289.228 48.7935 289.184 51.647C289.206 54.5005 288.788 57.4199 288.173 60.2515C287.491 63.0392 286.612 65.7611 285.556 68.1536L285.512 68.1317Z" fill="white" style="fill:white;fill-opacity:1;"/>
<path d="M0.0456007 261.886C0.485354 256.047 3.51964 252.404 7.82923 251.504C10.006 251.021 12.1388 251.174 14.0957 251.657C16.0306 252.14 17.9216 252.908 19.6806 253.808C21.4836 254.708 23.1327 255.762 24.8917 256.881C26.5847 258.023 28.3438 259.252 30.1467 260.569C33.7307 263.203 37.7545 266.122 41.7562 268.757C43.7131 270.095 45.714 271.281 47.495 272.422C49.386 273.476 51.0131 274.551 52.3983 275.342C53.8055 276.132 55.0148 276.834 56.0922 277.449C57.1916 277.998 58.1591 278.481 58.9726 278.898C60.5997 279.754 61.743 280.193 62.4906 280.544L63.9858 281.202C63.9858 281.202 63.9858 281.202 65.503 281.861C66.2725 282.146 67.4379 282.585 69.1749 283.244C70.0324 283.595 71.0878 283.88 72.2971 284.297C73.5065 284.671 74.8917 285.175 76.5188 285.571C78.1239 285.988 80.1027 286.602 82.3455 287.107C84.5882 287.722 87.1168 288.205 89.7993 288.797C92.4818 289.258 95.3622 289.851 98.2646 290.18C101.189 290.641 104.157 290.839 107.06 291.102C108.995 291.212 110.886 291.321 112.71 291.387C111.545 290.992 110.38 290.553 109.192 290.07C106.554 289.104 103.937 287.897 101.321 286.668C98.6604 285.483 96.1757 284.056 93.7791 282.717C91.3385 281.4 89.1617 279.973 87.2048 278.678C85.2259 277.383 83.4889 276.198 82.1476 275.1C79.4431 272.971 77.3323 271.413 75.8811 270.095C74.408 268.822 73.4185 267.966 72.7589 267.396L71.4396 266.254C71.4396 266.254 71.4176 266.276 70.1424 265.069C69.5047 264.454 68.5592 263.554 67.13 262.193C66.4264 261.513 65.5909 260.701 64.6014 259.779C63.678 258.791 62.6225 257.672 61.3912 256.377C60.1819 255.081 58.6867 253.523 57.2356 251.547C55.7844 249.594 54.0693 247.487 52.5962 245.028C51.145 242.548 49.4959 240.045 48.2866 237.236C47.0553 234.426 45.78 231.66 45.0544 228.719C44.2628 225.822 43.6252 223.034 43.5592 220.268C43.4713 217.524 43.4713 215.11 44.1749 212.849C45.4062 208.415 47.9787 205.496 51.9145 204.662C55.8503 203.827 59.5223 205.188 62.5566 207.537C63.9858 208.722 65.6788 210.127 67.0201 211.73C68.3173 213.354 69.8345 215.088 71.1098 216.976C72.3191 218.885 73.7923 220.795 75.0016 222.793C76.167 224.812 77.5962 226.722 78.6956 228.675C79.8169 230.607 81.0702 232.385 82.0377 234.075C82.9831 235.787 83.9946 237.214 84.7202 238.465C85.4677 239.716 86.1274 240.792 86.6991 241.758C87.3367 242.68 87.8644 243.47 88.3261 244.15C89.2496 245.511 89.8653 246.433 90.283 247.048C91.1186 248.277 91.1406 248.255 91.1406 248.255L92.0201 249.44C92.4598 250.033 93.1414 250.911 94.1309 252.25C95.0984 253.611 96.5935 255.279 98.4844 257.584C99.4079 258.747 100.617 260.13 101.98 261.667C103.322 263.225 104.773 265.025 106.444 266.803C108.071 268.603 109.742 270.578 111.567 272.4C113.348 274.288 115.129 276.22 116.954 277.976C118.669 279.71 120.318 281.4 121.901 282.871C121.813 281.949 121.725 281.027 121.637 280.127C121.264 277.317 120.978 274.551 120.472 271.961C120.076 269.349 119.527 266.913 119.109 264.718C118.625 262.545 118.185 260.591 117.834 259.011C116.998 255.85 116.426 253.501 115.833 251.789C115.283 250.055 114.953 248.891 114.645 248.145L114.096 246.631L113.546 245.116C113.304 244.348 112.82 243.228 112.117 241.582C111.457 239.892 110.424 237.719 109.039 234.843C108.291 233.438 107.433 231.682 106.466 229.729C105.433 227.819 104.399 225.646 103.168 223.429C101.981 221.19 100.727 218.841 99.4739 216.471C98.1327 214.144 96.9673 211.795 95.5601 209.096C92.9436 203.871 91.0307 198.691 90.5469 194.279C90.349 192.567 90.393 190.987 90.6788 189.56C89.4915 187.409 88.3261 185.279 87.2268 183.216C85.7976 180.56 84.5443 177.948 83.4229 175.621C82.2795 173.295 81.3341 171.165 80.6085 169.431C77.5742 162.451 76.2769 158.851 75.5293 157.073L74.8257 155.295L74.1661 153.495C73.8363 152.595 73.3306 151.234 72.583 149.215C71.7914 147.196 70.9119 144.452 69.6586 140.786C69.021 138.964 68.3613 136.681 67.6797 134.135C66.9761 131.589 66.2725 128.713 65.7228 125.662C65.1072 122.633 64.5795 119.406 64.2936 116.136C64.1177 114.512 63.9858 112.865 63.8759 111.241C63.8319 109.595 63.8099 107.97 63.8099 106.368C63.8099 104.766 63.8758 103.207 64.0078 101.693C64.1617 100.156 64.3596 98.6854 64.6234 97.2806C65.1291 94.449 65.8108 91.9027 66.8442 89.7516C68.8451 85.4274 71.7474 82.8153 75.4853 82.7495C79.2233 82.6836 82.3235 85.142 84.6322 88.9175C85.7536 90.8052 86.853 93.0222 87.7765 95.4806C88.2382 96.7099 88.656 97.983 89.0298 99.3C89.4475 100.617 89.8653 101.978 90.2171 103.361C90.5909 104.744 90.9207 106.17 91.2285 107.597C91.5803 109.024 91.9101 110.451 92.218 111.899C92.7897 114.775 93.3393 117.65 93.867 120.394C94.3508 123.138 94.8125 125.772 95.2303 128.121C95.6041 130.513 95.9559 132.621 96.2197 134.377C96.7914 137.867 97.1432 140.523 97.539 142.476C97.9128 144.452 98.1546 145.769 98.3086 146.647L98.6384 148.403L98.9902 150.159C99.4079 151.915 100.002 155.427 101.717 162.451C102.508 166.007 103.674 171.1 104.927 176.763C105.586 179.77 106.268 182.931 106.972 186.092C107.345 186.333 107.719 186.596 108.071 186.86C108.379 184.95 108.643 183.019 108.973 181.219C109.346 178.716 109.72 176.346 110.05 174.195C110.38 172.043 110.688 170.134 110.929 168.553C112.007 162.297 112.293 159.071 112.557 157.512L112.754 155.932L112.93 154.329C113.106 152.727 113.524 149.566 114.118 143.135C114.755 136.725 116.207 124.697 118.977 114.248C121.462 104.853 125.353 96.8635 130.674 95.8099C129.861 95.2831 128.981 94.6904 127.97 93.9441C126.739 93.0661 125.331 92.0783 123.792 90.8052C120.648 88.3907 116.36 84.4396 112.337 79.2593C108.313 74.123 104.707 67.6915 102.728 61.2381C100.705 54.8067 100.353 48.5069 101.475 43.8974C102.574 39.2658 105.081 36.3026 108.533 35.7099C110.292 35.4026 112.007 35.7099 113.612 36.4123C115.239 37.1147 116.734 38.2561 118.251 39.617C119.703 40.9999 121.198 42.6023 122.605 44.3583C123.353 45.2144 124.034 46.1363 124.738 47.0582C125.485 47.9582 126.167 48.924 126.871 49.8679C128.256 51.7336 129.707 53.6653 131.158 55.5969C132.609 57.4846 134.039 59.3723 135.468 61.1503C136.875 62.9502 138.304 64.5965 139.557 66.155C140.877 67.6915 142.064 69.0524 143.032 70.1719C143.977 71.3353 144.9 72.2791 145.714 73.1352C146.506 73.9913 147.209 74.7156 147.825 75.3302C149.056 76.5375 149.892 77.3936 150.463 77.8765L151.585 78.9081L152.706 79.9618C153.278 80.4886 154.091 81.1032 155.367 82.1348C155.982 82.6616 156.73 83.2543 157.719 83.9128C158.687 84.5713 159.742 85.4054 161.061 86.2176C162.425 87.0078 163.942 88.1712 165.855 89.2687C166.8 89.8614 167.79 90.476 168.823 91.1125C169.9 91.7271 171 92.3637 172.143 93.0222C174.43 94.3392 176.893 95.7001 179.421 96.9952C181.95 98.3122 184.522 99.6073 187.051 100.837C187.315 100.968 187.557 101.078 187.798 101.188C186.501 99.7829 185.204 98.3561 183.951 96.8855C182.06 94.7343 180.279 92.5393 178.608 90.4101C176.893 88.3029 175.397 86.2176 174.034 84.3299C172.671 82.4421 171.506 80.73 170.604 79.3032C166.91 73.5962 165.239 70.6329 164.338 69.1841L163.458 67.7135L162.623 66.2428C161.809 64.7502 160.028 61.8308 156.84 55.7944C156.026 54.3018 155.103 52.436 154.135 50.2849C153.168 48.1557 152.134 45.7851 151.189 43.2389C150.243 40.6926 149.298 37.9927 148.55 35.227C147.759 32.4612 147.099 29.6516 146.681 26.8859C146.22 24.1201 145.978 21.4422 146 18.8959C146 16.3717 146.242 14.0449 146.835 11.9816C147.957 7.87688 150.221 4.97943 153.783 4.12337C157.345 3.26731 160.71 4.71603 163.634 7.54762C165.085 8.95244 166.514 10.6865 167.812 12.662C169.087 14.6376 170.318 16.8326 171.484 19.1374C172.605 21.4422 173.704 23.8787 174.716 26.2932C175.683 28.7297 176.651 31.1442 177.508 33.4929C178.344 35.8416 179.135 38.0586 179.839 40.078C180.499 42.1194 181.092 43.9193 181.598 45.4119C183.467 51.4044 184.588 54.3457 185.072 55.8603L185.578 57.3529L186.127 58.8236C186.699 60.2943 187.71 63.2795 190.129 69.1183C191.294 72.0816 192.988 76.34 194.856 81.0593C196.725 85.8005 198.836 91.0467 200.837 95.9416C201.145 96.7318 201.453 97.5001 201.761 98.2683C202.31 96.4465 202.86 94.5368 203.388 92.5393C204.091 90.2126 204.685 87.7541 205.257 85.3396C205.916 82.969 206.312 80.5544 206.818 78.3155C207.367 76.0985 207.587 73.9254 207.961 72.0596C208.357 70.1719 208.511 68.4817 208.731 67.1208C209.214 64.399 209.39 62.3576 209.5 60.8211C209.632 59.2845 209.742 58.2748 209.786 57.6163V56.2554C209.786 56.2554 209.808 56.2554 209.852 54.8945C209.852 54.214 209.896 53.2043 209.94 51.7117C209.874 50.2191 209.786 48.1996 209.654 45.5436C209.324 42.8876 209.192 39.1122 208.841 34.9197C208.577 30.7272 208.247 26.1176 208.291 21.6178C208.423 19.3569 208.379 17.1619 208.731 15.0327C208.885 13.9791 209.104 12.9255 209.368 11.9157C209.588 10.906 209.874 9.94021 210.226 9.01829C211.633 5.30869 214.206 2.21369 218.207 0.80887C222.209 -0.595951 226.079 0.347913 229.531 3.11365C230.389 3.79411 231.246 4.58433 232.06 5.48429C232.829 6.38425 233.555 7.39397 234.236 8.46953C235.6 10.6426 236.985 13.0791 237.886 15.8009C238.81 18.5008 239.799 21.3324 240.239 24.2738C240.723 27.1932 241.251 30.1126 241.294 32.9661C241.382 35.7977 241.536 38.4756 241.294 40.9121C241.119 43.3486 240.899 45.4997 240.679 47.2558C240.019 50.7459 239.513 53.358 239.14 55.3115C238.634 57.2432 238.304 58.5163 238.084 59.3723L237.645 61.0845L237.183 62.7746C236.941 63.6088 236.501 64.8599 235.886 66.7257C235.27 68.5915 234.456 71.0719 233.093 74.2547C232.433 75.857 231.642 77.8106 230.499 79.874C229.377 81.9373 228.256 84.286 226.717 86.5469C225.243 88.8297 223.748 91.2442 221.967 93.4832C220.252 95.744 218.515 97.983 216.668 99.9805C214.865 102.022 213.084 103.91 211.303 105.49C209.544 107.114 207.961 108.541 206.422 109.595C206.334 109.661 206.224 109.726 206.136 109.792C207.104 112.821 207.411 114.973 206.444 115.697C205.389 116.487 203.19 115.324 200.156 113.019C199.716 112.69 199.254 112.317 198.792 111.943C194.922 112.251 189.843 112.404 184.324 112.207C181.356 112.097 178.256 111.943 175.156 111.614C172.055 111.329 168.977 110.89 166.031 110.363C164.557 110.078 163.128 109.792 161.743 109.529C160.358 109.178 159.039 108.848 157.763 108.541C155.235 107.926 153.014 107.092 151.189 106.5C149.364 105.863 147.781 105.139 146.374 104.59C144.988 104.041 143.779 103.471 142.746 102.944C140.833 101.978 139.47 101.319 138.59 100.837C140.591 104.722 141.624 110.495 141.91 116.772C142.174 122.26 141.91 128.143 141.404 133.477C140.899 138.833 140.129 143.64 139.469 146.954C138.15 153.605 137.359 156.942 136.985 158.61L136.611 160.278L136.215 161.946C135.754 163.614 135.094 166.929 133.247 173.58C132.785 175.248 132.258 177.246 131.466 179.506C131.092 180.56 130.718 181.658 130.323 182.799C130.894 182.36 131.466 181.899 132.038 181.482C133.775 180.253 135.314 178.936 136.743 177.838C138.194 176.763 139.448 175.797 140.459 174.963C142.526 173.382 144.087 172.241 145.186 171.253C146.308 170.331 147.055 169.695 147.539 169.3L148.528 168.487L149.474 167.609C149.958 167.17 150.661 166.512 151.717 165.546C152.816 164.602 154.157 163.219 155.96 161.419C156.884 160.541 157.983 159.444 159.236 158.237C160.512 157.073 161.941 155.756 163.436 154.395C164.953 153.034 166.624 151.695 168.273 150.247C169.109 149.544 169.988 148.864 170.868 148.205C171.747 147.525 172.583 146.822 173.462 146.186C174.342 145.527 175.243 144.913 176.167 144.32C177.046 143.706 177.904 143.113 178.805 142.586C180.564 141.51 182.411 140.611 184.061 139.886C187.447 138.481 190.701 138.064 193.427 139.535C196.154 141.006 197.385 144.013 197.539 148.074C197.649 150.115 197.319 152.31 196.791 154.681C196.528 155.866 196.198 157.073 195.802 158.302C195.362 159.51 194.878 160.717 194.351 161.946C193.801 163.175 193.251 164.427 192.592 165.634C191.932 166.819 191.207 168.005 190.481 169.168C189.052 171.517 187.381 173.668 185.71 175.665C184.083 177.685 182.323 179.419 180.718 180.955C179.135 182.514 177.618 183.787 176.299 184.753C173.704 186.706 171.769 188.177 170.23 189.143C168.713 190.152 167.702 190.811 167.02 191.25L165.657 192.128L164.25 192.94C163.546 193.335 162.513 193.95 160.929 194.85C159.368 195.772 157.192 196.847 154.333 198.274C152.904 198.998 151.101 199.767 149.034 200.535C146.967 201.325 144.681 202.137 142.196 202.774C139.711 203.454 137.139 204.135 134.456 204.552C133.137 204.771 131.796 204.991 130.477 205.21C129.157 205.386 127.816 205.474 126.519 205.583C125.903 205.627 125.331 205.649 124.716 205.693C125.749 207.318 126.717 208.964 127.552 210.61C129.091 213.376 130.257 216.142 131.334 218.6C132.345 221.102 133.115 223.385 133.753 225.251C134.874 229.048 135.688 231.88 136.149 234.053C136.677 236.204 137.007 237.631 137.183 238.597L137.557 240.528L137.93 242.46C138.128 243.404 138.326 244.875 138.634 247.048C138.986 249.221 139.272 252.14 139.623 256.003C139.843 259.889 140.019 265.508 139.382 271.654C138.964 276.264 138.194 281.158 137.073 285.834C137.535 285.197 138.018 284.539 138.458 283.814C139.03 282.893 139.623 281.949 140.217 280.983C141.47 279.139 142.526 277.054 143.625 275.056C144.791 273.125 145.604 270.974 146.55 269.108C147.539 267.264 148.111 265.266 148.836 263.642C149.562 262.018 150.024 260.481 150.485 259.252C150.925 258.045 151.321 256.969 151.651 256.047C151.915 255.081 152.156 254.269 152.354 253.567C152.75 252.184 153.014 251.24 153.19 250.626C153.366 250.011 153.388 249.682 153.432 249.528V249.374C153.432 249.374 153.454 249.374 153.718 248.101C153.849 247.465 154.047 246.543 154.333 245.116C154.641 243.711 154.773 241.78 155.125 239.277C155.345 238.026 155.345 236.468 155.564 234.777C155.674 233.921 155.784 233.021 155.894 232.099C155.938 231.156 156.026 230.19 156.114 229.202C156.202 228.214 156.334 227.205 156.466 226.173C156.532 225.141 156.598 224.088 156.708 223.056C156.818 222.002 156.972 220.949 157.126 219.895C157.214 218.841 157.323 217.81 157.477 216.778C157.631 215.746 157.851 214.715 158.049 213.705C158.203 212.717 158.401 211.73 158.643 210.764C159.148 208.854 159.852 207.032 160.6 205.408C162.183 202.181 164.711 199.525 168.383 198.581C172.055 197.637 175.441 198.954 178.344 202.028C179.861 203.542 181.004 205.518 182.038 207.8C182.543 208.942 183.027 210.149 183.467 211.4C183.863 212.673 184.148 213.99 184.434 215.351C184.72 216.712 184.94 218.095 185.16 219.522C185.314 220.927 185.358 222.354 185.402 223.78C185.446 225.207 185.468 226.634 185.446 228.039C185.336 229.443 185.226 230.826 185.072 232.165C184.918 233.504 184.742 234.821 184.588 236.072C184.346 237.324 184.083 238.509 183.819 239.65C183.269 241.911 182.851 243.931 182.236 245.511C181.07 248.694 180.323 251.108 179.531 252.821C178.761 254.555 178.256 255.696 177.904 256.464L177.222 258.001L177.134 258.198C177.024 258.374 176.915 258.791 176.497 259.515C176.101 260.262 175.507 261.359 174.628 263.027C174.188 263.862 173.66 264.805 173.045 265.947C172.517 266.781 171.923 267.725 171.264 268.735C171.352 268.778 171.44 268.822 171.528 268.888C173.089 269.832 174.606 271.127 176.013 272.73C177.442 274.31 178.915 276.11 180.147 278.129C181.4 280.149 182.675 282.256 183.687 284.495C184.698 286.734 185.732 288.951 186.457 291.168C187.205 293.385 187.908 295.492 188.392 297.446C188.876 299.399 189.25 301.155 189.535 302.604C190.041 305.523 190.327 307.74 190.569 309.365C190.833 311.011 190.877 312.13 190.965 312.855L191.097 314.325L191.229 315.796C191.316 316.52 191.404 317.64 191.47 319.308C191.492 320.976 191.734 323.193 191.668 326.179C191.646 327.671 191.624 329.471 191.47 331.513C191.25 333.554 191.031 335.793 190.657 338.142C190.195 340.49 189.777 342.927 189.096 345.341C188.37 347.756 187.754 350.148 186.809 352.387C186.765 352.519 186.699 352.629 186.655 352.738C187.271 351.948 187.886 351.18 188.524 350.39C189.975 348.656 191.294 346.812 192.548 345.1C193.845 343.432 194.966 341.741 195.978 340.249C197.033 338.778 197.935 337.461 198.616 336.364C200.046 334.169 201.145 332.566 201.849 331.271C202.574 329.998 203.058 329.164 203.388 328.615L204.047 327.496L204.619 326.332C204.905 325.762 205.345 324.884 206.004 323.588C206.708 322.315 207.433 320.537 208.467 318.189C209.017 317.025 209.588 315.599 210.248 313.974C210.929 312.372 211.743 310.638 212.469 308.75C213.26 306.884 214.162 304.975 214.953 302.999C215.371 302.011 215.833 301.045 216.316 300.08C216.756 299.114 217.174 298.148 217.636 297.204C218.097 296.26 218.603 295.338 219.109 294.46C219.593 293.56 220.054 292.682 220.582 291.848C220.934 291.278 221.33 290.751 221.703 290.224C219.615 287.283 217.504 284.363 215.547 281.312L214.689 280.017C214.272 279.359 213.612 278.393 212.667 276.922C211.677 275.473 210.49 273.454 208.841 270.776C208.027 269.437 207.016 267.835 206.07 265.881C205.103 263.949 204.047 261.798 203.036 259.515C202.024 257.211 201.123 254.664 200.265 252.14C199.386 249.638 198.77 246.894 198.243 244.304C197.715 241.736 197.429 239.102 197.451 236.643C197.473 234.185 197.737 231.946 198.44 229.882C199.76 225.8 201.893 223.21 204.905 222.551C207.917 221.915 211.083 223.275 214.052 225.514C215.459 226.634 217.064 228.039 218.427 229.619C219.131 230.409 219.769 231.265 220.384 232.143C221.022 233.021 221.725 233.943 222.363 234.909C223.682 236.819 224.782 238.816 226.057 240.836C227.288 242.855 228.344 244.918 229.421 246.872C230.521 248.826 231.488 250.735 232.345 252.447C233.203 254.182 233.951 255.74 234.566 257.013C235.776 259.581 236.633 261.535 237.359 262.984C238.084 264.432 238.568 265.376 238.876 266.013L239.513 267.286C241.382 271.171 243.537 274.925 245.538 278.766C247.693 282.519 249.738 286.361 252.024 290.07L252.772 291.3C253.52 292.551 254.971 295.031 258.071 299.926C258.511 300.65 259.017 301.463 259.544 302.341C259.368 300.848 259.214 299.399 259.105 298.038C258.885 295.646 258.709 293.495 258.643 291.739C258.291 284.692 258.269 281.137 258.203 279.38L258.159 277.603V275.825C258.159 274.047 258.049 270.491 258.225 263.357C258.225 261.579 258.379 259.406 258.577 256.969C258.753 254.533 259.039 251.833 259.5 249.023C259.896 246.192 260.446 243.25 261.149 240.331C261.809 237.389 262.667 234.492 263.678 231.748C264.645 228.983 265.811 226.392 267.086 224.088C268.361 221.783 269.747 219.763 271.308 218.161C274.386 214.956 277.86 213.442 281.466 214.429C285.072 215.417 287.381 218.446 288.568 222.529C289.14 224.571 289.535 226.875 289.689 229.334C289.843 231.792 289.799 234.426 289.689 237.126C289.535 239.826 289.25 242.592 288.942 245.336C288.59 248.079 288.194 250.779 287.798 253.369C287.359 255.938 286.919 258.396 286.545 260.613C286.105 262.83 285.71 264.784 285.402 266.408C284.017 272.883 283.511 276.176 283.203 277.8L282.895 279.446L282.631 281.093C282.389 282.739 281.774 286.01 280.872 292.66C280.63 294.329 280.323 296.348 279.993 298.631C279.641 300.914 279.245 303.46 278.805 306.138C278.278 309.277 277.728 312.613 277.2 315.928C279.157 313.008 281.136 310.023 282.983 307.257C284.302 305.326 285.534 303.482 286.677 301.814C287.82 300.167 288.832 298.719 289.667 297.511C293.053 292.77 294.571 290.29 295.384 289.105L296.176 287.897L296.945 286.668C297.693 285.417 299.32 283.024 302.222 277.998C303.696 275.517 305.85 271.961 308.335 268.076C310.842 264.213 313.7 259.998 316.624 256.201C319.593 252.425 322.649 249.045 325.749 246.916C328.805 244.787 331.972 243.909 334.83 245.182C337.688 246.455 339.096 249.374 339.382 253.282C339.557 255.235 339.36 257.408 338.964 259.713C338.59 262.04 337.93 264.476 337.095 266.935C336.303 269.415 335.27 271.917 334.148 274.354C333.071 276.812 331.818 279.161 330.586 281.378C329.377 283.617 328.08 285.636 326.893 287.458C325.727 289.28 324.606 290.882 323.638 292.134C319.856 297.248 317.812 299.663 316.844 300.936L315.855 302.187L314.843 303.394C313.81 304.601 311.853 307.104 307.631 311.801C306.598 313.008 305.257 314.391 303.718 315.928C302.178 317.464 300.485 319.155 298.572 320.823C296.703 322.513 294.703 324.269 292.592 325.915C291.47 326.815 290.349 327.693 289.206 328.549C291.119 328 293.053 327.364 294.944 326.749C297.143 326.091 299.298 325.323 301.321 324.642C303.366 324.027 305.257 323.281 306.95 322.688C308.665 322.14 310.182 321.635 311.391 321.152C313.854 320.318 315.701 319.725 317.042 319.133C318.405 318.606 319.307 318.255 319.9 318.035L321.11 317.574L322.297 317.047C322.891 316.784 323.77 316.389 325.09 315.818C326.431 315.291 328.146 314.391 330.433 313.25C331.598 312.723 332.983 312.021 334.544 311.274C336.127 310.572 337.908 309.804 339.755 308.97C341.624 308.157 343.647 307.433 345.67 306.599C346.681 306.204 347.737 305.831 348.792 305.501C349.826 305.128 350.859 304.755 351.915 304.426C352.97 304.097 354.025 303.789 355.081 303.526C356.114 303.219 357.126 302.933 358.137 302.714C360.16 302.253 362.183 302.011 363.986 301.836C367.636 301.594 370.868 302.231 372.979 304.514C375.09 306.796 375.287 310.023 374.144 313.93C373.594 315.906 372.583 317.881 371.33 319.945C370.692 320.976 370.01 322.03 369.241 323.062C368.449 324.049 367.592 325.059 366.69 326.047C365.789 327.035 364.843 328.044 363.854 328.966C362.842 329.866 361.787 330.766 360.732 331.622C358.621 333.4 356.356 334.893 354.135 336.232C351.937 337.637 349.716 338.712 347.715 339.656C345.714 340.622 343.867 341.368 342.306 341.851C339.228 342.883 336.919 343.651 335.138 344.068C333.379 344.529 332.214 344.836 331.422 345.034L329.861 345.429L328.278 345.758C327.486 345.912 326.299 346.153 324.518 346.527C322.759 346.922 320.34 347.229 317.152 347.668C315.569 347.909 313.612 348.041 311.391 348.107C309.192 348.195 306.752 348.239 304.179 348.041C301.607 347.887 298.946 347.712 296.286 347.251C294.966 347.031 293.625 346.812 292.306 346.592C290.987 346.329 289.689 345.978 288.436 345.67C287.183 345.341 285.951 344.99 284.764 344.683C283.577 344.31 282.455 343.871 281.378 343.475C280.103 342.993 278.937 342.51 277.838 342.027C276.893 343.629 275.837 345.231 274.65 346.834C273.111 348.941 271.396 350.982 269.637 352.958C268.713 353.946 267.9 354.846 266.866 355.855C265.789 356.865 264.711 357.875 263.634 358.819C261.501 360.728 259.258 362.287 257.302 363.758C255.235 365.097 253.388 366.238 251.827 367.138C248.638 368.784 246.286 370.057 244.417 370.804C242.592 371.616 241.36 372.143 240.547 372.494L238.876 373.13L237.205 373.745C236.369 374.03 235.138 374.579 233.225 375.128C231.312 375.699 228.805 376.555 225.353 377.323C224.496 377.52 223.55 377.74 222.517 377.981C221.462 378.157 220.34 378.333 219.153 378.508C216.778 378.903 214.118 379.101 211.347 379.254C208.555 379.342 205.63 379.364 202.728 379.167C201.277 379.057 199.826 378.925 198.396 378.815C196.967 378.64 195.538 378.398 194.175 378.157C191.514 377.762 188.986 377.038 186.699 376.423C186.589 376.73 186.501 377.038 186.369 377.367C185.622 379.233 184.676 381.208 183.555 383.162C183.027 384.171 182.433 385.137 181.84 386.125C181.268 387.157 180.63 388.144 180.015 389.132C178.783 391.108 177.53 393.171 176.255 395.234C175.024 397.276 173.792 399.295 172.671 401.271C171.528 403.224 170.494 405.178 169.527 406.912C168.581 408.712 167.768 410.314 167.086 411.609C166.36 412.926 165.811 414.134 165.327 415.187C164.821 416.241 164.404 417.163 164.074 417.953C163.414 419.555 162.908 420.631 162.667 421.333L162.117 422.76L161.567 424.187C161.281 424.911 161.039 425.899 160.534 427.457C160.27 428.226 160.006 429.148 159.742 430.289C159.478 431.43 159.105 432.704 158.819 434.24C158.577 435.799 158.071 437.642 157.741 439.815C157.543 440.913 157.345 442.054 157.126 443.24C156.95 444.447 156.752 445.72 156.576 447.015C156.202 449.627 155.85 452.415 155.564 455.247C155.367 457.178 155.213 459.11 155.059 461.041C155.872 458.89 156.818 456.739 157.829 454.61C158.973 451.998 160.424 449.561 161.765 447.191C163.062 444.798 164.623 442.713 165.921 440.737C167.218 438.762 168.603 437.159 169.703 435.842C171.879 433.143 173.704 431.277 175.09 429.85C176.453 428.445 177.354 427.457 177.992 426.865L179.289 425.679L180.586 424.494C181.246 423.901 182.214 423.002 183.687 421.663C185.248 420.411 187.337 418.765 190.107 416.548C193.01 414.529 197.297 411.631 202.508 409.348C207.653 406.978 213.612 405.09 219.329 404.388C222.165 403.927 224.958 404.014 227.53 404.19C228.805 404.3 230.037 404.475 231.202 404.717C232.367 405.024 233.467 405.397 234.478 405.836C238.524 407.614 241.185 410.578 241.8 414.77C242.416 418.963 240.855 422.672 238.238 425.636C237.579 426.382 236.853 427.084 236.061 427.743C235.292 428.445 234.456 429.126 233.599 429.762C231.862 431.057 229.905 432.045 227.948 433.208C225.991 434.35 223.858 435.162 221.879 436.216C219.878 437.225 217.768 437.972 215.899 438.915C214.008 439.837 212.095 440.452 210.49 441.286C208.863 442.054 207.367 442.669 206.114 443.152C203.696 444.293 201.871 445.149 200.507 445.786C199.188 446.532 198.309 447.015 197.715 447.344L196.528 448.003L195.34 448.661C194.747 449.013 193.911 449.583 192.614 450.417C191.316 451.252 189.579 452.349 187.381 454.039C186.281 454.873 184.852 455.795 183.357 457.025C181.862 458.232 180.059 459.439 178.344 460.954C176.607 462.424 174.65 463.917 172.847 465.607C171 467.231 169.087 468.9 167.35 470.612C166.229 471.643 165.173 472.653 164.118 473.641C165.635 473.487 167.196 473.334 168.823 473.158C171.154 472.938 173.528 472.741 175.903 472.456C178.256 472.214 180.608 471.995 182.807 471.709C187.183 471.204 191.119 470.743 193.867 470.436C196.572 470.085 198.594 469.865 200.112 469.624C201.607 469.361 202.618 469.207 203.278 469.097L204.619 468.878L205.96 468.658C206.62 468.526 207.609 468.307 209.105 468C210.578 467.692 212.557 467.297 215.151 466.595C216.448 466.288 218.032 465.914 219.791 465.475C221.55 465.014 223.528 464.685 225.573 464.18C227.618 463.675 229.817 463.346 231.994 462.863C234.192 462.424 236.435 462.139 238.59 461.788C240.767 461.502 242.944 461.371 244.988 461.305C247.033 461.261 249.034 461.502 250.793 461.832C254.355 462.578 257.367 464.378 258.885 467.605C260.402 470.831 259.742 474.234 257.455 477.526C256.334 479.216 254.773 480.687 252.948 482.18C251.123 483.694 248.99 484.989 246.681 486.196C244.395 487.448 241.888 488.435 239.382 489.357C236.875 490.323 234.302 490.938 231.862 491.574C229.421 492.211 227.024 492.54 224.892 492.913C222.759 493.286 220.824 493.396 219.263 493.528C216.119 493.791 213.744 493.835 211.985 493.879C210.226 493.923 209.039 493.967 208.247 493.967H206.686C206.686 493.967 206.686 493.967 205.125 493.923C204.333 493.923 203.168 493.901 201.409 493.879C199.65 493.835 197.319 493.682 194.219 493.506C191.119 493.243 186.677 492.782 181.818 491.772C179.399 491.333 176.871 490.718 174.364 490.038C171.857 489.423 169.373 488.611 166.998 487.799C166.932 487.799 166.888 487.755 166.822 487.733C168.317 488.852 169.834 489.972 171.374 491.048C173.331 492.408 175.309 493.703 177.178 494.867C180.96 497.216 184.39 499.147 186.787 500.42C191.558 503.01 194.043 503.998 195.274 504.547L196.506 505.074L197.759 505.557C199.012 506.018 201.497 507.049 206.598 508.476C209.126 509.178 212.798 510.166 216.844 511.286C218.867 511.834 221 512.405 223.133 512.976C225.265 513.569 227.442 514.161 229.531 514.82C231.62 515.456 233.665 516.181 235.556 516.971C237.447 517.739 239.184 518.683 240.701 519.693C243.735 521.778 245.89 524.478 246.088 528.056C246.286 531.59 244.307 534.597 240.723 536.682C238.942 537.758 236.765 538.526 234.346 539.119C231.928 539.689 229.245 539.997 226.475 540.063C223.704 540.106 220.824 539.953 217.966 539.558C215.129 539.163 212.337 538.592 209.698 537.89C204.443 536.485 199.892 534.597 196.857 533.06C190.767 529.987 187.93 528.122 186.501 527.222L185.072 526.322L183.665 525.378C182.28 524.412 179.421 522.568 174.276 518.31C171.703 516.203 168.207 512.866 164.777 508.827C161.347 504.81 157.983 500.091 155.389 495.481C152.772 490.872 150.859 486.372 149.914 482.904C149.518 481.455 149.276 480.226 149.21 479.194C147.451 475.66 145.318 470.809 143.361 465.366C142.372 462.556 141.36 459.637 140.525 456.629C139.645 453.644 138.92 450.637 138.326 447.696C138.04 446.225 137.776 444.798 137.513 443.393C137.315 441.989 137.139 440.628 136.963 439.354C136.611 436.786 136.545 434.416 136.435 432.484C136.347 430.552 136.435 428.818 136.435 427.326C136.435 425.833 136.523 424.516 136.633 423.353C136.831 421.07 136.941 419.489 137.095 418.502L137.403 416.57L137.71 414.638C137.842 413.651 138.15 412.246 138.59 410.095C138.788 409.019 139.074 407.768 139.448 406.319C139.799 404.849 140.217 403.18 140.811 401.293C141.91 397.473 143.999 392.03 147.319 386.41C150.617 380.791 155.279 375.04 160.534 370.848C162.425 369.311 164.404 367.972 166.36 366.875C163.04 364.921 159.808 362.682 156.95 360.421C153.19 357.458 150.09 354.495 148.023 352.343C143.933 347.997 142.064 345.671 141.119 344.529L140.173 343.366L139.25 342.202C138.348 341.017 136.435 338.712 133.027 333.708C131.356 331.183 129.047 327.452 127.068 322.93C125.09 318.408 123.375 313.118 122.759 307.806C122.495 305.655 122.451 303.504 122.605 301.463C122.605 301.067 122.605 300.672 122.605 300.255C121.154 301.111 119.527 301.989 117.702 302.78C115.085 304.031 112.139 305.15 109.017 306.226C105.872 307.214 102.574 308.245 99.1881 308.948C95.8239 309.76 92.4159 310.243 89.1397 310.704C85.8635 311.055 82.7193 311.34 79.8829 311.384C77.0245 311.516 74.4959 311.384 72.4071 311.296C70.3183 311.23 68.4933 311.011 66.8882 310.857C65.2831 310.682 63.8978 310.594 62.7325 310.374C60.3798 310.023 58.8187 309.782 57.7853 309.628C55.6964 309.255 55.7184 309.233 55.7184 309.233L53.6296 308.816C52.5962 308.596 51.0131 308.311 48.7044 307.674C47.539 307.367 46.1758 307.016 44.5926 306.599C43.0315 306.094 41.2285 305.545 39.1837 304.887C37.1388 304.228 34.7202 303.197 31.9717 302.055C29.2453 300.76 26.2329 299.267 23.1986 297.314C17.152 293.517 10.8636 288.161 6.37807 281.685C1.82661 275.32 -0.592046 267.769 -0.130305 262.018L0.0456007 261.886ZM201.123 361.343C203.454 360.641 205.74 359.85 207.873 359.082C210.006 358.248 212.007 357.568 213.766 356.777C214.645 356.426 215.481 356.075 216.272 355.768C217.042 355.416 217.746 355.109 218.383 354.824C220.956 353.77 222.759 352.782 224.166 352.102C225.573 351.443 226.431 350.851 227.024 350.543L228.212 349.863L229.399 349.183C229.971 348.809 230.828 348.261 232.126 347.427C233.445 346.658 235.05 345.363 237.249 343.827C238.304 342.971 239.601 341.961 241.075 340.885C242.482 339.678 244.153 338.537 245.78 337.154C246.616 336.473 247.473 335.793 248.353 335.112C249.364 334.322 250.375 333.51 251.409 332.72C253.014 331.513 254.663 330.393 256.312 329.317C255.608 328.747 254.883 328.176 254.223 327.561C252.266 325.827 250.287 324.093 248.506 322.381C246.747 320.647 245.098 318.957 243.625 317.42C242.13 315.906 240.921 314.457 239.931 313.294C239.557 312.855 239.228 312.46 238.876 312.065C238.216 314.391 237.337 316.63 236.435 318.759C235.512 321.108 234.368 323.237 233.313 325.125C232.302 327.035 231.312 328.681 230.389 329.976C228.608 332.588 227.288 334.542 226.167 335.925C225.09 337.329 224.364 338.251 223.88 338.888L222.913 340.117L221.879 341.302C221.374 341.895 220.604 342.773 219.439 344.112C218.317 345.473 216.668 347.141 214.491 349.358C213.436 350.5 212.029 351.773 210.402 353.156C208.797 354.538 207.016 356.075 204.971 357.502C202.97 358.972 200.881 360.465 198.616 361.782C198.309 361.98 197.979 362.155 197.671 362.353C198.792 362.023 199.936 361.694 201.057 361.343H201.123ZM158.643 332.412C159.28 333.532 160.49 335.793 163.304 340.117C164.733 342.268 166.734 345.385 169.109 348.787C170.01 350.082 170.978 351.4 171.967 352.717C171.901 351.707 171.813 350.653 171.769 349.622C171.725 347.558 171.44 345.407 171.33 343.322C171.198 341.237 170.89 339.151 170.736 337.198C170.494 335.244 170.252 333.4 170.054 331.732C169.813 330.086 169.593 328.593 169.417 327.386C169.175 324.971 168.691 323.171 168.493 321.832C168.273 320.493 168.053 319.594 167.922 319.001L167.636 317.816L167.35 316.63C167.196 316.038 167.042 315.138 166.646 313.821C166.25 312.504 165.789 310.726 165.041 308.399C164.645 307.235 164.184 305.809 163.722 304.206C163.26 302.604 162.645 300.826 162.139 298.916C161.039 295.141 159.874 290.926 159.039 286.822C158.863 285.812 158.687 284.824 158.511 283.858C157.873 284.451 157.192 285.044 156.488 285.592C154.333 287.348 152.222 289.105 149.914 290.509C148.792 291.212 147.693 291.914 146.637 292.595C145.582 293.253 144.439 293.736 143.405 294.263C142.548 294.658 141.734 295.053 140.943 295.404C141.36 296.063 141.778 296.765 142.174 297.511C142.988 298.982 143.779 300.585 144.571 302.297C145.384 304.009 146.176 305.809 146.989 307.653C147.803 309.496 148.616 311.34 149.408 313.096C151.035 316.718 152.486 319.967 153.498 322.228C155.543 326.837 156.818 329.098 157.389 330.239C157.983 331.381 158.005 331.359 158.005 331.359L158.621 332.478L158.643 332.412Z" fill="white" style="fill:white;fill-opacity:1;"/>
<path d="M78.364 370.545C79.6832 367.209 82.0579 364.838 85.532 364.07C89.028 363.28 92.2162 364.355 94.8547 366.484C96.152 367.56 97.4053 368.877 98.5267 370.392C99.6261 371.906 100.638 373.596 101.583 375.396C103.408 378.974 104.947 382.925 106.2 386.591C106.794 388.435 107.388 390.169 107.849 391.771C108.311 393.374 108.707 394.8 109.037 395.986C110.268 400.727 111.038 403.076 111.367 404.261L111.719 405.446L112.093 406.61C112.489 407.773 113.17 410.144 114.842 414.797C115.633 417.168 116.798 420.57 118.074 424.345C119.349 428.165 120.756 432.379 122.141 436.33C123.461 440.303 124.78 443.991 125.55 446.823C126.319 449.654 126.561 451.674 125.637 452.354C124.714 453.035 122.889 452.157 120.426 450.4C119.173 449.522 117.832 448.403 116.381 447.13C114.908 445.857 113.368 444.408 111.829 442.85C108.707 439.755 105.541 436.243 102.814 432.906C101.429 431.26 100.198 429.614 99.0764 428.143C97.955 426.672 97.0095 425.311 96.2839 424.192C93.2936 419.692 91.9524 417.365 91.2048 416.224L90.5012 415.06L89.8196 413.897C89.1599 412.712 87.7088 410.429 85.1142 405.644C84.4546 404.458 83.707 402.966 82.9374 401.276C82.1678 399.585 81.3323 397.698 80.6287 395.656C79.1335 391.596 77.8363 387.008 77.3526 382.574C77.0887 380.357 77.0007 378.206 77.1766 376.164C77.3306 374.123 77.7044 372.257 78.386 370.589L78.364 370.545Z" fill="white" style="fill:white;fill-opacity:1;"/>
</g>
<defs>
<clipPath id="clip0_13649_266">
<rect width="375" height="540" fill="white" style="fill:white;fill-opacity:1;" transform="matrix(-1 0 0 1 375 0)"/>
</clipPath>
</defs>
</svg>
