<svg width="116" height="33" viewBox="0 0 116 33" fill="none" xmlns="http://www.w3.org/2000/svg">
<g clip-path="url(#clip0_13581_114)">
<path d="M29.795 5.26251C32.1405 2.46545 35.6588 0.6875 39.591 0.6875H48.3647V7.0875H39.591C37.6249 7.0875 35.8658 7.97491 34.693 9.37344L18.983 28.1125C16.6375 30.9095 13.1224 32.6844 9.18707 32.6844H0.41333V26.2875H9.18707C11.1532 26.2875 12.9092 25.4001 14.0851 24.0016L29.795 5.26251Z" fill="#D9F1D4" style="fill:#D9F1D4;fill:color(display-p3 0.8510 0.9451 0.8314);fill-opacity:1;"/>
<path d="M61.4726 0.6875H54.759V32.6875H61.4726V0.6875Z" fill="#D9F1D4" style="fill:#D9F1D4;fill:color(display-p3 0.8510 0.9451 0.8314);fill-opacity:1;"/>
<path d="M86.4362 5.26251L91.8422 11.7127L97.2481 5.26251C99.5936 2.46545 103.112 0.6875 107.044 0.6875H115.815V7.0875H107.044C105.078 7.0875 103.319 7.97491 102.146 9.37344L96.0127 16.6859L102.146 23.9984C103.319 25.397 105.075 26.2844 107.044 26.2844H115.815V32.6844H107.044C103.112 32.6844 99.5936 30.9095 97.2481 28.1125L91.8422 21.6655L86.4362 28.1125C84.0907 30.9095 80.5724 32.6844 76.6402 32.6844H67.8665V26.2875H76.6402C78.6063 26.2875 80.3623 25.4001 81.5351 24.0016L87.6654 16.6891L81.5351 9.37344C80.3623 7.97491 78.6032 7.0875 76.6402 7.0875H67.8665V0.6875H76.6402C80.5692 0.6875 84.0907 2.46545 86.4362 5.26251Z" fill="#D9F1D4" style="fill:#D9F1D4;fill:color(display-p3 0.8510 0.9451 0.8314);fill-opacity:1;"/>
</g>
<defs>
<clipPath id="clip0_13581_114">
<rect width="115.401" height="32" fill="white" style="fill:white;fill-opacity:1;" transform="translate(0.41333 0.6875)"/>
</clipPath>
</defs>
</svg>
