<svg width="185" height="30" viewBox="0 0 185 30" fill="none" xmlns="http://www.w3.org/2000/svg">
<g clip-path="url(#clip0_13581_103)">
<path d="M125.212 18.944L128.444 9.05469H129.45L132.574 18.944H125.212ZM126.947 17.6258H130.748L128.88 11.6596L126.947 17.6258Z" fill="#D9F1D4" style="fill:#D9F1D4;fill:color(display-p3 0.8510 0.9451 0.8314);fill-opacity:1;"/>
<path d="M175.269 11.0687C171.836 10.2047 170.507 9.77775 170.507 9.04704C170.507 8.26444 171.68 8.12356 172.396 8.14392C173.872 8.1876 175.259 8.57479 175.259 9.80632C175.259 10.1623 175.269 11.0687 175.269 11.0687ZM172.82 27.9107C167.793 27.9107 163.286 25.8122 162.289 20.9902C161.631 25.6983 157.606 27.3462 152.76 27.3462H134.676L132.834 23.1459H124.841L122.963 27.3121H100.097V2.60205H106.544V21.7232H118.401L125.597 2.54031H132.146L140.873 25.6382V2.47889H152.447C156.709 2.41026 161.388 3.63719 161.388 8.78037C161.388 10.9899 160.071 12.7833 158.13 13.7502C160.566 14.4533 162.14 16.317 162.362 18.7505H168.524C168.662 21.7249 170.315 22.6759 173.052 22.6759C174.993 22.6759 177.152 21.9659 177.152 20.1367C177.152 17.963 173.618 17.5485 170.048 16.5479C166.513 15.5472 162.805 14.096 162.805 9.5738C162.805 4.1899 168.246 1.61978 172.889 1.61978C177.81 1.61978 182.801 3.93768 182.801 10.0224H176.356C176.46 7.77972 174.345 7.05492 172.369 7.05492C170.984 7.05492 169.252 7.53801 169.252 9.15968C169.252 11.0582 172.819 11.4037 176.425 12.4047C179.994 13.405 183.598 15.0621 183.598 19.5137C183.598 25.7603 178.261 27.9107 172.82 27.9107ZM169.029 17.4897C171.821 18.1022 175.953 18.7892 175.953 20.1646C175.953 21.4507 173.565 21.9298 171.718 21.4648C170.592 21.1814 170.056 20.5206 169.85 19.9459C169.615 19.2884 169.686 17.6099 169.686 17.6099L163.262 17.5997C163.083 16.0188 161.481 14.3048 160.46 13.6244C160.97 13.0286 161.733 12.5929 161.989 11.5718C161.989 14.4658 165.91 16.8053 169.029 17.4897ZM176.547 11.3167H184.183C184.183 7.39646 183.402 0.546875 172.791 0.546875C166.435 0.546875 163.543 4.02536 162.312 6.21945C161.159 4.02504 160.479 1.14917 151.681 1.14917H139.595V18.2615L133.275 1.14622H124.819L117.333 20.67H107.96V1.14917H98.6566L98.6399 28.5515H123.904L125.532 24.5101H132.172L133.733 28.5462L154.179 28.5564C157.827 28.4917 161.295 26.872 162.331 24.3252C163.312 26.8723 166.673 29.1183 173.313 29.1183C179.952 29.1183 184.883 25.3607 184.883 20.049C184.883 14.6467 180.913 12.208 176.419 11.3199L176.547 11.3167Z" fill="#D9F1D4" style="fill:#D9F1D4;fill:color(display-p3 0.8510 0.9451 0.8314);fill-opacity:1;"/>
<path d="M24.5391 7.29579H16.3384V28.5408H9.17682V7.29579H0.97583V1.16016H24.5391V7.29579Z" fill="#D9F1D4" style="fill:#D9F1D4;fill:color(display-p3 0.8510 0.9451 0.8314);fill-opacity:1;"/>
<path d="M23.7668 1.16016H30.9278V11.1306H40.3613V1.16016H47.5228V28.5408H40.3613V17.2656H30.9278V28.5408H23.7668V1.16016Z" fill="#D9F1D4" style="fill:#D9F1D4;fill:color(display-p3 0.8510 0.9451 0.8314);fill-opacity:1;"/>
<path d="M61.036 22.9807C65.657 22.9807 67.4272 18.9153 67.4272 14.851C67.4272 10.7863 65.657 6.72157 61.036 6.72157C56.4153 6.72157 54.6449 10.7863 54.6449 14.851C54.6449 18.9153 56.4153 22.9807 61.036 22.9807ZM61.036 0.585938C69.6994 0.585938 74.6331 6.8907 74.6331 14.895C74.6331 23.0093 69.6997 29.1153 61.036 29.1153C52.3733 29.1153 47.4836 22.7879 47.4836 14.8506C47.4836 6.91336 52.3733 0.585938 61.036 0.585938Z" fill="#D9F1D4" style="fill:#D9F1D4;fill:color(display-p3 0.8510 0.9451 0.8314);fill-opacity:1;"/>
<path d="M81.7816 13.0589H87.7882C89.9442 13.0589 91.0989 11.9095 91.0989 9.83887C91.0989 7.80668 89.4828 6.88583 87.4802 6.88583H81.7816V13.0589ZM74.6201 1.17188H88.6355C93.4864 1.17188 98.2611 3.35775 98.2611 8.87926C98.2611 11.8323 96.8358 14.6316 93.9481 15.743V15.8198C96.8756 16.5108 97.7229 19.7702 97.9537 22.3778C98.0293 23.5279 98.1455 27.5551 99.1084 28.5525H92.0234C91.4082 27.6313 91.2923 24.9472 91.2151 24.1807C91.0227 21.4188 90.561 18.5811 87.2119 18.5811H81.782V28.5522H74.5793V1.17188" fill="#D9F1D4" style="fill:#D9F1D4;fill:color(display-p3 0.8510 0.9451 0.8314);fill-opacity:1;"/>
<path d="M146.773 7.20703H152.51C154.065 7.20703 155.539 7.95055 155.539 10.2215C155.539 12.4487 153.786 13.1919 152.51 13.1919H146.773V7.20703ZM148.029 8.52V11.9742H152.033C152.924 11.9742 154.146 11.5453 154.146 10.2596C154.146 8.94923 153.118 8.52 152.033 8.52H148.029Z" fill="#D9F1D4" style="fill:#D9F1D4;fill:color(display-p3 0.8510 0.9451 0.8314);fill-opacity:1;"/>
<path d="M146.773 16.0547H153.145C154.872 16.0547 156.508 16.9108 156.508 19.5279C156.508 22.0954 154.562 22.9519 153.145 22.9519H146.773V16.0547ZM147.995 17.3388V21.7769H152.78C153.844 21.7769 155.305 21.2264 155.305 19.5742C155.305 17.8905 154.077 17.3388 152.78 17.3388H147.995Z" fill="#D9F1D4" style="fill:#D9F1D4;fill:color(display-p3 0.8510 0.9451 0.8314);fill-opacity:1;"/>
</g>
<defs>
<clipPath id="clip0_13581_103">
<rect width="183.908" height="28.5714" fill="white" style="fill:white;fill-opacity:1;" transform="translate(0.97583 0.546875)"/>
</clipPath>
</defs>
</svg>
